<svg width="37" height="30" viewBox="0 0 37 30" fill="none" xmlns="http://www.w3.org/2000/svg">
<path opacity="0.88" d="M10.6461 10.9147C9.46411 9.73276 8.06395 9.15088 6.39104 9.15088C4.71812 9.15088 3.29978 9.73276 2.09965 10.9147C0.917699 12.0967 0.335815 13.515 0.335815 15.1879C0.335815 16.8608 0.935882 18.2792 2.09965 19.4611C3.2816 20.6431 4.69994 21.225 6.37285 21.225C8.04577 21.225 9.46411 20.6249 10.6461 19.4611C11.7553 18.3519 12.3372 17.0427 12.4099 15.5152C12.4099 15.4061 12.4099 15.297 12.4099 15.1879C12.4099 15.1334 12.4099 15.0788 12.4099 15.0243C12.3735 13.4241 11.7916 12.0603 10.6461 10.9147ZM8.13669 16.8972C7.66391 17.37 7.06384 17.6064 6.39104 17.6064C5.71824 17.6064 5.17272 17.37 4.69994 16.8972C4.22716 16.4244 3.99077 15.8607 3.99077 15.1879C3.99077 14.5151 4.22716 13.9514 4.69994 13.4786C5.15454 13.0059 5.73642 12.7695 6.40922 12.7695C7.08202 12.7695 7.64572 13.0059 8.13669 13.4786C8.60947 13.9514 8.84586 14.5151 8.84586 15.1879C8.84586 15.8607 8.60947 16.4244 8.13669 16.8972Z" fill="black"/>
<path opacity="0.88" d="M22.7935 10.9147C21.6116 9.73276 20.2114 9.15088 18.5385 9.15088C16.8656 9.15088 15.4291 9.73276 14.2471 10.9147C13.0652 12.0967 12.4833 13.515 12.4833 15.1879C12.4833 16.8608 13.0652 18.2792 14.2471 19.4611C15.4291 20.6431 16.8656 21.225 18.5385 21.225C20.2114 21.225 21.6116 20.6249 22.7935 19.4611C23.9027 18.3519 24.4846 17.0427 24.5574 15.5152C24.5574 15.4061 24.5574 15.297 24.5574 15.1879C24.5574 15.1334 24.5574 15.0788 24.5574 15.0243C24.521 13.4241 23.9391 12.0603 22.7935 10.9147ZM20.266 16.8972C19.7932 17.37 19.2113 17.6064 18.5385 17.6064C17.8657 17.6064 17.302 17.37 16.8292 16.8972C16.3564 16.4244 16.12 15.8607 16.12 15.1879C16.12 14.5151 16.3564 13.9514 16.8292 13.4786C17.302 13.0059 17.8657 12.7695 18.5385 12.7695C19.2113 12.7695 19.7932 13.0059 20.266 13.4786C20.7387 13.9514 20.9751 14.5151 20.9751 15.1879C20.9751 15.8607 20.7387 16.4244 20.266 16.8972Z" fill="black"/>
<path opacity="0.88" d="M34.9406 10.9147C33.7587 9.73276 32.3403 9.15088 30.6856 9.15088C29.0309 9.15088 27.5762 9.73276 26.3942 10.9147C25.2123 12.0967 24.6304 13.515 24.6304 15.1879C24.6304 16.8608 25.2123 18.2792 26.3942 19.4611C27.5762 20.6431 29.0127 21.225 30.6856 21.225C32.3585 21.225 33.7769 20.6249 34.9406 19.4611C36.0498 18.3519 36.6317 17.0427 36.7044 15.5152C36.7044 15.4061 36.7044 15.297 36.7044 15.1879C36.7044 15.1334 36.7044 15.0788 36.7044 15.0243C36.6681 13.4241 36.0862 12.0603 34.9406 10.9147ZM32.4131 16.8972C31.9403 17.37 31.3584 17.6064 30.6674 17.6064C29.9946 17.6064 29.4491 17.37 28.9763 16.8972C28.5035 16.4244 28.2671 15.8607 28.2671 15.1879C28.2671 14.5151 28.5035 13.9514 28.9763 13.4786C29.4491 13.0059 29.9946 12.7876 30.6674 12.7876C31.3402 12.7876 31.9221 13.0059 32.4131 13.4786C32.904 13.9514 33.1222 14.5151 33.1222 15.1879C33.1222 15.8607 32.8858 16.4244 32.4131 16.8972Z" fill="black"/>
<path opacity="0.88" d="M10.6462 2.47672C9.46423 1.29477 8.04589 0.712891 6.37298 0.712891C4.70006 0.712891 3.28172 1.29477 2.09977 2.47672C0.917821 3.65867 0.335938 5.07701 0.335938 6.74993C0.335938 8.42284 0.936005 9.84118 2.09977 11.0231C3.28172 12.2051 4.70006 12.7688 6.37298 12.7688C8.04589 12.7688 9.46423 12.2051 10.6462 11.0231C11.7554 9.91392 12.3373 8.5865 12.41 7.07724C12.41 6.96813 12.41 6.85903 12.41 6.74993C12.41 6.69538 12.41 6.64083 12.41 6.58627C12.3736 4.98609 11.7918 3.62231 10.6462 2.47672ZM8.11862 8.45921C7.64584 8.93199 7.04578 9.16838 6.37298 9.16838C5.70017 9.16838 5.15466 8.93199 4.68188 8.45921C4.2091 7.98643 3.97271 7.42273 3.97271 6.74993C3.97271 6.07713 4.2091 5.51343 4.68188 5.04065C5.15466 4.56787 5.71836 4.33148 6.37298 4.33148C7.04578 4.33148 7.64584 4.56787 8.11862 5.04065C8.5914 5.51343 8.8278 6.07713 8.8278 6.74993C8.8278 7.42273 8.5914 7.98643 8.11862 8.45921Z" fill="black"/>
<path opacity="0.88" d="M22.7935 2.47672C21.6116 1.29477 20.2114 0.712891 18.5385 0.712891C16.8656 0.712891 15.4291 1.29477 14.2471 2.47672C13.0652 3.65867 12.4833 5.07701 12.4833 6.74993C12.4833 8.42284 13.0652 9.84118 14.2471 11.0231C15.4291 12.2051 16.8656 12.7688 18.5385 12.7688C20.2114 12.7688 21.6116 12.2051 22.7935 11.0231C23.9027 9.91392 24.4846 8.5865 24.5574 7.07724C24.5574 6.96813 24.5574 6.85903 24.5574 6.74993C24.5574 6.69538 24.5574 6.64083 24.5574 6.58627C24.521 4.98609 23.9391 3.62231 22.7935 2.47672ZM20.266 8.45921C19.7932 8.93199 19.2113 9.16838 18.5385 9.16838C17.8657 9.16838 17.302 8.93199 16.8292 8.45921C16.3564 7.98643 16.12 7.42273 16.12 6.74993C16.12 6.07713 16.3564 5.51343 16.8292 5.04065C17.302 4.56787 17.8657 4.33148 18.5385 4.33148C19.2113 4.33148 19.7932 4.56787 20.266 5.04065C20.7387 5.51343 20.9751 6.07713 20.9751 6.74993C20.9751 7.42273 20.7387 7.98643 20.266 8.45921Z" fill="black"/>
<path opacity="0.88" d="M34.9406 2.47672C33.7587 1.29477 32.3403 0.712891 30.6856 0.712891C29.0309 0.712891 27.5943 1.29477 26.3942 2.47672C25.1941 3.65867 24.6304 5.07701 24.6304 6.74993C24.6304 8.42284 25.2123 9.84118 26.3942 11.0231C27.5762 12.2051 29.0127 12.787 30.6856 12.787C32.3585 12.787 33.7769 12.1869 34.9406 11.0231C36.0498 9.91392 36.6317 8.5865 36.7044 7.07724C36.7044 6.94995 36.7044 6.85903 36.7044 6.74993C36.7044 6.69538 36.7044 6.64083 36.7044 6.58627C36.6681 4.9861 36.0862 3.62231 34.9406 2.47672ZM32.4131 8.45921C31.9403 8.93199 31.3584 9.16838 30.6674 9.16838C29.9946 9.16838 29.4491 8.93199 28.9763 8.45921C28.5035 7.98643 28.2671 7.42273 28.2671 6.74993C28.2671 6.07713 28.5035 5.51343 28.9763 5.04065C29.4491 4.56787 29.9946 4.33148 30.6674 4.33148C31.3402 4.33148 31.9403 4.56787 32.4131 5.04065C32.8858 5.51343 33.1222 6.07713 33.1222 6.74993C33.1222 7.42273 32.8858 7.98643 32.4131 8.45921Z" fill="black"/>
<path d="M13.9377 27.1347L14.356 26.3891C14.7015 26.6983 15.2288 27.0074 15.8289 27.0256C16.3016 27.0256 16.6108 26.8619 16.6108 26.5528C16.6108 26.3528 16.4471 26.1891 16.0289 26.0437C14.6833 25.5527 14.2832 25.2072 14.2832 24.4798C14.2832 23.6979 15.0106 23.1524 15.9925 23.1706C16.6653 23.1888 17.1563 23.4615 17.4472 23.6979L17.1563 24.5344C16.9381 24.3707 16.3562 24.0616 15.9743 24.0616C15.6834 24.0616 15.3561 24.1525 15.3561 24.4435C15.3561 24.6981 15.5925 24.8435 16.0834 25.0435C16.9744 25.4254 17.6109 25.7163 17.6291 26.4983C17.6291 27.3347 16.9381 27.8802 15.8289 27.8984C14.9197 27.8802 14.2105 27.4438 13.9377 27.1347Z" fill="black"/>
<path d="M20.9566 23.1523C20.2656 23.1523 19.7565 23.4615 19.4656 23.9524V23.2433H18.4109V29.6985H19.4656V27.0437C19.7565 27.5347 20.2475 27.8438 20.9566 27.8438C22.3022 27.8438 23.2114 26.8437 23.2114 25.4981C23.2114 24.1706 22.3204 23.1705 20.9566 23.1523ZM20.8475 26.8255C20.1384 26.8255 19.5747 26.28 19.5747 25.4981V25.4799C19.5747 24.698 20.1565 24.1706 20.8657 24.1706C21.5931 24.1706 22.1386 24.698 22.1386 25.4799C22.1386 26.28 21.5749 26.8255 20.8475 26.8255Z" fill="black"/>
<path d="M26.3215 23.1523C24.9759 23.1523 23.9758 24.1706 23.9758 25.4981C23.9758 26.8437 24.9759 27.8256 26.3215 27.8256C27.6672 27.8256 28.6673 26.8255 28.6673 25.4981V25.4799C28.6673 24.1343 27.649 23.1523 26.3215 23.1523ZM26.3215 26.8073C25.6124 26.8073 25.0305 26.28 25.0305 25.4981V25.4799C25.0305 24.698 25.5942 24.1525 26.3034 24.1525C27.0307 24.1525 27.5944 24.698 27.5944 25.4981C27.5944 26.28 27.0489 26.8255 26.3215 26.8073Z" fill="black"/>
<path d="M29.5403 23.244H30.5949V24.1532C30.9041 23.5349 31.4678 23.1895 32.1406 23.1895V24.1896H32.0133C31.2677 24.1896 30.5949 24.7896 30.5949 25.4624V27.7354H29.5403V23.244Z" fill="black"/>
<path d="M33.3769 26.4986V24.2438H32.795V23.2437H33.3769V21.989H34.4316V23.2437H35.6863V24.2438H34.4316V26.2804C34.4316 26.6623 34.6498 26.8623 34.9771 26.8623C35.1953 26.8623 35.4499 26.8259 35.6863 26.7532V27.626C35.4499 27.7533 35.0317 27.8442 34.7043 27.8442C33.8861 27.8442 33.3769 27.4078 33.3769 26.4986Z" fill="black"/>
</svg>
