<svg width="153" height="172" viewBox="0 0 153 172" fill="none" xmlns="http://www.w3.org/2000/svg">
    <rect x="0.5" y="0.5" width="152" height="171" fill="#00CEF5"/>
    <path d="M11.3086 12.9858V11.8966C11.3086 10.0535 12.2233 8.96436 13.9695 8.96436C15.7157 8.96436 16.5472 10.0535 16.5472 11.8966V12.9858C16.5472 14.8289 15.6325 16.0019 13.9695 16.0019C12.2233 16.0019 11.3086 14.8289 11.3086 12.9858ZM12.3896 14.2425L15.2167 10.1373C14.9673 9.80215 14.5515 9.63459 13.9695 9.63459C12.8053 9.63459 12.2233 10.3886 12.2233 11.8129V13.0696C12.2233 13.5722 12.2233 13.9074 12.3896 14.2425ZM13.9695 15.2478C15.1336 15.2478 15.7157 14.4938 15.7157 13.0696V11.8129C15.7157 11.394 15.6325 10.9751 15.5494 10.64L12.7222 14.7452C12.9716 15.0803 13.3874 15.2478 13.9695 15.2478Z" fill="black"/>
    <path d="M18.626 15.4156C18.626 15.0804 18.8754 14.8291 19.208 14.8291C19.5407 14.8291 19.7901 15.0804 19.7901 15.4156C19.7901 15.7507 19.5407 16.002 19.208 16.002C18.8754 16.002 18.626 15.7507 18.626 15.4156Z" fill="black"/>
    <path d="M21.3701 8.96436H26.1929V9.71837C23.9478 11.394 23.6152 13.5722 23.6152 15.8343V15.9181H22.7837V15.8343C22.7837 13.7398 23.1163 11.394 25.1951 9.71837H21.3701V8.96436Z" fill="black"/>
    <path d="M28.1055 13.5722V11.7291C28.1055 9.96971 28.937 8.96436 30.6832 8.96436C32.2631 8.96436 32.9283 9.80215 32.9283 10.8913V10.9751H32.0136V10.8913C32.0136 10.1373 31.5147 9.80215 30.6 9.80215C29.5191 9.80215 28.8538 10.3048 28.8538 11.4778V12.148C29.2696 11.5615 29.9348 11.3102 30.7663 11.3102C32.1799 11.3102 33.0114 12.0642 33.0114 13.4885V13.8236C33.0114 15.2478 32.1799 16.0856 30.4337 16.0856C28.937 16.0019 28.1055 15.1641 28.1055 13.5722ZM30.6832 15.2478C31.7642 15.2478 32.3462 14.8289 32.3462 13.8236V13.4047C32.3462 12.3993 31.7642 11.9804 30.7663 11.9804C29.7685 11.9804 29.0201 12.3993 29.0201 13.3209V13.7398C29.0201 14.8289 29.6022 15.2478 30.6832 15.2478Z" fill="black"/>
    <path d="M35.2563 14.075V13.9074C35.2563 12.9858 35.7553 12.3994 36.5036 12.2318C35.8384 12.0642 35.4226 11.5616 35.4226 10.8076V10.64C35.4226 9.55085 36.2542 8.88062 37.8341 8.88062C39.414 8.88062 40.2455 9.55085 40.2455 10.64V10.8076C40.2455 11.5616 39.7466 12.0642 39.1645 12.2318C39.9129 12.3994 40.4118 12.9858 40.4118 13.9074V14.075C40.4118 15.3317 39.5803 16.0019 37.8341 16.0019C36.0879 16.0019 35.2563 15.3317 35.2563 14.075ZM37.8341 15.2479C38.915 15.2479 39.4971 14.9128 39.4971 14.075V13.8236C39.4971 12.9858 38.8319 12.6507 37.8341 12.6507C36.8362 12.6507 36.171 12.902 36.171 13.8236V14.075C36.171 14.9128 36.7531 15.2479 37.8341 15.2479ZM37.8341 11.8967C38.7487 11.8967 39.3308 11.6453 39.3308 10.8913V10.64C39.3308 9.96975 38.8319 9.63463 37.8341 9.63463C36.8362 9.63463 36.3373 9.96975 36.3373 10.64V10.8913C36.3373 11.5616 36.9194 11.8967 37.8341 11.8967Z" fill="black"/>
    <path d="M42.4907 12.9858V11.8966C42.4907 10.0535 43.4054 8.96436 45.1516 8.96436C46.8978 8.96436 47.7293 10.0535 47.7293 11.8966V12.9858C47.7293 14.8289 46.8146 16.0019 45.1516 16.0019C43.4054 16.0019 42.4907 14.8289 42.4907 12.9858ZM43.5717 14.2425L46.3989 10.1373C46.1494 9.80215 45.7337 9.63459 45.1516 9.63459C43.9875 9.63459 43.4054 10.3886 43.4054 11.8129V13.0696C43.3222 13.5722 43.4054 13.9074 43.5717 14.2425ZM45.1516 15.2478C46.3157 15.2478 46.8978 14.4938 46.8978 13.0696V11.8129C46.8978 11.394 46.8146 10.9751 46.7315 10.64L43.9043 14.7452C44.1538 15.0803 44.5695 15.2478 45.1516 15.2478Z" fill="black"/>
    <path d="M126.55 100.189C126.82 72.3354 104.629 49.5351 76.9839 49.2628C49.3392 48.9906 26.7096 71.3495 26.4394 99.2029C26.1692 127.056 48.3607 149.857 76.0054 150.129C103.65 150.401 126.28 128.042 126.55 100.189Z" stroke="black" stroke-miterlimit="10"/>
    <path d="M76.5001 150.133C90.1853 150.133 101.279 127.553 101.279 99.6979C101.279 71.8432 90.1853 49.2625 76.5001 49.2625C62.8148 49.2625 51.7207 71.8432 51.7207 99.6979C51.7207 127.553 62.8148 150.133 76.5001 150.133Z" stroke="black" stroke-miterlimit="10"/>
    <path d="M31.0991 78.334H121.901" stroke="black" stroke-miterlimit="10"/>
    <path d="M26.2764 99.698H126.641" stroke="black" stroke-miterlimit="10"/>
    <path d="M30.6001 120.643H122.151" stroke="black" stroke-miterlimit="10"/>
    <rect x="0.5" y="0.5" width="152" height="171" stroke="black"/>
</svg>
