<svg width="124" height="138" viewBox="0 0 124 138" fill="none" xmlns="http://www.w3.org/2000/svg">
    <rect x="0.5" y="0.5" width="123" height="137" fill="#00CEF5"/>
    <path d="M9.63672 10.4138V9.47321C9.63672 7.99512 10.378 7.1217 11.7932 7.1217C13.2085 7.1217 13.8824 7.99512 13.8824 9.47321V10.3466C13.8824 11.8247 13.1411 12.7653 11.7932 12.7653C10.378 12.7653 9.63672 11.8919 9.63672 10.4138ZM10.5128 11.4216L12.8041 8.12949C12.6019 7.86075 12.265 7.72638 11.7932 7.72638C10.8498 7.72638 10.378 8.33105 10.378 9.47321V10.481C10.378 10.8169 10.378 11.1529 10.5128 11.4216ZM11.7932 12.1607C12.7367 12.1607 13.2085 11.556 13.2085 10.4138V9.40603C13.2085 9.0701 13.1411 8.73417 13.0737 8.46542L10.8498 11.7575C10.9845 12.0935 11.3215 12.1607 11.7932 12.1607Z" fill="black"/>
    <path d="M15.5674 12.295C15.5674 12.0263 15.7696 11.8247 16.0391 11.8247C16.3087 11.8247 16.5109 12.0263 16.5109 12.295C16.5109 12.5638 16.3087 12.7653 16.0391 12.7653C15.7696 12.7653 15.5674 12.6309 15.5674 12.295Z" fill="black"/>
    <path d="M18.1279 10.4138V9.47321C18.1279 7.99512 18.8692 7.1217 20.2845 7.1217C21.6997 7.1217 22.3736 7.99512 22.3736 9.47321V10.3466C22.3736 11.8247 21.6323 12.7653 20.2845 12.7653C18.8692 12.7653 18.1279 11.8919 18.1279 10.4138ZM19.004 11.4216L21.2953 8.12949C21.0931 7.86075 20.7562 7.72638 20.2845 7.72638C19.341 7.72638 18.8692 8.33105 18.8692 9.47321V10.481C18.8692 10.8169 18.8692 11.1529 19.004 11.4216ZM20.2845 12.1607C21.2279 12.1607 21.6997 11.556 21.6997 10.4138V9.40603C21.6997 9.0701 21.6323 8.73417 21.5649 8.46542L19.341 11.7575C19.4758 12.0935 19.8127 12.1607 20.2845 12.1607Z" fill="black"/>
    <path d="M24.126 10.4138V9.47321C24.126 7.99512 24.8673 7.1217 26.2825 7.1217C27.6977 7.1217 28.3716 7.99512 28.3716 9.47321V10.3466C28.3716 11.8247 27.6303 12.7653 26.2825 12.7653C24.7999 12.7653 24.126 11.8919 24.126 10.4138ZM25.0021 11.4216L27.2934 8.12949C27.0912 7.86075 26.7542 7.72638 26.2825 7.72638C25.339 7.72638 24.8673 8.33105 24.8673 9.47321V10.481C24.7999 10.8169 24.8673 11.1529 25.0021 11.4216ZM26.2151 12.1607C27.1586 12.1607 27.6303 11.556 27.6303 10.4138V9.40603C27.6303 9.0701 27.5629 8.73417 27.4955 8.46542L25.2042 11.7575C25.4738 12.0935 25.8108 12.1607 26.2151 12.1607Z" fill="black"/>
    <path d="M30.0566 10.4138V9.47321C30.0566 7.99512 30.7979 7.1217 32.2132 7.1217C33.6284 7.1217 34.3023 7.99512 34.3023 9.47321V10.3466C34.3023 11.8247 33.561 12.7653 32.2132 12.7653C30.7979 12.7653 30.0566 11.8919 30.0566 10.4138ZM30.9327 11.4216L33.224 8.12949C33.0219 7.86075 32.6849 7.72638 32.2132 7.72638C31.2697 7.72638 30.7979 8.33105 30.7979 9.47321V10.481C30.7979 10.8169 30.7979 11.1529 30.9327 11.4216ZM32.2132 12.1607C33.1566 12.1607 33.6284 11.556 33.6284 10.4138V9.40603C33.6284 9.0701 33.561 8.73417 33.4936 8.46542L31.2023 11.7575C31.4045 12.0935 31.7414 12.1607 32.2132 12.1607Z" fill="black"/>
    <path d="M36.0537 10.4138V9.47321C36.0537 7.99512 36.795 7.1217 38.2102 7.1217C39.6255 7.1217 40.2994 7.99512 40.2994 9.47321V10.3466C40.2994 11.8247 39.5581 12.7653 38.2102 12.7653C36.7276 12.7653 36.0537 11.8919 36.0537 10.4138ZM36.9298 11.4216L39.2211 8.12949C39.0189 7.86075 38.682 7.72638 38.2102 7.72638C37.2668 7.72638 36.795 8.33105 36.795 9.47321V10.481C36.7276 10.8169 36.795 11.1529 36.9298 11.4216ZM38.1428 12.1607C39.0863 12.1607 39.5581 11.556 39.5581 10.4138V9.40603C39.5581 9.0701 39.4907 8.73417 39.4233 8.46542L37.132 11.7575C37.4015 12.0935 37.7385 12.1607 38.1428 12.1607Z" fill="black"/>
    <path d="M43.2648 12.0935V7.92794C42.9279 8.26387 42.4561 8.46542 41.917 8.46542V7.79356C42.4561 7.79356 42.9279 7.65919 43.3322 7.1217H44.0061V12.0935H45.354V12.6981H41.9844V12.0935H43.2648Z" fill="black"/>
    <path d="M48.3195 10.0107L49.0609 9.74196C49.7348 9.5404 50.1391 9.33884 50.1391 8.66698V8.5998C50.1391 7.92794 49.6674 7.65919 48.8587 7.65919C47.9152 7.65919 47.4435 7.99512 47.4435 8.86854V9.0701H46.7022V8.93573C46.7022 7.72638 47.3761 7.1217 48.7913 7.1217C50.0717 7.1217 50.7456 7.65919 50.7456 8.66698C50.7456 9.60758 50.1391 10.0779 49.3304 10.2794L48.5891 10.5482C47.5109 10.8169 47.3087 11.22 47.3087 12.0935H50.7456V12.6981H46.6348V12.0263C46.7022 11.0857 46.9717 10.3466 48.3195 10.0107Z" fill="black"/>
    <path d="M62.4721 23.6495C55.733 23.6495 49.196 24.9932 43.0634 27.5463C37.133 30.0321 31.7417 33.6602 27.1591 38.2288C22.5765 42.7975 18.9373 48.1052 16.4439 54.0847C13.8156 60.1986 12.5352 66.7157 12.5352 73.4343C12.5352 80.1529 13.883 86.6699 16.4439 92.7839C18.9373 98.6962 22.5765 104.071 27.1591 108.64C31.7417 113.208 37.0656 116.836 43.0634 119.322C49.196 121.943 55.733 123.219 62.4721 123.219C69.2112 123.219 75.7482 121.875 81.8808 119.322C87.8112 116.836 93.2025 113.208 97.7852 108.64C102.368 104.071 106.007 98.7634 108.5 92.7839C111.129 86.6699 112.409 80.1529 112.409 73.4343C112.409 66.7157 111.061 60.1986 108.5 54.0847" stroke="black" stroke-miterlimit="10"/>
    <path d="M62.4715 36.3476C52.565 36.3476 43.1976 40.1772 36.1889 47.2317C29.1802 54.2191 25.2715 63.5579 25.2715 73.4343C25.2715 83.3106 29.1128 92.6494 36.1889 99.6368C43.265 106.624 52.565 110.521 62.4715 110.521C72.378 110.521 81.7454 106.691 88.7541 99.6368C95.7628 92.5823 99.6715 83.3106 99.6715 73.4343" stroke="black" stroke-miterlimit="10"/>
    <path d="M62.4718 49.1801C49.0609 49.1801 38.1436 60.0642 38.1436 73.4343C38.1436 86.8043 49.0609 97.6884 62.4718 97.6884" stroke="black" stroke-miterlimit="10"/>
    <path d="M49.5322 73.4343C49.5322 80.556 55.3279 86.334 62.4714 86.334C69.6148 86.334 75.4105 80.556 75.4105 73.4343" stroke="black" stroke-miterlimit="10"/>
    <rect x="0.5" y="0.5" width="123" height="137" stroke="black"/>
</svg>
