<svg width="145" height="163" viewBox="0 0 145 163" fill="none" xmlns="http://www.w3.org/2000/svg">
    <path d="M144 1H1V162H144V1Z" fill="#E1F32C" stroke="black" stroke-miterlimit="10"/>
    <path d="M93.2735 82.7876C92.1305 80.0893 90.4902 77.6594 88.4566 75.6171C86.423 73.5747 83.7882 71.7932 80.9604 70.6454C78.3478 69.5795 75.4978 68.9832 72.5067 68.9832V79.9626C74.0505 79.9626 75.5126 80.2682 76.8634 80.8198C78.3181 81.4087 79.6318 82.2882 80.7229 83.3839C81.8139 84.4796 82.6155 85.6872 83.2018 87.081C83.7956 88.4823 84.1221 90.0178 84.1221 91.6353C84.1221 93.2528 83.8178 94.6541 83.2686 96.0107C82.6823 97.4717 81.8065 98.791 80.7154 99.8867C79.6244 100.982 78.4221 101.787 77.0341 102.376C75.6388 102.973 74.1099 103.301 72.4993 103.301C70.8887 103.301 69.4934 102.995 68.1426 102.443C66.6879 101.855 65.3742 100.975 64.2831 99.8792C63.1921 98.7835 62.3905 97.576 61.7968 96.1821L51.7251 100.468C52.8681 103.166 54.5084 105.596 56.542 107.639C58.5756 109.681 61.2104 111.462 64.0382 112.61C66.6507 113.669 69.5008 114.273 72.4919 114.273C75.4829 114.273 78.5928 113.632 81.3018 112.476C83.9886 111.328 86.4081 109.681 88.4418 107.639C90.4754 105.596 92.2492 102.95 93.3922 100.11C94.4462 97.4866 95.0473 94.6243 95.0473 91.6204C95.0622 88.4898 94.4239 85.5008 93.2735 82.7876V82.7876Z" stroke="black" stroke-width="0.915493" stroke-miterlimit="10"/>
    <path d="M63.6967 70.7722C61.01 71.9201 58.5904 73.5674 56.5568 75.6097C54.5231 77.6521 52.7493 80.2982 51.6063 83.1381C50.5524 85.7618 49.9512 88.6241 49.9512 91.628C49.9512 94.6319 50.5895 97.755 51.7399 100.476L61.8115 96.1897C61.2178 94.7884 60.8912 93.2529 60.8912 91.6354C60.8912 90.0179 61.1955 88.6166 61.7447 87.26C62.3311 85.7991 63.2069 84.4798 64.2979 83.384C65.3889 82.2883 66.5913 81.4833 67.9792 80.8945C69.3746 80.2982 70.9035 79.9702 72.5141 79.9702V68.9907C69.382 68.9907 66.4058 69.6168 63.6967 70.7722V70.7722Z" stroke="black" stroke-width="0.915493" stroke-miterlimit="10"/>
    <path d="M58.9326 125.341C54.3978 123.493 50.3083 120.765 46.9016 117.343C43.6359 114.064 40.9936 110.165 39.1604 105.835C37.3123 101.474 36.2955 96.6739 36.2955 91.6351C36.2955 86.5963 37.2381 82.2135 38.9377 78.0021L23.2254 71.6216C20.7316 77.8008 19.3511 84.554 19.3511 91.6351C19.3511 98.7162 20.8503 106.081 23.5594 112.483C26.2461 118.842 30.1278 124.566 34.9224 129.381C39.9249 134.405 45.9219 138.415 52.5794 141.121C58.7322 143.625 65.4566 145.012 72.5075 145.012V127.995C67.7054 127.995 63.1261 127.048 58.9326 125.341V125.341Z" stroke="black" stroke-width="0.915493" stroke-miterlimit="10"/>
    <path d="M121.448 70.787C118.761 64.4289 114.879 58.6969 110.085 53.8892L98.098 65.9196C101.364 69.1993 104.006 73.0977 105.839 77.4283C107.687 81.7888 108.704 86.5891 108.704 91.6278C108.704 96.6666 107.761 101.049 106.062 105.261C104.229 109.815 101.505 113.922 98.098 117.344C94.8323 120.623 90.9506 123.277 86.6384 125.118C82.2966 126.974 77.5168 127.995 72.4995 127.995V145.012C79.8621 145.012 86.8834 143.506 93.2589 140.786C99.5898 138.087 105.29 134.189 110.085 129.374C115.087 124.35 119.08 118.327 121.774 111.641C124.268 105.462 125.649 98.709 125.649 91.6278C125.656 84.2337 124.157 77.1898 121.448 70.787V70.787Z" stroke="black" stroke-width="0.915493" stroke-miterlimit="10"/>
    <path d="M92.4357 42.1419C86.2828 39.6374 79.5585 38.251 72.5076 38.251C65.4567 38.251 58.1238 39.7566 51.7483 42.4773C45.4173 45.1756 39.7172 49.0739 34.9226 53.8891C29.9201 58.913 25.9271 64.9356 23.2329 71.6217L38.9453 78.0022C40.7785 73.4479 43.5024 69.3409 46.9091 65.9196C50.1748 62.6399 54.0565 59.9863 58.3687 58.1452C62.7106 56.2892 67.4903 55.268 72.5076 55.268C77.5249 55.268 81.889 56.2147 86.0824 57.9216C90.6173 59.7627 94.7068 62.4982 98.1135 65.9196L110.1 53.8891C105.09 48.8652 99.0932 44.8476 92.4357 42.1419V42.1419Z" stroke="black" stroke-width="0.915493" stroke-miterlimit="10"/>
    <path d="M15.522 15.5994C16.752 15.5994 17.394 14.7954 17.394 13.4574V12.6534C17.394 11.3274 16.752 10.5234 15.522 10.5234C14.268 10.5234 13.62 11.3274 13.62 12.6534V13.4574C13.62 14.7954 14.262 15.5994 15.522 15.5994ZM14.256 13.5174V12.5994C14.256 11.5794 14.682 11.0634 15.522 11.0634C15.912 11.0634 16.212 11.1834 16.416 11.4174L14.4 14.3814C14.304 14.1474 14.256 13.8654 14.256 13.5174ZM14.622 14.7234L16.632 11.7774C16.716 11.9994 16.758 12.2694 16.758 12.5934V13.5114C16.758 14.5434 16.338 15.0594 15.522 15.0594C15.132 15.0594 14.832 14.9454 14.622 14.7234ZM19.4866 15.5994C19.7146 15.5994 19.9066 15.4374 19.9066 15.1854C19.9066 14.9274 19.7146 14.7654 19.4866 14.7654C19.2586 14.7654 19.0726 14.9274 19.0726 15.1854C19.0726 15.4374 19.2586 15.5994 19.4866 15.5994ZM23.738 12.2154C23.102 12.2154 22.652 12.4254 22.352 12.7974L22.472 11.1234H25.118V10.5834H21.908L21.734 13.4574H22.352C22.58 13.0374 22.952 12.7554 23.606 12.7554C24.308 12.7554 24.704 13.0734 24.704 13.7394V14.0634C24.704 14.7894 24.218 15.0594 23.522 15.0594C22.922 15.0594 22.322 14.8614 22.322 14.1654V14.0094H21.686V14.1234C21.686 15.1074 22.418 15.5994 23.534 15.5994C24.692 15.5994 25.34 15.0654 25.34 13.9674V13.7214C25.34 12.7134 24.668 12.2154 23.738 12.2154ZM27.1689 14.9634V15.5394H30.8409V14.9994H27.7989C27.7989 14.2134 27.9309 13.8594 28.9209 13.5954L29.5689 13.3674C30.2829 13.1814 30.8469 12.7854 30.8469 11.9274C30.8469 10.9794 30.2049 10.5234 29.0829 10.5234C27.8289 10.5234 27.2169 11.0934 27.2169 12.1674V12.2994H27.8529V12.1374C27.8529 11.3634 28.2549 11.0634 29.0889 11.0634C29.8029 11.0634 30.2109 11.2794 30.2109 11.8734V11.9094C30.2109 12.5154 29.8209 12.7134 29.2329 12.8814L28.6029 13.1034C27.4149 13.4334 27.1689 14.0634 27.1689 14.9634ZM32.435 11.1234H35.207C33.683 12.2994 33.449 13.9614 33.449 15.4794V15.5394H34.067V15.4794C34.067 13.9014 34.313 12.3054 35.915 11.1234V10.5834H32.435V11.1234ZM37.5841 14.9994V15.5394H40.6021V14.9994H39.4021V10.5834H38.8021C38.4661 11.0214 38.0581 11.1714 37.5661 11.1714V11.7414C38.0521 11.7414 38.4961 11.5794 38.7841 11.2734V14.9994H37.5841Z" fill="black"/>
</svg>
