<svg width="133" height="149" viewBox="0 0 133 149" fill="none" xmlns="http://www.w3.org/2000/svg">
    <path d="M132.174 1H0.862305V148H132.174V1Z" fill="#8F6CFF" stroke="black" stroke-miterlimit="10"/>
    <path d="M11.3532 14.3721V14.9121H14.3712V14.3721H13.1712V9.95611H12.5712C12.2352 10.3941 11.8272 10.5441 11.3352 10.5441V11.1141C11.8212 11.1141 12.2652 10.9521 12.5532 10.6461V14.3721H11.3532ZM16.3357 14.9721C16.5637 14.9721 16.7557 14.8101 16.7557 14.5581C16.7557 14.3001 16.5637 14.1381 16.3357 14.1381C16.1077 14.1381 15.9217 14.3001 15.9217 14.5581C15.9217 14.8101 16.1077 14.9721 16.3357 14.9721ZM21.5121 9.95611H20.9001L18.3141 13.3401V13.9041H20.8881V14.9121H21.5121V13.9041H22.1121V13.3641H21.5121V9.95611ZM18.9141 13.3641L20.8881 10.8501V13.3641H18.9141ZM25.9238 11.5881C25.2878 11.5881 24.8378 11.7981 24.5378 12.1701L24.6578 10.4961H27.3038V9.95611H24.0938L23.9198 12.8301H24.5378C24.7658 12.4101 25.1378 12.1281 25.7918 12.1281C26.4938 12.1281 26.8898 12.4461 26.8898 13.1121V13.4361C26.8898 14.1621 26.4038 14.4321 25.7078 14.4321C25.1078 14.4321 24.5078 14.2341 24.5078 13.5381V13.3821H23.8718V13.4961C23.8718 14.4801 24.6038 14.9721 25.7198 14.9721C26.8778 14.9721 27.5258 14.4381 27.5258 13.3401V13.0941C27.5258 12.0861 26.8538 11.5881 25.9238 11.5881ZM31.2327 14.9721C32.4687 14.9721 33.0687 14.4081 33.0687 13.3701V13.1061C33.0687 12.1101 32.4507 11.5701 31.4247 11.5701C30.8007 11.5701 30.3327 11.7561 30.0387 12.1641V11.6601C30.0387 10.8321 30.5127 10.4601 31.2867 10.4601C31.9227 10.4601 32.2767 10.7301 32.3007 11.2641V11.3421H32.9307V11.2641C32.9067 10.4841 32.4207 9.89611 31.2867 9.89611C29.9907 9.89611 29.4027 10.6401 29.4027 11.9001V13.2441C29.4027 14.4021 29.9787 14.9721 31.2327 14.9721ZM30.0387 13.4001V13.0701C30.0387 12.4161 30.5307 12.1221 31.2807 12.1221C32.0247 12.1221 32.4327 12.4041 32.4327 13.1121V13.4361C32.4327 14.1141 32.0367 14.4321 31.2327 14.4321C30.4407 14.4321 30.0387 14.1381 30.0387 13.4001Z" fill="black"/>
    <path d="M27.2694 72.3369H13.4248V86.3833H27.2694V72.3369Z" fill="#8F6CFF" stroke="black" stroke-miterlimit="10"/>
    <path d="M46.1414 66.7634H32.2969V80.8098H46.1414V66.7634Z" fill="#8F6CFF" stroke="black" stroke-miterlimit="10"/>
    <path d="M64.8299 61.7384H50.9854V75.7847H64.8299V61.7384Z" fill="#8F6CFF" stroke="black" stroke-miterlimit="10"/>
    <path d="M83.4657 70.0198H69.6211V84.0661H83.4657V70.0198Z" fill="#8F6CFF" stroke="black" stroke-miterlimit="10"/>
    <path d="M102.85 74.0508H89.0059V88.0971H102.85V74.0508Z" fill="#8F6CFF" stroke="black" stroke-miterlimit="10"/>
    <path d="M120.926 71.6239H107.081V85.6702H120.926V71.6239Z" fill="#8F6CFF" stroke="black" stroke-miterlimit="10"/>
</svg>
