<svg width="331" height="232" viewBox="0 0 331 232" fill="none" xmlns="http://www.w3.org/2000/svg">
    <mask id="mask0_751_5368" style="mask-type:alpha" maskUnits="userSpaceOnUse" x="0" y="0" width="331" height="232">
        <path d="M331 0.197754H0V231.618H331V0.197754Z" fill="#8F6CFF"/>
    </mask>
    <g mask="url(#mask0_751_5368)">
    </g>
    <g clip-path="url(#clip0_751_5368)">
        <path d="M112.499 143.799V185.962C112.499 196.192 121.799 204.492 133.266 204.492H187.4C198.867 204.492 203.179 198.003 208.167 185.962L218.472 148.396L208.167 127.16L164.914 121.846" stroke="black" stroke-miterlimit="10"/>
        <path d="M208.167 127.16V58.3268C208.167 51.7092 202.812 46.3454 196.204 46.3454C189.596 46.3454 184.24 51.7092 184.24 58.3268V123.966" stroke="black" stroke-miterlimit="10"/>
        <path d="M160.333 121.846V98.2514C160.333 91.7731 165.58 86.5188 172.048 86.5188H172.535C179.004 86.5188 184.25 91.7731 184.25 98.2514V123.976" stroke="black" stroke-miterlimit="10"/>
        <path d="M184.191 148.247C183.594 154.158 178.606 158.775 172.535 158.775H172.048C165.58 158.775 160.333 153.521 160.333 147.043V145.341" stroke="black" stroke-miterlimit="10"/>
        <path d="M160.333 146.077V146.804C160.333 153.421 154.977 158.785 148.37 158.785C141.762 158.785 136.406 153.421 136.406 146.804V110.372C136.406 103.754 141.762 98.3907 148.37 98.3907C154.977 98.3907 160.333 103.754 160.333 110.372V122.334" stroke="black" stroke-miterlimit="10"/>
        <path d="M160.323 145.351C160.711 145.441 161.108 145.51 161.506 145.56L196.214 149.7" stroke="black" stroke-miterlimit="10"/>
        <path d="M182.74 124.035L164.417 121.786C158.395 121.05 152.911 125.339 152.175 131.369L151.937 133.3C151.251 138.932 154.928 144.087 160.323 145.351" stroke="black" stroke-miterlimit="10"/>
        <path d="M136.416 119.776C136.416 113.159 131.062 107.795 124.457 107.795C117.853 107.795 112.499 113.159 112.499 119.776V146.804C112.499 153.421 117.853 158.785 124.457 158.785C131.062 158.785 136.416 153.421 136.416 146.804V119.776Z" stroke="black" stroke-miterlimit="10"/>
    </g>
    <path d="M26.774 26.1978H30.167C31.598 26.1978 32.345 25.5588 32.345 24.1458V24.0378C32.345 23.0388 31.841 22.4628 31.184 22.2648C31.742 22.0488 32.111 21.5718 32.111 20.6898V20.5908C32.111 19.2768 31.373 18.7638 30.068 18.7638H26.774V26.1978ZM27.71 25.3788V22.7508H30.041C30.896 22.7508 31.382 23.0388 31.382 23.9478V24.1548C31.382 25.0638 30.968 25.3788 30.077 25.3788H27.71ZM27.71 21.9228V19.5828H29.942C30.653 19.5828 31.139 19.6998 31.139 20.6178V20.7978C31.139 21.7698 30.518 21.9228 29.906 21.9228H27.71ZM34.8367 26.1978H39.5437V25.3788H35.7727V22.8948H39.3457V22.0668H35.7727V19.5828H39.5437V18.7638H34.8367V26.1978ZM45.9349 26.1978H46.8709V23.2098H50.4979V22.3908H46.8709V19.5828H50.7139V18.7638H45.9349V26.1978ZM52.7064 26.1978H56.7114V25.3518H55.1724V19.6098H56.7114V18.7638H52.7064V19.6098H54.2364V25.3518H52.7064V26.1978ZM63.8127 26.1978H64.7577C64.6587 26.0628 64.6587 25.7748 64.6587 25.5318V24.3528C64.6587 23.5158 64.2627 22.9308 63.4977 22.7328C64.2807 22.5078 64.6677 21.9228 64.6677 20.9058V20.8518C64.6677 19.3848 63.9117 18.7638 62.3097 18.7638H59.1687V26.1978H60.1047V23.1468H62.2917C63.0117 23.1468 63.7047 23.3448 63.7047 24.3438V25.5318C63.7047 25.7838 63.7047 26.0808 63.8127 26.1978ZM60.1047 22.3458V19.5648H62.2197C63.1917 19.5648 63.6957 19.8078 63.6957 20.8068V21.0408C63.6957 22.1118 63.1377 22.3458 62.2917 22.3458H60.1047ZM69.8486 26.2878C71.6756 26.2878 72.5126 25.6128 72.5126 24.1998C72.5126 22.9128 71.7386 22.4718 70.7486 22.1748L69.3356 21.7518C68.6426 21.5628 68.0936 21.2928 68.0936 20.5998V20.5368C68.0936 19.8168 68.6516 19.4838 69.6956 19.4838C70.8656 19.4838 71.4056 19.8888 71.4056 20.8248V21.0858H72.3686V20.8608C72.3686 19.4478 71.4416 18.6738 69.6956 18.6738C68.0396 18.6738 67.1306 19.3668 67.1306 20.6178C67.1306 21.7338 67.8866 22.2108 68.8316 22.5078L70.2176 22.9308C71.0636 23.1558 71.5406 23.3898 71.5406 24.2178V24.3078C71.5406 25.1268 71.0186 25.4688 69.8756 25.4688C68.5076 25.4688 67.8776 25.0098 67.8776 23.9208V23.5698H66.9146V23.8308C66.9146 25.4328 67.8686 26.2878 69.8486 26.2878ZM76.4503 26.1978H77.3863V19.5828H79.6993V18.7638H74.1463V19.5828H76.4503V26.1978Z" fill="black"/>
    <defs>
        <clipPath id="clip0_751_5368">
            <rect width="106.996" height="159.141" fill="white" transform="translate(112.002 45.8478)"/>
        </clipPath>
    </defs>
</svg>
