<svg width="138" height="155" viewBox="0 0 138 155" fill="none" xmlns="http://www.w3.org/2000/svg">
    <rect x="0.5" y="0.598877" width="137" height="153" fill="#E8E8ED"/>
    <path d="M17.3252 18.4018V17.4267C17.3252 15.7764 18.1502 14.8013 19.7252 14.8013C21.3002 14.8013 22.0502 15.7764 22.0502 17.4267V18.4018C22.0502 20.0521 21.2252 21.1023 19.7252 21.1023C18.1502 21.1023 17.3252 20.0521 17.3252 18.4018ZM18.3002 19.602L20.8502 15.9264C20.6252 15.6264 20.2502 15.4764 19.7252 15.4764C18.6752 15.4764 18.1502 16.1515 18.1502 17.4267V18.5519C18.1502 18.9269 18.1502 19.302 18.3002 19.602V19.602ZM19.7252 20.4272C20.7752 20.4272 21.3002 19.7521 21.3002 18.4769V17.3517C21.3002 16.9766 21.2252 16.6016 21.1502 16.3015L18.6752 19.9771C18.8252 20.2772 19.2002 20.4272 19.7252 20.4272Z" fill="black"/>
    <path d="M23.8501 20.5772C23.8501 20.2772 24.0751 20.0521 24.3751 20.0521C24.6751 20.0521 24.9001 20.2772 24.9001 20.5772C24.9001 20.8772 24.6751 21.1023 24.3751 21.1023C24.0751 21.1023 23.8501 20.8772 23.8501 20.5772Z" fill="black"/>
    <path d="M26.4004 14.8013H30.7504V15.4764C28.7254 16.9766 28.4254 18.9269 28.4254 20.9523V21.0273H27.6754V20.9523C27.6754 19.077 27.9754 16.9766 29.8504 15.4764H26.4004V14.8013V14.8013Z" fill="black"/>
    <path d="M32.4751 18.9269V17.2767C32.4751 15.7014 33.2251 14.8013 34.8001 14.8013C36.2251 14.8013 36.8251 15.5514 36.8251 16.5265V16.6016H36.0751V16.5265C36.0751 15.8514 35.6251 15.5514 34.8001 15.5514C33.8251 15.5514 33.2251 16.0015 33.2251 17.0516V17.6517C33.6001 17.1266 34.2001 16.9016 34.9501 16.9016C36.2251 16.9016 36.9751 17.5767 36.9751 18.8519V19.152C36.9751 20.4272 36.2251 21.1773 34.6501 21.1773C33.2251 21.1023 32.4751 20.3522 32.4751 18.9269ZM34.8001 20.4272C35.7751 20.4272 36.3001 20.0521 36.3001 19.152V18.7769C36.3001 17.8768 35.7751 17.5767 34.8751 17.5767C33.9751 17.5767 33.3001 17.9518 33.3001 18.7769V19.152C33.3001 20.0521 33.8251 20.4272 34.8001 20.4272Z" fill="black"/>
    <path d="M38.9253 19.377V19.227C38.9253 18.4018 39.3753 17.8768 40.0503 17.7267C39.4503 17.5767 39.0753 17.1266 39.0753 16.4515V16.3015C39.0753 15.3263 39.8253 14.7262 41.2503 14.7262C42.6753 14.7262 43.3503 15.3263 43.3503 16.3015V16.4515C43.3503 17.2017 42.9003 17.5767 42.3753 17.7267C43.0503 17.8768 43.5003 18.4018 43.5003 19.227V19.377C43.5003 20.5022 42.7503 21.1023 41.2503 21.1023C39.6753 21.1023 38.9253 20.5022 38.9253 19.377ZM41.2503 20.4272C42.2253 20.4272 42.7503 20.1271 42.7503 19.377V19.077C42.7503 18.3268 42.1503 18.0268 41.2503 18.0268C40.3503 18.0268 39.7503 18.2518 39.7503 19.077V19.377C39.7503 20.1271 40.2753 20.4272 41.2503 20.4272ZM41.2503 17.4267C42.0753 17.4267 42.6003 17.2017 42.6003 16.5265V16.3015C42.6003 15.7014 42.1503 15.4014 41.2503 15.4014C40.3503 15.4014 39.9003 15.7014 39.9003 16.3015V16.5265C39.9003 17.2017 40.4253 17.4267 41.2503 17.4267Z" fill="black"/>
    <path d="M45.4502 18.4018V17.4267C45.4502 15.7764 46.2752 14.8013 47.8502 14.8013C49.4252 14.8013 50.1752 15.7764 50.1752 17.4267V18.4018C50.1752 20.0521 49.3502 21.1023 47.8502 21.1023C46.2752 21.1023 45.4502 20.0521 45.4502 18.4018ZM46.4252 19.602L48.9752 15.9264C48.7502 15.6264 48.3752 15.4764 47.8502 15.4764C46.8002 15.4764 46.2752 16.1515 46.2752 17.4267V18.5519C46.2002 18.9269 46.2752 19.302 46.4252 19.602ZM47.7752 20.4272C48.8252 20.4272 49.3502 19.7521 49.3502 18.4769V17.3517C49.3502 16.9766 49.2752 16.6016 49.2002 16.3015L46.7252 19.9771C46.9502 20.2772 47.3252 20.4272 47.7752 20.4272Z" fill="black"/>
    <path d="M10.0498 72.0356V100.24" stroke="black" stroke-miterlimit="10"/>
    <path d="M19.125 70.6103V98.8149" stroke="black" stroke-miterlimit="10"/>
    <path d="M28.2002 69.4851V97.6897" stroke="black" stroke-miterlimit="10"/>
    <path d="M37.2002 69.7102V97.9147" stroke="black" stroke-miterlimit="10"/>
    <path d="M64.4248 77.8865V106.091" stroke="black" stroke-miterlimit="10"/>
    <path d="M73.4248 76.6863V104.891" stroke="black" stroke-miterlimit="10"/>
    <path d="M82.5 72.9357V101.065" stroke="black" stroke-miterlimit="10"/>
    <path d="M55.3501 76.3112V104.516" stroke="black" stroke-miterlimit="10"/>
    <path d="M46.2749 71.5105V99.7151" stroke="black" stroke-miterlimit="10"/>
    <path d="M91.5752 69.4851V97.6897" stroke="black" stroke-miterlimit="10"/>
    <path d="M100.575 70.9104V99.1149" stroke="black" stroke-miterlimit="10"/>
    <path d="M118.725 75.036V103.241" stroke="black" stroke-miterlimit="10"/>
    <path d="M109.65 71.8105V100.015" stroke="black" stroke-miterlimit="10"/>
    <path d="M127.8 75.8612V104.066" stroke="black" stroke-miterlimit="10"/>
    <rect x="0.5" y="0.598877" width="137" height="153" stroke="black"/>
</svg>
