<svg width="111" height="125" viewBox="0 0 111 125" fill="none" xmlns="http://www.w3.org/2000/svg">
    <g clip-path="url(#clip0_773_6843)">
        <path d="M110.58 0.920044H0.720459V123.897H110.58V0.920044Z" fill="#D8EC16"/>
        <path d="M110.58 0.920044H0.720459V123.897H110.58V0.920044Z" stroke="black" stroke-miterlimit="10"/>
        <path d="M55.53 31.7997V92.656" stroke="black" stroke-miterlimit="10"/>
        <path d="M29.4759 42.6346C33.0567 42.6346 35.9594 39.724 35.9594 36.1337C35.9594 32.5433 33.0567 29.6327 29.4759 29.6327C25.8952 29.6327 22.9924 32.5433 22.9924 36.1337C22.9924 39.724 25.8952 42.6346 29.4759 42.6346Z" stroke="black" stroke-miterlimit="10"/>
        <path d="M81.5841 94.823C85.1648 94.823 88.0676 91.9124 88.0676 88.322C88.0676 84.7316 85.1648 81.821 81.5841 81.821C78.0033 81.821 75.1006 84.7316 75.1006 88.322C75.1006 91.9124 78.0033 94.823 81.5841 94.823Z" stroke="black" stroke-miterlimit="10"/>
        <path d="M81.5841 42.6346C85.1648 42.6346 88.0676 39.724 88.0676 36.1337C88.0676 32.5433 85.1648 29.6327 81.5841 29.6327C78.0033 29.6327 75.1006 32.5433 75.1006 36.1337C75.1006 39.724 78.0033 42.6346 81.5841 42.6346Z" stroke="black" stroke-miterlimit="10"/>
        <path d="M29.4759 94.823C33.0567 94.823 35.9594 91.9124 35.9594 88.322C35.9594 84.7316 33.0567 81.821 29.4759 81.821C25.8952 81.821 22.9924 84.7316 22.9924 88.322C22.9924 91.9124 25.8952 94.823 29.4759 94.823Z" stroke="black" stroke-miterlimit="10"/>
        <path d="M55.5299 31.7997C59.1106 31.7997 62.0134 28.8891 62.0134 25.2987C62.0134 21.7083 59.1106 18.7977 55.5299 18.7977C51.9492 18.7977 49.0464 21.7083 49.0464 25.2987C49.0464 28.8891 51.9492 31.7997 55.5299 31.7997Z" stroke="black" stroke-miterlimit="10"/>
        <path d="M55.5299 105.658C59.1106 105.658 62.0134 102.747 62.0134 99.157C62.0134 95.5666 59.1106 92.656 55.5299 92.656C51.9492 92.656 49.0464 95.5666 49.0464 99.157C49.0464 102.747 51.9492 105.658 55.5299 105.658Z" stroke="black" stroke-miterlimit="10"/>
        <path d="M92.3299 68.6987C95.9107 68.6987 98.8134 65.7881 98.8134 62.1978C98.8134 58.6074 95.9107 55.6968 92.3299 55.6968C88.7492 55.6968 85.8464 58.6074 85.8464 62.1978C85.8464 65.7881 88.7492 68.6987 92.3299 68.6987Z" fill="#E1F32C" stroke="black" stroke-miterlimit="10"/>
        <path d="M18.67 68.6987C22.2508 68.6987 25.1535 65.7881 25.1535 62.1978C25.1535 58.6074 22.2508 55.6968 18.67 55.6968C15.0893 55.6968 12.1865 58.6074 12.1865 62.1978C12.1865 65.7881 15.0893 68.6987 18.67 68.6987Z" stroke="black" stroke-miterlimit="10"/>
        <path d="M76.9615 83.7472L34.0383 40.7084" stroke="black" stroke-miterlimit="10"/>
        <path d="M85.8464 62.1978H25.1536" stroke="black" stroke-miterlimit="10"/>
        <path d="M76.9615 40.7084L34.0383 83.7472" stroke="black" stroke-miterlimit="10"/>
        <path d="M6.06629 11.2218V11.7618H9.08429V11.2218H7.88429V6.80584H7.28429C6.94829 7.24384 6.54029 7.39384 6.04829 7.39384V7.96384C6.53429 7.96384 6.97829 7.80184 7.26629 7.49584V11.2218H6.06629ZM12.4385 11.8218C13.6685 11.8218 14.3105 11.0178 14.3105 9.67984V8.87584C14.3105 7.54984 13.6685 6.74584 12.4385 6.74584C11.1845 6.74584 10.5365 7.54984 10.5365 8.87584V9.67984C10.5365 11.0178 11.1785 11.8218 12.4385 11.8218ZM11.1725 9.73984V8.82184C11.1725 7.80184 11.5985 7.28584 12.4385 7.28584C12.8285 7.28584 13.1285 7.40584 13.3325 7.63984L11.3165 10.6038C11.2205 10.3698 11.1725 10.0878 11.1725 9.73984ZM11.5385 10.9458L13.5485 7.99984C13.6325 8.22184 13.6745 8.49184 13.6745 8.81584V9.73384C13.6745 10.7658 13.2545 11.2818 12.4385 11.2818C12.0485 11.2818 11.7485 11.1678 11.5385 10.9458ZM18.1092 11.8218C19.3392 11.8218 19.9812 11.0178 19.9812 9.67984V8.87584C19.9812 7.54984 19.3392 6.74584 18.1092 6.74584C16.8552 6.74584 16.2072 7.54984 16.2072 8.87584V9.67984C16.2072 11.0178 16.8492 11.8218 18.1092 11.8218ZM16.8432 9.73984V8.82184C16.8432 7.80184 17.2692 7.28584 18.1092 7.28584C18.4992 7.28584 18.7992 7.40584 19.0032 7.63984L16.9872 10.6038C16.8912 10.3698 16.8432 10.0878 16.8432 9.73984ZM17.2092 10.9458L19.2192 7.99984C19.3032 8.22184 19.3452 8.49184 19.3452 8.81584V9.73384C19.3452 10.7658 18.9252 11.2818 18.1092 11.2818C17.7192 11.2818 17.4192 11.1678 17.2092 10.9458Z" fill="black"/>
    </g>
    <defs>
        <clipPath id="clip0_773_6843">
            <rect width="111" height="124" fill="white" transform="translate(0 0.197754)"/>
        </clipPath>
    </defs>
</svg>
