<svg width="9" height="17" viewBox="0 0 9 17" fill="none" xmlns="http://www.w3.org/2000/svg">
    <path d="M8.11303 5.95002H6.03969V4.25002C6.03969 3.37283 6.11217 2.82033 7.38827 2.82033H8.13719C8.61346 2.82033 9 2.43953 9 1.97033V0.90443C9 0.459881 8.65401 0.0799317 8.20362 0.0501818C7.68248 0.0153318 7.16048 -0.00081815 6.63762 3.18484e-05C4.29681 3.18484e-05 2.58844 1.40848 2.58844 3.99417V5.95002H0.862813C0.38654 5.95002 0 6.33082 0 6.80002V8.50002C0 8.96921 0.38654 9.35001 0.862813 9.35001L2.58844 9.34916V16.15C2.58844 16.6192 2.97498 17 3.45125 17H5.17688C5.65315 17 6.03969 16.6192 6.03969 16.15V9.34746L7.91544 9.34661C8.35375 9.34661 8.72217 9.02276 8.77222 8.59351L8.9698 6.89692C9.02934 6.39287 8.62899 5.95002 8.11303 5.95002Z" fill="black"/>
</svg>