<svg width="25" height="25" viewBox="0 0 25 25" fill="none" xmlns="http://www.w3.org/2000/svg">
    <path d="M16.9748 9.91068H14.5718V7.91068C14.5718 6.87868 14.6558 6.22868 16.1348 6.22868H17.0028C17.5548 6.22868 18.0028 5.78068 18.0028 5.22868V3.97468C18.0028 3.45168 17.6018 3.00468 17.0798 2.96968C16.4758 2.92868 15.8708 2.90968 15.2648 2.91068C12.5518 2.91068 10.5718 4.56768 10.5718 7.60968V9.91068H8.57178C8.01978 9.91068 7.57178 10.3587 7.57178 10.9107V12.9107C7.57178 13.4627 8.01978 13.9107 8.57178 13.9107L10.5718 13.9097V21.9107C10.5718 22.4627 11.0198 22.9107 11.5718 22.9107H13.5718C14.1238 22.9107 14.5718 22.4627 14.5718 21.9107V13.9077L16.7458 13.9067C17.2538 13.9067 17.6808 13.5257 17.7388 13.0207L17.9678 11.0247C18.0368 10.4317 17.5728 9.91068 16.9748 9.91068Z" fill="white"/>
</svg>
