<svg width="19" height="18" viewBox="0 0 19 18" fill="none" xmlns="http://www.w3.org/2000/svg">
    <path d="M0.933594 18H4.66559V5.98276H0.933594V18Z" fill="black"/>
    <path d="M2.79747 0C1.60497 0 0.636719 0.96825 0.636719 2.1615C0.636719 3.35475 1.60497 4.34325 2.79747 4.34325C3.99072 4.34325 4.95897 3.35475 4.95897 2.1615C4.95897 0.96825 3.99072 0 2.79747 0V0Z" fill="black"/>
    <path d="M2.79747 0C1.60497 0 0.636719 0.96825 0.636719 2.1615C0.636719 3.35475 1.60497 4.34325 2.79747 4.34325H2.79972V0C2.79897 0 2.79822 0 2.79747 0Z" fill="black"/>
    <path d="M18.6327 18L18.6372 17.9993V11.3978C18.6372 8.16751 17.9419 5.68051 14.1664 5.68051C12.3514 5.68051 11.1342 6.67651 10.6362 7.62076H10.5844V5.98201H7.00391V17.9993H10.7314V12.0488C10.7314 10.482 11.0284 8.96776 12.9687 8.96776C14.8804 8.96776 14.9089 10.7558 14.9089 12.1508V18H18.6327Z" fill="black"/>
    <path d="M12.8209 5.88C11.7424 6.21825 10.9984 6.933 10.6362 7.62075H10.5844V5.982H7.00391V17.9993H10.7314V12.0488C10.7314 10.5233 11.0134 9.04651 12.8202 8.97076V5.88H12.8209Z" fill="black"/>
</svg>