<svg width="22" height="22" viewBox="0 0 22 22" fill="none" xmlns="http://www.w3.org/2000/svg">
    <path d="M20.1719 5.26633C19.502 5.56383 18.7824 5.76403 18.0271 5.85433C18.7985 5.39233 19.39 4.66083 19.6686 3.78863C18.9476 4.21633 18.1482 4.52713 17.297 4.69512C16.6159 3.96923 15.6457 3.51562 14.5719 3.51562C12.5097 3.51562 10.8381 5.18793 10.8381 7.24943C10.8381 7.54203 10.8717 7.82763 10.9347 8.09993C7.83159 7.94453 5.08059 6.45773 3.23819 4.19813C2.91759 4.74972 2.73349 5.39093 2.73349 6.07623C2.73349 7.37123 3.39219 8.51433 4.39389 9.18353C3.78209 9.16393 3.20599 8.99593 2.70269 8.71663C2.70269 8.73273 2.70269 8.74743 2.70269 8.76353C2.70269 10.573 3.98929 12.0822 5.69799 12.4245C5.38509 12.5099 5.05469 12.5554 4.71379 12.5554C4.47369 12.5554 4.23919 12.5316 4.01169 12.4889C4.48699 13.9722 5.86599 15.0523 7.49979 15.0824C6.22229 16.0841 4.61229 16.6812 2.86229 16.6812C2.56129 16.6812 2.26379 16.6637 1.97119 16.6287C3.62389 17.6878 5.58599 18.3059 7.69509 18.3059C14.5635 18.3059 18.3183 12.6163 18.3183 7.68202C18.3183 7.52033 18.3148 7.35933 18.3078 7.19903C19.0379 6.67193 19.6714 6.01463 20.1719 5.26633Z" fill="black"/>
</svg>
