<svg width="1080" height="564" viewBox="0 0 1080 565" fill="none" xmlns="http://www.w3.org/2000/svg">
    <g clip-path="url(#clip0_1801_15372)">
        <path d="M230.467 -0.0986328H133V108.371H230.467V-0.0986328Z" fill="#D8EC16"/>
        <path d="M230.467 -0.0986328H133V108.371H230.467V-0.0986328Z" stroke="black" stroke-miterlimit="10"/>
        <path d="M140.616 8.22529V7.48235C140.616 6.31487 141.202 5.625 142.321 5.625C143.439 5.625 143.972 6.31487 143.972 7.48235V8.17222C143.972 9.3397 143.386 10.0826 142.321 10.0826C141.202 10.0826 140.616 9.39277 140.616 8.22529ZM141.309 9.0213L143.119 6.42101C142.96 6.20874 142.693 6.1026 142.321 6.1026C141.575 6.1026 141.202 6.58021 141.202 7.48235V8.27836C141.202 8.5437 141.202 8.80903 141.309 9.0213V9.0213ZM142.321 9.60504C143.066 9.60504 143.439 9.12743 143.439 8.22529V7.42928C143.439 7.16395 143.386 6.89861 143.333 6.68634L141.575 9.28664C141.681 9.55197 141.948 9.60504 142.321 9.60504Z" fill="black"/>
        <path d="M145.303 9.71131C145.303 9.49904 145.463 9.33984 145.676 9.33984C145.889 9.33984 146.048 9.49904 146.048 9.71131C146.048 9.92358 145.889 10.0828 145.676 10.0828C145.463 10.0828 145.303 9.97665 145.303 9.71131Z" fill="black"/>
        <path d="M147.327 8.22529V7.48235C147.327 6.31487 147.913 5.625 149.031 5.625C150.15 5.625 150.683 6.31487 150.683 7.48235V8.17222C150.683 9.3397 150.097 10.0826 149.031 10.0826C147.913 10.0826 147.327 9.39277 147.327 8.22529V8.22529ZM148.019 9.0213L149.83 6.42101C149.671 6.20874 149.404 6.1026 149.031 6.1026C148.286 6.1026 147.913 6.58021 147.913 7.48235V8.27836C147.913 8.5437 147.913 8.80903 148.019 9.0213V9.0213ZM149.031 9.60504C149.777 9.60504 150.15 9.12743 150.15 8.22529V7.42928C150.15 7.16395 150.097 6.89861 150.043 6.68634L148.286 9.28664C148.392 9.55197 148.659 9.60504 149.031 9.60504V9.60504Z" fill="black"/>
        <path d="M152.067 8.22529V7.48235C152.067 6.31487 152.653 5.625 153.772 5.625C154.89 5.625 155.423 6.31487 155.423 7.48235V8.17222C155.423 9.3397 154.837 10.0826 153.772 10.0826C152.6 10.0826 152.067 9.39277 152.067 8.22529ZM152.76 9.0213L154.571 6.42101C154.411 6.20874 154.144 6.1026 153.772 6.1026C153.026 6.1026 152.653 6.58021 152.653 7.48235V8.27836C152.6 8.5437 152.653 8.80903 152.76 9.0213ZM153.718 9.60504C154.464 9.60504 154.837 9.12743 154.837 8.22529V7.42928C154.837 7.16395 154.784 6.89861 154.73 6.68634L152.919 9.28664C153.133 9.55197 153.399 9.60504 153.718 9.60504Z" fill="black"/>
        <path d="M156.754 8.22529V7.48235C156.754 6.31487 157.34 5.625 158.458 5.625C159.577 5.625 160.109 6.31487 160.109 7.48235V8.17222C160.109 9.3397 159.523 10.0826 158.458 10.0826C157.34 10.0826 156.754 9.39277 156.754 8.22529ZM157.446 9.0213L159.257 6.42101C159.097 6.20874 158.831 6.1026 158.458 6.1026C157.713 6.1026 157.34 6.58021 157.34 7.48235V8.27836C157.34 8.5437 157.34 8.80903 157.446 9.0213ZM158.458 9.60504C159.204 9.60504 159.577 9.12743 159.577 8.22529V7.42928C159.577 7.16395 159.523 6.89861 159.47 6.68634L157.659 9.28664C157.819 9.55197 158.085 9.60504 158.458 9.60504Z" fill="black"/>
        <path d="M161.494 8.22529V7.48235C161.494 6.31487 162.08 5.625 163.198 5.625C164.317 5.625 164.85 6.31487 164.85 7.48235V8.17222C164.85 9.3397 164.264 10.0826 163.198 10.0826C162.027 10.0826 161.494 9.39277 161.494 8.22529ZM162.187 9.0213L163.997 6.42101C163.838 6.20874 163.571 6.1026 163.198 6.1026C162.453 6.1026 162.08 6.58021 162.08 7.48235V8.27836C162.027 8.5437 162.08 8.80903 162.187 9.0213ZM163.145 9.60504C163.891 9.60504 164.264 9.12743 164.264 8.22529V7.42928C164.264 7.16395 164.21 6.89861 164.157 6.68634L162.346 9.28664C162.559 9.55197 162.826 9.60504 163.145 9.60504Z" fill="black"/>
        <path d="M167.193 9.55197V6.26181C166.927 6.52714 166.554 6.68634 166.128 6.68634V6.15567C166.554 6.15567 166.927 6.04954 167.247 5.625H167.779V9.55197H168.844V10.0296H166.181V9.55197H167.193Z" fill="black"/>
        <path d="M171.188 7.90689L171.774 7.69462C172.306 7.53542 172.626 7.37622 172.626 6.84554V6.79248C172.626 6.26181 172.253 6.04954 171.614 6.04954C170.868 6.04954 170.496 6.31487 170.496 7.00475V7.16395H169.91V7.05781C169.91 6.1026 170.442 5.625 171.561 5.625C172.573 5.625 173.105 6.04954 173.105 6.84554C173.105 7.58849 172.626 7.95996 171.987 8.11916L171.401 8.33143C170.549 8.5437 170.389 8.8621 170.389 9.55197H173.105V10.0296H169.856V9.4989C169.91 8.75596 170.123 8.17222 171.188 7.90689V7.90689Z" fill="black"/>
        <path d="M182.373 18.6797C177.046 18.6797 171.88 19.741 167.033 21.7576C162.346 23.7211 158.086 26.5867 154.464 30.1953C150.842 33.8038 147.966 37.9961 145.995 42.7191C143.918 47.5482 142.906 52.6958 142.906 58.0025C142.906 63.3092 143.971 68.4567 145.995 73.2858C147.966 77.9557 150.842 82.2011 154.464 85.8097C158.086 89.4183 162.293 92.2839 167.033 94.2474C171.88 96.317 177.046 97.3253 182.373 97.3253C187.699 97.3253 192.865 96.2639 197.712 94.2474C202.399 92.2839 206.66 89.4183 210.281 85.8097C213.903 82.2011 216.779 78.0088 218.75 73.2858C220.827 68.4567 221.839 63.3092 221.839 58.0025C221.839 52.6958 220.774 47.5482 218.75 42.7191" stroke="black" stroke-miterlimit="10"/>
        <path d="M182.373 28.709C174.543 28.709 167.14 31.7338 161.601 37.3059C156.062 42.8249 152.973 50.2012 152.973 58.0021C152.973 65.8029 156.009 73.1793 161.601 78.6983C167.193 84.2173 174.543 87.2952 182.373 87.2952C190.202 87.2952 197.605 84.2703 203.144 78.6983C208.684 73.1262 211.773 65.8029 211.773 58.0021" stroke="black" stroke-miterlimit="10"/>
        <path d="M182.373 38.8447C171.774 38.8447 163.146 47.4416 163.146 58.002C163.146 68.5624 171.774 77.1592 182.373 77.1592" stroke="black" stroke-miterlimit="10"/>
        <path d="M172.146 58.002C172.146 63.6271 176.727 68.1909 182.373 68.1909C188.018 68.1909 192.599 63.6271 192.599 58.002" stroke="black" stroke-miterlimit="10"/>
    </g>
    <path d="M10.8347 254.033V249.14C10.4393 249.535 9.88565 249.772 9.25293 249.772V249.062C9.88565 249.062 10.4393 248.904 10.9138 248.272H11.7047V254.112H13.2865V254.822H9.33202V254.112H10.8347V254.033V254.033Z" fill="black"/>
    <path d="M14.8682 252.06V251.034C14.8682 249.298 15.7382 248.193 17.399 248.193C19.0599 248.193 19.8508 249.219 19.8508 251.034V252.06C19.8508 253.796 18.9808 254.901 17.399 254.901C15.6591 254.822 14.8682 253.796 14.8682 252.06ZM15.8963 253.244L18.5854 249.377C18.3481 249.061 17.9527 248.904 17.399 248.904C16.2918 248.904 15.7382 249.614 15.7382 250.955V252.139C15.6591 252.533 15.7382 252.928 15.8963 253.244V253.244ZM17.32 254.112C18.4272 254.112 18.9808 253.401 18.9808 252.06V250.876C18.9808 250.482 18.9018 250.087 18.8227 249.772L16.2127 253.638C16.45 254.033 16.8454 254.112 17.32 254.112Z" fill="black"/>
    <path d="M21.7489 254.349C21.7489 254.033 21.9861 253.796 22.3025 253.796C22.6189 253.796 22.8561 254.033 22.8561 254.349C22.8561 254.664 22.6189 254.901 22.3025 254.901C21.9861 254.822 21.7489 254.664 21.7489 254.349Z" fill="black"/>
    <path d="M24.834 252.06V251.034C24.834 249.298 25.704 248.193 27.3649 248.193C29.0257 248.193 29.8167 249.219 29.8167 251.034V252.06C29.8167 253.796 28.9467 254.901 27.3649 254.901C25.6249 254.822 24.834 253.796 24.834 252.06V252.06ZM25.8622 253.244L28.5512 249.377C28.3139 249.061 27.9185 248.904 27.3649 248.904C26.2576 248.904 25.704 249.614 25.704 250.955V252.139C25.6249 252.533 25.704 252.928 25.8622 253.244ZM27.3649 254.112C28.4721 254.112 29.0258 253.401 29.0258 252.06V250.876C29.0258 250.482 28.9467 250.087 28.8676 249.772L26.2576 253.638C26.4158 254.033 26.8112 254.112 27.3649 254.112Z" fill="black"/>
    <path d="M31.7939 252.06V251.034C31.7939 249.298 32.6639 248.193 34.3248 248.193C35.9857 248.193 36.7766 249.219 36.7766 251.034V252.06C36.7766 253.796 35.9066 254.901 34.3248 254.901C32.6639 254.822 31.7939 253.796 31.7939 252.06ZM32.8221 253.244L35.5112 249.377C35.2739 249.061 34.8785 248.904 34.3248 248.904C33.2176 248.904 32.6639 249.614 32.6639 250.955V252.139C32.6639 252.533 32.743 252.928 32.8221 253.244ZM34.3248 254.112C35.4321 254.112 35.9857 253.401 35.9857 252.06V250.876C35.9857 250.482 35.9066 250.087 35.8275 249.772L33.2176 253.638C33.3757 254.033 33.8503 254.112 34.3248 254.112Z" fill="black"/>
    <path d="M43.6575 250.482V252.218C43.6575 253.875 42.8666 254.822 41.2057 254.822C39.703 254.822 39.0703 254.032 39.0703 253.007V252.928H39.9403V253.007C39.9403 253.717 40.4148 254.032 41.2848 254.032C42.313 254.032 42.9457 253.559 42.9457 252.454V251.823C42.5503 252.375 41.9175 252.612 41.1266 252.612C39.7821 252.612 38.9912 251.902 38.9912 250.56V250.245C38.9912 248.903 39.7821 248.114 41.443 248.114C42.8666 248.193 43.6575 248.903 43.6575 250.482V250.482ZM41.1266 251.902C42.0757 251.902 42.7875 251.507 42.7875 250.639V250.245C42.7875 249.298 42.2339 248.903 41.2057 248.903C40.1776 248.903 39.6239 249.298 39.6239 250.245V250.639C39.6239 251.586 40.1776 251.902 41.1266 251.902Z" fill="black"/>
    <path d="M45.7129 253.086V252.928C45.7129 252.06 46.1874 251.508 46.8992 251.35C46.2665 251.192 45.8711 250.718 45.8711 250.008V249.85C45.8711 248.825 46.662 248.193 48.1647 248.193C49.6674 248.193 50.3792 248.825 50.3792 249.85V250.008C50.3792 250.718 49.9047 251.192 49.351 251.35C50.0628 251.508 50.5374 252.06 50.5374 252.928V253.086C50.5374 254.269 49.7465 254.901 48.0856 254.901C46.4247 254.822 45.7129 254.19 45.7129 253.086ZM48.0856 254.19C49.1138 254.19 49.6674 253.875 49.6674 253.086V252.849C49.6674 252.06 49.0347 251.744 48.0856 251.744C47.1365 251.744 46.5038 251.981 46.5038 252.849V253.086C46.5038 253.875 47.0574 254.19 48.0856 254.19ZM48.0856 250.955C48.9556 250.955 49.5092 250.718 49.5092 250.008V249.772C49.5092 249.14 49.0347 248.825 48.0856 248.825C47.1365 248.825 46.662 249.14 46.662 249.772V250.008C46.662 250.718 47.2156 250.955 48.0856 250.955Z" fill="black"/>
    <path d="M93.2474 116.206H22.2246V130.331H93.2474V116.206Z" stroke="black" stroke-miterlimit="10"/>
    <path d="M126.228 136.801H22.2246V150.925H126.228V136.801Z" stroke="black" stroke-miterlimit="10"/>
    <path d="M112.941 157.396H22.2246V171.521H112.941V157.396Z" stroke="black" stroke-miterlimit="10"/>
    <path d="M88.4229 178.07H22.2246V192.195H88.4229V178.07Z" stroke="black" stroke-miterlimit="10"/>
    <path d="M74.424 198.666H22.2246V212.791H74.424V198.666Z" stroke="black" stroke-miterlimit="10"/>
    <path d="M53.8606 219.262H22.2246V233.386H53.8606V219.262Z" stroke="black" stroke-miterlimit="10"/>
    <rect x="0.5" y="108.5" width="145" height="161" stroke="black"/>
    <path d="M852.029 464.47H853.62C854.646 464.47 855.313 464.981 855.313 466.259V466.923C855.313 468.201 854.698 468.713 853.62 468.713H852.029V464.47V464.47ZM853.62 468.253C854.39 468.253 854.749 467.844 854.749 466.975V466.208C854.749 465.288 854.441 464.93 853.62 464.93H852.594V468.253H853.62Z" fill="black"/>
    <path d="M859.316 468.304V467.639C859.316 467.077 858.905 466.975 858.495 466.975H857.263V468.713H856.75V464.47H858.546C859.469 464.47 859.88 464.828 859.88 465.645V465.697C859.88 466.259 859.675 466.617 859.213 466.719C859.675 466.821 859.88 467.179 859.88 467.639V468.304C859.88 468.457 859.88 468.61 859.931 468.662H859.418C859.316 468.61 859.316 468.457 859.316 468.304V468.304ZM858.495 466.515C858.956 466.515 859.316 466.361 859.316 465.748V465.594C859.316 465.032 859.008 464.879 858.495 464.879H857.263V466.463L858.495 466.515V466.515Z" fill="black"/>
    <path d="M861.162 468.201H862.035V464.93H861.162V464.47H863.471V464.93H862.599V468.201H863.471V468.662H861.162V468.201Z" fill="black"/>
    <path d="M864.857 464.47H866.755C867.525 464.47 867.935 464.776 867.935 465.492V465.543C867.935 466.054 867.73 466.31 867.422 466.463C867.781 466.566 868.089 466.923 868.089 467.486V467.537C868.089 468.355 867.679 468.713 866.858 468.713H864.908V464.47H864.857ZM866.652 466.259C867.012 466.259 867.371 466.157 867.371 465.645V465.543C867.371 465.032 867.114 464.981 866.704 464.981H865.421V466.31H866.652V466.259V466.259ZM866.755 468.201C867.268 468.201 867.525 467.997 867.525 467.486V467.384C867.525 466.872 867.268 466.719 866.755 466.719H865.421V468.201H866.755Z" fill="black"/>
    <path d="M869.475 464.47H871.373C872.143 464.47 872.553 464.776 872.553 465.492V465.543C872.553 466.054 872.348 466.31 872.04 466.463C872.4 466.566 872.707 466.923 872.707 467.486V467.537C872.707 468.355 872.297 468.713 871.476 468.713H869.526V464.47H869.475ZM871.271 466.259C871.63 466.259 871.989 466.157 871.989 465.645V465.543C871.989 465.032 871.732 464.981 871.322 464.981H870.039V466.31H871.271V466.259V466.259ZM871.322 468.201C871.835 468.201 872.092 467.997 872.092 467.486V467.384C872.092 466.872 871.835 466.719 871.322 466.719H869.988V468.201H871.322Z" fill="black"/>
    <path d="M874.041 464.47H874.554V468.253H876.709V468.713H874.041V464.47Z" fill="black"/>
    <path d="M877.992 464.47H880.66V464.93H878.505V466.361H880.558V466.821H878.505V468.253H880.66V468.713H877.992V464.47Z" fill="black"/>
    <path d="M876.966 542.479H904.006L918.681 527.449L934.074 538.287L954.752 521.571L1015.04 535.782L1047.93 513.289" stroke="black" stroke-miterlimit="10"/>
    <path d="M876.966 500.918H905.135L922.478 516.816L971.12 505.315L984.666 546.108L1013.09 512.982L1035.87 538.185L1047.93 537.622" stroke="black" stroke-miterlimit="10"/>
    <path d="M876.966 523.513L910.318 483.333L935.973 492.841L986.821 478.937L994.825 493.71L1023.1 489.928L1030.28 496.215H1047.93" stroke="black" stroke-miterlimit="10"/>
    <path d="M872.194 505.621C874.801 505.621 876.915 503.516 876.915 500.918C876.915 498.321 874.801 496.215 872.194 496.215C869.587 496.215 867.474 498.321 867.474 500.918C867.474 503.516 869.587 505.621 872.194 505.621Z" stroke="black" stroke-miterlimit="10"/>
    <path d="M872.194 547.182C874.801 547.182 876.915 545.076 876.915 542.479C876.915 539.881 874.801 537.776 872.194 537.776C869.587 537.776 867.474 539.881 867.474 542.479C867.474 545.076 869.587 547.182 872.194 547.182Z" stroke="black" stroke-miterlimit="10"/>
    <path d="M872.194 528.216C874.801 528.216 876.915 526.11 876.915 523.513C876.915 520.915 874.801 518.81 872.194 518.81C869.587 518.81 867.474 520.915 867.474 523.513C867.474 526.11 869.587 528.216 872.194 528.216Z" stroke="black" stroke-miterlimit="10"/>
    <path d="M1052.65 542.428C1055.26 542.428 1057.37 540.322 1057.37 537.725C1057.37 535.127 1055.26 533.022 1052.65 533.022C1050.04 533.022 1047.93 535.127 1047.93 537.725C1047.93 540.322 1050.04 542.428 1052.65 542.428Z" stroke="black" stroke-miterlimit="10"/>
    <path d="M1052.65 500.918C1055.26 500.918 1057.37 498.812 1057.37 496.215C1057.37 493.618 1055.26 491.512 1052.65 491.512C1050.04 491.512 1047.93 493.618 1047.93 496.215C1047.93 498.812 1050.04 500.918 1052.65 500.918Z" stroke="black" stroke-miterlimit="10"/>
    <path d="M1052.65 517.992C1055.26 517.992 1057.37 515.887 1057.37 513.289C1057.37 510.692 1055.26 508.586 1052.65 508.586C1050.04 508.586 1047.93 510.692 1047.93 513.289C1047.93 515.887 1050.04 517.992 1052.65 517.992Z" stroke="black" stroke-miterlimit="10"/>
    <rect x="845.5" y="459.5" width="234" height="104" stroke="black"/>
    <rect x="987.5" y="357.5" width="92" height="102" fill="#8F6CFF"/>
    <path d="M1052.66 417.702H1042.72H1031.71C1031.46 417.702 1031.22 417.648 1030.99 417.544C1030.77 417.44 1030.57 417.288 1030.41 417.1C1030.25 416.911 1030.13 416.69 1030.06 416.452C1030 416.214 1029.99 415.964 1030.03 415.721L1031.48 407.586C1031.81 405.813 1032.96 404.783 1034.85 404.788L1042.81 404.805C1043.44 404.807 1044.05 404.589 1044.53 404.189C1045.01 403.789 1045.34 403.233 1045.45 402.619L1047.37 391.811C1047.39 391.701 1047.68 390.05 1047.97 388.452C1048.04 388.072 1048.02 387.681 1047.92 387.308C1047.82 386.935 1047.64 386.588 1047.39 386.292C1047.13 385.996 1046.82 385.758 1046.47 385.595C1046.11 385.432 1045.73 385.348 1045.34 385.349H1037.66C1037.03 385.348 1036.43 385.564 1035.95 385.958C1035.47 386.353 1035.14 386.901 1035.03 387.508L1034.22 391.811H1034.25L1032.47 401.948C1032.13 403.776 1030.98 404.731 1029.1 404.753H1020.96C1020.71 404.753 1020.46 404.699 1020.24 404.595C1020.01 404.49 1019.81 404.339 1019.65 404.15C1019.49 403.961 1019.37 403.74 1019.31 403.502C1019.24 403.264 1019.23 403.015 1019.27 402.772L1019.89 399.294C1019.91 399.172 1019.91 399.048 1019.88 398.929C1019.84 398.81 1019.79 398.699 1019.71 398.605C1019.63 398.51 1019.53 398.435 1019.41 398.383C1019.3 398.33 1019.18 398.303 1019.05 398.303H1014.63C1014.32 398.303 1014.01 398.414 1013.77 398.615C1013.53 398.816 1013.37 399.096 1013.32 399.404L1012.64 403.25C1012.61 403.439 1012.62 403.633 1012.67 403.819C1012.72 404.004 1012.81 404.176 1012.93 404.323C1013.06 404.471 1013.21 404.589 1013.39 404.671C1013.56 404.752 1013.76 404.795 1013.95 404.796L1016.82 404.803C1017.06 404.803 1017.31 404.857 1017.54 404.961C1017.76 405.066 1017.96 405.217 1018.12 405.406C1018.28 405.595 1018.4 405.816 1018.46 406.054C1018.53 406.292 1018.54 406.541 1018.5 406.783L1016.92 415.753C1016.88 415.996 1016.89 416.245 1016.96 416.483C1017.02 416.721 1017.14 416.942 1017.3 417.13C1017.46 417.319 1017.66 417.471 1017.88 417.575C1018.11 417.679 1018.36 417.734 1018.6 417.734L1027.59 417.753C1027.84 417.753 1028.09 417.807 1028.31 417.912C1028.54 418.016 1028.74 418.168 1028.9 418.356C1029.06 418.545 1029.17 418.766 1029.24 419.004C1029.3 419.242 1029.32 419.491 1029.27 419.734L1027.9 427.59C1027.83 427.969 1027.85 428.359 1027.95 428.731C1028.05 429.103 1028.23 429.448 1028.48 429.744C1028.73 430.039 1029.04 430.276 1029.4 430.439C1029.75 430.602 1030.13 430.686 1030.52 430.687L1040.44 430.706L1040.45 430.68L1051.28 430.702C1051.91 430.704 1052.52 430.486 1053 430.086C1053.48 429.686 1053.81 429.13 1053.91 428.517L1055.28 420.813C1055.35 420.433 1055.34 420.042 1055.24 419.668C1055.14 419.294 1054.96 418.947 1054.71 418.65C1054.45 418.353 1054.14 418.115 1053.79 417.951C1053.43 417.787 1053.05 417.702 1052.66 417.702V417.702Z" fill="black"/>
    <rect x="987.5" y="357.5" width="92" height="102" stroke="black"/>
    <rect x="230.5" y="50.5" width="615" height="409" stroke="black"/>
    <defs>
        <clipPath id="clip0_1801_15372">
            <rect width="99" height="109" fill="white" transform="translate(132)"/>
        </clipPath>
    </defs>
</svg>
