<svg width="339" height="465" viewBox="0 0 339 465" fill="none" xmlns="http://www.w3.org/2000/svg">
    <path d="M23.637 42.6008H24.6521C25.1742 42.6008 25.4352 42.8641 25.4352 43.3906V43.4199C25.4352 43.9465 25.1742 44.2097 24.6521 44.2097H23.9271V45.0289H23.637V42.6008ZM24.6521 43.9465C25.0002 43.9465 25.1452 43.8002 25.1452 43.4491V43.3321C25.1452 42.9811 25.0002 42.8641 24.6521 42.8641H23.9561V43.9465H24.6521Z" fill="black"/>
    <path d="M26.7694 42.6008H27.1755L27.9586 45.0289H27.6395L27.4945 44.5608H26.4504L26.3054 45.0289H25.9863L26.7694 42.6008ZM27.4075 44.2682L27.0014 42.9226L26.9724 42.8933L26.9434 42.9226L26.5374 44.2682H27.4075Z" fill="black"/>
    <path d="M28.5386 44.239V44.1512H28.8576V44.2682C28.8576 44.6193 29.0606 44.7655 29.4957 44.7655C29.8727 44.7655 30.0177 44.6485 30.0177 44.3852V44.356C30.0177 44.0927 29.8727 44.0049 29.5827 43.9464L29.1476 43.8002C28.8286 43.7124 28.5966 43.5369 28.5966 43.1858C28.5966 42.7763 28.8866 42.5422 29.4087 42.5422C29.9597 42.5422 30.2788 42.8055 30.2788 43.2443V43.3028H29.9597V43.2151C29.9597 42.9225 29.7857 42.7763 29.4087 42.7763C29.0606 42.7763 28.8866 42.8933 28.8866 43.1273V43.1566C28.8866 43.3906 29.0606 43.4784 29.2927 43.5369L29.7567 43.6831C30.0758 43.7709 30.3368 43.9172 30.3368 44.3267C30.3368 44.7948 30.0758 44.9996 29.4667 44.9996C28.8286 45.0288 28.5386 44.7655 28.5386 44.239Z" fill="black"/>
    <path d="M31.0039 44.239V44.1512H31.3229V44.2682C31.3229 44.6193 31.526 44.7655 31.961 44.7655C32.3381 44.7655 32.4831 44.6485 32.4831 44.3852V44.356C32.4831 44.0927 32.3381 44.0049 32.048 43.9464L31.613 43.8002C31.2939 43.7124 31.0619 43.5369 31.0619 43.1858C31.0619 42.7763 31.3519 42.5422 31.874 42.5422C32.4251 42.5422 32.7441 42.8055 32.7441 43.2443V43.3028H32.4251V43.2151C32.4251 42.9225 32.2511 42.7763 31.874 42.7763C31.526 42.7763 31.3519 42.8933 31.3519 43.1273V43.1566C31.3519 43.3906 31.526 43.4784 31.758 43.5369L32.222 43.6831C32.5411 43.7709 32.8021 43.9172 32.8021 44.3267C32.8021 44.7948 32.5411 44.9996 31.932 44.9996C31.2939 45.0288 31.0039 44.7655 31.0039 44.239Z" fill="black"/>
    <path d="M26.2184 76.0381C26.8591 76.0381 27.3785 75.5142 27.3785 74.8679C27.3785 74.2217 26.8591 73.6978 26.2184 73.6978C25.5776 73.6978 25.0582 74.2217 25.0582 74.8679C25.0582 75.5142 25.5776 76.0381 26.2184 76.0381Z" stroke="black" stroke-miterlimit="10"/>
    <path d="M32.4831 76.0674C33.5723 76.0674 34.4553 75.1767 34.4553 74.0781C34.4553 72.9794 33.5723 72.0888 32.4831 72.0888C31.3939 72.0888 30.5109 72.9794 30.5109 74.0781C30.5109 75.1767 31.3939 76.0674 32.4831 76.0674Z" stroke="black" stroke-miterlimit="10"/>
    <path d="M40.082 76.0381C41.6037 76.0381 42.8373 74.7938 42.8373 73.2589C42.8373 71.7241 41.6037 70.4798 40.082 70.4798C38.5603 70.4798 37.3267 71.7241 37.3267 73.2589C37.3267 74.7938 38.5603 76.0381 40.082 76.0381Z" stroke="black" stroke-miterlimit="10"/>
    <path d="M49.4211 76.0381C51.3913 76.0381 52.9885 74.4271 52.9885 72.4399C52.9885 70.4526 51.3913 68.8416 49.4211 68.8416C47.4508 68.8416 45.8536 70.4526 45.8536 72.4399C45.8536 74.4271 47.4508 76.0381 49.4211 76.0381Z" stroke="black" stroke-miterlimit="10"/>
    <path d="M60.1813 76.0673C62.6001 76.0673 64.5608 74.0896 64.5608 71.65C64.5608 69.2103 62.6001 67.2326 60.1813 67.2326C57.7626 67.2326 55.8018 69.2103 55.8018 71.65C55.8018 74.0896 57.7626 76.0673 60.1813 76.0673Z" stroke="black" stroke-miterlimit="10"/>
    <path d="M71.9857 76.0381C74.8369 76.0381 77.1483 73.7067 77.1483 70.8309C77.1483 67.955 74.8369 65.6237 71.9857 65.6237C69.1344 65.6237 66.8231 67.955 66.8231 70.8309C66.8231 73.7067 69.1344 76.0381 71.9857 76.0381Z" stroke="black" stroke-miterlimit="10"/>
    <path d="M85.6463 76.0381C88.946 76.0381 91.621 73.34 91.621 70.0117C91.621 66.6835 88.946 63.9854 85.6463 63.9854C82.3465 63.9854 79.6716 66.6835 79.6716 70.0117C79.6716 73.34 82.3465 76.0381 85.6463 76.0381Z" stroke="black" stroke-miterlimit="10"/>
    <path d="M101.018 76.0381C104.75 76.0381 107.776 72.9864 107.776 69.2219C107.776 65.4574 104.75 62.4057 101.018 62.4057C97.2859 62.4057 94.2603 65.4574 94.2603 69.2219C94.2603 72.9864 97.2859 76.0381 101.018 76.0381Z" stroke="black" stroke-miterlimit="10"/>
    <rect x="19.7285" y="39.9998" width="93" height="59" stroke="black"/>
    <rect x="19.7285" y="0.999817" width="52" height="39" fill="#8F6CFF"/>
    <path d="M21.9415 2.67224H22.8872V2.8359H22.1286V3.33079H22.8478V3.49445H22.1286V3.98934H22.8872V4.153H21.9415V2.67419V2.67224Z" fill="black"/>
    <path d="M24.414 4.01856V3.78281C24.414 3.58408 24.2741 3.54511 24.1303 3.54511H23.691V4.15105H23.5018V2.67224H24.1343C24.4554 2.67224 24.6091 2.79499 24.6091 3.08724V3.09699C24.6091 3.29962 24.5322 3.41457 24.3746 3.46133C24.5283 3.5003 24.6071 3.6172 24.6071 3.78281V4.01662C24.6071 4.06532 24.6071 4.12183 24.6268 4.1491H24.4377C24.416 4.12572 24.416 4.06727 24.416 4.01662L24.414 4.01856ZM24.1303 3.38534C24.2998 3.38534 24.4121 3.33858 24.4121 3.12621V3.07945C24.4121 2.88072 24.3116 2.83201 24.1146 2.83201H23.689V3.38534H24.1284H24.1303Z" fill="black"/>
    <path d="M26.1596 4.01856V3.78281C26.1596 3.58408 26.0198 3.54511 25.8759 3.54511H25.4366V4.15105H25.2474V2.67224H25.8799C26.203 2.67224 26.3547 2.79499 26.3547 3.08724V3.09699C26.3547 3.29962 26.2759 3.41457 26.1202 3.46133C26.2739 3.5003 26.3547 3.6172 26.3547 3.78281V4.01662C26.3547 4.06532 26.3547 4.12183 26.3744 4.1491H26.1852C26.1636 4.12572 26.1636 4.06727 26.1636 4.01662L26.1596 4.01856ZM25.8759 3.38534C26.0454 3.38534 26.1577 3.33858 26.1577 3.12621V3.07945C26.1577 2.88072 26.0572 2.83201 25.8602 2.83201H25.4346V3.38534H25.874H25.8759Z" fill="black"/>
    <path d="M26.9319 3.52954V3.28989C26.9319 2.93334 27.1447 2.65472 27.5565 2.65472C27.9683 2.65472 28.1791 2.93334 28.1791 3.28989V3.52954C28.1791 3.88999 27.9683 4.16861 27.5565 4.16861C27.1447 4.16861 26.9319 3.88999 26.9319 3.52954ZM27.5565 4.00105C27.8441 4.00105 27.986 3.814 27.986 3.54708V3.27236C27.986 3.00738 27.8441 2.82034 27.5565 2.82034C27.2688 2.82034 27.125 3.00738 27.125 3.27236V3.54708C27.125 3.81595 27.2669 4.00105 27.5565 4.00105Z" fill="black"/>
    <path d="M29.7021 4.01856V3.78281C29.7021 3.58408 29.5622 3.54511 29.4183 3.54511H28.979V4.15105H28.7899V2.67224H29.4223C29.7454 2.67224 29.8971 2.79499 29.8971 3.08724V3.09699C29.8971 3.29962 29.8183 3.41457 29.6626 3.46133C29.8163 3.5003 29.8971 3.6172 29.8971 3.78281V4.01662C29.8971 4.06532 29.8971 4.12183 29.9168 4.1491H29.7277C29.706 4.12572 29.706 4.06727 29.706 4.01662L29.7021 4.01856ZM29.4183 3.38534C29.5878 3.38534 29.7001 3.33858 29.7001 3.12621V3.07945C29.7001 2.88072 29.5996 2.83201 29.4026 2.83201H28.977V3.38534H29.4164H29.4183Z" fill="black"/>
    <path d="M36.9602 30.2923H32.9115L32.4012 14.23H37.4705L36.9602 30.2923Z" stroke="black" stroke-miterlimit="10"/>
    <path d="M36.9582 32.4998H32.9135V35.2723H36.9582V32.4998Z" stroke="black" stroke-miterlimit="10"/>
    <path d="M47.7529 30.2923H43.7041L43.1938 14.23H48.2631L47.7529 30.2923Z" stroke="black" stroke-miterlimit="10"/>
    <path d="M47.7529 32.4998H43.7081V35.2723H47.7529V32.4998Z" stroke="black" stroke-miterlimit="10"/>
    <path d="M58.5475 30.2923H54.4988L53.9885 14.23H59.0578L58.5475 30.2923Z" stroke="black" stroke-miterlimit="10"/>
    <path d="M58.5456 32.4998H54.5008V35.2723H58.5456V32.4998Z" stroke="black" stroke-miterlimit="10"/>
    <rect x="19.7285" y="0.999817" width="52" height="39" stroke="black"/>
    <rect x="0.5" y="39.9998" width="19" height="21" fill="#E1F32C"/>
    <path d="M1.28632 41.5185V41.3791C1.28632 41.1431 1.3987 40.9929 1.61326 40.9929C1.82782 40.9929 1.92999 41.1324 1.92999 41.3791V41.5185C1.92999 41.7545 1.81761 41.9047 1.61326 41.9047C1.3987 41.8939 1.28632 41.7545 1.28632 41.5185ZM1.41914 41.6794L1.76652 41.1538C1.73587 41.1109 1.68478 41.0895 1.61326 41.0895C1.47022 41.0895 1.3987 41.186 1.3987 41.3683V41.5292C1.3987 41.5829 1.40892 41.6365 1.41914 41.6794ZM1.61326 41.7974C1.7563 41.7974 1.82782 41.7009 1.82782 41.5185V41.3576C1.82782 41.304 1.81761 41.2504 1.80739 41.2074L1.47022 41.733C1.50088 41.776 1.55196 41.7974 1.61326 41.7974Z" fill="black"/>
    <path d="M2.18542 41.8189C2.18542 41.776 2.21608 41.7438 2.25694 41.7438C2.29781 41.7438 2.32846 41.776 2.32846 41.8189C2.32846 41.8618 2.29781 41.8939 2.25694 41.8939C2.21608 41.8939 2.18542 41.8725 2.18542 41.8189Z" fill="black"/>
    <path d="M2.58386 41.5185V41.3791C2.58386 41.1431 2.69625 40.9929 2.91081 40.9929C3.12537 40.9929 3.22754 41.1324 3.22754 41.3791V41.5185C3.22754 41.7545 3.11515 41.9047 2.91081 41.9047C2.68603 41.8939 2.58386 41.7545 2.58386 41.5185ZM2.71668 41.6794L3.06407 41.1538C3.03342 41.1109 2.98233 41.0895 2.91081 41.0895C2.76777 41.0895 2.69625 41.186 2.69625 41.3683V41.5292C2.68603 41.5829 2.69625 41.6365 2.71668 41.6794ZM2.90059 41.7974C3.04363 41.7974 3.11515 41.7009 3.11515 41.5185V41.3576C3.11515 41.304 3.10494 41.2504 3.09472 41.2074L2.75755 41.733C2.7882 41.776 2.83929 41.7974 2.90059 41.7974Z" fill="black"/>
    <path d="M3.72823 41.4542L3.8304 41.4113C3.93257 41.3791 3.99388 41.3469 3.99388 41.2396V41.2289C3.99388 41.1217 3.92236 41.0895 3.79975 41.0895C3.65671 41.0895 3.58519 41.1431 3.58519 41.2826V41.3147H3.4728V41.2933C3.4728 41.1002 3.57497 41.0037 3.78953 41.0037C3.98366 41.0037 4.08583 41.0895 4.08583 41.2504C4.08583 41.4005 3.99388 41.4756 3.87127 41.5078L3.75888 41.5507C3.58519 41.5936 3.56476 41.658 3.56476 41.7974H4.08583V41.894H3.46259V41.7867C3.48302 41.6258 3.52389 41.5078 3.72823 41.4542Z" fill="black"/>
    <path d="M4.88275 41.6043H4.98493V41.7009H4.88275V41.8832H4.78058V41.7009H4.34125V41.6043L4.78058 41.0037H4.88275V41.6043ZM4.77037 41.6043V41.1538L4.4332 41.6043H4.77037Z" fill="black"/>
    <path d="M5.21991 41.5829V41.3469C5.21991 41.1216 5.32208 40.9929 5.53664 40.9929C5.73077 40.9929 5.8125 41.1002 5.8125 41.2396V41.2504H5.71033V41.2396C5.71033 41.1431 5.64903 41.1002 5.53664 41.1002C5.40382 41.1002 5.32208 41.1645 5.32208 41.3147V41.4005C5.37317 41.3254 5.4549 41.2933 5.55707 41.2933C5.73077 41.2933 5.83294 41.3898 5.83294 41.5721V41.6151C5.83294 41.7974 5.73077 41.9047 5.51621 41.9047C5.32208 41.8939 5.21991 41.7974 5.21991 41.5829ZM5.53664 41.7974C5.66946 41.7974 5.74098 41.7438 5.74098 41.6151V41.5614C5.74098 41.4327 5.66946 41.3898 5.54686 41.3898C5.42425 41.3898 5.3323 41.4434 5.3323 41.5614V41.6151C5.3323 41.7438 5.40382 41.7974 5.53664 41.7974Z" fill="black"/>
    <path d="M3.76807 46.5579L16.2319 59.3642" stroke="black" stroke-miterlimit="10"/>
    <path d="M16.2319 46.5579L3.76807 59.3642" stroke="black" stroke-miterlimit="10"/>
    <rect x="0.5" y="39.9998" width="19" height="21" stroke="black"/>
    <rect x="234" y="404.5" width="54" height="60" fill="#00CEF5"/>
    <path d="M278.992 439.532C279.089 429.654 271.112 421.568 261.174 421.471C251.236 421.375 243.101 429.304 243.004 439.182C242.907 449.061 250.885 457.147 260.822 457.243C270.76 457.34 278.895 449.41 278.992 439.532Z" stroke="black" stroke-miterlimit="10"/>
    <path d="M237.616 407.313H239.051V407.563H237.9V408.317H238.991V408.567H237.9V409.322H239.051V409.571H237.616V407.316V407.313Z" fill="black"/>
    <path d="M241.367 409.366V409.007C241.367 408.703 241.155 408.644 240.937 408.644H240.27V409.568H239.984V407.313H240.943C241.433 407.313 241.663 407.5 241.663 407.946V407.961C241.663 408.27 241.544 408.445 241.308 408.516C241.541 408.576 241.66 408.754 241.66 409.007V409.363C241.66 409.437 241.66 409.524 241.69 409.565H241.403C241.37 409.529 241.37 409.44 241.37 409.363L241.367 409.366ZM240.937 408.4C241.194 408.4 241.364 408.329 241.364 408.005V407.934C241.364 407.631 241.212 407.557 240.913 407.557H240.267V408.4H240.934H240.937Z" fill="black"/>
    <path d="M244.016 409.366V409.007C244.016 408.703 243.804 408.644 243.585 408.644H242.919V409.568H242.632V407.313H243.591C244.082 407.313 244.312 407.5 244.312 407.946V407.961C244.312 408.27 244.192 408.445 243.956 408.516C244.189 408.576 244.312 408.754 244.312 409.007V409.363C244.312 409.437 244.312 409.524 244.342 409.565H244.055C244.022 409.529 244.022 409.44 244.022 409.363L244.016 409.366ZM243.585 408.4C243.842 408.4 244.013 408.329 244.013 408.005V407.934C244.013 407.631 243.86 407.557 243.561 407.557H242.916V408.4H243.582H243.585Z" fill="black"/>
    <path d="M245.188 408.62V408.255C245.188 407.711 245.507 407.286 246.135 407.286C246.763 407.286 247.08 407.711 247.08 408.255V408.62C247.08 409.17 246.76 409.595 246.135 409.595C245.51 409.595 245.188 409.17 245.188 408.62ZM246.135 409.339C246.571 409.339 246.787 409.054 246.787 408.647V408.228C246.787 407.824 246.571 407.539 246.135 407.539C245.699 407.539 245.48 407.824 245.48 408.228V408.647C245.48 409.057 245.696 409.339 246.135 409.339Z" fill="black"/>
    <path d="M249.39 409.366V409.007C249.39 408.703 249.178 408.644 248.96 408.644H248.293V409.568H248.006V407.313H248.966C249.456 407.313 249.686 407.5 249.686 407.946V407.961C249.686 408.27 249.567 408.445 249.331 408.516C249.564 408.576 249.686 408.754 249.686 409.007V409.363C249.686 409.437 249.686 409.524 249.716 409.565H249.429C249.396 409.529 249.396 409.44 249.396 409.363L249.39 409.366ZM248.96 408.4C249.217 408.4 249.387 408.329 249.387 408.005V407.934C249.387 407.631 249.235 407.557 248.936 407.557H248.29V408.4H248.957H248.96Z" fill="black"/>
    <path d="M251.309 436.336L255.769 439.952" stroke="black" stroke-miterlimit="10"/>
    <path d="M255.769 436.336L251.309 439.952" stroke="black" stroke-miterlimit="10"/>
    <path d="M265.771 436.336L270.23 439.952" stroke="black" stroke-miterlimit="10"/>
    <path d="M270.23 436.336L265.771 439.952" stroke="black" stroke-miterlimit="10"/>
    <path d="M260.913 452.732C262.678 452.732 264.109 451.145 264.109 449.187C264.109 447.229 262.678 445.642 260.913 445.642C259.149 445.642 257.718 447.229 257.718 449.187C257.718 451.145 259.149 452.732 260.913 452.732Z" stroke="black" stroke-miterlimit="10"/>
    <rect x="234" y="404.5" width="54" height="60" stroke="black"/>
    <path d="M290.78 372.955V372.613C290.78 372.034 291.067 371.665 291.614 371.665C292.161 371.665 292.422 372.007 292.422 372.613V372.955C292.422 373.534 292.135 373.903 291.614 373.903C291.067 373.877 290.78 373.534 290.78 372.955ZM291.119 373.35L292.005 372.06C291.927 371.955 291.796 371.902 291.614 371.902C291.249 371.902 291.067 372.139 291.067 372.586V372.981C291.067 373.113 291.093 373.245 291.119 373.35ZM291.614 373.64C291.979 373.64 292.161 373.403 292.161 372.955V372.56C292.161 372.428 292.135 372.297 292.109 372.191L291.249 373.482C291.327 373.587 291.458 373.64 291.614 373.64Z" fill="black"/>
    <path d="M293.073 373.692C293.073 373.587 293.151 373.508 293.255 373.508C293.359 373.508 293.438 373.587 293.438 373.692C293.438 373.798 293.359 373.877 293.255 373.877C293.151 373.877 293.073 373.824 293.073 373.692Z" fill="black"/>
    <path d="M294.089 372.955V372.613C294.089 372.034 294.376 371.665 294.923 371.665C295.47 371.665 295.73 372.007 295.73 372.613V372.955C295.73 373.534 295.444 373.903 294.923 373.903C294.35 373.877 294.089 373.534 294.089 372.955ZM294.428 373.35L295.314 372.06C295.235 371.955 295.105 371.902 294.923 371.902C294.558 371.902 294.376 372.139 294.376 372.586V372.981C294.35 373.113 294.376 373.245 294.428 373.35ZM294.897 373.64C295.261 373.64 295.444 373.403 295.444 372.955V372.56C295.444 372.428 295.418 372.297 295.392 372.191L294.532 373.482C294.61 373.587 294.74 373.64 294.897 373.64Z" fill="black"/>
    <path d="M297.007 372.797L297.268 372.692C297.528 372.613 297.684 372.534 297.684 372.27V372.244C297.684 371.981 297.502 371.902 297.189 371.902C296.825 371.902 296.642 372.033 296.642 372.376V372.455H296.356V372.402C296.356 371.928 296.616 371.691 297.163 371.691C297.658 371.691 297.919 371.902 297.919 372.297C297.919 372.665 297.684 372.85 297.372 372.929L297.085 373.034C296.642 373.139 296.59 373.297 296.59 373.64H297.919V373.876H296.33V373.613C296.382 373.218 296.486 372.929 297.007 372.797Z" fill="black"/>
    <path d="M299.951 373.166H300.212V373.403H299.951V373.85H299.69V373.403H298.57V373.166L299.69 371.691H299.951V373.166ZM299.664 373.166V372.06L298.805 373.166H299.664Z" fill="black"/>
    <path d="M300.811 373.113V372.534C300.811 371.981 301.071 371.665 301.618 371.665C302.113 371.665 302.322 371.928 302.322 372.27V372.297H302.061V372.27C302.061 372.034 301.905 371.928 301.618 371.928C301.28 371.928 301.071 372.086 301.071 372.455V372.665C301.202 372.481 301.41 372.402 301.671 372.402C302.113 372.402 302.374 372.639 302.374 373.087V373.192C302.374 373.64 302.113 373.903 301.566 373.903C301.071 373.877 300.811 373.64 300.811 373.113ZM301.618 373.64C301.957 373.64 302.14 373.508 302.14 373.192V373.06C302.14 372.744 301.957 372.639 301.645 372.639C301.332 372.639 301.097 372.771 301.097 373.06V373.192C301.097 373.508 301.28 373.64 301.618 373.64Z" fill="black"/>
    <path d="M297.109 385.324L328.891 416.758" stroke="black" stroke-miterlimit="10"/>
    <path d="M328.891 385.324L297.109 416.758" stroke="black" stroke-miterlimit="10"/>
    <rect x="288" y="368.5" width="50" height="53" stroke="black"/>
    <rect x="282" y="413.5" width="20" height="21" fill="#E1F32C"/>
    <path d="M282.851 415.019V414.879C282.851 414.643 282.969 414.493 283.194 414.493C283.419 414.493 283.527 414.633 283.527 414.879V415.019C283.527 415.255 283.409 415.405 283.194 415.405C282.969 415.394 282.851 415.255 282.851 415.019ZM282.99 415.18L283.355 414.654C283.323 414.611 283.269 414.59 283.194 414.59C283.044 414.59 282.969 414.686 282.969 414.869V415.029C282.969 415.083 282.979 415.137 282.99 415.18ZM283.194 415.298C283.344 415.298 283.419 415.201 283.419 415.019V414.858C283.419 414.804 283.409 414.751 283.398 414.708L283.044 415.233C283.076 415.276 283.13 415.298 283.194 415.298Z" fill="black"/>
    <path d="M283.795 415.319C283.795 415.276 283.827 415.244 283.87 415.244C283.913 415.244 283.945 415.276 283.945 415.319C283.945 415.362 283.913 415.394 283.87 415.394C283.827 415.394 283.795 415.373 283.795 415.319Z" fill="black"/>
    <path d="M284.213 415.019V414.879C284.213 414.643 284.331 414.493 284.556 414.493C284.782 414.493 284.889 414.633 284.889 414.879V415.019C284.889 415.255 284.771 415.405 284.556 415.405C284.32 415.394 284.213 415.255 284.213 415.019ZM284.353 415.18L284.717 414.654C284.685 414.611 284.632 414.59 284.556 414.59C284.406 414.59 284.331 414.686 284.331 414.869V415.029C284.32 415.083 284.331 415.137 284.353 415.18ZM284.546 415.298C284.696 415.298 284.771 415.201 284.771 415.019V414.858C284.771 414.804 284.76 414.751 284.75 414.708L284.396 415.233C284.428 415.276 284.481 415.298 284.546 415.298Z" fill="black"/>
    <path d="M285.415 414.954L285.522 414.911C285.629 414.879 285.694 414.847 285.694 414.74V414.729C285.694 414.622 285.619 414.59 285.49 414.59C285.34 414.59 285.264 414.643 285.264 414.783V414.815H285.146V414.793C285.146 414.6 285.254 414.504 285.479 414.504C285.683 414.504 285.79 414.59 285.79 414.751C285.79 414.901 285.694 414.976 285.565 415.008L285.447 415.051C285.264 415.094 285.243 415.158 285.243 415.298H285.79V415.394H285.136V415.287C285.157 415.126 285.2 415.008 285.415 414.954Z" fill="black"/>
    <path d="M286.627 415.105H286.734V415.201H286.627V415.383H286.52V415.201H286.058V415.105L286.52 414.504H286.627V415.105ZM286.509 415.105V414.654L286.155 415.105H286.509Z" fill="black"/>
    <path d="M286.981 415.083V414.847C286.981 414.622 287.088 414.493 287.314 414.493C287.517 414.493 287.603 414.6 287.603 414.74V414.751H287.496V414.74C287.496 414.643 287.432 414.6 287.314 414.6C287.174 414.6 287.088 414.665 287.088 414.815V414.901C287.142 414.826 287.228 414.793 287.335 414.793C287.517 414.793 287.625 414.89 287.625 415.072V415.115C287.625 415.298 287.517 415.405 287.292 415.405C287.088 415.394 286.981 415.298 286.981 415.083ZM287.314 415.298C287.453 415.298 287.528 415.244 287.528 415.115V415.062C287.528 414.933 287.453 414.89 287.324 414.89C287.196 414.89 287.099 414.944 287.099 415.062V415.115C287.099 415.244 287.174 415.298 287.314 415.298Z" fill="black"/>
    <path d="M285.456 420.058L298.543 432.864" stroke="black" stroke-miterlimit="10"/>
    <path d="M298.543 420.058L285.456 432.864" stroke="black" stroke-miterlimit="10"/>
    <rect x="282" y="413.5" width="20" height="21" stroke="black"/>
</svg>
