<svg width="319" height="598" viewBox="0 0 319 598" fill="none" xmlns="http://www.w3.org/2000/svg">
    <rect x="0.5" y="67.5" width="318" height="463" stroke="black"/>
    <g clip-path="url(#clip0_680_4217)">
        <path d="M290.834 530.166H230.166V597.834H290.834V530.166Z" fill="#D8EC16" stroke="black" stroke-width="1.5" stroke-miterlimit="10"/>
        <path d="M234.519 535.12V534.677C234.519 533.945 234.877 533.501 235.57 533.501C236.263 533.501 236.604 533.945 236.604 534.677V535.12C236.604 535.859 236.25 536.303 235.57 536.303C234.89 536.303 234.519 535.859 234.519 535.12ZM234.95 535.631L236.064 533.994C235.951 533.865 235.785 533.799 235.57 533.799C235.106 533.799 234.87 534.084 234.87 534.647V535.154C234.87 535.346 234.897 535.501 234.95 535.631ZM235.57 536.005C236.021 536.005 236.253 535.72 236.253 535.15V534.644C236.253 534.465 236.23 534.316 236.183 534.193L235.073 535.819C235.189 535.942 235.354 536.005 235.57 536.005Z" fill="black"/>
        <path d="M237.423 536.074C237.423 535.932 237.526 535.842 237.652 535.842C237.778 535.842 237.884 535.932 237.884 536.074C237.884 536.217 237.778 536.303 237.652 536.303C237.526 536.303 237.423 536.213 237.423 536.074Z" fill="black"/>
        <path d="M238.7 535.12V534.677C238.7 533.945 239.058 533.501 239.751 533.501C240.443 533.501 240.785 533.945 240.785 534.677V535.12C240.785 535.859 240.43 536.303 239.751 536.303C239.071 536.303 238.7 535.859 238.7 535.12ZM239.131 535.631L240.245 533.994C240.132 533.865 239.966 533.799 239.751 533.799C239.286 533.799 239.051 534.084 239.051 534.647V535.154C239.051 535.346 239.078 535.501 239.131 535.631ZM239.751 536.005C240.201 536.005 240.434 535.72 240.434 535.15V534.644C240.434 534.465 240.41 534.316 240.364 534.193L239.253 535.819C239.369 535.942 239.535 536.005 239.751 536.005Z" fill="black"/>
        <path d="M242.419 534.925L242.768 534.802C243.092 534.71 243.308 534.6 243.308 534.266V534.246C243.308 533.918 243.083 533.799 242.688 533.799C242.227 533.799 242.005 533.965 242.005 534.392V534.481H241.654V534.408C241.654 533.816 241.992 533.501 242.685 533.501C243.305 533.501 243.659 533.753 243.659 534.276C243.659 534.75 243.348 534.968 242.953 535.071L242.595 535.197C242.048 535.342 241.975 535.538 241.975 535.972H243.656V536.27H241.627V535.952C241.627 535.455 241.763 535.107 242.419 534.925Z" fill="black"/>
        <path d="M246.159 535.415H246.491V535.713H246.159V536.27H245.815V535.713H244.392V535.402L245.821 533.534H246.159V535.415ZM245.815 535.415V534.027L244.724 535.415H245.815Z" fill="black"/>
        <path d="M247.283 535.349V534.607C247.283 533.912 247.608 533.501 248.324 533.501C248.951 533.501 249.219 533.825 249.233 534.256V534.299H248.885V534.256C248.871 533.961 248.676 533.812 248.324 533.812C247.897 533.812 247.635 534.018 247.635 534.475V534.753C247.797 534.528 248.056 534.425 248.4 534.425C248.967 534.425 249.309 534.723 249.309 535.273V535.419C249.309 535.992 248.977 536.303 248.294 536.303C247.601 536.303 247.283 535.988 247.283 535.349ZM248.294 536.005C248.739 536.005 248.957 535.829 248.957 535.455V535.276C248.957 534.885 248.732 534.73 248.321 534.73C247.91 534.73 247.635 534.892 247.635 535.253V535.435C247.635 535.842 247.857 536.005 248.294 536.005Z" fill="black"/>
        <path d="M290.814 568.125C278.451 566.936 269.914 562.197 262.895 558.302C257.826 555.486 253.446 553.055 248.778 552.472C241.849 551.608 235.427 553.678 230.206 556.483L230.149 556.139C235.401 553.334 241.853 551.277 248.818 552.144C253.549 552.734 257.955 555.178 263.054 558.01C270.043 561.889 278.544 566.612 290.844 567.794L290.811 568.125H290.814Z" fill="black"/>
        <path d="M290.881 558.712C285.085 554.311 276.048 549.319 265.936 550.578C261.267 551.161 256.891 553.592 251.819 556.407C246.066 559.597 239.296 563.356 230.235 565.264L230.245 564.922C239.223 563.018 245.947 559.285 251.656 556.116C256.759 553.284 261.161 550.84 265.892 550.25C276.011 548.991 285.049 553.91 290.9 558.315L290.881 558.716V558.712Z" fill="black"/>
        <path d="M290.824 572.689C287.724 571.547 285.579 570.142 283.564 568.817C280.006 566.486 276.648 564.28 268.949 564.048C264.447 563.912 261.672 565.22 258.158 566.877C252.972 569.321 246.236 572.49 230.229 573.468L230.206 573.14C246.153 572.169 252.853 569.013 258.015 566.578C261.569 564.903 264.377 563.584 268.956 563.717C276.747 563.952 280.145 566.181 283.739 568.539C285.732 569.844 287.847 571.232 290.901 572.361L290.821 572.686L290.824 572.689Z" fill="black"/>
    </g>
    <g clip-path="url(#clip1_680_4217)">
        <path d="M60.8342 0.165588H0.165771V67.8344H60.8342V0.165588Z" fill="#00CEF5" stroke="black" stroke-width="1.5" stroke-miterlimit="10"/>
        <path d="M7.65857 8.08475V7.64093C7.65857 6.90897 8.01663 6.46515 8.70955 6.46515C9.40247 6.46515 9.74395 6.90897 9.74395 7.64093V8.08475C9.74395 8.82334 9.38921 9.26716 8.70955 9.26716C8.02989 9.26716 7.65857 8.82334 7.65857 8.08475ZM8.08957 8.59481L9.20354 6.95865C9.09082 6.82948 8.92505 6.76323 8.70955 6.76323C8.24539 6.76323 8.01 7.04807 8.01 7.61112V8.11787C8.01 8.30997 8.03652 8.46564 8.08957 8.59481ZM8.70955 8.96907C9.16044 8.96907 9.39252 8.68423 9.39252 8.11456V7.60781C9.39252 7.42896 9.36931 7.27992 9.3229 7.15737L8.21224 8.78359C8.32828 8.90614 8.49405 8.96907 8.70955 8.96907Z" fill="black"/>
        <path d="M10.5629 9.03861C10.5629 8.89619 10.6656 8.80676 10.7916 8.80676C10.9176 8.80676 11.0237 8.89619 11.0237 9.03861C11.0237 9.18103 10.9176 9.26714 10.7916 9.26714C10.6656 9.26714 10.5629 9.17771 10.5629 9.03861Z" fill="black"/>
        <path d="M11.6868 6.50159H13.6097V6.79967C12.7245 7.45215 12.5886 8.33316 12.5886 9.20423V9.23735H12.2471V9.20423C12.2471 8.36628 12.3764 7.44884 13.2185 6.79967H11.6868V6.50159Z" fill="black"/>
        <path d="M14.369 8.31328V7.57138C14.369 6.87585 14.6939 6.46515 15.41 6.46515C16.0366 6.46515 16.3051 6.78973 16.3184 7.2203V7.26336H15.9703V7.2203C15.957 6.92553 15.7614 6.77648 15.41 6.77648C14.9823 6.77648 14.7204 6.98183 14.7204 7.4389V7.71711C14.8828 7.49189 15.1414 7.38921 15.4862 7.38921C16.0532 7.38921 16.3947 7.6873 16.3947 8.2371V8.38283C16.3947 8.95582 16.0631 9.26716 15.3802 9.26716C14.6872 9.26716 14.369 8.95251 14.369 8.31328ZM15.3802 8.96907C15.8244 8.96907 16.0432 8.79353 16.0432 8.41927V8.24042C16.0432 7.84959 15.8178 7.69392 15.4067 7.69392C14.9956 7.69392 14.7204 7.85622 14.7204 8.21723V8.39939C14.7204 8.80678 14.9425 8.96907 15.3802 8.96907Z" fill="black"/>
        <path d="M17.2235 8.51532V8.44576C17.2235 8.0715 17.4257 7.85953 17.7241 7.78335C17.4722 7.71711 17.2865 7.52501 17.2865 7.21036V7.15075C17.2865 6.72349 17.6147 6.46515 18.238 6.46515C18.8613 6.46515 19.1829 6.72349 19.1829 7.15075V7.21036C19.1829 7.52501 18.9939 7.71711 18.7486 7.78335C19.0437 7.85953 19.2459 8.07481 19.2459 8.44908V8.51532C19.2459 8.99888 18.921 9.26716 18.2347 9.26716C17.5484 9.26716 17.2235 8.99888 17.2235 8.51532ZM18.2347 8.97901C18.6757 8.97901 18.8978 8.84652 18.8978 8.51201V8.39608C18.8978 8.05494 18.6491 7.94233 18.2347 7.94233C17.8203 7.94233 17.5716 8.05163 17.5716 8.39608V8.51201C17.5716 8.84652 17.7938 8.97901 18.2347 8.97901ZM18.2347 7.64756C18.5895 7.64756 18.8348 7.53826 18.8348 7.25011V7.15737C18.8348 6.87916 18.6292 6.7533 18.2347 6.7533C17.8402 6.7533 17.6346 6.87916 17.6346 7.15737V7.25342C17.6346 7.53826 17.8766 7.64756 18.2347 7.64756Z" fill="black"/>
        <path d="M20.088 8.08475V7.64093C20.088 6.90897 20.4461 6.46515 21.139 6.46515C21.8319 6.46515 22.1734 6.90897 22.1734 7.64093V8.08475C22.1734 8.82334 21.8186 9.26716 21.139 9.26716C20.4593 9.26716 20.088 8.82334 20.088 8.08475ZM20.519 8.59481L21.633 6.95865C21.5203 6.82948 21.3545 6.76323 21.139 6.76323C20.6748 6.76323 20.4394 7.04807 20.4394 7.61112V8.11787C20.4394 8.30997 20.466 8.46564 20.519 8.59481ZM21.139 8.96907C21.5899 8.96907 21.822 8.68423 21.822 8.11456V7.60781C21.822 7.42896 21.7988 7.27992 21.7523 7.15737L20.6417 8.78359C20.7577 8.90614 20.9235 8.96907 21.139 8.96907Z" fill="black"/>
        <path d="M4.45587 31.7527V44.2028" stroke="black" stroke-miterlimit="10"/>
        <path d="M8.45758 31.1301V43.5801" stroke="black" stroke-miterlimit="10"/>
        <path d="M12.4593 30.6266V43.0767" stroke="black" stroke-miterlimit="10"/>
        <path d="M16.4609 30.7393V43.1893" stroke="black" stroke-miterlimit="10"/>
        <path d="M28.4693 34.3295V46.7796" stroke="black" stroke-miterlimit="10"/>
        <path d="M32.471 33.8162V46.2662" stroke="black" stroke-miterlimit="10"/>
        <path d="M36.4727 32.1403V44.587" stroke="black" stroke-miterlimit="10"/>
        <path d="M24.4677 33.6572V46.104" stroke="black" stroke-miterlimit="10"/>
        <path d="M20.4659 31.5408V43.9908" stroke="black" stroke-miterlimit="10"/>
        <path d="M40.4744 30.6465V43.0966" stroke="black" stroke-miterlimit="10"/>
        <path d="M44.4761 31.2692V43.716" stroke="black" stroke-miterlimit="10"/>
        <path d="M52.4794 33.0942V45.5442" stroke="black" stroke-miterlimit="10"/>
        <path d="M48.4777 31.6633V44.1134" stroke="black" stroke-miterlimit="10"/>
        <path d="M56.4844 33.4585V45.9085" stroke="black" stroke-miterlimit="10"/>
    </g>
    <path d="M318 474H176V530H318V474Z" stroke="black" stroke-miterlimit="10"/>
    <path d="M182 480.619H183.289C183.957 480.619 184.284 480.914 184.284 481.537V481.575C184.284 482.194 183.964 482.503 183.289 482.503H182.382V483.46H182V480.619ZM183.278 482.194C183.704 482.194 183.883 482.019 183.883 481.616V481.492C183.883 481.093 183.704 480.925 183.278 480.925H182.378V482.194H183.278Z" fill="black"/>
    <path d="M185.962 480.619H186.461L187.459 483.46H187.052L186.865 482.902H185.558L185.37 483.46H184.967L185.962 480.619ZM186.758 482.589L186.23 481.011L186.211 480.963L186.193 481.011L185.664 482.589H186.758Z" fill="black"/>
    <path d="M188.179 482.555V482.455H188.572V482.589C188.572 483.006 188.829 483.181 189.387 483.181C189.853 483.181 190.066 483.05 190.066 482.737V482.703C190.066 482.386 189.872 482.297 189.527 482.211L188.961 482.049C188.576 481.936 188.267 481.754 188.267 481.327C188.267 480.849 188.638 480.584 189.314 480.584C190.026 480.584 190.404 480.88 190.404 481.42V481.506H190.011V481.406C190.011 481.048 189.791 480.894 189.314 480.894C188.888 480.894 188.66 481.021 188.66 481.296V481.32C188.66 481.585 188.884 481.688 189.167 481.76L189.743 481.922C190.147 482.036 190.463 482.204 190.463 482.696C190.463 483.236 190.121 483.494 189.376 483.494C188.565 483.494 188.179 483.167 188.179 482.555Z" fill="black"/>
    <path d="M191.304 482.555V482.455H191.696V482.589C191.696 483.006 191.953 483.181 192.511 483.181C192.978 483.181 193.191 483.05 193.191 482.737V482.703C193.191 482.386 192.996 482.297 192.651 482.211L192.086 482.049C191.7 481.936 191.392 481.754 191.392 481.327C191.392 480.849 191.762 480.584 192.438 480.584C193.15 480.584 193.528 480.88 193.528 481.42V481.506H193.136V481.406C193.136 481.048 192.915 480.894 192.438 480.894C192.012 480.894 191.784 481.021 191.784 481.296V481.32C191.784 481.585 192.008 481.688 192.291 481.76L192.868 481.922C193.271 482.036 193.587 482.204 193.587 482.696C193.587 483.236 193.246 483.494 192.5 483.494C191.689 483.494 191.304 483.167 191.304 482.555Z" fill="black"/>
    <path d="M207.852 502.847C208.661 502.847 209.317 502.233 209.317 501.475C209.317 500.717 208.661 500.102 207.852 500.102C207.043 500.102 206.387 500.717 206.387 501.475C206.387 502.233 207.043 502.847 207.852 502.847Z" stroke="black" stroke-miterlimit="10"/>
    <path d="M215.768 502.847C217.136 502.847 218.246 501.808 218.246 500.525C218.246 499.243 217.136 498.204 215.768 498.204C214.399 498.204 213.289 499.243 213.289 500.525C213.289 501.808 214.399 502.847 215.768 502.847Z" stroke="black" stroke-miterlimit="10"/>
    <path d="M225.383 502.85C227.314 502.85 228.878 501.384 228.878 499.576C228.878 497.768 227.314 496.302 225.383 496.302C223.453 496.302 221.888 497.768 221.888 499.576C221.888 501.384 223.453 502.85 225.383 502.85Z" stroke="black" stroke-miterlimit="10"/>
    <path d="M237.224 502.847C239.714 502.847 241.732 500.956 241.732 498.623C241.732 496.291 239.714 494.4 237.224 494.4C234.734 494.4 232.715 496.291 232.715 498.623C232.715 500.956 234.734 502.847 237.224 502.847Z" stroke="black" stroke-miterlimit="10"/>
    <path d="M250.834 502.85C253.886 502.85 256.36 500.533 256.36 497.674C256.36 494.815 253.886 492.498 250.834 492.498C247.782 492.498 245.308 494.815 245.308 497.674C245.308 500.533 247.782 502.85 250.834 502.85Z" stroke="black" stroke-miterlimit="10"/>
    <path d="M265.766 502.847C269.377 502.847 272.305 500.104 272.305 496.721C272.305 493.338 269.377 490.596 265.766 490.596C262.155 490.596 259.227 493.338 259.227 496.721C259.227 500.104 262.155 502.847 265.766 502.847Z" stroke="black" stroke-miterlimit="10"/>
    <path d="M283.062 502.847C287.233 502.847 290.614 499.679 290.614 495.772C290.614 491.864 287.233 488.697 283.062 488.697C278.891 488.697 275.51 491.864 275.51 495.772C275.51 499.679 278.891 502.847 283.062 502.847Z" stroke="black" stroke-miterlimit="10"/>
    <path d="M302.51 510.603C307.243 510.603 311.079 507.009 311.079 502.575C311.079 498.141 307.243 494.547 302.51 494.547C297.777 494.547 293.941 498.141 293.941 502.575C293.941 507.009 297.777 510.603 302.51 510.603Z" stroke="black" stroke-miterlimit="10"/>
    <defs>
        <clipPath id="clip0_680_4217">
            <rect width="61" height="68" fill="white" transform="translate(230 530)"/>
        </clipPath>
        <clipPath id="clip1_680_4217">
            <rect width="61" height="68" fill="white"/>
        </clipPath>
    </defs>
</svg>
