<svg width="1440" height="734" viewBox="0 0 1440 734" fill="none" xmlns="http://www.w3.org/2000/svg">
    <path d="M1153.82 608.074H1155.82C1157.11 608.074 1157.95 608.717 1157.95 610.323V611.159C1157.95 612.765 1157.17 613.408 1155.82 613.408H1153.82V608.074ZM1155.82 612.83C1156.79 612.83 1157.24 612.316 1157.24 611.223V610.259C1157.24 609.102 1156.85 608.652 1155.82 608.652H1154.53V612.83H1155.82Z" fill="black"/>
    <path d="M1162.97 612.894V612.059C1162.97 611.352 1162.46 611.223 1161.94 611.223H1160.39V613.408H1159.75V608.074H1162C1163.16 608.074 1163.68 608.524 1163.68 609.552V609.616C1163.68 610.323 1163.42 610.773 1162.84 610.902C1163.42 611.03 1163.68 611.48 1163.68 612.059V612.894C1163.68 613.087 1163.68 613.28 1163.74 613.344H1163.1C1162.97 613.28 1162.97 613.087 1162.97 612.894ZM1161.94 610.645C1162.52 610.645 1162.97 610.452 1162.97 609.681V609.488C1162.97 608.781 1162.58 608.588 1161.94 608.588H1160.39V610.58L1161.94 610.645Z" fill="black"/>
    <path d="M1165.29 612.765H1166.38V608.652H1165.29V608.074H1168.19V608.652H1167.09V612.765H1168.19V613.344H1165.29V612.765Z" fill="black"/>
    <path d="M1169.93 608.074H1172.31C1173.28 608.074 1173.79 608.46 1173.79 609.359V609.424C1173.79 610.066 1173.53 610.388 1173.15 610.58C1173.6 610.709 1173.98 611.159 1173.98 611.866V611.93C1173.98 612.958 1173.47 613.408 1172.44 613.408H1169.99V608.074H1169.93ZM1172.18 610.323C1172.63 610.323 1173.08 610.195 1173.08 609.552V609.424C1173.08 608.781 1172.76 608.717 1172.25 608.717H1170.64V610.388H1172.18V610.323ZM1172.31 612.765C1172.95 612.765 1173.28 612.508 1173.28 611.866V611.737C1173.28 611.095 1172.95 610.902 1172.31 610.902H1170.64V612.765H1172.31Z" fill="black"/>
    <path d="M1175.72 608.074H1178.11C1179.07 608.074 1179.59 608.46 1179.59 609.359V609.424C1179.59 610.066 1179.33 610.388 1178.94 610.58C1179.4 610.709 1179.78 611.159 1179.78 611.866V611.93C1179.78 612.958 1179.27 613.408 1178.24 613.408H1175.79V608.074H1175.72ZM1177.98 610.323C1178.43 610.323 1178.88 610.195 1178.88 609.552V609.424C1178.88 608.781 1178.56 608.717 1178.04 608.717H1176.43V610.388H1177.98V610.323ZM1178.04 612.765C1178.69 612.765 1179.01 612.508 1179.01 611.866V611.737C1179.01 611.095 1178.69 610.902 1178.04 610.902H1176.37V612.765H1178.04Z" fill="black"/>
    <path d="M1181.46 608.074H1182.1V612.83H1184.81V613.408H1181.46V608.074Z" fill="black"/>
    <path d="M1186.42 608.074H1189.77V608.652H1187.06V610.452H1189.64V611.03H1187.06V612.83H1189.77V613.408H1186.42V608.074Z" fill="black"/>
    <path d="M1185.13 706.142H1219.07L1237.49 687.248L1256.82 700.873L1282.77 679.858L1358.46 697.724L1399.74 669.447" stroke="black" stroke-miterlimit="10"/>
    <path d="M1185.13 653.895H1220.49L1242.26 673.881L1303.32 659.422L1320.33 710.705L1356.01 669.061L1384.61 700.744L1399.74 700.037" stroke="black" stroke-miterlimit="10"/>
    <path d="M1185.13 682.3L1226.99 631.788L1259.2 643.741L1323.03 626.261L1333.08 644.834L1368.57 640.078L1377.59 647.983H1399.74" stroke="black" stroke-miterlimit="10"/>
    <path d="M1179.14 659.807C1182.41 659.807 1185.06 657.16 1185.06 653.895C1185.06 650.63 1182.41 647.983 1179.14 647.983C1175.86 647.983 1173.21 650.63 1173.21 653.895C1173.21 657.16 1175.86 659.807 1179.14 659.807Z" stroke="black" stroke-miterlimit="10"/>
    <path d="M1179.14 712.055C1182.41 712.055 1185.06 709.408 1185.06 706.142C1185.06 702.877 1182.41 700.23 1179.14 700.23C1175.86 700.23 1173.21 702.877 1173.21 706.142C1173.21 709.408 1175.86 712.055 1179.14 712.055Z" stroke="black" stroke-miterlimit="10"/>
    <path d="M1179.14 688.212C1182.41 688.212 1185.06 685.565 1185.06 682.3C1185.06 679.035 1182.41 676.388 1179.14 676.388C1175.86 676.388 1173.21 679.035 1173.21 682.3C1173.21 685.565 1175.86 688.212 1179.14 688.212Z" stroke="black" stroke-miterlimit="10"/>
    <path d="M1405.67 706.078C1408.94 706.078 1411.59 703.431 1411.59 700.166C1411.59 696.9 1408.94 694.253 1405.67 694.253C1402.4 694.253 1399.74 696.9 1399.74 700.166C1399.74 703.431 1402.4 706.078 1405.67 706.078Z" stroke="black" stroke-miterlimit="10"/>
    <path d="M1405.67 653.895C1408.94 653.895 1411.59 651.248 1411.59 647.983C1411.59 644.717 1408.94 642.07 1405.67 642.07C1402.4 642.07 1399.74 644.717 1399.74 647.983C1399.74 651.248 1402.4 653.895 1405.67 653.895Z" stroke="black" stroke-miterlimit="10"/>
    <path d="M1405.67 675.359C1408.94 675.359 1411.59 672.712 1411.59 669.447C1411.59 666.182 1408.94 663.535 1405.67 663.535C1402.4 663.535 1399.74 666.182 1399.74 669.447C1399.74 672.712 1402.4 675.359 1405.67 675.359Z" stroke="black" stroke-miterlimit="10"/>
    <rect x="1145.5" y="601.698" width="294" height="131" stroke="black"/>
    <g clip-path="url(#clip0_751_5368)">
        <path d="M230.467 0H133V108.469H230.467V0Z" fill="#D8EC16"/>
        <path d="M230.467 0H133V108.469H230.467V0Z" stroke="black" stroke-miterlimit="10"/>
        <path d="M140.616 8.32441V7.58147C140.616 6.41399 141.202 5.72412 142.321 5.72412C143.439 5.72412 143.972 6.41399 143.972 7.58147V8.27135C143.972 9.43882 143.386 10.1818 142.321 10.1818C141.202 10.1818 140.616 9.49189 140.616 8.32441ZM141.309 9.12042L143.119 6.52013C142.96 6.30786 142.693 6.20173 142.321 6.20173C141.575 6.20173 141.202 6.67933 141.202 7.58147V8.37748C141.202 8.64282 141.202 8.90815 141.309 9.12042ZM142.321 9.70416C143.066 9.70416 143.439 9.22656 143.439 8.32441V7.52841C143.439 7.26307 143.386 6.99773 143.333 6.78546L141.575 9.38576C141.681 9.65109 141.948 9.70416 142.321 9.70416Z" fill="black"/>
        <path d="M145.303 9.81019C145.303 9.59792 145.463 9.43872 145.676 9.43872C145.889 9.43872 146.049 9.59792 146.049 9.81019C146.049 10.0225 145.889 10.1817 145.676 10.1817C145.463 10.1817 145.303 10.0755 145.303 9.81019Z" fill="black"/>
        <path d="M147.327 8.32441V7.58147C147.327 6.41399 147.913 5.72412 149.031 5.72412C150.15 5.72412 150.683 6.41399 150.683 7.58147V8.27135C150.683 9.43882 150.097 10.1818 149.031 10.1818C147.913 10.1818 147.327 9.49189 147.327 8.32441ZM148.02 9.12042L149.83 6.52013C149.671 6.30786 149.404 6.20173 149.031 6.20173C148.286 6.20173 147.913 6.67933 147.913 7.58147V8.37748C147.913 8.64282 147.913 8.90815 148.02 9.12042ZM149.031 9.70416C149.777 9.70416 150.15 9.22656 150.15 8.32441V7.52841C150.15 7.26307 150.097 6.99773 150.043 6.78546L148.286 9.38576C148.392 9.65109 148.659 9.70416 149.031 9.70416Z" fill="black"/>
        <path d="M152.067 8.32441V7.58147C152.067 6.41399 152.653 5.72412 153.772 5.72412C154.89 5.72412 155.423 6.41399 155.423 7.58147V8.27135C155.423 9.43882 154.837 10.1818 153.772 10.1818C152.6 10.1818 152.067 9.49189 152.067 8.32441ZM152.76 9.12042L154.571 6.52013C154.411 6.30786 154.145 6.20173 153.772 6.20173C153.026 6.20173 152.653 6.67933 152.653 7.58147V8.37748C152.6 8.64282 152.653 8.90815 152.76 9.12042ZM153.718 9.70416C154.464 9.70416 154.837 9.22656 154.837 8.32441V7.52841C154.837 7.26307 154.784 6.99773 154.73 6.78546L152.92 9.38576C153.133 9.65109 153.399 9.70416 153.718 9.70416Z" fill="black"/>
        <path d="M156.754 8.32441V7.58147C156.754 6.41399 157.34 5.72412 158.458 5.72412C159.577 5.72412 160.11 6.41399 160.11 7.58147V8.27135C160.11 9.43882 159.524 10.1818 158.458 10.1818C157.34 10.1818 156.754 9.49189 156.754 8.32441ZM157.447 9.12042L159.257 6.52013C159.098 6.30786 158.831 6.20173 158.458 6.20173C157.713 6.20173 157.34 6.67933 157.34 7.58147V8.37748C157.34 8.64282 157.34 8.90815 157.447 9.12042ZM158.458 9.70416C159.204 9.70416 159.577 9.22656 159.577 8.32441V7.52841C159.577 7.26307 159.524 6.99773 159.47 6.78546L157.66 9.38576C157.819 9.65109 158.086 9.70416 158.458 9.70416Z" fill="black"/>
        <path d="M161.494 8.32441V7.58147C161.494 6.41399 162.08 5.72412 163.199 5.72412C164.317 5.72412 164.85 6.41399 164.85 7.58147V8.27135C164.85 9.43882 164.264 10.1818 163.199 10.1818C162.027 10.1818 161.494 9.49189 161.494 8.32441ZM162.187 9.12042L163.998 6.52013C163.838 6.30786 163.572 6.20173 163.199 6.20173C162.453 6.20173 162.08 6.67933 162.08 7.58147V8.37748C162.027 8.64282 162.08 8.90815 162.187 9.12042ZM163.145 9.70416C163.891 9.70416 164.264 9.22656 164.264 8.32441V7.52841C164.264 7.26307 164.211 6.99773 164.157 6.78546L162.347 9.38576C162.56 9.65109 162.826 9.70416 163.145 9.70416Z" fill="black"/>
        <path d="M167.193 9.65109V6.36093C166.927 6.62626 166.554 6.78546 166.128 6.78546V6.25479C166.554 6.25479 166.927 6.14866 167.247 5.72412H167.779V9.65109H168.844V10.1287H166.181V9.65109H167.193Z" fill="black"/>
        <path d="M171.188 8.00601L171.774 7.79374C172.306 7.63454 172.626 7.47534 172.626 6.94467V6.8916C172.626 6.36093 172.253 6.14866 171.614 6.14866C170.868 6.14866 170.496 6.41399 170.496 7.10387V7.26307H169.91V7.15694C169.91 6.20173 170.442 5.72412 171.561 5.72412C172.573 5.72412 173.105 6.14866 173.105 6.94467C173.105 7.68761 172.626 8.05908 171.987 8.21828L171.401 8.43055C170.549 8.64282 170.389 8.96122 170.389 9.65109H173.105V10.1287H169.856V9.59803C169.91 8.85508 170.123 8.27135 171.188 8.00601Z" fill="black"/>
        <path d="M182.373 18.7786C177.047 18.7786 171.88 19.8399 167.034 21.8565C162.347 23.8199 158.086 26.6856 154.464 30.2941C150.842 33.9027 147.966 38.095 145.996 42.818C143.918 47.6471 142.906 52.7946 142.906 58.1014C142.906 63.4081 143.972 68.5556 145.996 73.3847C147.966 78.0546 150.842 82.3 154.464 85.9086C158.086 89.5171 162.293 92.3828 167.034 94.3462C171.88 96.4159 177.047 97.4241 182.373 97.4241C187.699 97.4241 192.865 96.3628 197.712 94.3462C202.399 92.3828 206.66 89.5171 210.281 85.9086C213.903 82.3 216.779 78.1077 218.75 73.3847C220.827 68.5556 221.839 63.4081 221.839 58.1014C221.839 52.7946 220.774 47.6471 218.75 42.818" stroke="black" stroke-miterlimit="10"/>
        <path d="M182.373 28.8081C174.544 28.8081 167.14 31.8329 161.601 37.405C156.062 42.924 152.973 50.3003 152.973 58.1012C152.973 65.9021 156.009 73.2784 161.601 78.7974C167.194 84.3164 174.544 87.3943 182.373 87.3943C190.202 87.3943 197.606 84.3694 203.145 78.7974C208.684 73.2253 211.773 65.9021 211.773 58.1012" stroke="black" stroke-miterlimit="10"/>
        <path d="M182.373 38.9441C171.774 38.9441 163.146 47.541 163.146 58.1013C163.146 68.6617 171.774 77.2586 182.373 77.2586" stroke="black" stroke-miterlimit="10"/>
        <path d="M172.147 58.1013C172.147 63.7264 176.727 68.2902 182.373 68.2902C188.018 68.2902 192.599 63.7264 192.599 58.1013" stroke="black" stroke-miterlimit="10"/>
    </g>
    <rect x="1342.5" y="493.698" width="97" height="108" fill="#8F6CFF"/>
    <path d="M1411.19 557.436H1400.71H1389.12C1388.86 557.436 1388.6 557.379 1388.36 557.269C1388.12 557.159 1387.91 556.998 1387.74 556.798C1387.57 556.599 1387.45 556.364 1387.38 556.113C1387.31 555.861 1387.3 555.597 1387.34 555.34L1388.87 546.73C1389.22 544.854 1390.43 543.764 1392.42 543.77L1400.81 543.787C1401.47 543.79 1402.12 543.559 1402.63 543.135C1403.13 542.712 1403.48 542.124 1403.59 541.474L1405.62 530.036C1405.64 529.92 1405.95 528.173 1406.25 526.482C1406.32 526.079 1406.3 525.666 1406.19 525.271C1406.09 524.876 1405.9 524.509 1405.63 524.196C1405.37 523.883 1405.04 523.631 1404.66 523.459C1404.29 523.286 1403.89 523.197 1403.47 523.198H1395.38C1394.72 523.197 1394.09 523.425 1393.58 523.843C1393.08 524.26 1392.73 524.84 1392.61 525.483L1391.76 530.036H1391.79L1389.91 540.764C1389.55 542.698 1388.34 543.709 1386.36 543.733H1377.78C1377.52 543.732 1377.26 543.675 1377.02 543.565C1376.79 543.455 1376.57 543.294 1376.41 543.094C1376.24 542.895 1376.11 542.661 1376.05 542.409C1375.98 542.157 1375.96 541.893 1376.01 541.636L1376.66 537.955C1376.68 537.827 1376.68 537.695 1376.64 537.569C1376.61 537.443 1376.55 537.326 1376.46 537.226C1376.38 537.126 1376.27 537.046 1376.16 536.991C1376.04 536.936 1375.91 536.907 1375.78 536.907H1371.12C1370.79 536.907 1370.46 537.024 1370.21 537.237C1369.96 537.45 1369.79 537.746 1369.73 538.072L1369.02 542.142C1368.99 542.342 1369 542.547 1369.05 542.744C1369.1 542.94 1369.2 543.122 1369.33 543.278C1369.46 543.434 1369.62 543.559 1369.81 543.646C1369.99 543.732 1370.2 543.777 1370.4 543.778L1373.42 543.785C1373.68 543.785 1373.94 543.843 1374.18 543.953C1374.42 544.063 1374.63 544.224 1374.8 544.424C1374.96 544.623 1375.09 544.857 1375.15 545.109C1375.22 545.361 1375.23 545.624 1375.19 545.881L1373.53 555.374C1373.49 555.63 1373.5 555.894 1373.57 556.146C1373.64 556.397 1373.76 556.631 1373.93 556.831C1374.1 557.03 1374.31 557.191 1374.55 557.301C1374.78 557.412 1375.04 557.469 1375.3 557.47L1384.78 557.49C1385.04 557.49 1385.3 557.547 1385.53 557.658C1385.77 557.768 1385.98 557.929 1386.15 558.128C1386.32 558.328 1386.44 558.562 1386.51 558.814C1386.58 559.065 1386.59 559.329 1386.55 559.586L1385.1 567.9C1385.02 568.301 1385.04 568.713 1385.15 569.107C1385.26 569.501 1385.45 569.867 1385.71 570.179C1385.97 570.491 1386.3 570.742 1386.68 570.915C1387.05 571.087 1387.45 571.176 1387.86 571.177L1398.31 571.198L1398.32 571.17L1409.73 571.193C1410.4 571.195 1411.04 570.964 1411.55 570.541C1412.06 570.118 1412.4 569.529 1412.51 568.88L1413.96 560.728C1414.03 560.326 1414.01 559.912 1413.91 559.516C1413.8 559.121 1413.61 558.753 1413.35 558.439C1413.08 558.125 1412.75 557.872 1412.38 557.699C1412.01 557.526 1411.6 557.436 1411.19 557.436Z" fill="black"/>
    <rect x="1342.5" y="493.698" width="97" height="108" stroke="black"/>
    <path d="M12.4681 124.502V118.855C12.0131 119.31 11.376 119.583 10.6479 119.583V118.764C11.376 118.764 12.0131 118.581 12.5591 117.853H13.4692V124.593H15.2893V125.413H10.739V124.593H12.4681V124.502Z" fill="black"/>
    <path d="M17.1094 122.225V121.041C17.1094 119.037 18.1105 117.762 20.0216 117.762C21.9328 117.762 22.8429 118.946 22.8429 121.041V122.225C22.8429 124.229 21.8418 125.504 20.0216 125.504C18.0195 125.413 17.1094 124.229 17.1094 122.225ZM18.2925 123.591L21.3867 119.128C21.1137 118.764 20.6587 118.581 20.0216 118.581C18.7475 118.581 18.1105 119.401 18.1105 120.95V122.316C18.0195 122.771 18.1105 123.227 18.2925 123.591ZM19.9306 124.593C21.2047 124.593 21.8418 123.773 21.8418 122.225V120.859C21.8418 120.403 21.7508 119.948 21.6598 119.583L18.6565 124.047C18.9295 124.502 19.3846 124.593 19.9306 124.593Z" fill="black"/>
    <path d="M25.0271 124.866C25.0271 124.502 25.3001 124.229 25.6642 124.229C26.0282 124.229 26.3012 124.502 26.3012 124.866C26.3012 125.231 26.0282 125.504 25.6642 125.504C25.3001 125.413 25.0271 125.231 25.0271 124.866Z" fill="black"/>
    <path d="M28.5764 122.225V121.041C28.5764 119.037 29.5775 117.762 31.4887 117.762C33.3998 117.762 34.3099 118.946 34.3099 121.041V122.225C34.3099 124.229 33.3088 125.504 31.4887 125.504C29.4865 125.413 28.5764 124.229 28.5764 122.225ZM29.7595 123.591L32.8538 119.128C32.5807 118.764 32.1257 118.581 31.4887 118.581C30.2146 118.581 29.5775 119.401 29.5775 120.95V122.316C29.4865 122.771 29.5775 123.227 29.7595 123.591ZM31.4887 124.593C32.7628 124.593 33.3998 123.773 33.3998 122.225V120.859C33.3998 120.403 33.3088 119.948 33.2178 119.583L30.2146 124.047C30.3966 124.502 30.8516 124.593 31.4887 124.593Z" fill="black"/>
    <path d="M36.5852 122.225V121.041C36.5852 119.037 37.5863 117.762 39.4974 117.762C41.4086 117.762 42.3187 118.946 42.3187 121.041V122.225C42.3187 124.229 41.3176 125.504 39.4974 125.504C37.5863 125.413 36.5852 124.229 36.5852 122.225ZM37.7683 123.591L40.8626 119.128C40.5895 118.764 40.1345 118.581 39.4974 118.581C38.2233 118.581 37.5863 119.401 37.5863 120.95V122.316C37.5863 122.771 37.6773 123.227 37.7683 123.591ZM39.4974 124.593C40.7716 124.593 41.4086 123.773 41.4086 122.225V120.859C41.4086 120.403 41.3176 119.948 41.2266 119.583L38.2233 124.047C38.4054 124.502 38.9514 124.593 39.4974 124.593Z" fill="black"/>
    <path d="M50.2361 120.403V122.407C50.2361 124.32 49.3261 125.413 47.4149 125.413C45.6858 125.413 44.9577 124.502 44.9577 123.318V123.227H45.9588V123.318C45.9588 124.138 46.5048 124.502 47.5059 124.502C48.689 124.502 49.4171 123.956 49.4171 122.68V121.952C48.962 122.589 48.234 122.863 47.3239 122.863C45.7768 122.863 44.8667 122.043 44.8667 120.494V120.13C44.8667 118.582 45.7768 117.671 47.6879 117.671C49.3261 117.762 50.2361 118.582 50.2361 120.403ZM47.3239 122.043C48.416 122.043 49.2351 121.587 49.2351 120.585V120.13C49.2351 119.037 48.598 118.582 47.4149 118.582C46.2318 118.582 45.5948 119.037 45.5948 120.13V120.585C45.5948 121.678 46.2318 122.043 47.3239 122.043Z" fill="black"/>
    <path d="M52.6025 123.409V123.227C52.6025 122.225 53.1486 121.587 53.9677 121.405C53.2396 121.223 52.7846 120.676 52.7846 119.857V119.675C52.7846 118.49 53.6946 117.762 55.4238 117.762C57.1529 117.762 57.972 118.49 57.972 119.675V119.857C57.972 120.676 57.4259 121.223 56.7889 121.405C57.608 121.587 58.154 122.225 58.154 123.227V123.409C58.154 124.775 57.2439 125.504 55.3328 125.504C53.4216 125.413 52.6025 124.684 52.6025 123.409ZM55.3328 124.684C56.5159 124.684 57.1529 124.32 57.1529 123.409V123.136C57.1529 122.225 56.4249 121.861 55.3328 121.861C54.2407 121.861 53.5126 122.134 53.5126 123.136V123.409C53.5126 124.32 54.1497 124.684 55.3328 124.684ZM55.3328 120.95C56.3339 120.95 56.9709 120.676 56.9709 119.857V119.583C56.9709 118.855 56.4249 118.49 55.3328 118.49C54.2407 118.49 53.6946 118.855 53.6946 119.583V119.857C53.6946 120.676 54.3317 120.95 55.3328 120.95Z" fill="black"/>
    <path d="M107.298 142.902H25.5732V159.206H107.298V142.902Z" stroke="black" stroke-miterlimit="10"/>
    <path d="M145.248 166.675H25.5732V182.979H145.248V166.675Z" stroke="black" stroke-miterlimit="10"/>
    <path d="M129.959 190.449H25.5732V206.753H129.959V190.449Z" stroke="black" stroke-miterlimit="10"/>
    <path d="M101.747 214.313H25.5732V230.618H101.747V214.313Z" stroke="black" stroke-miterlimit="10"/>
    <path d="M85.6382 238.087H25.5732V254.391H85.6382V238.087Z" stroke="black" stroke-miterlimit="10"/>
    <path d="M61.9763 261.86H25.5732V278.165H61.9763V261.86Z" stroke="black" stroke-miterlimit="10"/>
    <rect x="0.5" y="108.698" width="167" height="186" stroke="black"/>
    <rect x="230.5" y="108.5" width="915" height="493" stroke="black"/>
    <defs>
        <clipPath id="clip0_751_5368">
            <rect width="98" height="109" fill="white" transform="translate(133 0.098877)"/>
        </clipPath>
    </defs>
</svg>
