<svg width="299" height="149" viewBox="0 0 299 145" fill="none" xmlns="http://www.w3.org/2000/svg">
    <rect x="166.871" y="0.5" width="64.6082" height="73" fill="#00CEF5"/>
    <path d="M208.706 37.5918C208.182 36.3516 207.429 35.2347 206.496 34.296C205.563 33.3573 204.354 32.5385 203.057 32.0109C201.858 31.521 200.55 31.2469 199.178 31.2469V36.2934C199.886 36.2934 200.557 36.4338 201.177 36.6873C201.844 36.958 202.447 37.3623 202.948 37.8659C203.448 38.3695 203.816 38.9245 204.085 39.5652C204.357 40.2093 204.507 40.915 204.507 41.6584C204.507 42.4019 204.368 43.046 204.116 43.6695C203.847 44.341 203.445 44.9474 202.944 45.451C202.444 45.9546 201.892 46.3246 201.255 46.5953C200.615 46.8694 199.914 47.0201 199.175 47.0201C198.436 47.0201 197.796 46.8796 197.176 46.6261C196.508 46.3555 195.906 45.9512 195.405 45.4476C194.905 44.944 194.537 44.389 194.264 43.7483L189.644 45.7182C190.168 46.9584 190.921 48.0753 191.854 49.014C192.787 49.9527 193.995 50.7716 195.293 51.2992C196.491 51.7856 197.799 52.0631 199.171 52.0631C200.544 52.0631 201.97 51.7685 203.213 51.2375C204.446 50.7099 205.556 49.9527 206.489 49.014C207.422 48.0753 208.236 46.8591 208.76 45.5538C209.244 44.3478 209.52 43.0323 209.52 41.6516C209.527 40.2127 209.234 38.8389 208.706 37.5918V37.5918Z" stroke="black" stroke-width="0.915493" stroke-miterlimit="10"/>
    <path d="M195.137 32.0691C193.904 32.5967 192.794 33.3538 191.861 34.2925C190.928 35.2313 190.114 36.4475 189.589 37.7528C189.106 38.9587 188.83 40.2743 188.83 41.655C188.83 43.0356 189.123 44.4711 189.651 45.7216L194.272 43.7517C193.999 43.1076 193.849 42.4018 193.849 41.6584C193.849 40.915 193.989 40.2709 194.241 39.6473C194.51 38.9758 194.912 38.3695 195.412 37.8658C195.913 37.3622 196.465 36.9922 197.101 36.7216C197.742 36.4475 198.443 36.2967 199.182 36.2967V31.2503C197.745 31.2503 196.379 31.538 195.137 32.0691V32.0691Z" stroke="black" stroke-width="0.915493" stroke-miterlimit="10"/>
    <path d="M192.95 57.1506C190.869 56.301 188.993 55.0471 187.43 53.4745C185.932 51.9671 184.72 50.1753 183.879 48.1848C183.031 46.1806 182.564 43.9743 182.564 41.6583C182.564 39.3424 182.997 37.3279 183.776 35.3922L176.568 32.4596C175.423 35.2997 174.79 38.4037 174.79 41.6583C174.79 44.913 175.478 48.2979 176.721 51.2408C177.953 54.1632 179.734 56.7943 181.934 59.0075C184.229 61.3166 186.981 63.1598 190.035 64.4034C192.858 65.5545 195.943 66.1918 199.178 66.1918V58.3703C196.975 58.3703 194.874 57.9352 192.95 57.1506V57.1506Z" stroke="black" stroke-width="0.915493" stroke-miterlimit="10"/>
    <path d="M221.631 32.0759C220.398 29.1536 218.618 26.519 216.418 24.3092L210.918 29.8388C212.417 31.3462 213.629 33.138 214.47 35.1285C215.318 37.1327 215.784 39.339 215.784 41.655C215.784 43.9709 215.352 45.9854 214.572 47.9211C213.731 50.0144 212.481 51.9021 210.918 53.4746C209.42 54.982 207.639 56.2017 205.661 57.0479C203.669 57.901 201.476 58.3703 199.174 58.3703V66.1918C202.552 66.1918 205.773 65.4998 208.698 64.2493C211.603 63.0091 214.218 61.2173 216.418 59.0041C218.713 56.695 220.545 53.9268 221.781 50.8537C222.925 48.0136 223.559 44.9096 223.559 41.655C223.562 38.2564 222.874 35.0188 221.631 32.0759Z" stroke="black" stroke-width="0.915493" stroke-miterlimit="10"/>
    <path d="M208.321 18.9099C205.499 17.7587 202.413 17.1215 199.178 17.1215C195.944 17.1215 192.579 17.8136 189.654 19.064C186.749 20.3042 184.134 22.096 181.934 24.3092C179.639 26.6183 177.807 29.3865 176.571 32.4596L183.78 35.3923C184.621 33.299 185.871 31.4113 187.434 29.8387C188.932 28.3313 190.713 27.1117 192.692 26.2654C194.684 25.4124 196.877 24.943 199.178 24.943C201.48 24.943 203.483 25.3781 205.407 26.1627C207.487 27.0089 209.363 28.2662 210.926 29.8387L216.426 24.3092C214.127 22.0001 211.376 20.1535 208.321 18.9099V18.9099Z" stroke="black" stroke-width="0.915493" stroke-miterlimit="10"/>
    <path d="M174.251 9.98497C175.481 9.98497 176.123 9.18097 176.123 7.84297V7.03897C176.123 5.71297 175.481 4.90897 174.251 4.90897C172.997 4.90897 172.349 5.71297 172.349 7.03897V7.84297C172.349 9.18097 172.991 9.98497 174.251 9.98497ZM172.985 7.90297V6.98497C172.985 5.96497 173.411 5.44897 174.251 5.44897C174.641 5.44897 174.941 5.56897 175.145 5.80297L173.129 8.76697C173.033 8.53297 172.985 8.25097 172.985 7.90297ZM173.351 9.10897L175.361 6.16297C175.445 6.38497 175.487 6.65497 175.487 6.97897V7.89697C175.487 8.92897 175.067 9.44497 174.251 9.44497C173.861 9.44497 173.561 9.33097 173.351 9.10897ZM178.216 9.98497C178.444 9.98497 178.636 9.82297 178.636 9.57097C178.636 9.31297 178.444 9.15097 178.216 9.15097C177.988 9.15097 177.802 9.31297 177.802 9.57097C177.802 9.82297 177.988 9.98497 178.216 9.98497ZM182.467 6.60097C181.831 6.60097 181.381 6.81097 181.081 7.18297L181.201 5.50897H183.847V4.96897H180.637L180.463 7.84297H181.081C181.309 7.42297 181.681 7.14097 182.335 7.14097C183.037 7.14097 183.433 7.45897 183.433 8.12497V8.44897C183.433 9.17497 182.947 9.44497 182.251 9.44497C181.651 9.44497 181.051 9.24697 181.051 8.55097V8.39497H180.415V8.50897C180.415 9.49297 181.147 9.98497 182.263 9.98497C183.421 9.98497 184.069 9.45097 184.069 8.35297V8.10697C184.069 7.09897 183.397 6.60097 182.467 6.60097ZM185.898 9.34897V9.92497H189.57V9.38497H186.528C186.528 8.59897 186.66 8.24497 187.65 7.98097L188.298 7.75297C189.012 7.56697 189.576 7.17097 189.576 6.31297C189.576 5.36497 188.934 4.90897 187.812 4.90897C186.558 4.90897 185.946 5.47897 185.946 6.55297V6.68497H186.582V6.52297C186.582 5.74897 186.984 5.44897 187.818 5.44897C188.532 5.44897 188.94 5.66497 188.94 6.25897V6.29497C188.94 6.90097 188.55 7.09897 187.962 7.26697L187.332 7.48897C186.144 7.81897 185.898 8.44897 185.898 9.34897ZM191.164 5.50897H193.936C192.412 6.68497 192.178 8.34697 192.178 9.86497V9.92497H192.796V9.86497C192.796 8.28697 193.042 6.69097 194.644 5.50897V4.96897H191.164V5.50897ZM196.313 9.38497V9.92497H199.331V9.38497H198.131V4.96897H197.531C197.195 5.40697 196.787 5.55697 196.295 5.55697V6.12697C196.781 6.12697 197.225 5.96497 197.513 5.65897V9.38497H196.313Z" fill="black"/>
    <rect x="166.871" y="0.5" width="64.6082" height="73" stroke="black"/>
    <rect x="100.5" y="0.5" width="66.134" height="73" fill="#E8E8ED"/>
    <path d="M108.429 8.79494V8.32635C108.429 7.53337 108.83 7.06479 109.596 7.06479C110.362 7.06479 110.727 7.53337 110.727 8.32635V8.79494C110.727 9.58792 110.326 10.0925 109.596 10.0925C108.83 10.0925 108.429 9.58792 108.429 8.79494ZM108.903 9.37165L110.144 7.60546C110.034 7.46128 109.852 7.38919 109.596 7.38919C109.085 7.38919 108.83 7.71359 108.83 8.32635V8.86703C108.83 9.04725 108.83 9.22747 108.903 9.37165V9.37165ZM109.596 9.76815C110.107 9.76815 110.362 9.44374 110.362 8.83098V8.29031C110.362 8.11008 110.326 7.92986 110.289 7.78568L109.085 9.55188C109.158 9.69606 109.341 9.76815 109.596 9.76815Z" fill="black"/>
    <path d="M111.603 9.84023C111.603 9.69606 111.712 9.58792 111.858 9.58792C112.004 9.58792 112.113 9.69606 112.113 9.84023C112.113 9.98441 112.004 10.0925 111.858 10.0925C111.712 10.0925 111.603 9.98441 111.603 9.84023Z" fill="black"/>
    <path d="M112.844 7.06479H114.96V7.38919C113.975 8.11008 113.829 9.04725 113.829 10.0205V10.0565H113.464V10.0205C113.464 9.11934 113.61 8.11008 114.522 7.38919H112.844V7.06479V7.06479Z" fill="black"/>
    <path d="M115.799 9.04725V8.25426C115.799 7.49732 116.164 7.06479 116.93 7.06479C117.623 7.06479 117.915 7.42523 117.915 7.89382V7.92986H117.55V7.89382C117.55 7.56941 117.331 7.42523 116.93 7.42523C116.456 7.42523 116.164 7.6415 116.164 8.14613V8.43449C116.346 8.18217 116.638 8.07404 117.003 8.07404C117.623 8.07404 117.988 8.39844 117.988 9.0112V9.15538C117.988 9.76815 117.623 10.1286 116.857 10.1286C116.164 10.0925 115.799 9.7321 115.799 9.04725ZM116.93 9.76815C117.404 9.76815 117.66 9.58792 117.66 9.15538V8.97516C117.66 8.54262 117.404 8.39844 116.966 8.39844C116.529 8.39844 116.2 8.57867 116.2 8.97516V9.15538C116.2 9.58792 116.456 9.76815 116.93 9.76815Z" fill="black"/>
    <path d="M118.937 9.26352V9.19143C118.937 8.79494 119.155 8.54262 119.484 8.47053C119.192 8.39844 119.009 8.18217 119.009 7.85777V7.78568C119.009 7.3171 119.374 7.02874 120.068 7.02874C120.761 7.02874 121.089 7.3171 121.089 7.78568V7.85777C121.089 8.21822 120.87 8.39844 120.615 8.47053C120.943 8.54262 121.162 8.79494 121.162 9.19143V9.26352C121.162 9.80419 120.797 10.0925 120.068 10.0925C119.301 10.0925 118.937 9.80419 118.937 9.26352ZM120.068 9.76815C120.542 9.76815 120.797 9.62397 120.797 9.26352V9.11934C120.797 8.75889 120.505 8.61471 120.068 8.61471C119.63 8.61471 119.338 8.72285 119.338 9.11934V9.26352C119.338 9.62397 119.593 9.76815 120.068 9.76815ZM120.068 8.32635C120.469 8.32635 120.724 8.21822 120.724 7.89382V7.78568C120.724 7.49732 120.505 7.35314 120.068 7.35314C119.63 7.35314 119.411 7.49732 119.411 7.78568V7.89382C119.411 8.21822 119.666 8.32635 120.068 8.32635Z" fill="black"/>
    <path d="M122.111 8.79494V8.32635C122.111 7.53337 122.513 7.06479 123.279 7.06479C124.045 7.06479 124.41 7.53337 124.41 8.32635V8.79494C124.41 9.58792 124.009 10.0925 123.279 10.0925C122.513 10.0925 122.111 9.58792 122.111 8.79494ZM122.586 9.37165L123.826 7.60546C123.717 7.46128 123.534 7.38919 123.279 7.38919C122.768 7.38919 122.513 7.71359 122.513 8.32635V8.86703C122.476 9.04725 122.513 9.22747 122.586 9.37165ZM123.242 9.76815C123.753 9.76815 124.009 9.44374 124.009 8.83098V8.29031C124.009 8.11008 123.972 7.92986 123.936 7.78568L122.732 9.55188C122.841 9.69606 123.023 9.76815 123.242 9.76815Z" fill="black"/>
    <path d="M104.889 34.567V48.1198" stroke="black" stroke-miterlimit="10"/>
    <path d="M109.304 33.8821V47.435" stroke="black" stroke-miterlimit="10"/>
    <path d="M113.719 33.3414V46.8943" stroke="black" stroke-miterlimit="10"/>
    <path d="M118.097 33.4496V47.0024" stroke="black" stroke-miterlimit="10"/>
    <path d="M131.342 37.3785V50.9313" stroke="black" stroke-miterlimit="10"/>
    <path d="M135.72 36.8018V50.3546" stroke="black" stroke-miterlimit="10"/>
    <path d="M140.135 34.9995V48.5163" stroke="black" stroke-miterlimit="10"/>
    <path d="M126.927 36.6215V50.1744" stroke="black" stroke-miterlimit="10"/>
    <path d="M122.512 34.3147V47.8675" stroke="black" stroke-miterlimit="10"/>
    <path d="M144.549 33.3414V46.8943" stroke="black" stroke-miterlimit="10"/>
    <path d="M148.928 34.0263V47.5792" stroke="black" stroke-miterlimit="10"/>
    <path d="M157.757 36.0088V49.5616" stroke="black" stroke-miterlimit="10"/>
    <path d="M153.343 34.4588V48.0117" stroke="black" stroke-miterlimit="10"/>
    <path d="M162.172 36.4053V49.9581" stroke="black" stroke-miterlimit="10"/>
    <rect x="100.5" y="0.5" width="66.134" height="73" stroke="black"/>
    <path d="M121.076 73.4261H1V147.368H121.076V73.4261Z" stroke="black" stroke-miterlimit="10"/>
    <path d="M46.5579 88.1725C47.963 88.1725 49.1021 87.0081 49.1021 85.5717C49.1021 84.1354 47.963 82.971 46.5579 82.971C45.1527 82.971 44.0137 84.1354 44.0137 85.5717C44.0137 87.0081 45.1527 88.1725 46.5579 88.1725Z" stroke="black" stroke-miterlimit="10"/>
    <path d="M66.8372 108.687C68.2423 108.687 69.3814 107.522 69.3814 106.086C69.3814 104.65 68.2423 103.485 66.8372 103.485C65.432 103.485 64.293 104.65 64.293 106.086C64.293 107.522 65.432 108.687 66.8372 108.687Z" stroke="black" stroke-miterlimit="10"/>
    <path d="M72.6633 122.742C74.0685 122.742 75.2076 121.577 75.2076 120.141C75.2076 118.704 74.0685 117.54 72.6633 117.54C71.2582 117.54 70.1191 118.704 70.1191 120.141C70.1191 121.577 71.2582 122.742 72.6633 122.742Z" stroke="black" stroke-miterlimit="10"/>
    <path d="M20.304 122.742C21.7091 122.742 22.8482 121.577 22.8482 120.141C22.8482 118.704 21.7091 117.54 20.304 117.54C18.8988 117.54 17.7598 118.704 17.7598 120.141C17.7598 121.577 18.8988 122.742 20.304 122.742Z" stroke="black" stroke-miterlimit="10"/>
    <path d="M93.8137 121.39C95.2189 121.39 96.3579 120.225 96.3579 118.789C96.3579 117.352 95.2189 116.188 93.8137 116.188C92.4086 116.188 91.2695 117.352 91.2695 118.789C91.2695 120.225 92.4086 121.39 93.8137 121.39Z" stroke="black" stroke-miterlimit="10"/>
    <path d="M96.3262 118.627C106.446 120.689 110.124 131.829 121.39 132.579" stroke="black" stroke-miterlimit="10"/>
    <path d="M74.6143 121.807C75.1196 122.023 75.6688 122.198 76.2577 122.333C80.9154 123.375 86.1664 119.584 91.268 118.569" stroke="black" stroke-miterlimit="10"/>
    <path d="M67.3916 108.624C68.3012 112.442 69.1185 115.941 70.7663 118.483" stroke="black" stroke-miterlimit="10"/>
    <path d="M49.0986 85.7379C56.8499 86.9193 62.5886 94.0343 64.8999 99.986C65.3613 101.181 65.7568 102.389 66.1039 103.593" stroke="black" stroke-miterlimit="10"/>
    <path d="M21.543 117.868C22.391 116.224 23.2127 114.423 24.0344 112.46C27.0752 105.17 29.6502 87.7637 44.0234 85.7604" stroke="black" stroke-miterlimit="10"/>
    <path d="M1 132.583C9.3928 131.703 14.6526 128.585 18.9237 122.319" stroke="black" stroke-miterlimit="10"/>
    <path d="M10.125 83.377C11.355 83.377 11.997 82.573 11.997 81.235V80.431C11.997 79.105 11.355 78.301 10.125 78.301C8.871 78.301 8.223 79.105 8.223 80.431V81.235C8.223 82.573 8.865 83.377 10.125 83.377ZM8.859 81.295V80.377C8.859 79.357 9.285 78.841 10.125 78.841C10.515 78.841 10.815 78.961 11.019 79.195L9.003 82.159C8.907 81.925 8.859 81.643 8.859 81.295ZM9.225 82.501L11.235 79.555C11.319 79.777 11.361 80.047 11.361 80.371V81.289C11.361 82.321 10.941 82.837 10.125 82.837C9.735 82.837 9.435 82.723 9.225 82.501ZM14.0896 83.377C14.3176 83.377 14.5096 83.215 14.5096 82.963C14.5096 82.705 14.3176 82.543 14.0896 82.543C13.8616 82.543 13.6756 82.705 13.6756 82.963C13.6756 83.215 13.8616 83.377 14.0896 83.377ZM16.3356 82.741V83.317H20.0076V82.777H16.9656C16.9656 81.991 17.0976 81.637 18.0876 81.373L18.7356 81.145C19.4496 80.959 20.0136 80.563 20.0136 79.705C20.0136 78.757 19.3716 78.301 18.2496 78.301C16.9956 78.301 16.3836 78.871 16.3836 79.945V80.077H17.0196V79.915C17.0196 79.141 17.4216 78.841 18.2556 78.841C18.9696 78.841 19.3776 79.057 19.3776 79.651V79.687C19.3776 80.293 18.9876 80.491 18.3996 80.659L17.7696 80.881C16.5816 81.211 16.3356 81.841 16.3356 82.741ZM21.8657 82.741V83.317H25.5377V82.777H22.4957C22.4957 81.991 22.6277 81.637 23.6177 81.373L24.2657 81.145C24.9797 80.959 25.5437 80.563 25.5437 79.705C25.5437 78.757 24.9017 78.301 23.7797 78.301C22.5257 78.301 21.9137 78.871 21.9137 79.945V80.077H22.5497V79.915C22.5497 79.141 22.9517 78.841 23.7857 78.841C24.4997 78.841 24.9077 79.057 24.9077 79.651V79.687C24.9077 80.293 24.5177 80.491 23.9297 80.659L23.2997 80.881C22.1117 81.211 21.8657 81.841 21.8657 82.741ZM27.1318 78.901H29.9038C28.3798 80.077 28.1458 81.739 28.1458 83.257V83.317H28.7638V83.257C28.7638 81.679 29.0098 80.083 30.6118 78.901V78.361H27.1318V78.901ZM32.2809 82.777V83.317H35.2989V82.777H34.0989V78.361H33.4989C33.1629 78.799 32.7549 78.949 32.2629 78.949V79.519C32.7489 79.519 33.1929 79.357 33.4809 79.051V82.777H32.2809Z" fill="black"/>
    <path d="M121.122 73.5H298.18V147.294H121.122V73.5Z" stroke="black" stroke-miterlimit="10"/>
    <path d="M182.572 105.793H172.872V147.268H182.572V105.793Z" stroke="black" stroke-miterlimit="10"/>
    <path d="M141.248 112.899H131.623V147.02H141.248V112.899Z" stroke="black" stroke-miterlimit="10"/>
    <path d="M224.433 83.4616H214.809V147.02H224.433V83.4616Z" stroke="black" stroke-miterlimit="10"/>
    <path d="M192.273 121.586H182.572V147.261H192.273V121.586Z" stroke="black" stroke-miterlimit="10"/>
    <path d="M150.873 90.821H141.248V147.02H150.873V90.821Z" stroke="black" stroke-miterlimit="10"/>
    <path d="M234.058 111.561H224.434V147.02H234.058V111.561Z" stroke="black" stroke-miterlimit="10"/>
    <path d="M201.973 99.5184H192.272V147.261H201.973V99.5184Z" stroke="black" stroke-miterlimit="10"/>
    <path d="M160.498 101.526H150.873V147.02H160.498V101.526Z" stroke="black" stroke-miterlimit="10"/>
    <path d="M243.682 117.582H234.058V147.02H243.682V117.582Z" stroke="black" stroke-miterlimit="10"/>
    <path d="M266.759 88.9659H257.17V147.568H266.759V88.9659Z" stroke="black" stroke-miterlimit="10"/>
    <path d="M276.349 101.636H266.76V147.568H276.349V101.636Z" stroke="black" stroke-miterlimit="10"/>
    <path d="M285.843 112.68H276.254V147.532H285.843V112.68Z" stroke="black" stroke-miterlimit="10"/>
    <path d="M127.112 82.9958C128.342 82.9958 128.984 82.1918 128.984 80.8538V80.0498C128.984 78.7238 128.342 77.9198 127.112 77.9198C125.858 77.9198 125.21 78.7238 125.21 80.0498V80.8538C125.21 82.1918 125.852 82.9958 127.112 82.9958ZM125.846 80.9138V79.9958C125.846 78.9758 126.272 78.4598 127.112 78.4598C127.502 78.4598 127.802 78.5798 128.006 78.8138L125.99 81.7778C125.894 81.5438 125.846 81.2618 125.846 80.9138ZM126.212 82.1198L128.222 79.1738C128.306 79.3958 128.348 79.6658 128.348 79.9898V80.9078C128.348 81.9398 127.928 82.4558 127.112 82.4558C126.722 82.4558 126.422 82.3418 126.212 82.1198ZM131.077 82.9958C131.305 82.9958 131.497 82.8338 131.497 82.5818C131.497 82.3238 131.305 82.1618 131.077 82.1618C130.849 82.1618 130.663 82.3238 130.663 82.5818C130.663 82.8338 130.849 82.9958 131.077 82.9958ZM135.328 79.6118C134.692 79.6118 134.242 79.8218 133.942 80.1938L134.062 78.5198H136.708V77.9798H133.498L133.324 80.8538H133.942C134.17 80.4338 134.542 80.1518 135.196 80.1518C135.898 80.1518 136.294 80.4698 136.294 81.1358V81.4598C136.294 82.1858 135.808 82.4558 135.112 82.4558C134.512 82.4558 133.912 82.2578 133.912 81.5618V81.4058H133.276V81.5198C133.276 82.5038 134.008 82.9958 135.124 82.9958C136.282 82.9958 136.93 82.4618 136.93 81.3638V81.1178C136.93 80.1098 136.258 79.6118 135.328 79.6118ZM138.759 82.3598V82.9358H142.431V82.3958H139.389C139.389 81.6098 139.521 81.2558 140.511 80.9918L141.159 80.7638C141.873 80.5778 142.437 80.1818 142.437 79.3238C142.437 78.3758 141.795 77.9198 140.673 77.9198C139.419 77.9198 138.807 78.4898 138.807 79.5638V79.6958H139.443V79.5338C139.443 78.7598 139.845 78.4598 140.679 78.4598C141.393 78.4598 141.801 78.6758 141.801 79.2698V79.3058C141.801 79.9118 141.411 80.1098 140.823 80.2778L140.193 80.4998C139.005 80.8298 138.759 81.4598 138.759 82.3598ZM144.025 78.5198H146.797C145.273 79.6958 145.039 81.3578 145.039 82.8758V82.9358H145.657V82.8758C145.657 81.2978 145.903 79.7018 147.505 78.5198V77.9798H144.025V78.5198ZM149.174 82.3958V82.9358H152.192V82.3958H150.992V77.9798H150.392C150.056 78.4178 149.648 78.5678 149.156 78.5678V79.1378C149.642 79.1378 150.086 78.9758 150.374 78.6698V82.3958H149.174Z" fill="black"/>
</svg>
