<svg width="1082" height="455" viewBox="0 0 1082 455" fill="none" xmlns="http://www.w3.org/2000/svg">
    <rect x="874.5" y="335.5" width="107" height="119" fill="#00CEF5"/>
    <path d="M963.329 404.899C963.52 385.467 947.855 369.559 928.342 369.369C908.828 369.179 892.854 384.779 892.663 404.211C892.472 423.644 908.137 439.551 927.651 439.741C947.165 439.931 963.139 424.332 963.329 404.899Z" stroke="black" stroke-miterlimit="10"/>
    <path d="M882.082 341.517H884.9V342.008H882.64V343.493H884.782V343.984H882.64V345.469H884.9V345.96H882.082V341.523V341.517Z" fill="black"/>
    <path d="M889.449 345.556V344.849C889.449 344.253 889.032 344.136 888.603 344.136H887.295V345.954H886.731V341.517H888.615C889.578 341.517 890.03 341.886 890.03 342.762V342.792C890.03 343.399 889.795 343.744 889.331 343.885C889.789 344.001 890.024 344.352 890.024 344.849V345.55C890.024 345.697 890.024 345.866 890.083 345.948H889.519C889.455 345.878 889.455 345.702 889.455 345.55L889.449 345.556ZM888.603 343.657C889.108 343.657 889.443 343.516 889.443 342.879V342.739C889.443 342.143 889.143 341.997 888.557 341.997H887.289V343.657H888.598H888.603Z" fill="black"/>
    <path d="M894.649 345.556V344.849C894.649 344.253 894.232 344.136 893.804 344.136H892.495V345.954H891.932V341.517H893.816C894.778 341.517 895.23 341.886 895.23 342.762V342.792C895.23 343.399 894.995 343.744 894.532 343.885C894.99 344.001 895.23 344.352 895.23 344.849V345.55C895.23 345.697 895.23 345.866 895.289 345.948H894.725C894.661 345.878 894.661 345.702 894.661 345.55L894.649 345.556ZM893.804 343.657C894.309 343.657 894.643 343.516 894.643 342.879V342.739C894.643 342.143 894.344 341.997 893.757 341.997H892.489V343.657H893.798H893.804Z" fill="black"/>
    <path d="M896.95 344.089V343.37C896.95 342.301 897.578 341.465 898.811 341.465C900.043 341.465 900.665 342.301 900.665 343.37V344.089C900.665 345.17 900.037 346.006 898.811 346.006C897.584 346.006 896.95 345.17 896.95 344.089ZM898.811 345.504C899.668 345.504 900.09 344.943 900.09 344.142V343.318C900.09 342.523 899.668 341.962 898.811 341.962C897.954 341.962 897.525 342.523 897.525 343.318V344.142C897.525 344.948 897.948 345.504 898.811 345.504Z" fill="black"/>
    <path d="M905.203 345.556V344.849C905.203 344.253 904.786 344.136 904.357 344.136H903.048V345.954H902.485V341.517H904.369C905.332 341.517 905.784 341.886 905.784 342.762V342.792C905.784 343.399 905.549 343.744 905.085 343.885C905.543 344.001 905.784 344.352 905.784 344.849V345.55C905.784 345.697 905.784 345.866 905.842 345.948H905.279C905.214 345.878 905.214 345.702 905.214 345.55L905.203 345.556ZM904.357 343.657C904.862 343.657 905.197 343.516 905.197 342.879V342.739C905.197 342.143 904.897 341.997 904.31 341.997H903.043V343.657H904.352H904.357Z" fill="black"/>
    <path d="M908.971 398.612L917.728 405.726" stroke="black" stroke-miterlimit="10"/>
    <path d="M917.728 398.612L908.971 405.726" stroke="black" stroke-miterlimit="10"/>
    <path d="M937.368 398.612L946.125 405.726" stroke="black" stroke-miterlimit="10"/>
    <path d="M946.125 398.612L937.368 405.726" stroke="black" stroke-miterlimit="10"/>
    <path d="M927.83 430.866C931.295 430.866 934.104 427.744 934.104 423.892C934.104 420.041 931.295 416.919 927.83 416.919C924.364 416.919 921.555 420.041 921.555 423.892C921.555 427.744 924.364 430.866 927.83 430.866Z" stroke="black" stroke-miterlimit="10"/>
    <rect x="874.5" y="335.5" width="107" height="119" stroke="black"/>
    <path d="M47.5826 83.9951H49.5588C50.5751 83.9951 51.0833 84.5041 51.0833 85.5222V85.5787C51.0833 86.5968 50.5751 87.1058 49.5588 87.1058H48.1472V88.6894H47.5826V83.9951ZM49.5588 86.5968C50.2364 86.5968 50.5187 86.314 50.5187 85.6353V85.4091C50.5187 84.7304 50.2364 84.5041 49.5588 84.5041H48.2037V86.5968H49.5588Z" fill="black"/>
    <path d="M53.6807 83.9951H54.4712L55.9957 88.6894H55.3746L55.0923 87.7845H53.0596L52.7772 88.6894H52.1561L53.6807 83.9951ZM54.9229 87.2189L54.1324 84.6173L54.0759 84.5607L54.0194 84.6173L53.2289 87.2189H54.9229Z" fill="black"/>
    <path d="M57.125 87.1624V86.9927H57.7461V87.2189C57.7461 87.8976 58.1413 88.1804 58.9883 88.1804C59.7223 88.1804 60.0046 87.9542 60.0046 87.4452V87.3886C60.0046 86.8796 59.7223 86.7099 59.1577 86.5968L58.3107 86.314C57.6896 86.1443 57.2379 85.805 57.2379 85.1263C57.2379 84.3345 57.8025 83.882 58.8189 83.882C59.8917 83.882 60.5128 84.391 60.5128 85.2394V85.3525H59.8917V85.1828C59.8917 84.6173 59.5529 84.3345 58.8189 84.3345C58.1413 84.3345 57.8025 84.5607 57.8025 85.0132V85.0697C57.8025 85.5222 58.1413 85.6919 58.593 85.805L59.4965 86.0878C60.1176 86.2574 60.6257 86.5402 60.6257 87.332C60.6257 88.237 60.1176 88.6329 58.9318 88.6329C57.6896 88.6894 57.125 88.1804 57.125 87.1624Z" fill="black"/>
    <path d="M61.9244 87.1624V86.9927H62.5455V87.2189C62.5455 87.8976 62.9408 88.1804 63.7877 88.1804C64.5218 88.1804 64.8041 87.9542 64.8041 87.4452V87.3886C64.8041 86.8796 64.5218 86.7099 63.9571 86.5968L63.1102 86.314C62.489 86.1443 62.0373 85.805 62.0373 85.1263C62.0373 84.3345 62.602 83.882 63.6183 83.882C64.6911 83.882 65.3123 84.391 65.3123 85.2394V85.3525H64.6911V85.1828C64.6911 84.6173 64.3524 84.3345 63.6183 84.3345C62.9408 84.3345 62.602 84.5607 62.602 85.0132V85.0697C62.602 85.5222 62.9408 85.6919 63.3925 85.805L64.2959 86.0878C64.917 86.2574 65.4252 86.5402 65.4252 87.332C65.4252 88.237 64.917 88.6329 63.7313 88.6329C62.489 88.6894 61.9244 88.1804 61.9244 87.1624Z" fill="black"/>
    <path d="M52.6078 148.641C53.8552 148.641 54.8664 147.628 54.8664 146.378C54.8664 145.129 53.8552 144.116 52.6078 144.116C51.3605 144.116 50.3493 145.129 50.3493 146.378C50.3493 147.628 51.3605 148.641 52.6078 148.641Z" stroke="black" stroke-miterlimit="10"/>
    <path d="M64.8041 148.697C66.9246 148.697 68.6436 146.975 68.6436 144.851C68.6436 142.727 66.9246 141.005 64.8041 141.005C62.6835 141.005 60.9645 142.727 60.9645 144.851C60.9645 146.975 62.6835 148.697 64.8041 148.697Z" stroke="black" stroke-miterlimit="10"/>
    <path d="M79.5977 148.641C82.5602 148.641 84.9618 146.235 84.9618 143.268C84.9618 140.3 82.5602 137.895 79.5977 137.895C76.6352 137.895 74.2336 140.3 74.2336 143.268C74.2336 146.235 76.6352 148.641 79.5977 148.641Z" stroke="black" stroke-miterlimit="10"/>
    <path d="M97.7791 148.641C101.615 148.641 104.724 145.526 104.724 141.684C104.724 137.842 101.615 134.727 97.7791 134.727C93.9434 134.727 90.834 137.842 90.834 141.684C90.834 145.526 93.9434 148.641 97.7791 148.641Z" stroke="black" stroke-miterlimit="10"/>
    <path d="M118.727 148.697C123.436 148.697 127.253 144.874 127.253 140.157C127.253 135.44 123.436 131.617 118.727 131.617C114.018 131.617 110.201 135.44 110.201 140.157C110.201 144.874 114.018 148.697 118.727 148.697Z" stroke="black" stroke-miterlimit="10"/>
    <path d="M141.708 148.641C147.259 148.641 151.759 144.133 151.759 138.573C151.759 133.013 147.259 128.506 141.708 128.506C136.157 128.506 131.658 133.013 131.658 138.573C131.658 144.133 136.157 148.641 141.708 148.641Z" stroke="black" stroke-miterlimit="10"/>
    <path d="M168.303 148.641C174.727 148.641 179.934 143.424 179.934 136.99C179.934 130.555 174.727 125.339 168.303 125.339C161.879 125.339 156.671 130.555 156.671 136.99C156.671 143.424 161.879 148.641 168.303 148.641Z" stroke="black" stroke-miterlimit="10"/>
    <path d="M198.229 148.641C205.495 148.641 211.385 142.741 211.385 135.463C211.385 128.185 205.495 122.285 198.229 122.285C190.963 122.285 185.073 128.185 185.073 135.463C185.073 142.741 190.963 148.641 198.229 148.641Z" stroke="black" stroke-miterlimit="10"/>
    <rect x="39.5" y="78.5" width="182" height="115" stroke="black"/>
    <rect x="39.5" y="0.5" width="103" height="78" fill="#8F6CFF"/>
    <path d="M44.3235 4.29053H46.1792V4.61376H44.6908V5.59116H46.1019V5.91439H44.6908V6.89179H46.1792V7.21503H44.3235V4.29438V4.29053Z" fill="black"/>
    <path d="M49.1754 6.94951V6.4839C49.1754 6.0914 48.9009 6.01444 48.6187 6.01444H47.7565V7.21118H47.3854V4.29053H48.6264C49.2566 4.29053 49.5581 4.53295 49.5581 5.11016V5.1294C49.5581 5.52959 49.4073 5.75663 49.0981 5.84898C49.3996 5.92594 49.5542 6.15682 49.5542 6.4839V6.94567C49.5542 7.04187 49.5542 7.15346 49.5929 7.20733H49.2218C49.1792 7.16116 49.1792 7.04571 49.1792 6.94567L49.1754 6.94951ZM48.6187 5.69891C48.9511 5.69891 49.1715 5.60655 49.1715 5.18712V5.09477C49.1715 4.70227 48.9743 4.60607 48.5877 4.60607H47.7527V5.69891H48.6148H48.6187Z" fill="black"/>
    <path d="M52.6007 6.94951V6.4839C52.6007 6.0914 52.3262 6.01444 52.044 6.01444H51.1818V7.21118H50.8107V4.29053H52.0517C52.6857 4.29053 52.9834 4.53295 52.9834 5.11016V5.1294C52.9834 5.52959 52.8288 5.75663 52.5233 5.84898C52.8249 5.92594 52.9834 6.15682 52.9834 6.4839V6.94567C52.9834 7.04187 52.9834 7.15346 53.0221 7.20733H52.6509C52.6084 7.16116 52.6084 7.04571 52.6084 6.94567L52.6007 6.94951ZM52.044 5.69891C52.3764 5.69891 52.5968 5.60655 52.5968 5.18712V5.09477C52.5968 4.70227 52.3996 4.60607 52.013 4.60607H51.178V5.69891H52.0401H52.044Z" fill="black"/>
    <path d="M54.1161 5.98368V5.51038C54.1161 4.80619 54.5337 4.25592 55.3417 4.25592C56.1497 4.25592 56.5633 4.80619 56.5633 5.51038V5.98368C56.5633 6.69557 56.1497 7.24584 55.3417 7.24584C54.5337 7.24584 54.1161 6.69557 54.1161 5.98368ZM55.3417 6.91491C55.9061 6.91491 56.1845 6.5455 56.1845 6.01832V5.47574C56.1845 4.95241 55.9061 4.583 55.3417 4.583C54.7772 4.583 54.495 4.95241 54.495 5.47574V6.01832C54.495 6.54934 54.7734 6.91491 55.3417 6.91491Z" fill="black"/>
    <path d="M59.5518 6.94951V6.4839C59.5518 6.0914 59.2773 6.01444 58.9951 6.01444H58.133V7.21118H57.7618V4.29053H59.0028C59.6369 4.29053 59.9345 4.53295 59.9345 5.11016V5.1294C59.9345 5.52959 59.7799 5.75663 59.4745 5.84898C59.776 5.92594 59.9345 6.15682 59.9345 6.4839V6.94567C59.9345 7.04187 59.9345 7.15346 59.9732 7.20733H59.6021C59.5595 7.16116 59.5595 7.04571 59.5595 6.94567L59.5518 6.94951ZM58.9951 5.69891C59.3276 5.69891 59.5479 5.60655 59.5479 5.18712V5.09477C59.5479 4.70227 59.3508 4.60607 58.9642 4.60607H58.1291V5.69891H58.9912H58.9951Z" fill="black"/>
    <path d="M73.7943 58.8402H65.8496L64.8483 27.1171H74.7956L73.7943 58.8402Z" stroke="black" stroke-miterlimit="10"/>
    <path d="M73.7904 63.2H65.8534V68.6758H73.7904V63.2Z" stroke="black" stroke-miterlimit="10"/>
    <path d="M94.9724 58.8402H87.0277L86.0264 27.1171H95.9737L94.9724 58.8402Z" stroke="black" stroke-miterlimit="10"/>
    <path d="M94.9724 63.2H87.0354V68.6758H94.9724V63.2Z" stroke="black" stroke-miterlimit="10"/>
    <path d="M116.154 58.8402H108.21L107.208 27.1171H117.156L116.154 58.8402Z" stroke="black" stroke-miterlimit="10"/>
    <path d="M116.15 63.2H108.213V68.6758H116.15V63.2Z" stroke="black" stroke-miterlimit="10"/>
    <rect x="39.5" y="0.5" width="103" height="78" stroke="black"/>
    <path d="M987.496 275.635V274.969C987.496 273.843 988.064 273.126 989.147 273.126C990.231 273.126 990.747 273.792 990.747 274.969V275.635C990.747 276.761 990.179 277.478 989.147 277.478C988.064 277.427 987.496 276.761 987.496 275.635ZM988.167 276.403L989.921 273.894C989.766 273.689 989.508 273.587 989.147 273.587C988.425 273.587 988.064 274.048 988.064 274.918V275.686C988.064 275.942 988.115 276.198 988.167 276.403ZM989.147 276.966C989.869 276.966 990.231 276.505 990.231 275.635V274.867C990.231 274.611 990.179 274.355 990.127 274.15L988.425 276.659C988.58 276.863 988.838 276.966 989.147 276.966Z" fill="black"/>
    <path d="M992.036 277.068C992.036 276.863 992.191 276.71 992.398 276.71C992.604 276.71 992.759 276.863 992.759 277.068C992.759 277.273 992.604 277.427 992.398 277.427C992.191 277.427 992.036 277.324 992.036 277.068Z" fill="black"/>
    <path d="M994.049 275.635V274.969C994.049 273.843 994.616 273.126 995.7 273.126C996.783 273.126 997.299 273.792 997.299 274.969V275.635C997.299 276.761 996.732 277.478 995.7 277.478C994.565 277.427 994.049 276.761 994.049 275.635ZM994.719 276.403L996.474 273.894C996.319 273.689 996.061 273.587 995.7 273.587C994.977 273.587 994.616 274.048 994.616 274.918V275.686C994.565 275.942 994.616 276.198 994.719 276.403ZM995.648 276.966C996.371 276.966 996.732 276.505 996.732 275.635V274.867C996.732 274.611 996.68 274.355 996.629 274.15L994.926 276.659C995.081 276.863 995.339 276.966 995.648 276.966Z" fill="black"/>
    <path d="M999.828 275.328L1000.34 275.123C1000.86 274.969 1001.17 274.816 1001.17 274.304V274.253C1001.17 273.741 1000.81 273.587 1000.19 273.587C999.466 273.587 999.105 273.843 999.105 274.509V274.662H998.538V274.56C998.538 273.638 999.054 273.177 1000.14 273.177C1001.12 273.177 1001.63 273.587 1001.63 274.355C1001.63 275.072 1001.17 275.43 1000.55 275.584L999.982 275.788C999.105 275.993 999.002 276.3 999.002 276.966H1001.63V277.427H998.486V276.915C998.589 276.147 998.796 275.584 999.828 275.328Z" fill="black"/>
    <path d="M1005.66 276.044H1006.17V276.505H1005.66V277.375H1005.14V276.505H1002.92V276.044L1005.14 273.177H1005.66V276.044ZM1005.09 276.044V273.894L1003.39 276.044H1005.09Z" fill="black"/>
    <path d="M1007.36 275.942V274.816C1007.36 273.741 1007.88 273.126 1008.96 273.126C1009.94 273.126 1010.35 273.638 1010.35 274.304V274.355H1009.84V274.304C1009.84 273.843 1009.53 273.638 1008.96 273.638C1008.29 273.638 1007.88 273.945 1007.88 274.662V275.072C1008.13 274.713 1008.55 274.56 1009.06 274.56C1009.94 274.56 1010.46 275.02 1010.46 275.891V276.096C1010.46 276.966 1009.94 277.478 1008.86 277.478C1007.88 277.427 1007.36 276.966 1007.36 275.942ZM1008.96 276.966C1009.63 276.966 1009.99 276.71 1009.99 276.096V275.84C1009.99 275.225 1009.63 275.02 1009.01 275.02C1008.39 275.02 1007.93 275.276 1007.93 275.84V276.096C1007.93 276.71 1008.29 276.966 1008.96 276.966Z" fill="black"/>
    <path d="M1000.03 299.686L1062.97 360.807" stroke="black" stroke-miterlimit="10"/>
    <path d="M1062.97 299.686L1000.03 360.807" stroke="black" stroke-miterlimit="10"/>
    <rect x="981.5" y="266.5" width="100" height="104" stroke="black"/>
    <rect x="0.5" y="78.5" width="39" height="41" fill="#E1F32C"/>
    <path d="M2.57269 81.8539V81.5877C2.57269 81.1372 2.79747 80.8505 3.22659 80.8505C3.65571 80.8505 3.86005 81.1167 3.86005 81.5877V81.8539C3.86005 82.3044 3.63527 82.5911 3.22659 82.5911C2.79747 82.5707 2.57269 82.3044 2.57269 81.8539ZM2.83834 82.1611L3.5331 81.1577C3.4718 81.0758 3.36963 81.0348 3.22659 81.0348C2.94051 81.0348 2.79747 81.2191 2.79747 81.5672V81.8744C2.79747 81.9768 2.8179 82.0792 2.83834 82.1611ZM3.22659 82.3864C3.51267 82.3864 3.65571 82.2021 3.65571 81.8539V81.5468C3.65571 81.4444 3.63527 81.342 3.61484 81.2601L2.94051 82.2635C3.00181 82.3454 3.10398 82.3864 3.22659 82.3864Z" fill="black"/>
    <path d="M4.37091 82.4273C4.37091 82.3454 4.43221 82.284 4.51395 82.284C4.59569 82.284 4.65699 82.3454 4.65699 82.4273C4.65699 82.5093 4.59569 82.5707 4.51395 82.5707C4.43221 82.5707 4.37091 82.5297 4.37091 82.4273Z" fill="black"/>
    <path d="M5.16785 81.8539V81.5877C5.16785 81.1372 5.39262 80.8505 5.82174 80.8505C6.25086 80.8505 6.4552 81.1167 6.4552 81.5877V81.8539C6.4552 82.3044 6.23043 82.5911 5.82174 82.5911C5.37219 82.5707 5.16785 82.3044 5.16785 81.8539ZM5.43349 82.1611L6.12826 81.1577C6.06695 81.0758 5.96478 81.0348 5.82174 81.0348C5.53566 81.0348 5.39262 81.2191 5.39262 81.5672V81.8744C5.37219 81.9768 5.39262 82.0792 5.43349 82.1611ZM5.80131 82.3864C6.08739 82.3864 6.23043 82.2021 6.23043 81.8539V81.5468C6.23043 81.4444 6.20999 81.342 6.18956 81.2601L5.51523 82.2635C5.57653 82.3454 5.6787 82.3864 5.80131 82.3864Z" fill="black"/>
    <path d="M7.45646 81.7311L7.6608 81.6492C7.86515 81.5878 7.98775 81.5263 7.98775 81.3215V81.3011C7.98775 81.0963 7.84471 81.0349 7.5995 81.0349C7.31342 81.0349 7.17038 81.1372 7.17038 81.4035V81.4649H6.94561V81.4239C6.94561 81.0553 7.14995 80.871 7.57907 80.871C7.96732 80.871 8.17166 81.0349 8.17166 81.342C8.17166 81.6287 7.98775 81.7721 7.74254 81.8335L7.51776 81.9154C7.17038 81.9973 7.12951 82.1202 7.12951 82.3864H8.17166V82.5707H6.92517V82.3659C6.96604 82.0587 7.04778 81.8335 7.45646 81.7311Z" fill="black"/>
    <path d="M9.76557 82.0178H9.96991V82.2021H9.76557V82.5502H9.56123V82.2021H8.68256V82.0178L9.56123 80.871H9.76557V82.0178ZM9.54079 82.0178V81.1577L8.86646 82.0178H9.54079Z" fill="black"/>
    <path d="M10.4399 81.9768V81.5263C10.4399 81.0963 10.6442 80.8505 11.0733 80.8505C11.4616 80.8505 11.6251 81.0553 11.6251 81.3215V81.342H11.4207V81.3215C11.4207 81.1372 11.2981 81.0553 11.0733 81.0553C10.8077 81.0553 10.6442 81.1782 10.6442 81.4649V81.6287C10.7464 81.4853 10.9099 81.4239 11.1142 81.4239C11.4616 81.4239 11.6659 81.6082 11.6659 81.9563V82.0382C11.6659 82.3864 11.4616 82.5911 11.0325 82.5911C10.6442 82.5707 10.4399 82.3864 10.4399 81.9768ZM11.0733 82.3864C11.339 82.3864 11.482 82.284 11.482 82.0382V81.9358C11.482 81.6901 11.339 81.6082 11.0938 81.6082C10.8486 81.6082 10.6647 81.7106 10.6647 81.9358V82.0382C10.6647 82.284 10.8077 82.3864 11.0733 82.3864Z" fill="black"/>
    <path d="M7.53613 91.4744L32.4638 115.923" stroke="black" stroke-miterlimit="10"/>
    <path d="M32.4638 91.4744L7.53613 115.923" stroke="black" stroke-miterlimit="10"/>
    <rect x="0.5" y="78.5" width="39" height="41" stroke="black"/>
    <rect x="969.5" y="353.5" width="39" height="41" fill="#E1F32C"/>
    <path d="M971.573 356.854V356.588C971.573 356.137 971.797 355.851 972.227 355.851C972.656 355.851 972.86 356.117 972.86 356.588V356.854C972.86 357.304 972.635 357.591 972.227 357.591C971.797 357.571 971.573 357.304 971.573 356.854ZM971.838 357.161L972.533 356.158C972.472 356.076 972.37 356.035 972.227 356.035C971.94 356.035 971.797 356.219 971.797 356.567V356.874C971.797 356.977 971.818 357.079 971.838 357.161ZM972.227 357.386C972.513 357.386 972.656 357.202 972.656 356.854V356.547C972.656 356.444 972.635 356.342 972.615 356.26L971.94 357.263C972.002 357.345 972.104 357.386 972.227 357.386Z" fill="black"/>
    <path d="M973.371 357.427C973.371 357.345 973.432 357.284 973.514 357.284C973.596 357.284 973.657 357.345 973.657 357.427C973.657 357.509 973.596 357.571 973.514 357.571C973.432 357.571 973.371 357.53 973.371 357.427Z" fill="black"/>
    <path d="M974.168 356.854V356.588C974.168 356.137 974.393 355.851 974.822 355.851C975.251 355.851 975.455 356.117 975.455 356.588V356.854C975.455 357.304 975.23 357.591 974.822 357.591C974.372 357.571 974.168 357.304 974.168 356.854ZM974.433 357.161L975.128 356.158C975.067 356.076 974.965 356.035 974.822 356.035C974.536 356.035 974.393 356.219 974.393 356.567V356.874C974.372 356.977 974.393 357.079 974.433 357.161ZM974.801 357.386C975.087 357.386 975.23 357.202 975.23 356.854V356.547C975.23 356.444 975.21 356.342 975.19 356.26L974.515 357.263C974.577 357.345 974.679 357.386 974.801 357.386Z" fill="black"/>
    <path d="M976.456 356.731L976.661 356.649C976.865 356.588 976.988 356.526 976.988 356.322V356.301C976.988 356.096 976.845 356.035 976.599 356.035C976.313 356.035 976.17 356.137 976.17 356.403V356.465H975.946V356.424C975.946 356.055 976.15 355.871 976.579 355.871C976.967 355.871 977.172 356.035 977.172 356.342C977.172 356.629 976.988 356.772 976.743 356.833L976.518 356.915C976.17 356.997 976.129 357.12 976.129 357.386H977.172V357.571H975.925V357.366C975.966 357.059 976.048 356.833 976.456 356.731Z" fill="black"/>
    <path d="M978.766 357.018H978.97V357.202H978.766V357.55H978.561V357.202H977.682V357.018L978.561 355.871H978.766V357.018ZM978.541 357.018V356.158L977.866 357.018H978.541Z" fill="black"/>
    <path d="M979.44 356.977V356.526C979.44 356.096 979.644 355.851 980.073 355.851C980.462 355.851 980.625 356.055 980.625 356.322V356.342H980.421V356.322C980.421 356.137 980.298 356.055 980.073 356.055C979.808 356.055 979.644 356.178 979.644 356.465V356.629C979.746 356.485 979.91 356.424 980.114 356.424C980.462 356.424 980.666 356.608 980.666 356.956V357.038C980.666 357.386 980.462 357.591 980.032 357.591C979.644 357.571 979.44 357.386 979.44 356.977ZM980.073 357.386C980.339 357.386 980.482 357.284 980.482 357.038V356.936C980.482 356.69 980.339 356.608 980.094 356.608C979.849 356.608 979.665 356.711 979.665 356.936V357.038C979.665 357.284 979.808 357.386 980.073 357.386Z" fill="black"/>
    <path d="M976.536 366.474L1001.46 390.923" stroke="black" stroke-miterlimit="10"/>
    <path d="M1001.46 366.474L976.536 390.923" stroke="black" stroke-miterlimit="10"/>
    <rect x="969.5" y="353.5" width="39" height="41" stroke="black"/>
</svg>
