<svg width="130" height="31" viewBox="0 0 130 31" fill="none" xmlns="http://www.w3.org/2000/svg">
    <path d="M26.2069 22.3096H19.6991H12.497C12.3339 22.3096 12.1728 22.2739 12.025 22.205C11.8772 22.1362 11.7462 22.0358 11.6413 21.911C11.5364 21.7861 11.46 21.6398 11.4176 21.4824C11.3752 21.3249 11.3677 21.1601 11.3958 20.9994L12.342 15.6184C12.5603 14.4458 13.3137 13.7646 14.5503 13.7682L19.761 13.7791C20.173 13.7805 20.5723 13.6362 20.8882 13.3717C21.2041 13.1071 21.4164 12.7395 21.4875 12.3336L22.7452 5.18461C22.7583 5.11182 22.9505 4.02004 23.1375 2.9632C23.1822 2.71167 23.1712 2.4534 23.1053 2.20658C23.0393 1.95977 22.9201 1.73043 22.7559 1.53471C22.5917 1.339 22.3865 1.18169 22.1549 1.07386C21.9233 0.966038 21.6709 0.910323 21.4154 0.910646H16.3874C15.9791 0.910254 15.5836 1.05288 15.2695 1.31376C14.9555 1.57463 14.7427 1.93728 14.6682 2.3387L14.1361 5.18461H14.1543L12.9898 11.8896C12.767 13.0986 12.0144 13.7304 10.7844 13.7449H5.45574C5.29271 13.7448 5.13167 13.709 4.98391 13.6401C4.83616 13.5712 4.70524 13.4708 4.60034 13.346C4.49544 13.2212 4.41908 13.075 4.37661 12.9176C4.33415 12.7602 4.3266 12.5954 4.3545 12.4348L4.75991 10.134C4.7738 10.0537 4.76997 9.97129 4.74869 9.89259C4.72741 9.81388 4.6892 9.74078 4.63672 9.67839C4.58424 9.616 4.51876 9.56582 4.44487 9.53137C4.37098 9.49693 4.29045 9.47904 4.20893 9.47896H1.3157C1.1092 9.47882 0.90932 9.55186 0.751554 9.68511C0.593789 9.81835 0.488339 10.0032 0.453921 10.2068L0.0128409 12.7507C-0.00885657 12.8758 -0.00300344 13.0042 0.0299922 13.1268C0.0629879 13.2494 0.122333 13.3634 0.20389 13.4608C0.285446 13.5581 0.387254 13.6365 0.502215 13.6905C0.617176 13.7445 0.742525 13.7727 0.869526 13.7733L2.74521 13.7777C2.90816 13.7779 3.06909 13.8137 3.21673 13.8827C3.36438 13.9516 3.49516 14.052 3.59993 14.1768C3.7047 14.3017 3.78092 14.4479 3.82325 14.6052C3.86558 14.7626 3.87301 14.9273 3.845 15.0878L2.81654 21.0206C2.78866 21.1811 2.79618 21.3457 2.83856 21.503C2.88094 21.6603 2.95717 21.8065 3.06191 21.9312C3.16666 22.056 3.29739 22.1564 3.44497 22.2254C3.59255 22.2944 3.75341 22.3303 3.91633 22.3307L9.79958 22.3431C9.96253 22.3433 10.1235 22.3791 10.2711 22.4481C10.4187 22.517 10.5495 22.6174 10.6543 22.7422C10.7591 22.8671 10.8353 23.0133 10.8776 23.1706C10.92 23.328 10.9274 23.4927 10.8994 23.6532L9.99828 28.8494C9.95433 29.1003 9.96581 29.3579 10.0319 29.6039C10.098 29.85 10.2172 30.0786 10.381 30.2738C10.5448 30.4689 10.7493 30.6259 10.9802 30.7336C11.211 30.8414 11.4627 30.8973 11.7175 30.8975L18.2099 30.9106L18.2136 30.8932L25.3036 30.9077C25.7155 30.9089 26.1146 30.7645 26.4304 30.5C26.7462 30.2355 26.9583 29.868 27.0294 29.4622L27.9261 24.3672C27.9716 24.1156 27.9613 23.857 27.8959 23.6098C27.8305 23.3625 27.7116 23.1327 27.5476 22.9364C27.3837 22.7402 27.1786 22.5823 26.9469 22.474C26.7152 22.3657 26.4626 22.3096 26.2069 22.3096Z" fill="white"/>
    <path d="M46.943 21.8939H39.4199V6.2319C39.4199 6.1699 39.4077 6.10851 39.3839 6.05124C39.3602 5.99397 39.3254 5.94195 39.2815 5.89814C39.2376 5.85433 39.1856 5.81961 39.1283 5.79595C39.0709 5.77229 39.0095 5.76016 38.9475 5.76025H36.7385C36.6134 5.76025 36.4934 5.80995 36.405 5.8984C36.3165 5.98685 36.2668 6.10681 36.2668 6.2319V24.2099C36.2668 24.3351 36.3165 24.4551 36.4049 24.5437C36.4934 24.6323 36.6133 24.6821 36.7385 24.6823H46.943C47.0682 24.6821 47.1881 24.6323 47.2766 24.5437C47.365 24.4551 47.4147 24.3351 47.4147 24.2099V22.3655C47.4147 22.2404 47.365 22.1205 47.2765 22.032C47.1881 21.9436 47.0681 21.8939 46.943 21.8939Z" fill="white"/>
    <path d="M56.8626 16.3086L56.6442 16.2321C56.0765 16.0327 55.3697 15.7845 54.9803 15.6804L54.9483 15.6702C54.2932 15.4177 53.8565 15.2255 53.6505 15.0967C53.2138 14.8157 52.8106 14.4605 52.8106 13.7727C52.8106 12.7704 53.6782 12.0986 54.9709 12.0986C56.0496 12.0986 56.9361 12.3738 57.6188 12.9189C57.711 12.9948 57.8285 13.033 57.9477 13.0258C58.0669 13.0187 58.179 12.9667 58.2615 12.8804L59.2434 11.8395C59.328 11.7489 59.3741 11.6288 59.3718 11.5048C59.3695 11.3807 59.319 11.2624 59.231 11.175C58.1756 10.1225 56.7949 9.60938 55.0327 9.60938C53.601 9.60938 52.4074 9.99368 51.3855 10.7819C50.4276 11.5426 49.9618 12.5506 49.9618 13.8637C49.9618 15.7779 51.0215 16.9745 53.5188 17.8669C53.8827 18.0176 54.465 18.2017 54.9265 18.3502C55.0975 18.4048 55.2518 18.4543 55.3748 18.4958C55.8494 18.6537 56.5001 18.8713 56.8436 19.0911C57.5082 19.442 57.8888 19.9849 57.8888 20.5789C57.8888 21.0432 57.6705 22.5579 54.8515 22.5579C53.3354 22.5579 51.9525 22.0237 51.0601 21.1262C50.9771 21.0408 50.8649 20.99 50.7459 20.9839C50.627 20.9778 50.5101 21.017 50.4189 21.0935L49.2157 22.1125C49.1242 22.1894 49.0652 22.2981 49.0505 22.4168C49.0358 22.5354 49.0665 22.6553 49.1364 22.7523C50.2129 24.2393 52.2298 25.0814 54.7904 25.0814C58.5155 25.0814 60.7391 23.3891 60.7391 20.5549C60.7362 18.5409 59.5775 17.2722 56.8626 16.3086Z" fill="white"/>
    <path d="M70.8493 9.72998C69.2822 9.72998 66.6277 10.4629 65.6626 12.0591V10.5306C65.6626 10.4055 65.6129 10.2854 65.5245 10.1969C65.436 10.1083 65.3161 10.0584 65.1909 10.0582H63.1333C63.0081 10.0584 62.8882 10.1083 62.7997 10.1969C62.7113 10.2854 62.6616 10.4055 62.6616 10.5306V28.727C62.6615 28.789 62.6737 28.8504 62.6973 28.9077C62.721 28.965 62.7557 29.0171 62.7995 29.061C62.8433 29.1048 62.8953 29.1397 62.9526 29.1634C63.0099 29.1871 63.0713 29.1994 63.1333 29.1994H65.1909C65.2529 29.1994 65.3143 29.1871 65.3716 29.1634C65.4289 29.1397 65.4809 29.1048 65.5247 29.061C65.5685 29.0171 65.6032 28.965 65.6269 28.9077C65.6505 28.8504 65.6627 28.789 65.6626 28.727V22.6858C66.4537 24.135 68.9379 25.0149 70.8493 25.0149C72.9084 25.0149 74.6545 24.2871 76.0381 22.8423C77.4655 21.3567 78.1591 19.5669 78.1591 17.3717C78.1591 15.1765 77.4662 13.3889 76.036 11.9296C74.6618 10.4702 72.9171 9.72998 70.8493 9.72998ZM73.8007 20.92C72.8858 21.8662 71.7307 22.3473 70.3667 22.3473C68.9881 22.3473 67.7945 21.8699 66.8162 20.9237C65.87 19.9774 65.3925 18.7845 65.3925 17.3732C65.3925 15.9619 65.8715 14.7667 66.8199 13.8183C67.7945 12.8765 68.9881 12.399 70.3667 12.399C71.7307 12.399 72.8865 12.8794 73.7971 13.8227C74.7214 14.7471 75.1902 15.9415 75.1902 17.3732C75.1902 18.8049 74.7193 20 73.8007 20.92Z" fill="white"/>
    <path d="M88.0113 9.60938C85.787 9.60938 83.8756 10.3634 82.3297 11.8512C80.7837 13.3389 80.0056 15.1928 80.0056 17.3734C80.0056 19.5541 80.7873 21.4115 82.3297 22.8956C83.872 24.3797 85.787 25.1374 88.0113 25.1374C90.2356 25.1374 92.1477 24.3834 93.6937 22.8956C95.2396 21.4079 96.0177 19.5533 96.0177 17.3734C96.0177 15.1935 95.236 13.3353 93.6937 11.8512C92.1513 10.3671 90.2356 9.60938 88.0113 9.60938ZM91.5923 21.0149C90.6279 21.9793 89.4226 22.4706 88.0113 22.4706C86.5796 22.4706 85.3648 21.9807 84.3931 21.009C83.4396 19.99 82.9767 18.8015 82.9767 17.3749C82.9767 15.9483 83.4542 14.7415 84.3968 13.7676C85.3648 12.7661 86.5476 12.2799 88.0113 12.2799C89.435 12.2799 90.641 12.7799 91.5923 13.764C92.5567 14.7284 93.048 15.9432 93.048 17.3749C93.048 18.8066 92.572 20.0031 91.5923 21.0149Z" fill="white"/>
    <path d="M106.4 9.76973C106.295 9.76537 106.182 9.76318 106.069 9.76318C104.055 9.76318 101.903 10.633 101.216 12.1498V10.5347C101.216 10.4096 101.166 10.2895 101.078 10.2009C100.989 10.1124 100.869 10.0625 100.744 10.0623H98.7165C98.5914 10.0625 98.4714 10.1124 98.383 10.2009C98.2945 10.2895 98.2449 10.4096 98.2449 10.5347V24.2111C98.2449 24.3363 98.2945 24.4563 98.383 24.5449C98.4714 24.6334 98.5914 24.6833 98.7165 24.6835H100.744C100.869 24.6833 100.989 24.6334 101.078 24.5449C101.166 24.4563 101.216 24.3363 101.216 24.2111V16.9791C101.216 14.3072 102.955 12.58 105.646 12.58C105.875 12.58 106.106 12.5902 106.336 12.6106C106.401 12.6162 106.467 12.6083 106.528 12.5873C106.59 12.5663 106.647 12.5327 106.695 12.4885C106.743 12.4444 106.781 12.3908 106.807 12.3311C106.833 12.2714 106.846 12.207 106.846 12.1418V10.2392C106.846 10.1188 106.8 10.003 106.717 9.91564C106.634 9.82829 106.521 9.77607 106.4 9.76973Z" fill="white"/>
    <path d="M115.645 10.0611H112.193V6.2319C112.193 6.10675 112.143 5.98678 112.054 5.89835C111.966 5.80992 111.846 5.76025 111.72 5.76025H109.663C109.538 5.76025 109.418 5.80995 109.329 5.8984C109.241 5.98685 109.191 6.10681 109.191 6.2319V20.2511C109.191 23.5214 110.701 25.111 113.809 25.111C114.3 25.111 114.961 25.0804 115.514 25.0258C115.63 25.0139 115.737 24.9592 115.815 24.8724C115.893 24.7857 115.936 24.673 115.935 24.5564V22.8663C115.935 22.8016 115.922 22.7375 115.896 22.6782C115.87 22.6188 115.833 22.5654 115.785 22.5213C115.738 22.4772 115.682 22.4433 115.621 22.4218C115.56 22.4003 115.495 22.3915 115.43 22.3961C115.047 22.4223 114.66 22.4383 114.411 22.4383C112.876 22.4383 112.191 21.6413 112.191 19.8544V12.7316H115.643C115.768 12.7316 115.888 12.682 115.976 12.5935C116.065 12.5051 116.115 12.3851 116.115 12.26V10.535C116.115 10.41 116.066 10.2899 115.978 10.201C115.89 10.1122 115.77 10.0619 115.645 10.0611Z" fill="white"/>
    <path d="M125.697 16.3083L125.478 16.2319C124.911 16.0325 124.204 15.7843 123.815 15.6802L123.782 15.67C123.127 15.4174 122.691 15.2253 122.485 15.0964C122.048 14.8155 121.644 14.461 121.644 13.7725C121.644 12.7702 122.512 12.0984 123.804 12.0984C124.883 12.0984 125.77 12.3735 126.453 12.9187C126.545 12.9946 126.663 13.0328 126.782 13.0256C126.901 13.0184 127.013 12.9665 127.096 12.8801L128.076 11.8415C128.161 11.7508 128.207 11.6306 128.204 11.5065C128.202 11.3825 128.151 11.2642 128.063 11.1769C127.008 10.1245 125.628 9.61133 123.865 9.61133C122.434 9.61133 121.239 9.99563 120.218 10.7839C119.26 11.5445 118.794 12.5526 118.794 13.8656C118.794 15.7799 119.854 16.9765 122.351 17.8688C122.715 18.0195 123.297 18.2037 123.758 18.3521C123.93 18.4067 124.085 18.4562 124.207 18.4977C124.682 18.6557 125.333 18.8733 125.676 19.0931C126.34 19.4446 126.722 19.9869 126.722 20.5808C126.722 21.0452 126.503 22.5599 123.684 22.5599C122.168 22.5599 120.784 22.0249 119.893 21.1282C119.81 21.0428 119.698 20.9919 119.579 20.9858C119.46 20.9798 119.343 21.0189 119.252 21.0954L118.048 22.1144C117.957 22.1916 117.898 22.3002 117.883 22.4188C117.868 22.5374 117.899 22.6571 117.968 22.7542C119.046 24.2412 121.062 25.0833 123.623 25.0833C127.348 25.0833 129.572 23.3911 129.572 20.5568C129.57 18.5407 128.41 17.272 125.697 16.3083Z" fill="white"/>
</svg>
