<svg width="1200" height="633" viewBox="0 0 1200 633" fill="none" xmlns="http://www.w3.org/2000/svg">
    <path d="M1023.64 533H1024.21V531.41L1025.82 528.457H1025.17L1023.93 530.805L1022.68 528.457H1022.03L1023.64 531.41V533ZM1026.24 533H1026.85L1027.13 532.109H1029.09L1029.37 533H1029.98L1028.48 528.457H1027.73L1026.24 533ZM1027.29 531.608L1028.08 529.084L1028.11 529.007L1028.13 529.084L1028.93 531.608H1027.29ZM1032 533H1032.57V531.41L1034.19 528.457H1033.54L1032.29 530.805L1031.04 528.457H1030.39L1032 531.41V533Z" fill="black"/>
    <path d="M1064.45 604.929H1053.39L1051.99 560.758H1065.84L1064.45 604.929Z" stroke="black" stroke-miterlimit="10"/>
    <path d="M1064.44 611H1053.39V618.624H1064.44V611Z" stroke="black" stroke-miterlimit="10"/>
    <path d="M1093.94 604.929H1082.87L1081.48 560.758H1095.33L1093.94 604.929Z" stroke="black" stroke-miterlimit="10"/>
    <path d="M1093.94 611H1082.88V618.624H1093.94V611Z" stroke="black" stroke-miterlimit="10"/>
    <path d="M1123.43 604.929H1112.37L1110.97 560.758H1124.82L1123.43 604.929Z" stroke="black" stroke-miterlimit="10"/>
    <path d="M1123.42 611H1112.37V618.624H1123.42V611Z" stroke="black" stroke-miterlimit="10"/>
    <rect x="1016.5" y="523.5" width="143.81" height="109" stroke="black"/>
    <rect x="1066.5" y="414.5" width="94" height="109" fill="#E1F32C"/>
    <path d="M1074.53 426H1075.1V421.457H1074.53V423.475H1072.33V421.457H1071.75V426H1072.33V423.981H1074.53V426ZM1076.48 426H1077.08L1077.36 425.109H1079.32L1079.6 426H1080.21L1078.71 421.457H1077.97L1076.48 426ZM1077.52 424.608L1078.31 422.084L1078.34 422.007L1078.37 422.084L1079.16 424.608H1077.52ZM1081.58 426H1082.15V424.471H1083.51C1084.52 424.471 1085 423.976 1085 422.986V422.925C1085 421.93 1084.51 421.457 1083.51 421.457H1081.58V426ZM1082.15 423.976V421.946H1083.5C1084.14 421.946 1084.41 422.216 1084.41 422.854V423.052C1084.41 423.695 1084.14 423.976 1083.5 423.976H1082.15ZM1086.49 426H1087.06V424.471H1088.42C1089.43 424.471 1089.91 423.976 1089.91 422.986V422.925C1089.91 421.93 1089.42 421.457 1088.42 421.457H1086.49V426ZM1087.06 423.976V421.946H1088.41C1089.04 421.946 1089.31 422.216 1089.31 422.854V423.052C1089.31 423.695 1089.04 423.976 1088.41 423.976H1087.06ZM1092.5 426H1093.07V424.41L1094.68 421.457H1094.04L1092.79 423.805L1091.54 421.457H1090.89L1092.5 424.41V426Z" fill="black"/>
    <path d="M1149.01 477.874C1149.2 458.441 1133.54 442.534 1114.02 442.344C1094.51 442.154 1078.54 457.753 1078.35 477.186C1078.15 496.618 1093.82 512.526 1113.33 512.716C1132.85 512.906 1148.82 497.306 1149.01 477.874Z" stroke="black" stroke-miterlimit="10"/>
    <path d="M1102.68 492.974C1105.21 496.621 1109.19 498.974 1113.68 498.974C1118.17 498.974 1122.16 496.621 1124.68 492.974" stroke="black"/>
    <path d="M1104.68 472.974C1104.68 470.765 1102.89 468.974 1100.68 468.974C1098.47 468.974 1096.68 470.765 1096.68 472.974" stroke="black"/>
    <path d="M1131.68 472.974C1131.68 470.765 1129.89 468.974 1127.68 468.974C1125.47 468.974 1123.68 470.765 1123.68 472.974" stroke="black"/>
    <rect x="1066.5" y="414.5" width="94" height="109" stroke="black"/>
    <rect x="1160.5" y="523.5" width="39" height="41" fill="#00CEF5"/>
    <path d="M1162.57 526.854V526.588C1162.57 526.137 1162.8 525.851 1163.23 525.851C1163.66 525.851 1163.86 526.117 1163.86 526.588V526.854C1163.86 527.304 1163.64 527.591 1163.23 527.591C1162.8 527.571 1162.57 527.304 1162.57 526.854ZM1162.84 527.161L1163.53 526.158C1163.47 526.076 1163.37 526.035 1163.23 526.035C1162.94 526.035 1162.8 526.219 1162.8 526.567V526.874C1162.8 526.977 1162.82 527.079 1162.84 527.161ZM1163.23 527.386C1163.51 527.386 1163.66 527.202 1163.66 526.854V526.547C1163.66 526.444 1163.64 526.342 1163.61 526.26L1162.94 527.263C1163 527.345 1163.1 527.386 1163.23 527.386Z" fill="black"/>
    <path d="M1164.37 527.427C1164.37 527.345 1164.43 527.284 1164.51 527.284C1164.6 527.284 1164.66 527.345 1164.66 527.427C1164.66 527.509 1164.6 527.571 1164.51 527.571C1164.43 527.571 1164.37 527.53 1164.37 527.427Z" fill="black"/>
    <path d="M1165.17 526.854V526.588C1165.17 526.137 1165.39 525.851 1165.82 525.851C1166.25 525.851 1166.46 526.117 1166.46 526.588V526.854C1166.46 527.304 1166.23 527.591 1165.82 527.591C1165.37 527.571 1165.17 527.304 1165.17 526.854ZM1165.43 527.161L1166.13 526.158C1166.07 526.076 1165.96 526.035 1165.82 526.035C1165.54 526.035 1165.39 526.219 1165.39 526.567V526.874C1165.37 526.977 1165.39 527.079 1165.43 527.161ZM1165.8 527.386C1166.09 527.386 1166.23 527.202 1166.23 526.854V526.547C1166.23 526.444 1166.21 526.342 1166.19 526.26L1165.52 527.263C1165.58 527.345 1165.68 527.386 1165.8 527.386Z" fill="black"/>
    <path d="M1167.46 526.731L1167.66 526.649C1167.87 526.588 1167.99 526.526 1167.99 526.322V526.301C1167.99 526.096 1167.84 526.035 1167.6 526.035C1167.31 526.035 1167.17 526.137 1167.17 526.403V526.465H1166.95V526.424C1166.95 526.055 1167.15 525.871 1167.58 525.871C1167.97 525.871 1168.17 526.035 1168.17 526.342C1168.17 526.629 1167.99 526.772 1167.74 526.833L1167.52 526.915C1167.17 526.997 1167.13 527.12 1167.13 527.386H1168.17V527.571H1166.93V527.366C1166.97 527.059 1167.05 526.833 1167.46 526.731Z" fill="black"/>
    <path d="M1169.77 527.018H1169.97V527.202H1169.77V527.55H1169.56V527.202H1168.68V527.018L1169.56 525.871H1169.77V527.018ZM1169.54 527.018V526.158L1168.87 527.018H1169.54Z" fill="black"/>
    <path d="M1170.44 526.977V526.526C1170.44 526.096 1170.64 525.851 1171.07 525.851C1171.46 525.851 1171.63 526.055 1171.63 526.322V526.342H1171.42V526.322C1171.42 526.137 1171.3 526.055 1171.07 526.055C1170.81 526.055 1170.64 526.178 1170.64 526.465V526.629C1170.75 526.485 1170.91 526.424 1171.11 526.424C1171.46 526.424 1171.67 526.608 1171.67 526.956V527.038C1171.67 527.386 1171.46 527.591 1171.03 527.591C1170.64 527.571 1170.44 527.386 1170.44 526.977ZM1171.07 527.386C1171.34 527.386 1171.48 527.284 1171.48 527.038V526.936C1171.48 526.69 1171.34 526.608 1171.09 526.608C1170.85 526.608 1170.66 526.711 1170.66 526.936V527.038C1170.66 527.284 1170.81 527.386 1171.07 527.386Z" fill="black"/>
    <line x1="1181" y1="550" x2="1181" y2="560" stroke="black"/>
    <line x1="1181" y1="531" x2="1181" y2="541" stroke="black"/>
    <line x1="1177.67" y1="549.036" x2="1170.6" y2="556.107" stroke="black"/>
    <line x1="1191.11" y1="535.601" x2="1184.04" y2="542.672" stroke="black"/>
    <line x1="1184.04" y1="548.328" x2="1191.11" y2="555.399" stroke="black"/>
    <line x1="1170.6" y1="534.893" x2="1177.67" y2="541.964" stroke="black"/>
    <line x1="1185" y1="545" x2="1195" y2="545" stroke="black"/>
    <line x1="1166" y1="545" x2="1176" y2="545" stroke="black"/>
    <rect x="1160.5" y="523.5" width="39" height="41" stroke="black"/>
    <path d="M5.473 12H8.3495V11.4995H6.045V9.9815H8.2285V9.4755H6.045V7.9575H8.3495V7.457H5.473V12ZM9.51099 12H10.1765L11.37 10.1355L12.5635 12H13.24L11.7055 9.7065L13.2235 7.457H12.5525L11.3865 9.272L10.215 7.457H9.54399L11.051 9.7065L9.51099 12ZM16.0684 12.055C17.2234 12.055 17.8559 11.34 17.9054 10.405L17.9109 10.119H17.3114L17.3059 10.46C17.2729 11.109 16.8494 11.549 16.0739 11.549C15.1884 11.549 14.7594 10.9825 14.7594 10.1465V9.305C14.7594 8.4855 15.1884 7.908 16.0794 7.908C16.8329 7.908 17.2729 8.3425 17.3059 8.986L17.3114 9.3325H17.9109L17.9054 9.041C17.8559 8.1115 17.2234 7.402 16.0739 7.402C14.8089 7.402 14.1709 8.249 14.1709 9.3545V10.0915C14.1709 11.208 14.8089 12.055 16.0684 12.055ZM19.26 12H21.7075V11.483H20.767V7.974H21.7075V7.457H19.26V7.974H20.195V11.483H19.26V12ZM24.3037 12H24.8757V7.9575H26.2892V7.457H22.8957V7.9575H24.3037V12ZM27.6878 12H30.5643V11.4995H28.2598V9.9815H30.4433V9.4755H28.2598V7.9575H30.5643V7.457H27.6878V12ZM32.1598 12H33.8538C34.9703 12 35.6523 11.472 35.6523 10.0915V9.3655C35.6523 7.9795 34.9703 7.457 33.8538 7.457H32.1598V12ZM32.7318 11.5105V7.9465H33.8483C34.7008 7.9465 35.0583 8.359 35.0583 9.3325V10.1245C35.0583 11.098 34.7008 11.5105 33.8483 11.5105H32.7318Z" fill="black"/>
    <line x1="73.0837" y1="30" x2="73.0837" y2="39.6923" stroke="black"/>
    <line x1="73.0837" y1="43.8462" x2="73.0837" y2="53.5385" stroke="black"/>
    <line x1="60.1222" y1="41.9615" x2="71.1991" y2="41.9615" stroke="black"/>
    <line x1="75.3529" y1="41.9615" x2="86.4299" y2="41.9615" stroke="black"/>
    <line x1="49.6267" y1="53.5385" x2="49.6267" y2="66.0814" stroke="black"/>
    <line x1="49.6267" y1="71.457" x2="49.6267" y2="84" stroke="black"/>
    <line x1="33" y1="69.1652" x2="47.3348" y2="69.1652" stroke="black"/>
    <line x1="52.7104" y1="69.1652" x2="67.0452" y2="69.1652" stroke="black"/>
    <rect x="0.5" y="0.5" width="110" height="109" stroke="black"/>
    <rect x="37.5" y="109.5" width="136" height="109" fill="#8F6CFF"/>
    <path d="M42.0715 121H42.6765L42.957 120.109H44.915L45.1955 121H45.806L44.31 116.457H43.562L42.0715 121ZM43.1165 119.608L43.9085 117.084L43.936 117.007L43.9635 117.084L44.7555 119.608H43.1165ZM48.7951 121.055C49.9501 121.055 50.5826 120.34 50.6321 119.405L50.6376 119.119H50.0381L50.0326 119.46C49.9996 120.109 49.5761 120.549 48.8006 120.549C47.9151 120.549 47.4861 119.982 47.4861 119.146V118.305C47.4861 117.485 47.9151 116.908 48.8061 116.908C49.5596 116.908 49.9996 117.342 50.0326 117.986L50.0381 118.332H50.6376L50.6321 118.041C50.5826 117.111 49.9501 116.402 48.8006 116.402C47.5356 116.402 46.8976 117.249 46.8976 118.354V119.091C46.8976 120.208 47.5356 121.055 48.7951 121.055ZM52.1958 121H55.0723V120.499H52.7678V118.981H54.9513V118.475H52.7678V116.957H55.0723V116.457H52.1958V121Z" fill="black"/>
    <path d="M77.4416 152.137H68.5555V163.11H77.4416V152.137Z" stroke="black" stroke-width="0.7" stroke-miterlimit="10"/>
    <path d="M63.8822 149.841H56.3315V159.165H63.8822V149.841Z" stroke="black" stroke-width="0.7" stroke-miterlimit="10"/>
    <path d="M97.0254 154.255H82.1149V172.667H97.0254V154.255Z" stroke="black" stroke-width="0.7" stroke-miterlimit="10"/>
    <path d="M120.608 155.716H101.699V181.331H120.608V155.716Z" stroke="black" stroke-width="0.7" stroke-miterlimit="10"/>
    <path d="M154 162.241H125.281V197.072H154V162.241Z" stroke="black" stroke-width="0.7" stroke-miterlimit="10"/>
    <rect x="37.5" y="109.5" width="136" height="109" stroke="black"/>
    <rect x="110.5" y="68.5" width="39" height="41" fill="#00CEF5"/>
    <path d="M112.573 71.8539V71.5877C112.573 71.1372 112.797 70.8505 113.227 70.8505C113.656 70.8505 113.86 71.1167 113.86 71.5877V71.8539C113.86 72.3044 113.635 72.5911 113.227 72.5911C112.797 72.5706 112.573 72.3044 112.573 71.8539ZM112.838 72.1611L113.533 71.1577C113.472 71.0758 113.37 71.0348 113.227 71.0348C112.94 71.0348 112.797 71.2191 112.797 71.5672V71.8744C112.797 71.9768 112.818 72.0792 112.838 72.1611ZM113.227 72.3863C113.513 72.3863 113.656 72.202 113.656 71.8539V71.5468C113.656 71.4444 113.635 71.342 113.615 71.2601L112.94 72.2635C113.002 72.3454 113.104 72.3863 113.227 72.3863Z" fill="black"/>
    <path d="M114.371 72.4273C114.371 72.3454 114.432 72.284 114.514 72.284C114.596 72.284 114.657 72.3454 114.657 72.4273C114.657 72.5092 114.596 72.5707 114.514 72.5707C114.432 72.5707 114.371 72.5297 114.371 72.4273Z" fill="black"/>
    <path d="M115.168 71.8539V71.5877C115.168 71.1372 115.393 70.8505 115.822 70.8505C116.251 70.8505 116.455 71.1167 116.455 71.5877V71.8539C116.455 72.3044 116.23 72.5911 115.822 72.5911C115.372 72.5706 115.168 72.3044 115.168 71.8539ZM115.433 72.1611L116.128 71.1577C116.067 71.0758 115.965 71.0348 115.822 71.0348C115.536 71.0348 115.393 71.2191 115.393 71.5672V71.8744C115.372 71.9768 115.393 72.0792 115.433 72.1611ZM115.801 72.3863C116.087 72.3863 116.23 72.202 116.23 71.8539V71.5468C116.23 71.4444 116.21 71.342 116.19 71.2601L115.515 72.2635C115.577 72.3454 115.679 72.3863 115.801 72.3863Z" fill="black"/>
    <path d="M117.456 71.7311L117.661 71.6491C117.865 71.5877 117.988 71.5263 117.988 71.3215V71.301C117.988 71.0962 117.845 71.0348 117.599 71.0348C117.313 71.0348 117.17 71.1372 117.17 71.4034V71.4648H116.946V71.4239C116.946 71.0553 117.15 70.871 117.579 70.871C117.967 70.871 118.172 71.0348 118.172 71.342C118.172 71.6287 117.988 71.772 117.743 71.8334L117.518 71.9154C117.17 71.9973 117.129 72.1201 117.129 72.3863H118.172V72.5706H116.925V72.3659C116.966 72.0587 117.048 71.8334 117.456 71.7311Z" fill="black"/>
    <path d="M119.766 72.0177H119.97V72.202H119.766V72.5502H119.561V72.202H118.682V72.0177L119.561 70.871H119.766V72.0177ZM119.541 72.0177V71.1577L118.866 72.0177H119.541Z" fill="black"/>
    <path d="M120.44 71.9768V71.5263C120.44 71.0962 120.644 70.8505 121.073 70.8505C121.462 70.8505 121.625 71.0553 121.625 71.3215V71.342H121.421V71.3215C121.421 71.1372 121.298 71.0553 121.073 71.0553C120.808 71.0553 120.644 71.1782 120.644 71.4648V71.6287C120.746 71.4853 120.91 71.4239 121.114 71.4239C121.462 71.4239 121.666 71.6082 121.666 71.9563V72.0382C121.666 72.3863 121.462 72.5911 121.032 72.5911C120.644 72.5706 120.44 72.3863 120.44 71.9768ZM121.073 72.3863C121.339 72.3863 121.482 72.284 121.482 72.0382V71.9358C121.482 71.6901 121.339 71.6082 121.094 71.6082C120.849 71.6082 120.665 71.7106 120.665 71.9358V72.0382C120.665 72.284 120.808 72.3863 121.073 72.3863Z" fill="black"/>
    <line x1="131" y1="95" x2="131" y2="105" stroke="black"/>
    <line x1="131" y1="76" x2="131" y2="86" stroke="black"/>
    <line x1="127.672" y1="94.0355" x2="120.6" y2="101.107" stroke="black"/>
    <line x1="141.107" y1="80.6005" x2="134.036" y2="87.6716" stroke="black"/>
    <line x1="134.036" y1="93.3284" x2="141.107" y2="100.399" stroke="black"/>
    <line x1="120.601" y1="79.8934" x2="127.672" y2="86.9645" stroke="black"/>
    <line x1="135" y1="90" x2="145" y2="90" stroke="black"/>
    <line x1="116" y1="90" x2="126" y2="90" stroke="black"/>
    <rect x="110.5" y="68.5" width="39" height="41" stroke="black"/>
</svg>
