<svg width="336" height="564" viewBox="0 0 336 564" fill="none" xmlns="http://www.w3.org/2000/svg">
    <path d="M232.497 69.3636H232.83V68.4404L233.766 66.725H233.389L232.663 68.089L231.938 66.725H231.561L232.497 68.4404V69.3636ZM234.01 69.3636H234.361L234.524 68.8461H235.661L235.824 69.3636H236.179L235.31 66.725H234.875L234.01 69.3636ZM234.617 68.5554L235.077 67.0892L235.092 67.0445L235.108 67.0892L235.568 68.5554H234.617ZM237.355 69.3636H237.687V68.4404L238.623 66.725H238.246L237.521 68.089L236.796 66.725H236.419L237.355 68.4404V69.3636Z" fill="black"/>
    <path d="M256.628 112.413H250.091L249.268 86.3115H257.452L256.628 112.413Z" stroke="black" stroke-width="0.580802" stroke-miterlimit="10"/>
    <path d="M256.625 116H250.095V120.505H256.625V116Z" stroke="black" stroke-width="0.580802" stroke-miterlimit="10"/>
    <path d="M274.053 112.413H267.516L266.693 86.3115H274.877L274.053 112.413Z" stroke="black" stroke-width="0.580802" stroke-miterlimit="10"/>
    <path d="M274.053 116H267.523V120.505H274.053V116Z" stroke="black" stroke-width="0.580802" stroke-miterlimit="10"/>
    <path d="M291.481 112.413H284.945L284.121 86.3115H292.305L291.481 112.413Z" stroke="black" stroke-width="0.580802" stroke-miterlimit="10"/>
    <path d="M291.478 116H284.948V120.505H291.478V116Z" stroke="black" stroke-width="0.580802" stroke-miterlimit="10"/>
    <rect x="228.5" y="64.5" width="84" height="64" stroke="black"/>
    <rect x="257.5" y="0.5" width="55" height="64" fill="#E1F32C"/>
    <path d="M261.956 6.48482H262.288V3.84623H261.956V5.01858H260.675V3.84623H260.342V6.48482H260.675V5.31247H261.956V6.48482ZM263.084 6.48482H263.435L263.598 5.96732H264.736L264.899 6.48482H265.253L264.384 3.84623H263.95L263.084 6.48482ZM263.691 5.67663L264.151 4.2104L264.167 4.16567L264.183 4.2104L264.643 5.67663H263.691ZM266.049 6.48482H266.381V5.59677H267.17C267.758 5.59677 268.036 5.30927 268.036 4.73428V4.69914C268.036 4.12095 267.751 3.84623 267.17 3.84623H266.049V6.48482ZM266.381 5.30927V4.13054H267.164C267.534 4.13054 267.691 4.28706 267.691 4.65761V4.77261C267.691 5.14636 267.534 5.30927 267.164 5.30927H266.381ZM268.899 6.48482H269.231V5.59677H270.02C270.608 5.59677 270.886 5.30927 270.886 4.73428V4.69914C270.886 4.12095 270.601 3.84623 270.02 3.84623H268.899V6.48482ZM269.231 5.30927V4.13054H270.014C270.384 4.13054 270.541 4.28706 270.541 4.65761V4.77261C270.541 5.14636 270.384 5.30927 270.014 5.30927H269.231ZM272.392 6.48482H272.724V5.56163L273.66 3.84623H273.283L272.558 5.21025L271.833 3.84623H271.456L272.392 5.56163V6.48482Z" fill="black"/>
    <path d="M305.933 37.6518C306.046 26.1968 296.812 16.8199 285.309 16.708C273.806 16.596 264.39 25.7914 264.277 37.2464C264.165 48.7014 273.399 58.0783 284.902 58.1902C296.405 58.3022 305.821 49.1069 305.933 37.6518Z" stroke="black" stroke-miterlimit="10"/>
    <path d="M278.305 45.8685C279.771 47.9864 282.088 49.3534 284.694 49.3534C287.3 49.3534 289.617 47.9864 291.083 45.8685" stroke="black"/>
    <path d="M279.467 34.2525C279.467 32.9694 278.427 31.9293 277.144 31.9293C275.86 31.9293 274.82 32.9694 274.82 34.2525" stroke="black"/>
    <path d="M295.148 34.2525C295.148 32.9694 294.108 31.9293 292.825 31.9293C291.542 31.9293 290.502 32.9694 290.502 34.2525" stroke="black"/>
    <rect x="257.5" y="0.5" width="55" height="64" stroke="black"/>
    <rect x="312.5" y="64.5" width="23" height="24" fill="#00CEF5"/>
    <path d="M313.531 66.294V66.1355C313.531 65.8674 313.665 65.6967 313.921 65.6967C314.176 65.6967 314.298 65.8552 314.298 66.1355V66.294C314.298 66.5621 314.164 66.7328 313.921 66.7328C313.665 66.7206 313.531 66.5621 313.531 66.294ZM313.69 66.4768L314.103 65.8796C314.067 65.8308 314.006 65.8064 313.921 65.8064C313.75 65.8064 313.665 65.9161 313.665 66.1233V66.3062C313.665 66.3671 313.677 66.4281 313.69 66.4768ZM313.921 66.6109C314.091 66.6109 314.176 66.5012 314.176 66.294V66.1111C314.176 66.0502 314.164 65.9893 314.152 65.9405L313.75 66.5378C313.787 66.5865 313.848 66.6109 313.921 66.6109Z" fill="black"/>
    <path d="M314.602 66.6353C314.602 66.5865 314.638 66.55 314.687 66.55C314.736 66.55 314.772 66.5865 314.772 66.6353C314.772 66.684 314.736 66.7206 314.687 66.7206C314.638 66.7206 314.602 66.6962 314.602 66.6353Z" fill="black"/>
    <path d="M315.076 66.294V66.1355C315.076 65.8674 315.21 65.6967 315.466 65.6967C315.721 65.6967 315.843 65.8552 315.843 66.1355V66.294C315.843 66.5621 315.709 66.7328 315.466 66.7328C315.198 66.7206 315.076 66.5621 315.076 66.294ZM315.234 66.4768L315.648 65.8795C315.611 65.8308 315.551 65.8064 315.466 65.8064C315.295 65.8064 315.21 65.9161 315.21 66.1233V66.3062C315.198 66.3671 315.21 66.4281 315.234 66.4768ZM315.453 66.6109C315.624 66.6109 315.709 66.5012 315.709 66.294V66.1111C315.709 66.0502 315.697 65.9892 315.684 65.9405L315.283 66.5378C315.32 66.5865 315.38 66.6109 315.453 66.6109Z" fill="black"/>
    <path d="M316.439 66.2208L316.56 66.1721C316.682 66.1355 316.755 66.099 316.755 65.9771V65.9649C316.755 65.843 316.67 65.8064 316.524 65.8064C316.353 65.8064 316.268 65.8674 316.268 66.0258V66.0624H316.134V66.038C316.134 65.8186 316.256 65.7089 316.512 65.7089C316.743 65.7089 316.864 65.8064 316.864 65.9893C316.864 66.1599 316.755 66.2452 316.609 66.2818L316.475 66.3305C316.268 66.3793 316.244 66.4524 316.244 66.6109H316.864V66.7206H316.122V66.5987C316.147 66.4159 316.195 66.2818 316.439 66.2208Z" fill="black"/>
    <path d="M317.813 66.3915H317.935V66.5012H317.813V66.7084H317.691V66.5012H317.168V66.3915L317.691 65.7089H317.813V66.3915ZM317.679 66.3915V65.8795L317.278 66.3915H317.679Z" fill="black"/>
    <path d="M318.214 66.3671V66.099C318.214 65.843 318.336 65.6967 318.592 65.6967C318.823 65.6967 318.92 65.8186 318.92 65.9771V65.9892H318.798V65.9771C318.798 65.8674 318.725 65.8186 318.592 65.8186C318.433 65.8186 318.336 65.8917 318.336 66.0624V66.1599C318.397 66.0746 318.494 66.038 318.616 66.038C318.823 66.038 318.944 66.1477 318.944 66.3549V66.4037C318.944 66.6109 318.823 66.7328 318.567 66.7328C318.336 66.7206 318.214 66.6109 318.214 66.3671ZM318.592 66.6109C318.75 66.6109 318.835 66.55 318.835 66.4037V66.3427C318.835 66.1965 318.75 66.1477 318.604 66.1477C318.458 66.1477 318.348 66.2087 318.348 66.3427V66.4037C318.348 66.55 318.433 66.6109 318.592 66.6109Z" fill="black"/>
    <line x1="324.703" y1="80.0714" x2="324.703" y2="86.0238" stroke="black"/>
    <line x1="324.703" y1="68.7619" x2="324.703" y2="74.7143" stroke="black"/>
    <line x1="322.662" y1="79.6404" x2="318.453" y2="83.8494" stroke="black"/>
    <line x1="330.563" y1="71.3536" x2="326.354" y2="75.5625" stroke="black"/>
    <line x1="326.45" y1="78.9333" x2="330.659" y2="83.1423" stroke="black"/>
    <line x1="318.453" y1="70.9363" x2="322.662" y2="75.1452" stroke="black"/>
    <line x1="326.881" y1="76.8928" x2="332.833" y2="76.8928" stroke="black"/>
    <line x1="315.572" y1="76.8928" x2="321.524" y2="76.8928" stroke="black"/>
    <rect x="312.5" y="64.5" width="23" height="24" stroke="black"/>
    <path d="M3.27297 440.588H4.99317V440.289H3.61504V439.381H4.92081V439.078H3.61504V438.171H4.99317V437.871H3.27297V440.588ZM5.68776 440.588H6.08574L6.79947 439.473L7.5132 440.588H7.91776L7.0001 439.217L7.90789 437.871H7.50662L6.80933 438.957L6.10876 437.871H5.70749L6.6087 439.217L5.68776 440.588ZM9.60917 440.621C10.2999 440.621 10.6781 440.193 10.7077 439.634L10.711 439.463H10.3525L10.3492 439.667C10.3295 440.055 10.0762 440.318 9.61246 440.318C9.08292 440.318 8.82637 439.98 8.82637 439.48V438.976C8.82637 438.486 9.08292 438.141 9.61575 438.141C10.0664 438.141 10.3295 438.401 10.3492 438.786L10.3525 438.993H10.711L10.7077 438.819C10.6781 438.263 10.2999 437.838 9.61246 437.838C8.85597 437.838 8.47444 438.345 8.47444 439.006V439.447C8.47444 440.114 8.85597 440.621 9.60917 440.621ZM11.5178 440.588H12.9815V440.279H12.419V438.18H12.9815V437.871H11.5178V438.18H12.077V440.279H11.5178V440.588ZM14.534 440.588H14.8761V438.171H15.7214V437.871H13.692V438.171H14.534V440.588ZM16.5578 440.588H18.278V440.289H16.8999V439.381H18.2056V439.078H16.8999V438.171H18.278V437.871H16.5578V440.588ZM19.2321 440.588H20.2452C20.9128 440.588 21.3207 440.272 21.3207 439.447V439.013C21.3207 438.184 20.9128 437.871 20.2452 437.871H19.2321V440.588ZM19.5742 440.295V438.164H20.2419C20.7517 438.164 20.9655 438.411 20.9655 438.993V439.467C20.9655 440.049 20.7517 440.295 20.2419 440.295H19.5742Z" fill="black"/>
    <line x1="40.9062" y1="451.94" x2="40.9062" y2="457.737" stroke="black"/>
    <line x1="40.9062" y1="460.221" x2="40.9062" y2="466.017" stroke="black"/>
    <line x1="32.9541" y1="458.893" x2="39.5783" y2="458.893" stroke="black"/>
    <line x1="42.0623" y1="458.893" x2="48.6864" y2="458.893" stroke="black"/>
    <line x1="26.8785" y1="466.017" x2="26.8785" y2="473.518" stroke="black"/>
    <line x1="26.8785" y1="476.732" x2="26.8785" y2="484.233" stroke="black"/>
    <line x1="16.7345" y1="475.161" x2="25.307" y2="475.161" stroke="black"/>
    <line x1="28.5216" y1="475.161" x2="37.0941" y2="475.161" stroke="black"/>
    <rect x="0.5" y="434.5" width="66" height="64" stroke="black"/>
    <rect x="22.8047" y="498.684" width="79" height="64" fill="#8F6CFF"/>
    <path d="M25.3376 504.772H25.6994L25.8671 504.239H27.038L27.2058 504.772H27.5708L26.6762 502.055H26.2289L25.3376 504.772ZM25.9625 503.94L26.4361 502.43L26.4526 502.384L26.469 502.43L26.9426 503.94H25.9625ZM29.3584 504.805C30.0491 504.805 30.4273 504.377 30.4569 503.818L30.4602 503.647H30.1017L30.0984 503.851C30.0787 504.239 29.8254 504.502 29.3617 504.502C28.8321 504.502 28.5756 504.163 28.5756 503.663V503.16C28.5756 502.67 28.8321 502.325 29.365 502.325C29.8156 502.325 30.0787 502.585 30.0984 502.969L30.1017 503.177H30.4602L30.4569 503.002C30.4273 502.446 30.0491 502.022 29.3617 502.022C28.6052 502.022 28.2237 502.529 28.2237 503.19V503.631C28.2237 504.298 28.6052 504.805 29.3584 504.805ZM31.392 504.772H33.1122V504.473H31.7341V503.565H33.0399V503.262H31.7341V502.354H33.1122V502.055H31.392V504.772Z" fill="black"/>
    <path d="M46.2021 523.674H40.9512V530.158H46.2021V523.674Z" stroke="black" stroke-miterlimit="10"/>
    <path d="M38.1897 522.317H33.7279V527.826H38.1897V522.317Z" stroke="black" stroke-miterlimit="10"/>
    <path d="M57.7743 524.925H48.9635V535.805H57.7743V524.925Z" stroke="black" stroke-miterlimit="10"/>
    <path d="M71.7095 525.789H60.5358V540.925H71.7095V525.789Z" stroke="black" stroke-miterlimit="10"/>
    <path d="M91.4411 529.645H74.4707V550.227H91.4411V529.645Z" stroke="black" stroke-miterlimit="10"/>
    <rect x="22.8047" y="498.684" width="79" height="64" stroke="black"/>
    <rect x="66.5" y="474.5" width="23" height="24" fill="#00CEF5"/>
    <path d="M67.5315 476.294V476.136C67.5315 475.867 67.6653 475.697 67.9207 475.697C68.1761 475.697 68.2978 475.855 68.2978 476.136V476.294C68.2978 476.562 68.164 476.733 67.9207 476.733C67.6653 476.721 67.5315 476.562 67.5315 476.294ZM67.6896 476.477L68.1032 475.88C68.0667 475.831 68.0059 475.806 67.9207 475.806C67.7504 475.806 67.6653 475.916 67.6653 476.123V476.306C67.6653 476.367 67.6775 476.428 67.6896 476.477ZM67.9207 476.611C68.091 476.611 68.1761 476.501 68.1761 476.294V476.111C68.1761 476.05 68.164 475.989 68.1518 475.94L67.7504 476.538C67.7869 476.587 67.8477 476.611 67.9207 476.611Z" fill="black"/>
    <path d="M68.6019 476.635C68.6019 476.587 68.6384 476.55 68.6871 476.55C68.7357 476.55 68.7722 476.587 68.7722 476.635C68.7722 476.684 68.7357 476.721 68.6871 476.721C68.6384 476.721 68.6019 476.696 68.6019 476.635Z" fill="black"/>
    <path d="M69.0763 476.294V476.136C69.0763 475.867 69.2101 475.697 69.4655 475.697C69.7209 475.697 69.8426 475.855 69.8426 476.136V476.294C69.8426 476.562 69.7088 476.733 69.4655 476.733C69.1979 476.721 69.0763 476.562 69.0763 476.294ZM69.2344 476.477L69.648 475.88C69.6115 475.831 69.5507 475.806 69.4655 475.806C69.2952 475.806 69.2101 475.916 69.2101 476.123V476.306C69.1979 476.367 69.2101 476.428 69.2344 476.477ZM69.4534 476.611C69.6236 476.611 69.7088 476.501 69.7088 476.294V476.111C69.7088 476.05 69.6966 475.989 69.6845 475.94L69.2831 476.538C69.3196 476.587 69.3804 476.611 69.4534 476.611Z" fill="black"/>
    <path d="M70.4386 476.221L70.5602 476.172C70.6818 476.136 70.7548 476.099 70.7548 475.977V475.965C70.7548 475.843 70.6697 475.806 70.5237 475.806C70.3534 475.806 70.2683 475.867 70.2683 476.026V476.062H70.1345V476.038C70.1345 475.819 70.2561 475.709 70.5115 475.709C70.7426 475.709 70.8643 475.806 70.8643 475.989C70.8643 476.16 70.7548 476.245 70.6088 476.282L70.475 476.331C70.2683 476.379 70.2439 476.452 70.2439 476.611H70.8643V476.721H70.1223V476.599C70.1466 476.416 70.1953 476.282 70.4386 476.221Z" fill="black"/>
    <path d="M71.8131 476.391H71.9347V476.501H71.8131V476.708H71.6915V476.501H71.1685V476.391L71.6915 475.709H71.8131V476.391ZM71.6793 476.391V475.88L71.2779 476.391H71.6793Z" fill="black"/>
    <path d="M72.2145 476.367V476.099C72.2145 475.843 72.3361 475.697 72.5915 475.697C72.8226 475.697 72.9199 475.819 72.9199 475.977V475.989H72.7983V475.977C72.7983 475.867 72.7253 475.819 72.5915 475.819C72.4334 475.819 72.3361 475.892 72.3361 476.062V476.16C72.3969 476.075 72.4942 476.038 72.6159 476.038C72.8226 476.038 72.9443 476.148 72.9443 476.355V476.404C72.9443 476.611 72.8226 476.733 72.5672 476.733C72.3361 476.721 72.2145 476.611 72.2145 476.367ZM72.5915 476.611C72.7497 476.611 72.8348 476.55 72.8348 476.404V476.343C72.8348 476.196 72.7497 476.148 72.6037 476.148C72.4577 476.148 72.3483 476.209 72.3483 476.343V476.404C72.3483 476.55 72.4334 476.611 72.5915 476.611Z" fill="black"/>
    <line x1="78.7025" y1="490.071" x2="78.7025" y2="496.024" stroke="black"/>
    <line x1="78.7025" y1="478.762" x2="78.7025" y2="484.714" stroke="black"/>
    <line x1="76.6619" y1="489.64" x2="72.4529" y2="493.849" stroke="black"/>
    <line x1="84.5625" y1="481.354" x2="80.3536" y2="485.563" stroke="black"/>
    <line x1="80.4502" y1="488.933" x2="84.6592" y2="493.142" stroke="black"/>
    <line x1="72.4532" y1="480.936" x2="76.6621" y2="485.145" stroke="black"/>
    <line x1="80.8811" y1="486.893" x2="86.8335" y2="486.893" stroke="black"/>
    <line x1="69.5715" y1="486.893" x2="75.5239" y2="486.893" stroke="black"/>
    <rect x="66.5" y="474.5" width="23" height="24" stroke="black"/>
</svg>
