<svg width="95" height="102" viewBox="0 0 95 102" fill="none" xmlns="http://www.w3.org/2000/svg">
    <path d="M90.8369 1.19775H4.00037V98.5871H90.8369V1.19775Z" fill="#E1F32C" stroke="black" stroke-miterlimit="10"/>
    <path d="M17.0411 70.9869C19.2348 75.0699 22.1675 78.6091 25.7531 81.4831C29.216 84.2658 33.1518 86.3227 37.4308 87.6083C41.7181 88.8895 46.1392 89.3232 50.5739 88.9006C55.1698 88.4647 59.5749 87.1252 63.6742 84.9228C67.7735 82.7204 71.3302 79.7823 74.2225 76.195C77.0228 72.7305 79.0974 68.7965 80.4 64.5225C81.6983 60.2404 82.1476 55.8275 81.7388 51.404C81.3172 46.8196 79.9894 42.4286 77.7957 38.3456C75.6021 34.2626 72.6693 30.7235 69.0838 27.8495C65.6209 25.0668 61.6851 23.0098 57.406 21.7242C53.1188 20.443 48.6976 20.0094 44.263 20.432C39.6671 20.8678 35.262 22.2074 31.1627 24.4098C27.0634 26.6122 23.5067 29.5502 20.6144 33.1375" stroke="black" stroke-miterlimit="10"/>
    <path d="M24.8069 66.8145C28.0405 72.8333 33.4293 77.2225 39.9899 79.1899C46.5461 81.1492 53.4881 80.4381 59.5309 77.1915C65.5737 73.9449 69.9905 68.5533 71.9841 62.0006C73.9694 55.4523 73.2798 48.5278 70.0462 42.5091C66.8125 36.4903 61.4237 32.1011 54.8631 30.1337C48.3069 28.1744 41.3649 28.8855 35.3221 32.1321" stroke="black" stroke-miterlimit="10"/>
    <path d="M32.6217 62.616C36.9915 70.7494 47.1831 73.7951 55.349 69.4078C63.515 65.0206 66.6012 54.8412 62.2314 46.7077" stroke="black" stroke-miterlimit="10"/>
    <path d="M51.6349 62.4943C55.971 60.1646 57.6028 54.7601 55.2868 50.4493C52.9707 46.1386 47.5553 44.5202 43.2274 46.8455" stroke="black" stroke-miterlimit="10"/>
    <path d="M9.95331 11.3053V11.8813H13.6253V11.3413H10.5833C10.5833 10.5553 10.7153 10.2013 11.7053 9.93735L12.3533 9.70935C13.0673 9.52335 13.6313 9.12735 13.6313 8.26935C13.6313 7.32135 12.9893 6.86535 11.8673 6.86535C10.6133 6.86535 10.0013 7.43535 10.0013 8.50935V8.64135H10.6373V8.47935C10.6373 7.70535 11.0393 7.40535 11.8733 7.40535C12.5873 7.40535 12.9953 7.62135 12.9953 8.21535V8.25135C12.9953 8.85735 12.6053 9.05535 12.0173 9.22335L11.3873 9.44535C10.1993 9.77535 9.95331 10.4053 9.95331 11.3053ZM18.4314 6.92535H17.8194L15.2334 10.3093V10.8733H17.8074V11.8813H18.4314V10.8733H19.0314V10.3333H18.4314V6.92535ZM15.8334 10.3333L17.8074 7.81935V10.3333H15.8334ZM21.2238 11.8813H21.5958L24.6378 6.92535H24.2598L21.2238 11.8813ZM20.5758 7.93935C20.5758 8.47335 20.9298 9.00735 21.5958 9.00735C22.2618 9.00735 22.6158 8.47335 22.6158 7.93935C22.6158 7.39935 22.2618 6.86535 21.5958 6.86535C20.9298 6.86535 20.5758 7.39935 20.5758 7.93935ZM21.0618 7.93935C21.0618 7.56735 21.2658 7.32135 21.5958 7.32135C21.9198 7.32135 22.1298 7.56735 22.1298 7.93935C22.1298 8.30535 21.9198 8.55135 21.5958 8.55135C21.2658 8.55135 21.0618 8.30535 21.0618 7.93935ZM23.2578 10.8673C23.2578 11.4073 23.6178 11.9413 24.2778 11.9413C24.9438 11.9413 25.3038 11.4073 25.3038 10.8673C25.3038 10.3333 24.9438 9.79935 24.2778 9.79935C23.6178 9.79935 23.2578 10.3333 23.2578 10.8673ZM23.7498 10.8673C23.7498 10.5013 23.9538 10.2553 24.2778 10.2553C24.6078 10.2553 24.8118 10.5013 24.8118 10.8673C24.8118 11.2333 24.6078 11.4853 24.2778 11.4853C23.9538 11.4853 23.7498 11.2333 23.7498 10.8673Z" fill="black"/>
</svg>
