<svg width="122" height="136" viewBox="0 0 122 136" fill="none" xmlns="http://www.w3.org/2000/svg">
    <path d="M121 1H1V135H121V1Z" fill="#00CEF5"/>
    <path d="M121 1H1V135H121V1Z" fill="#00CEF5" stroke="black" stroke-miterlimit="10"/>
    <path d="M11.9199 13.7321C13.1499 13.7321 13.7919 12.9281 13.7919 11.5901V10.7861C13.7919 9.46007 13.1499 8.65607 11.9199 8.65607C10.6659 8.65607 10.0179 9.46007 10.0179 10.7861V11.5901C10.0179 12.9281 10.6599 13.7321 11.9199 13.7321ZM10.6539 11.6501V10.7321C10.6539 9.71207 11.0799 9.19607 11.9199 9.19607C12.3099 9.19607 12.6099 9.31607 12.8139 9.55007L10.7979 12.5141C10.7019 12.2801 10.6539 11.9981 10.6539 11.6501ZM11.0199 12.8561L13.0299 9.91007C13.1139 10.1321 13.1559 10.4021 13.1559 10.7261V11.6441C13.1559 12.6761 12.7359 13.1921 11.9199 13.1921C11.5299 13.1921 11.2299 13.0781 11.0199 12.8561ZM15.8846 13.7321C16.1126 13.7321 16.3046 13.5701 16.3046 13.3181C16.3046 13.0601 16.1126 12.8981 15.8846 12.8981C15.6566 12.8981 15.4706 13.0601 15.4706 13.3181C15.4706 13.5701 15.6566 13.7321 15.8846 13.7321ZM19.9195 13.7321C21.1615 13.7321 21.7495 13.2461 21.7495 12.3701V12.2501C21.7495 11.5721 21.3835 11.1821 20.8495 11.0441C21.2935 10.9241 21.6355 10.5761 21.6355 10.0061V9.89807C21.6355 9.12407 21.0595 8.65607 19.9255 8.65607C18.7975 8.65607 18.2035 9.12407 18.2035 9.89807V10.0061C18.2035 10.5761 18.5395 10.9241 18.9955 11.0441C18.4555 11.1821 18.0895 11.5661 18.0895 12.2441V12.3701C18.0895 13.2461 18.6835 13.7321 19.9195 13.7321ZM18.7195 12.3641V12.1541C18.7195 11.5301 19.1755 11.3321 19.9195 11.3321C20.6695 11.3321 21.1195 11.5361 21.1195 12.1541V12.3641C21.1195 12.9701 20.7175 13.2101 19.9195 13.2101C19.1215 13.2101 18.7195 12.9701 18.7195 12.3641ZM18.8335 10.0841V9.91007C18.8335 9.40607 19.2055 9.17807 19.9195 9.17807C20.6335 9.17807 21.0055 9.40607 21.0055 9.91007V10.0781C21.0055 10.6001 20.5615 10.7981 19.9195 10.7981C19.2715 10.7981 18.8335 10.6001 18.8335 10.0841ZM25.4436 8.65607C24.2076 8.65607 23.6076 9.22007 23.6076 10.2581V10.5221C23.6076 11.5181 24.2256 12.0581 25.2516 12.0581C25.8756 12.0581 26.3436 11.8721 26.6376 11.4641V11.9681C26.6376 12.7961 26.1636 13.1681 25.3896 13.1681C24.7536 13.1681 24.3996 12.8981 24.3756 12.3641V12.2861H23.7456V12.3641C23.7696 13.1441 24.2556 13.7321 25.3896 13.7321C26.6856 13.7321 27.2736 12.9881 27.2736 11.7281V10.3841C27.2736 9.22607 26.6976 8.65607 25.4436 8.65607ZM24.2436 10.5161V10.1921C24.2436 9.51407 24.6396 9.19607 25.4436 9.19607C26.2356 9.19607 26.6376 9.49007 26.6376 10.2281V10.5581C26.6376 11.2121 26.1456 11.5061 25.3956 11.5061C24.6516 11.5061 24.2436 11.2241 24.2436 10.5161ZM31.1047 13.7321C32.3347 13.7321 32.9767 12.9281 32.9767 11.5901V10.7861C32.9767 9.46007 32.3347 8.65607 31.1047 8.65607C29.8507 8.65607 29.2027 9.46007 29.2027 10.7861V11.5901C29.2027 12.9281 29.8447 13.7321 31.1047 13.7321ZM29.8387 11.6501V10.7321C29.8387 9.71207 30.2647 9.19607 31.1047 9.19607C31.4947 9.19607 31.7947 9.31607 31.9987 9.55007L29.9827 12.5141C29.8867 12.2801 29.8387 11.9981 29.8387 11.6501ZM30.2047 12.8561L32.2147 9.91007C32.2987 10.1321 32.3407 10.4021 32.3407 10.7261V11.6441C32.3407 12.6761 31.9207 13.1921 31.1047 13.1921C30.7147 13.1921 30.4147 13.0781 30.2047 12.8561ZM34.8614 13.0961V13.6721H38.5334V13.1321H35.4914C35.4914 12.3461 35.6234 11.9921 36.6134 11.7281L37.2614 11.5001C37.9754 11.3141 38.5394 10.9181 38.5394 10.0601C38.5394 9.11207 37.8974 8.65607 36.7754 8.65607C35.5214 8.65607 34.9094 9.22607 34.9094 10.3001V10.4321H35.5454V10.2701C35.5454 9.49607 35.9474 9.19607 36.7814 9.19607C37.4954 9.19607 37.9034 9.41207 37.9034 10.0061V10.0421C37.9034 10.6481 37.5134 10.8461 36.9254 11.0141L36.2954 11.2361C35.1074 11.5661 34.8614 12.1961 34.8614 13.0961Z" fill="black"/>
    <path d="M61.1814 28.9796C55.0635 28.9796 49.1259 30.1816 43.5346 32.5566C38.1381 34.8447 33.2899 38.132 29.1199 42.31C24.9571 46.4879 21.6889 51.3537 19.4019 56.7771C17.0355 62.3887 15.8379 68.3479 15.8379 74.4881C15.8379 80.6284 17.0355 86.5875 19.4019 92.1992C21.6817 97.6153 24.9571 102.481 29.1199 106.666C33.2827 110.844 38.1309 114.124 43.5346 116.42C49.1259 118.795 55.0635 119.997 61.1814 119.997C67.2994 119.997 73.237 118.795 78.8282 116.42C84.2247 114.132 89.0729 110.844 93.2429 106.666C97.4057 102.488 100.674 97.6226 102.961 92.1992C105.327 86.5875 106.525 80.6284 106.525 74.4881C106.525 68.3479 105.327 62.3887 102.961 56.7771C100.681 51.361 97.4057 46.4951 93.2429 42.31C89.0801 38.132 84.2319 34.8519 78.8282 32.5566C73.237 30.1816 67.2994 28.9796 61.1814 28.9796Z" stroke="black" stroke-miterlimit="10"/>
    <path d="M61.1814 40.6082C52.1632 40.6082 43.6933 44.1345 37.3156 50.5282C30.9379 56.929 27.4316 65.4298 27.4316 74.4808C27.4316 83.5318 30.9451 92.0325 37.3156 98.4334C43.6933 104.834 52.1632 108.353 61.1814 108.353C70.1996 108.353 78.6695 104.827 85.0472 98.4334C91.4248 92.0325 94.9311 83.5318 94.9311 74.4808C94.9311 65.4298 91.4176 56.929 85.0472 50.5282C78.6695 44.1273 70.1996 40.6082 61.1814 40.6082V40.6082Z" stroke="black" stroke-miterlimit="10"/>
    <path d="M61.1813 52.3166C49.0031 52.3166 39.0903 62.2582 39.0903 74.488C39.0903 86.7177 48.9959 96.6593 61.1813 96.6593C73.3667 96.6593 83.2723 86.7177 83.2723 74.488C83.2723 62.2582 73.3667 52.3166 61.1813 52.3166V52.3166Z" stroke="black" stroke-miterlimit="10"/>
    <path d="M61.1817 62.7146C54.7174 62.7146 49.458 67.9931 49.458 74.4809C49.458 80.9687 54.7174 86.2472 61.1817 86.2472C67.6459 86.2472 72.9053 80.9687 72.9053 74.4809C72.9053 67.9931 67.6459 62.7146 61.1817 62.7146Z" stroke="black" stroke-miterlimit="10"/>
</svg>
