<svg width="130" height="146" viewBox="0 0 130 146" fill="none" xmlns="http://www.w3.org/2000/svg">
    <rect x="0.5" y="0.598877" width="129" height="144" fill="#00CEF5"/>
    <path d="M10.103 11.041V10.0526C10.103 8.49957 10.8802 7.58185 12.3639 7.58185C13.8476 7.58185 14.5541 8.49957 14.5541 10.0526V10.9704C14.5541 12.5234 13.7769 13.5117 12.3639 13.5117C10.8802 13.5117 10.103 12.594 10.103 11.041ZM11.0215 12.0999L13.4237 8.64076C13.2117 8.35838 12.8585 8.21719 12.3639 8.21719C11.3748 8.21719 10.8802 8.85254 10.8802 10.0526V11.1115C10.8802 11.4645 10.8802 11.8175 11.0215 12.0999ZM12.3639 12.8764C13.353 12.8764 13.8476 12.241 13.8476 11.041V9.98204C13.8476 9.62907 13.7769 9.2761 13.7063 8.99373L11.3748 12.4528C11.5161 12.8058 11.8693 12.8764 12.3639 12.8764Z" fill="black"/>
    <path d="M16.3203 13.0176C16.3203 12.7352 16.5323 12.5234 16.8149 12.5234C17.0975 12.5234 17.3094 12.7352 17.3094 13.0176C17.3094 13.3 17.0975 13.5118 16.8149 13.5118C16.5323 13.5118 16.3203 13.3706 16.3203 13.0176Z" fill="black"/>
    <path d="M19.0054 11.041V10.0526C19.0054 8.49957 19.7825 7.58185 21.2662 7.58185C22.7499 7.58185 23.4565 8.49957 23.4565 10.0526V10.9704C23.4565 12.5234 22.6793 13.5117 21.2662 13.5117C19.7825 13.5117 19.0054 12.594 19.0054 11.041ZM19.9239 12.0999L22.326 8.64076C22.1141 8.35838 21.7608 8.21719 21.2662 8.21719C20.2771 8.21719 19.7825 8.85254 19.7825 10.0526V11.1115C19.7825 11.4645 19.7825 11.8175 19.9239 12.0999ZM21.2662 12.8764C22.2554 12.8764 22.7499 12.241 22.7499 11.041V9.98204C22.7499 9.62907 22.6793 9.2761 22.6086 8.99373L20.2771 12.4528C20.4184 12.8058 20.7717 12.8764 21.2662 12.8764Z" fill="black"/>
    <path d="M25.2935 11.041V10.0526C25.2935 8.49957 26.0706 7.58185 27.5543 7.58185C29.038 7.58185 29.7445 8.49957 29.7445 10.0526V10.9704C29.7445 12.5234 28.9674 13.5117 27.5543 13.5117C26 13.5117 25.2935 12.594 25.2935 11.041ZM26.2119 12.0999L28.6141 8.64076C28.4022 8.35838 28.0489 8.21719 27.5543 8.21719C26.5652 8.21719 26.0706 8.85254 26.0706 10.0526V11.1115C26 11.4645 26.0706 11.8175 26.2119 12.0999ZM27.4837 12.8764C28.4728 12.8764 28.9674 12.241 28.9674 11.041V9.98204C28.9674 9.62907 28.8967 9.2761 28.8261 8.99373L26.4239 12.4528C26.7065 12.8058 27.0598 12.8764 27.4837 12.8764Z" fill="black"/>
    <path d="M31.5107 11.041V10.0526C31.5107 8.49957 32.2879 7.58185 33.7716 7.58185C35.2553 7.58185 35.9618 8.49957 35.9618 10.0526V10.9704C35.9618 12.5234 35.1847 13.5117 33.7716 13.5117C32.2879 13.5117 31.5107 12.594 31.5107 11.041ZM32.4292 12.0999L34.8314 8.64076C34.6194 8.35838 34.2662 8.21719 33.7716 8.21719C32.7825 8.21719 32.2879 8.85254 32.2879 10.0526V11.1115C32.2879 11.4645 32.2879 11.8175 32.4292 12.0999ZM33.7716 12.8764C34.7607 12.8764 35.2553 12.241 35.2553 11.041V9.98204C35.2553 9.62907 35.1847 9.2761 35.114 8.99373L32.7118 12.4528C32.9238 12.8058 33.277 12.8764 33.7716 12.8764Z" fill="black"/>
    <path d="M37.7988 11.041V10.0526C37.7988 8.49957 38.576 7.58185 40.0597 7.58185C41.5434 7.58185 42.2499 8.49957 42.2499 10.0526V10.9704C42.2499 12.5234 41.4727 13.5117 40.0597 13.5117C38.5054 13.5117 37.7988 12.594 37.7988 11.041ZM38.7173 12.0999L41.1195 8.64076C40.9075 8.35838 40.5543 8.21719 40.0597 8.21719C39.0706 8.21719 38.576 8.85254 38.576 10.0526V11.1115C38.5053 11.4645 38.576 11.8175 38.7173 12.0999ZM39.989 12.8764C40.9782 12.8764 41.4727 12.241 41.4727 11.041V9.98204C41.4727 9.62907 41.4021 9.2761 41.3314 8.99373L38.9293 12.4528C39.2119 12.8058 39.5651 12.8764 39.989 12.8764Z" fill="black"/>
    <path d="M45.3584 12.8058V8.42898C45.0051 8.78195 44.5105 8.99373 43.9453 8.99373V8.28779C44.5105 8.28779 45.0051 8.1466 45.429 7.58185H46.1355V12.8058H47.5486V13.4411H44.016V12.8058H45.3584Z" fill="black"/>
    <path d="M50.6574 10.6174L51.4346 10.335C52.1411 10.1232 52.565 9.91145 52.565 9.20551V9.13492C52.565 8.42898 52.0705 8.1466 51.2226 8.1466C50.2335 8.1466 49.7389 8.49957 49.7389 9.41729V9.62907H48.9618V9.48789C48.9618 8.21719 49.6683 7.58185 51.152 7.58185C52.4944 7.58185 53.2009 8.1466 53.2009 9.20551C53.2009 10.1938 52.565 10.688 51.7172 10.8998L50.94 11.1821C49.8096 11.4645 49.5976 11.8881 49.5976 12.8058H53.2009V13.4411H48.8911V12.7352C48.9618 11.7469 49.2444 10.9704 50.6574 10.6174Z" fill="black"/>
    <path d="M65.4944 24.9479C58.4292 24.9479 51.5759 26.3598 45.1466 29.0424C38.9292 31.6544 33.277 35.4664 28.4726 40.2668C23.6683 45.0672 19.8531 50.6441 17.2389 56.927C14.4835 63.3511 13.1411 70.1987 13.1411 77.2581C13.1411 84.3175 14.5542 91.1651 17.2389 97.5891C19.8531 103.801 23.6683 109.449 28.4726 114.249C33.277 119.05 38.8585 122.862 45.1466 125.474C51.5759 128.227 58.4292 129.568 65.4944 129.568C72.5596 129.568 79.4129 128.156 85.8422 125.474C92.0596 122.862 97.7118 119.05 102.516 114.249C107.32 109.449 111.136 103.872 113.75 97.5891C116.505 91.1651 117.848 84.3175 117.848 77.2581C117.848 70.1987 116.435 63.3511 113.75 56.927" stroke="black" stroke-miterlimit="10"/>
    <path d="M65.4946 38.2902C55.1088 38.2902 45.2881 42.3141 37.9403 49.7264C30.5925 57.0682 26.4946 66.8808 26.4946 77.2581C26.4946 87.6354 30.5218 97.448 37.9403 104.79C45.3588 112.132 55.1088 116.226 65.4946 116.226C75.8805 116.226 85.7011 112.202 93.049 104.79C100.397 97.3774 104.495 87.6354 104.495 77.2581" stroke="black" stroke-miterlimit="10"/>
    <path d="M65.4947 51.7737C51.4349 51.7737 39.9893 63.2099 39.9893 77.2581C39.9893 91.3063 51.4349 102.742 65.4947 102.742" stroke="black" stroke-miterlimit="10"/>
    <path d="M51.9292 77.2581C51.9292 84.741 58.0053 90.8121 65.4944 90.8121C72.9835 90.8121 79.0596 84.741 79.0596 77.2581" stroke="black" stroke-miterlimit="10"/>
    <rect x="0.5" y="0.598877" width="129" height="144" stroke="black"/>
</svg>
