<svg width="139" height="89" viewBox="0 0 139 89" fill="none" xmlns="http://www.w3.org/2000/svg">
    <g clip-path="url(#clip0_2828_32352)">
        <path d="M138.786 0.313354H0.214844V87.8843H138.786V0.313354Z" stroke="black" stroke-miterlimit="10"/>
        <path d="M6.51953 4.63391H8.02481C8.80532 4.63391 9.187 5.0029 9.187 5.7795V5.8267C9.187 6.599 8.8139 6.98515 8.02481 6.98515H6.96554V8.17794H6.51953V4.63391V4.63391ZM8.01194 6.599C8.50941 6.599 8.71955 6.38018 8.71955 5.87818V5.72372C8.71955 5.22601 8.50941 5.01577 8.01194 5.01577H6.96125V6.599H8.01194Z" fill="black"/>
        <path d="M11.1466 4.63391H11.7298L12.8963 8.17794H12.4203L12.2015 7.48286H10.6748L10.4561 8.17794H9.98438L11.1466 4.63391V4.63391ZM12.0772 7.09242L11.4596 5.12304L11.4382 5.06297L11.4167 5.12304L10.7992 7.09242H12.0772V7.09242Z" fill="black"/>
        <path d="M13.7363 7.04957V6.92515H14.1952V7.09248C14.1952 7.61164 14.4954 7.83046 15.1473 7.83046C15.6919 7.83046 15.9406 7.66742 15.9406 7.27697V7.23407C15.9406 6.83933 15.7133 6.72778 15.3102 6.62051L14.6498 6.41886C14.1995 6.27727 13.8393 6.04986 13.8393 5.51783C13.8393 4.92144 14.2724 4.59106 15.0615 4.59106C15.8935 4.59106 16.3352 4.96005 16.3352 5.63368V5.74094H15.8763V5.61652C15.8763 5.17029 15.619 4.97722 15.0615 4.97722C14.564 4.97722 14.2981 5.13597 14.2981 5.47922V5.50925C14.2981 5.83963 14.5597 5.96834 14.8899 6.05845L15.5632 6.2601C16.035 6.40169 16.4038 6.61193 16.4038 7.22549C16.4038 7.89911 16.005 8.2209 15.1344 8.2209C14.1866 8.2209 13.7363 7.8133 13.7363 7.04957V7.04957Z" fill="black"/>
        <path d="M17.3867 7.04957V6.92515H17.8456V7.09248C17.8456 7.61164 18.1458 7.83046 18.7976 7.83046C19.3423 7.83046 19.591 7.66742 19.591 7.27697V7.23407C19.591 6.83933 19.3637 6.72778 18.9606 6.62051L18.3002 6.41886C17.8499 6.27727 17.4896 6.04986 17.4896 5.51783C17.4896 4.92144 17.9228 4.59106 18.7119 4.59106C19.5439 4.59106 19.9856 4.96005 19.9856 5.63368V5.74094H19.5267V5.61652C19.5267 5.17029 19.2694 4.97722 18.7119 4.97722C18.2144 4.97722 17.9485 5.13597 17.9485 5.47922V5.50925C17.9485 5.83963 18.2101 5.96834 18.5403 6.05845L19.2136 6.2601C19.6854 6.40169 20.0542 6.61193 20.0542 7.22549C20.0542 7.89911 19.6554 8.2209 18.7848 8.2209C17.837 8.2209 17.3867 7.8133 17.3867 7.04957V7.04957Z" fill="black"/>
        <path d="M10.34 53.684C11.2851 53.684 12.0512 52.9176 12.0512 51.9721C12.0512 51.0266 11.2851 50.2601 10.34 50.2601C9.395 50.2601 8.62891 51.0266 8.62891 51.9721C8.62891 52.9176 9.395 53.684 10.34 53.684Z" stroke="black" stroke-miterlimit="10"/>
        <path d="M19.5862 53.684C21.1849 53.684 22.4809 52.3874 22.4809 50.7879C22.4809 49.1884 21.1849 47.8917 19.5862 47.8917C17.9874 47.8917 16.6914 49.1884 16.6914 50.7879C16.6914 52.3874 17.9874 53.684 19.5862 53.684Z" stroke="black" stroke-miterlimit="10"/>
        <path d="M30.8171 53.6883C33.0719 53.6883 34.8997 51.8596 34.8997 49.6037C34.8997 47.3478 33.0719 45.519 30.8171 45.519C28.5623 45.519 26.7344 47.3478 26.7344 49.6037C26.7344 51.8596 28.5623 53.6883 30.8171 53.6883Z" stroke="black" stroke-miterlimit="10"/>
        <path d="M44.6472 53.6841C47.5557 53.6841 49.9135 51.3251 49.9135 48.4152C49.9135 45.5053 47.5557 43.1464 44.6472 43.1464C41.7387 43.1464 39.3809 45.5053 39.3809 48.4152C39.3809 51.3251 41.7387 53.6841 44.6472 53.6841Z" stroke="black" stroke-miterlimit="10"/>
        <path d="M60.546 53.6884C64.1106 53.6884 67.0003 50.7973 67.0003 47.231C67.0003 43.6647 64.1106 40.7737 60.546 40.7737C56.9815 40.7737 54.0918 43.6647 54.0918 47.231C54.0918 50.7973 56.9815 53.6884 60.546 53.6884Z" stroke="black" stroke-miterlimit="10"/>
        <path d="M77.9875 53.6841C82.2058 53.6841 85.6254 50.2628 85.6254 46.0425C85.6254 41.8222 82.2058 38.401 77.9875 38.401C73.7692 38.401 70.3496 41.8222 70.3496 46.0425C70.3496 50.2628 73.7692 53.6841 77.9875 53.6841Z" stroke="black" stroke-miterlimit="10"/>
        <path d="M98.1907 53.6841C103.063 53.6841 107.012 49.7327 107.012 44.8583C107.012 39.984 103.063 36.0326 98.1907 36.0326C93.3187 36.0326 89.3691 39.984 89.3691 44.8583C89.3691 49.7327 93.3187 53.6841 98.1907 53.6841Z" stroke="black" stroke-miterlimit="10"/>
        <path d="M120.906 53.6884C126.434 53.6884 130.915 49.2049 130.915 43.6741C130.915 38.1434 126.434 33.6599 120.906 33.6599C115.378 33.6599 110.896 38.1434 110.896 43.6741C110.896 49.2049 115.378 53.6884 120.906 53.6884Z" stroke="black" stroke-miterlimit="10"/>
    </g>
    <defs>
        <clipPath id="clip0_2828_32352">
            <rect width="139" height="88" fill="white" transform="translate(0 0.098877)"/>
        </clipPath>
    </defs>
</svg>
