<svg width="103" height="113" viewBox="0 0 103 113" fill="none" xmlns="http://www.w3.org/2000/svg">
    <path d="M101.933 1H1V112.1H101.933V1Z" fill="#D8EC16" stroke="black" stroke-miterlimit="10"/>
    <path d="M100.951 63C80.5816 61.016 66.5159 53.1078 54.952 46.6087C46.6 41.9113 39.3842 37.8549 31.6932 36.8823C20.2768 35.4399 9.69613 38.8939 1.09286 43.5747L1 43C9.65243 38.3191 20.2822 34.8873 31.7587 36.3352C39.5536 37.3189 46.8131 41.3973 55.2142 46.1224C66.729 52.5938 80.7345 60.4744 101 62.4474L100.945 63H100.951Z" fill="black"/>
    <path d="M101.967 47.8039C92.3184 40.2814 77.2716 31.7514 60.4364 33.9023C52.6647 34.8985 45.3786 39.0531 36.9334 43.8644C27.3567 49.3152 16.0854 55.7397 1 59L1.01656 58.417C15.964 55.1623 27.158 48.7832 36.663 43.3663C45.1578 38.5267 52.488 34.3494 60.3647 33.3419C77.2109 31.191 92.2577 39.5965 102 47.1247L101.967 47.8096V47.8039Z" fill="black"/>
    <path d="M101.873 70.724C96.7147 68.8508 93.1452 66.5486 89.7908 64.3767C83.8711 60.5543 78.2823 56.9381 65.4718 56.558C57.9797 56.3354 53.362 58.4801 47.514 61.195C38.8853 65.202 27.6748 70.3982 1.03862 72L1 71.4625C27.5368 69.8716 38.6867 64.6971 47.2767 60.7063C53.191 57.9589 57.8639 55.7979 65.4829 56.0151C78.4479 56.4006 84.1028 60.0547 90.0832 63.9206C93.399 66.0599 96.9188 68.335 102 70.1865L101.868 70.7186L101.873 70.724Z" fill="black"/>
    <path d="M11.25 14.06C12.48 14.06 13.122 13.256 13.122 11.918V11.114C13.122 9.788 12.48 8.984 11.25 8.984C9.996 8.984 9.348 9.788 9.348 11.114V11.918C9.348 13.256 9.99 14.06 11.25 14.06ZM9.984 11.978V11.06C9.984 10.04 10.41 9.524 11.25 9.524C11.64 9.524 11.94 9.644 12.144 9.878L10.128 12.842C10.032 12.608 9.984 12.326 9.984 11.978ZM10.35 13.184L12.36 10.238C12.444 10.46 12.486 10.73 12.486 11.054V11.972C12.486 13.004 12.066 13.52 11.25 13.52C10.86 13.52 10.56 13.406 10.35 13.184ZM15.2146 14.06C15.4426 14.06 15.6346 13.898 15.6346 13.646C15.6346 13.388 15.4426 13.226 15.2146 13.226C14.9866 13.226 14.8006 13.388 14.8006 13.646C14.8006 13.898 14.9866 14.06 15.2146 14.06ZM19.2105 14.06C20.4405 14.06 21.0825 13.256 21.0825 11.918V11.114C21.0825 9.788 20.4405 8.984 19.2105 8.984C17.9565 8.984 17.3085 9.788 17.3085 11.114V11.918C17.3085 13.256 17.9505 14.06 19.2105 14.06ZM17.9445 11.978V11.06C17.9445 10.04 18.3705 9.524 19.2105 9.524C19.6005 9.524 19.9005 9.644 20.1045 9.878L18.0885 12.842C17.9925 12.608 17.9445 12.326 17.9445 11.978ZM18.3105 13.184L20.3205 10.238C20.4045 10.46 20.4465 10.73 20.4465 11.054V11.972C20.4465 13.004 20.0265 13.52 19.2105 13.52C18.8205 13.52 18.5205 13.406 18.3105 13.184ZM22.9673 13.424V14H26.6393V13.46H23.5973C23.5973 12.674 23.7293 12.32 24.7193 12.056L25.3673 11.828C26.0813 11.642 26.6453 11.246 26.6453 10.388C26.6453 9.44 26.0033 8.984 24.8813 8.984C23.6273 8.984 23.0153 9.554 23.0153 10.628V10.76H23.6513V10.598C23.6513 9.824 24.0533 9.524 24.8873 9.524C25.6013 9.524 26.0093 9.74 26.0093 10.334V10.37C26.0093 10.976 25.6193 11.174 25.0313 11.342L24.4013 11.564C23.2133 11.894 22.9673 12.524 22.9673 13.424ZM30.3753 14.06C31.6113 14.06 32.2113 13.496 32.2113 12.458V12.194C32.2113 11.198 31.5933 10.658 30.5673 10.658C29.9433 10.658 29.4753 10.844 29.1813 11.252V10.748C29.1813 9.92 29.6553 9.548 30.4293 9.548C31.0653 9.548 31.4193 9.818 31.4433 10.352V10.43H32.0733V10.352C32.0493 9.572 31.5633 8.984 30.4293 8.984C29.1333 8.984 28.5453 9.728 28.5453 10.988V12.332C28.5453 13.49 29.1213 14.06 30.3753 14.06ZM29.1813 12.488V12.158C29.1813 11.504 29.6733 11.21 30.4233 11.21C31.1673 11.21 31.5753 11.492 31.5753 12.2V12.524C31.5753 13.202 31.1793 13.52 30.3753 13.52C29.5833 13.52 29.1813 13.226 29.1813 12.488ZM33.7165 9.584H36.4885C34.9645 10.76 34.7305 12.422 34.7305 13.94V14H35.3485V13.94C35.3485 12.362 35.5945 10.766 37.1965 9.584V9.044H33.7165V9.584Z" fill="black"/>
</svg>
