<?xml version="1.0" encoding="UTF-8"?>
<svg xmlns="http://www.w3.org/2000/svg" width="209" height="204" viewBox="0 0 209 204" fill="none">
  <path d="M73.0915 0.444519H181.101V121.431H73.0915V0.444519Z" fill="#DCF64E"></path>
  <mask id="mask0_2_43" style="mask-type:luminance" maskUnits="userSpaceOnUse" x="0" y="0" width="209" height="204">
    <path d="M208.4 0.0290527H0.207825V203.705H208.4V0.0290527Z" fill="white"></path>
  </mask>
  <g mask="url(#mask0_2_43)">
    <path d="M81.1971 9.30338V8.50976C81.1971 7.19883 81.8321 6.40723 83.0611 6.40723C84.2629 6.40723 84.8959 7.20085 84.8959 8.50976V9.30338C84.8959 10.6234 84.2669 11.421 83.0611 11.421C81.8261 11.421 81.1971 10.6274 81.1971 9.30338ZM81.9603 10.2109L83.9364 7.28656C83.8245 7.1669 83.6875 7.07379 83.5354 7.01397C83.3833 6.95415 83.2199 6.92912 83.057 6.94068C82.2338 6.94068 81.8151 7.44992 81.8151 8.45329V9.36086C81.8065 9.65145 81.8544 9.94094 81.9563 10.213M83.058 10.8825C83.8593 10.8825 84.2689 10.3733 84.2689 9.35481V8.45329C84.2768 8.17909 84.235 7.90573 84.1457 7.64656L82.1787 10.5528C82.2945 10.6672 82.4329 10.7558 82.5849 10.8129C82.7369 10.8701 82.8991 10.8945 83.0611 10.8846" fill="#040506"></path>
    <path d="M86.3492 11.0087C86.3486 10.9271 86.3721 10.8471 86.4168 10.779C86.4615 10.7109 86.5253 10.6577 86.6001 10.6261C86.6748 10.5946 86.7573 10.5862 86.8368 10.602C86.9163 10.6178 86.9894 10.657 87.0468 10.7147C87.1041 10.7725 87.1431 10.8461 87.1587 10.9261C87.1744 11.0062 87.1661 11.0892 87.1348 11.1645C87.1035 11.2398 87.0506 11.304 86.983 11.349C86.9153 11.394 86.8359 11.4177 86.7548 11.4171C86.7011 11.4186 86.6477 11.4091 86.5978 11.3891C86.5479 11.3691 86.5026 11.3391 86.4646 11.3009C86.4266 11.2626 86.3968 11.217 86.377 11.1668C86.3571 11.1165 86.3477 11.0627 86.3492 11.0087Z" fill="#040506"></path>
    <path d="M88.6137 9.30338V8.50976C88.6137 7.19883 89.2487 6.40723 90.4776 6.40723C91.6795 6.40723 92.3125 7.20085 92.3125 8.50976V9.30338C92.3125 10.6234 91.6835 11.421 90.4776 11.421C89.2427 11.421 88.6137 10.6274 88.6137 9.30338ZM89.3769 10.2109L91.353 7.28656C91.2419 7.16672 91.1057 7.07318 90.9543 7.01267C90.803 6.95217 90.6402 6.9262 90.4776 6.93664C89.6544 6.93664 89.2357 7.44589 89.2357 8.44926V9.35682C89.2271 9.64742 89.275 9.93691 89.3769 10.2089M90.4786 10.8785C91.2799 10.8785 91.6895 10.3693 91.6895 9.35077V8.45329C91.6974 8.17909 91.6556 7.90573 91.5663 7.64656L89.5953 10.5528C89.7111 10.6672 89.8495 10.7558 90.0015 10.8129C90.1535 10.8701 90.3157 10.8945 90.4776 10.8846" fill="#040506"></path>
    <path d="M95.213 8.95749L95.831 8.73867C96.4079 8.57228 96.7885 8.37766 96.7885 7.77866V7.73934C96.7885 7.15345 96.3878 6.93967 95.6867 6.93967C94.8695 6.93967 94.4739 7.23513 94.4739 8.00051V8.15984H93.8549V8.02976C93.8549 6.96891 94.4558 6.40723 95.6837 6.40723C96.7855 6.40723 97.4114 6.85799 97.4114 7.79278C97.4126 8.14337 97.2854 8.4821 97.0543 8.74435C96.8232 9.0066 96.5043 9.17401 96.1585 9.21464L95.5235 9.43951C94.553 9.70069 94.4218 10.0446 94.4218 10.8251H97.4044V11.3575H93.8078V10.7898C93.7521 10.3591 93.8685 9.92376 94.1314 9.57943C94.3944 9.23511 94.7823 9.00996 95.21 8.95346" fill="#040506"></path>
    <path d="M101.847 9.82975H102.436V10.3632H101.847V11.3585H101.234V10.3622H98.7105V9.80555L101.246 6.4657H101.847V9.82975ZM101.236 9.82975V7.34907L99.3014 9.82975H101.236Z" fill="#040506"></path>
    <path d="M103.84 9.71279V8.38573C103.84 7.14236 104.415 6.40723 105.686 6.40723C106.798 6.40723 107.275 6.98807 107.298 7.75749V7.83413H106.68V7.75749C106.658 7.23009 106.31 6.96387 105.686 6.96387C105.524 6.93888 105.357 6.9519 105.201 7.00194C105.044 7.05198 104.9 7.13769 104.782 7.25243C104.663 7.36717 104.572 7.50787 104.516 7.66365C104.46 7.81943 104.44 7.9861 104.458 8.15077V8.64892C104.619 8.44547 104.827 8.2854 105.064 8.18313C105.302 8.08085 105.561 8.03958 105.818 8.06304C106.027 8.03375 106.24 8.05177 106.441 8.1158C106.642 8.17982 106.827 8.28823 106.981 8.43314C107.135 8.57804 107.256 8.75579 107.333 8.95343C107.411 9.15108 107.443 9.36364 107.429 9.57565V9.83683C107.429 10.8614 106.84 11.418 105.626 11.418C104.397 11.418 103.833 10.8553 103.833 9.71279M105.626 10.8846C106.414 10.8846 106.803 10.571 106.803 9.90137V9.5817C106.803 8.88287 106.402 8.60455 105.673 8.60455C104.944 8.60455 104.455 8.89497 104.455 9.54036V9.86506C104.455 10.5931 104.85 10.8846 105.626 10.8846Z" fill="#040506"></path>
    <path d="M181.099 0.443542H73.0915V121.431H181.099V0.443542Z" stroke="#040506" stroke-width="0.25" stroke-miterlimit="10"></path>
  </g>
  <mask id="mask1_2_43" style="mask-type:luminance" maskUnits="userSpaceOnUse" x="73" y="0" width="109" height="122">
    <path d="M181.242 0.0300293H73.0915V121.431H181.242V0.0300293Z" fill="white"></path>
  </mask>
  <g mask="url(#mask1_2_43)">
    <path d="M50.2068 65.4577C50.2068 65.4577 75.309 36.113 106.535 40.0357C128.119 42.7463 146.335 67.8265 189.847 68.5071" stroke="#040506" stroke-width="0.25" stroke-miterlimit="10"></path>
    <path d="M193.217 62.0644C193.217 62.0644 168.115 32.7197 136.889 36.6424C115.304 39.354 97.0889 64.4331 53.5771 65.1138" stroke="#040506" stroke-width="0.25" stroke-miterlimit="10"></path>
    <path d="M50.2068 78.0779C122.05 78.9361 120.027 60.0526 142.288 60.7282C172.661 61.6519 164.885 79.7065 208.398 80.3922" stroke="#040506" stroke-width="0.25" stroke-miterlimit="10"></path>
  </g>
  <mask id="mask2_2_43" style="mask-type:luminance" maskUnits="userSpaceOnUse" x="0" y="0" width="209" height="204">
    <path d="M208.4 0.0290527H0.207825V203.705H208.4V0.0290527Z" fill="white"></path>
  </mask>
  <g mask="url(#mask2_2_43)">
    <path d="M73.4231 121.711H0.640503V203.53H73.4231V121.711Z" fill="#F6D923"></path>
    <path d="M73.4231 121.711H0.640503V203.53H73.4231V121.711Z" stroke="#040506" stroke-width="0.25" stroke-miterlimit="10"></path>
    <path d="M5.86166 127.704V127.166C5.86166 126.282 6.29133 125.744 7.12263 125.744C7.9379 125.744 8.36257 126.282 8.36257 127.166V127.704C8.36257 128.597 7.9369 129.133 7.12263 129.133C6.28733 129.133 5.86166 128.597 5.86166 127.704ZM6.37847 128.321L7.71556 126.342C7.64018 126.261 7.54794 126.198 7.44544 126.157C7.34293 126.116 7.2327 126.099 7.12263 126.105C6.56576 126.105 6.28332 126.45 6.28332 127.131V127.743C6.27894 127.94 6.31297 128.137 6.38348 128.321M7.12764 128.773C7.66848 128.773 7.94692 128.428 7.94692 127.739V127.127C7.95186 126.942 7.9237 126.757 7.86379 126.582L6.53071 128.549C6.60956 128.627 6.70383 128.687 6.80738 128.726C6.91092 128.764 7.02141 128.781 7.13165 128.774" fill="#040506"></path>
    <path d="M9.34607 128.855C9.3444 128.818 9.35032 128.781 9.36347 128.747C9.37661 128.712 9.3967 128.681 9.42247 128.655C9.44823 128.628 9.47912 128.608 9.5132 128.594C9.54728 128.58 9.58381 128.574 9.6205 128.575C9.69381 128.575 9.76413 128.604 9.81597 128.656C9.86781 128.709 9.89693 128.779 9.89693 128.853C9.89693 128.927 9.86781 128.997 9.81597 129.049C9.76413 129.102 9.69381 129.131 9.6205 129.131C9.58408 129.132 9.54777 129.126 9.51384 129.113C9.47991 129.099 9.44909 129.079 9.42332 129.053C9.39755 129.027 9.37739 128.996 9.36409 128.962C9.3508 128.928 9.34466 128.892 9.34607 128.855Z" fill="#040506"></path>
    <path d="M10.8785 127.704V127.166C10.8785 126.282 11.3081 125.744 12.1394 125.744C12.9547 125.744 13.3814 126.282 13.3814 127.166V127.704C13.3814 128.597 12.9547 129.133 12.1394 129.133C11.3041 129.133 10.8785 128.597 10.8785 127.704ZM11.3953 128.321L12.7314 126.341C12.656 126.26 12.5637 126.197 12.4612 126.156C12.3587 126.115 12.2485 126.098 12.1384 126.104C11.5816 126.104 11.2991 126.449 11.2991 127.13V127.742C11.2947 127.939 11.3288 128.136 11.3993 128.32M12.1434 128.772C12.6843 128.772 12.9627 128.427 12.9627 127.738V127.126C12.9677 126.941 12.9395 126.756 12.8796 126.581L11.5465 128.548C11.6254 128.626 11.7196 128.686 11.8232 128.725C11.9267 128.763 12.0372 128.78 12.1474 128.773" fill="#040506"></path>
    <path d="M14.397 127.704V127.166C14.397 126.282 14.8266 125.744 15.6579 125.744C16.4732 125.744 16.8979 126.282 16.8979 127.166V127.704C16.8979 128.597 16.4722 129.133 15.6579 129.133C14.8226 129.133 14.397 128.597 14.397 127.704ZM14.9138 128.321L16.2508 126.342C16.1755 126.261 16.0832 126.198 15.9807 126.157C15.8782 126.116 15.768 126.099 15.6579 126.105C15.1011 126.105 14.8186 126.45 14.8186 127.131V127.743C14.8142 127.94 14.8483 128.137 14.9188 128.321M15.6629 128.773C16.2038 128.773 16.4822 128.428 16.4822 127.739V127.127C16.4872 126.942 16.459 126.757 16.3991 126.582L15.059 128.548C15.1378 128.626 15.2321 128.686 15.3357 128.725C15.4392 128.763 15.5497 128.78 15.6599 128.773" fill="#040506"></path>
    <path d="M20.3302 126.897V127.795C20.3302 128.636 19.9406 129.133 19.0813 129.133C18.3301 129.133 18.0076 128.74 17.9916 128.219V128.163H18.4082V128.214C18.4252 128.571 18.6586 128.752 19.0803 128.752C19.1899 128.768 19.3017 128.759 19.4073 128.725C19.5128 128.691 19.6093 128.633 19.6891 128.556C19.769 128.478 19.8303 128.384 19.8681 128.279C19.906 128.174 19.9195 128.062 19.9076 127.951V127.618C19.799 127.755 19.6583 127.864 19.498 127.933C19.3377 128.002 19.1628 128.03 18.9891 128.014C18.8475 128.034 18.7033 128.022 18.567 127.979C18.4307 127.935 18.3057 127.862 18.2013 127.763C18.0968 127.665 18.0155 127.544 17.9633 127.41C17.9111 127.276 17.8892 127.132 17.8994 126.989V126.813C17.8994 126.12 18.3 125.744 19.1163 125.744C19.9326 125.744 20.3302 126.124 20.3302 126.897ZM19.0853 127.646C19.5861 127.646 19.9086 127.445 19.9086 127.014V126.793C19.9086 126.301 19.6421 126.103 19.1173 126.103C18.5925 126.103 18.3221 126.315 18.3221 126.768V126.984C18.3221 127.457 18.5925 127.646 19.0853 127.646Z" fill="#040506"></path>
    <path d="M21.3658 128.223V128.139C21.3517 127.955 21.405 127.772 21.5157 127.624C21.6264 127.477 21.7868 127.375 21.9668 127.339C21.8121 127.304 21.6746 127.215 21.5785 127.088C21.4825 126.961 21.4341 126.804 21.442 126.645V126.572C21.442 126.056 21.8356 125.743 22.5837 125.743C23.3319 125.743 23.7175 126.056 23.7175 126.572V126.645C23.7245 126.804 23.6763 126.96 23.5813 127.086C23.4862 127.213 23.3502 127.302 23.1967 127.339C23.3763 127.378 23.5358 127.481 23.6455 127.629C23.7551 127.778 23.8074 127.961 23.7926 128.145V128.225C23.7926 128.81 23.403 129.133 22.5797 129.133C21.7564 129.133 21.3668 128.808 21.3668 128.225M22.5797 128.786C23.1096 128.786 23.375 128.625 23.375 128.221V128.082C23.375 127.668 23.0745 127.532 22.5797 127.532C22.085 127.532 21.7845 127.664 21.7845 128.082V128.221C21.7845 128.624 22.0509 128.786 22.5797 128.786ZM22.5797 127.172C23.0054 127.172 23.2999 127.04 23.2999 126.692V126.579C23.2999 126.244 23.0535 126.091 22.5797 126.091C22.106 126.091 21.8596 126.244 21.8596 126.579V126.695C21.8596 127.04 22.1511 127.172 22.5797 127.172Z" fill="#040506"></path>
    <path d="M0.381088 121.43H73.5182V203.53H0.381088V121.43Z" fill="#00CCF2"></path>
    <path d="M73.5182 121.43H0.381088V203.53H73.5182V121.43Z" stroke="#040506" stroke-width="0.25" stroke-miterlimit="10"></path>
    <path d="M36.9501 142.243V182.727" stroke="#040506" stroke-width="0.25" stroke-miterlimit="10"></path>
    <path d="M19.7032 149.432C22.0713 149.432 23.9909 147.499 23.9909 145.115C23.9909 142.731 22.0713 140.798 19.7032 140.798C17.3352 140.798 15.4155 142.731 15.4155 145.115C15.4155 147.499 17.3352 149.432 19.7032 149.432Z" stroke="#040506" stroke-width="0.25" stroke-miterlimit="10"></path>
    <path d="M54.2001 184.168C56.5681 184.168 58.4878 182.235 58.4878 179.851C58.4878 177.466 56.5681 175.534 54.2001 175.534C51.832 175.534 49.9124 177.466 49.9124 179.851C49.9124 182.235 51.832 184.168 54.2001 184.168Z" stroke="#040506" stroke-width="0.25" stroke-miterlimit="10"></path>
    <path d="M54.2001 149.432C56.5681 149.432 58.4878 147.499 58.4878 145.115C58.4878 142.731 56.5681 140.798 54.2001 140.798C51.832 140.798 49.9124 142.731 49.9124 145.115C49.9124 147.499 51.832 149.432 54.2001 149.432Z" stroke="#040506" stroke-width="0.25" stroke-miterlimit="10"></path>
    <path d="M19.7032 184.168C22.0713 184.168 23.9909 182.235 23.9909 179.851C23.9909 177.466 22.0713 175.534 19.7032 175.534C17.3352 175.534 15.4155 177.466 15.4155 179.851C15.4155 182.235 17.3352 184.168 19.7032 184.168Z" stroke="#040506" stroke-width="0.25" stroke-miterlimit="10"></path>
    <path d="M36.9501 142.239C39.3182 142.239 41.2378 140.306 41.2378 137.922C41.2378 135.538 39.3182 133.605 36.9501 133.605C34.5821 133.605 32.6624 135.538 32.6624 137.922C32.6624 140.306 34.5821 142.239 36.9501 142.239Z" stroke="#040506" stroke-width="0.25" stroke-miterlimit="10"></path>
    <path d="M36.9501 191.36C39.3182 191.36 41.2378 189.427 41.2378 187.043C41.2378 184.658 39.3182 182.726 36.9501 182.726C34.5821 182.726 32.6624 184.658 32.6624 187.043C32.6624 189.427 34.5821 191.36 36.9501 191.36Z" stroke="#040506" stroke-width="0.25" stroke-miterlimit="10"></path>
    <path d="M61.3432 166.8C63.7112 166.8 65.6309 164.867 65.6309 162.483C65.6309 160.099 63.7112 158.166 61.3432 158.166C58.9752 158.166 57.0555 160.099 57.0555 162.483C57.0555 164.867 58.9752 166.8 61.3432 166.8Z" stroke="#040506" stroke-width="0.25" stroke-miterlimit="10"></path>
    <path d="M12.5561 166.8C14.9241 166.8 16.8438 164.867 16.8438 162.483C16.8438 160.099 14.9241 158.166 12.5561 158.166C10.1881 158.166 8.2684 160.099 8.2684 162.483C8.2684 164.867 10.1881 166.8 12.5561 166.8Z" stroke="#040506" stroke-width="0.25" stroke-miterlimit="10"></path>
    <path d="M51.1643 176.795L22.734 148.171" stroke="#040506" stroke-width="0.25" stroke-miterlimit="10"></path>
    <path d="M57.0555 162.483H16.8468" stroke="#040506" stroke-width="0.25" stroke-miterlimit="10"></path>
    <path d="M51.1643 148.171L22.734 176.795" stroke="#040506" stroke-width="0.25" stroke-miterlimit="10"></path>
  </g>
</svg>
