<svg width="109" height="121" viewBox="0 0 109 121" fill="none" xmlns="http://www.w3.org/2000/svg">
    <path d="M108 1H1V120.406H108V1Z" fill="#D8EC16"/>
    <path d="M108 1H1V120.406H108V1Z" stroke="black" stroke-miterlimit="10"/>
    <path d="M30.4168 51.275H16.2754V106.648H30.4168V51.275Z" stroke="black" stroke-miterlimit="10"/>
    <path d="M51.0868 25.5439H36.9453V106.642H51.0868V25.5439Z" stroke="black" stroke-miterlimit="10"/>
    <path d="M71.7567 35.9238H57.6152V106.641H71.7567V35.9238Z" stroke="black" stroke-miterlimit="10"/>
    <path d="M92.4315 55.0309H78.29V106.648H92.4315V55.0309Z" stroke="black" stroke-miterlimit="10"/>
    <path d="M11.25 15.4658C12.48 15.4658 13.122 14.6618 13.122 13.3238V12.5198C13.122 11.1938 12.48 10.3898 11.25 10.3898C9.996 10.3898 9.348 11.1938 9.348 12.5198V13.3238C9.348 14.6618 9.99 15.4658 11.25 15.4658ZM9.984 13.3838V12.4658C9.984 11.4458 10.41 10.9298 11.25 10.9298C11.64 10.9298 11.94 11.0498 12.144 11.2838L10.128 14.2478C10.032 14.0138 9.984 13.7318 9.984 13.3838ZM10.35 14.5898L12.36 11.6438C12.444 11.8658 12.486 12.1358 12.486 12.4598V13.3778C12.486 14.4098 12.066 14.9258 11.25 14.9258C10.86 14.9258 10.56 14.8118 10.35 14.5898ZM15.2146 15.4658C15.4426 15.4658 15.6346 15.3038 15.6346 15.0518C15.6346 14.7938 15.4426 14.6318 15.2146 14.6318C14.9866 14.6318 14.8006 14.7938 14.8006 15.0518C14.8006 15.3038 14.9866 15.4658 15.2146 15.4658ZM20.391 10.4498H19.779L17.193 13.8338V14.3978H19.767V15.4058H20.391V14.3978H20.991V13.8578H20.391V10.4498ZM17.793 13.8578L19.767 11.3438V13.8578H17.793ZM22.7387 14.8298V15.4058H26.4107V14.8658H23.3687C23.3687 14.0798 23.5007 13.7258 24.4907 13.4618L25.1387 13.2338C25.8527 13.0478 26.4167 12.6518 26.4167 11.7938C26.4167 10.8458 25.7747 10.3898 24.6527 10.3898C23.3987 10.3898 22.7867 10.9598 22.7867 12.0338V12.1658H23.4227V12.0038C23.4227 11.2298 23.8247 10.9298 24.6587 10.9298C25.3727 10.9298 25.7807 11.1458 25.7807 11.7398V11.7758C25.7807 12.3818 25.3907 12.5798 24.8027 12.7478L24.1727 12.9698C22.9847 13.2998 22.7387 13.9298 22.7387 14.8298ZM28.0048 10.9898H30.7768C29.2528 12.1658 29.0188 13.8278 29.0188 15.3458V15.4058H29.6368V15.3458C29.6368 13.7678 29.8828 12.1718 31.4848 10.9898V10.4498H28.0048V10.9898ZM33.1539 14.8658V15.4058H36.1719V14.8658H34.9719V10.4498H34.3719C34.0359 10.8878 33.6279 11.0378 33.1359 11.0378V11.6078C33.6219 11.6078 34.0659 11.4458 34.3539 11.1398V14.8658H33.1539Z" fill="black"/>
</svg>
