<svg width="254" height="124" viewBox="0 0 254 124" fill="none" xmlns="http://www.w3.org/2000/svg">
    <path d="M167.564 10.7225V11.2625H170.582V10.7225H169.382V6.30645H168.782C168.446 6.74445 168.038 6.89445 167.546 6.89445V7.46445C168.032 7.46445 168.476 7.30245 168.764 6.99645V10.7225H167.564ZM173.936 11.3225C175.166 11.3225 175.808 10.5185 175.808 9.18045V8.37645C175.808 7.05045 175.166 6.24645 173.936 6.24645C172.682 6.24645 172.034 7.05045 172.034 8.37645V9.18045C172.034 10.5185 172.676 11.3225 173.936 11.3225ZM172.67 9.24045V8.32245C172.67 7.30245 173.096 6.78645 173.936 6.78645C174.326 6.78645 174.626 6.90645 174.83 7.14045L172.814 10.1045C172.718 9.87045 172.67 9.58845 172.67 9.24045ZM173.036 10.4465L175.046 7.50045C175.13 7.72245 175.172 7.99245 175.172 8.31645V9.23445C175.172 10.2665 174.752 10.7825 173.936 10.7825C173.546 10.7825 173.246 10.6685 173.036 10.4465ZM177.901 11.3225C178.129 11.3225 178.321 11.1605 178.321 10.9085C178.321 10.6505 178.129 10.4885 177.901 10.4885C177.673 10.4885 177.487 10.6505 177.487 10.9085C177.487 11.1605 177.673 11.3225 177.901 11.3225ZM181.897 11.3225C183.127 11.3225 183.769 10.5185 183.769 9.18045V8.37645C183.769 7.05045 183.127 6.24645 181.897 6.24645C180.643 6.24645 179.995 7.05045 179.995 8.37645V9.18045C179.995 10.5185 180.637 11.3225 181.897 11.3225ZM180.631 9.24045V8.32245C180.631 7.30245 181.057 6.78645 181.897 6.78645C182.287 6.78645 182.587 6.90645 182.791 7.14045L180.775 10.1045C180.679 9.87045 180.631 9.58845 180.631 9.24045ZM180.997 10.4465L183.007 7.50045C183.091 7.72245 183.133 7.99245 183.133 8.31645V9.23445C183.133 10.2665 182.713 10.7825 181.897 10.7825C181.507 10.7825 181.207 10.6685 180.997 10.4465ZM187.568 11.3225C188.798 11.3225 189.44 10.5185 189.44 9.18045V8.37645C189.44 7.05045 188.798 6.24645 187.568 6.24645C186.314 6.24645 185.666 7.05045 185.666 8.37645V9.18045C185.666 10.5185 186.308 11.3225 187.568 11.3225ZM186.302 9.24045V8.32245C186.302 7.30245 186.728 6.78645 187.568 6.78645C187.958 6.78645 188.258 6.90645 188.462 7.14045L186.446 10.1045C186.35 9.87045 186.302 9.58845 186.302 9.24045ZM186.668 10.4465L188.678 7.50045C188.762 7.72245 188.804 7.99245 188.804 8.31645V9.23445C188.804 10.2665 188.384 10.7825 187.568 10.7825C187.178 10.7825 186.878 10.6685 186.668 10.4465ZM193.148 6.24645C191.912 6.24645 191.312 6.81045 191.312 7.84845V8.11245C191.312 9.10845 191.93 9.64845 192.956 9.64845C193.58 9.64845 194.048 9.46245 194.342 9.05445V9.55845C194.342 10.3865 193.868 10.7585 193.094 10.7585C192.458 10.7585 192.104 10.4885 192.08 9.95445V9.87645H191.45V9.95445C191.474 10.7345 191.96 11.3225 193.094 11.3225C194.39 11.3225 194.978 10.5785 194.978 9.31845V7.97445C194.978 6.81645 194.402 6.24645 193.148 6.24645ZM191.948 8.10645V7.78245C191.948 7.10445 192.344 6.78645 193.148 6.78645C193.94 6.78645 194.342 7.08045 194.342 7.81845V8.14845C194.342 8.80245 193.85 9.09645 193.1 9.09645C192.356 9.09645 191.948 8.81445 191.948 8.10645ZM198.725 11.3225C199.967 11.3225 200.555 10.8365 200.555 9.96045V9.84045C200.555 9.16245 200.189 8.77245 199.655 8.63445C200.099 8.51445 200.441 8.16645 200.441 7.59645V7.48845C200.441 6.71445 199.865 6.24645 198.731 6.24645C197.603 6.24645 197.009 6.71445 197.009 7.48845V7.59645C197.009 8.16645 197.345 8.51445 197.801 8.63445C197.261 8.77245 196.895 9.15645 196.895 9.83445V9.96045C196.895 10.8365 197.489 11.3225 198.725 11.3225ZM197.525 9.95445V9.74445C197.525 9.12045 197.981 8.92245 198.725 8.92245C199.475 8.92245 199.925 9.12645 199.925 9.74445V9.95445C199.925 10.5605 199.523 10.8005 198.725 10.8005C197.927 10.8005 197.525 10.5605 197.525 9.95445ZM197.639 7.67445V7.50045C197.639 6.99645 198.011 6.76845 198.725 6.76845C199.439 6.76845 199.811 6.99645 199.811 7.50045V7.66845C199.811 8.19045 199.367 8.38845 198.725 8.38845C198.077 8.38845 197.639 8.19045 197.639 7.67445Z" fill="black"/>
    <path d="M6.072 6.68288H8.844C7.32 7.85888 7.086 9.52088 7.086 11.0389V11.0989H7.704V11.0389C7.704 9.46088 7.95 7.86488 9.552 6.68288V6.14288H6.072V6.68288ZM10.9666 11.1589C11.1946 11.1589 11.3866 10.9969 11.3866 10.7449C11.3866 10.4869 11.1946 10.3249 10.9666 10.3249C10.7386 10.3249 10.5526 10.4869 10.5526 10.7449C10.5526 10.9969 10.7386 11.1589 10.9666 11.1589ZM15.218 7.77488C14.582 7.77488 14.132 7.98488 13.832 8.35688L13.952 6.68288H16.598V6.14288H13.388L13.214 9.01688H13.832C14.06 8.59688 14.432 8.31488 15.086 8.31488C15.788 8.31488 16.184 8.63288 16.184 9.29888V9.62288C16.184 10.3489 15.698 10.6189 15.002 10.6189C14.402 10.6189 13.802 10.4209 13.802 9.72488V9.56888H13.166V9.68288C13.166 10.6669 13.898 11.1589 15.014 11.1589C16.172 11.1589 16.82 10.6249 16.82 9.52688V9.28088C16.82 8.27288 16.148 7.77488 15.218 7.77488ZM20.5629 11.1589C21.7929 11.1589 22.4349 10.3549 22.4349 9.01688V8.21288C22.4349 6.88688 21.7929 6.08288 20.5629 6.08288C19.3089 6.08288 18.6609 6.88688 18.6609 8.21288V9.01688C18.6609 10.3549 19.3029 11.1589 20.5629 11.1589ZM19.2969 9.07688V8.15888C19.2969 7.13888 19.7229 6.62288 20.5629 6.62288C20.9529 6.62288 21.2529 6.74288 21.4569 6.97688L19.4409 9.94088C19.3449 9.70688 19.2969 9.42488 19.2969 9.07688ZM19.6629 10.2829L21.6729 7.33688C21.7569 7.55888 21.7989 7.82888 21.7989 8.15288V9.07088C21.7989 10.1029 21.3789 10.6189 20.5629 10.6189C20.1729 10.6189 19.8729 10.5049 19.6629 10.2829ZM26.1976 11.1589C27.4336 11.1589 28.0336 10.5949 28.0336 9.55688V9.29288C28.0336 8.29688 27.4156 7.75688 26.3896 7.75688C25.7656 7.75688 25.2976 7.94288 25.0036 8.35088V7.84688C25.0036 7.01888 25.4776 6.64688 26.2516 6.64688C26.8876 6.64688 27.2416 6.91688 27.2656 7.45088V7.52888H27.8956V7.45088C27.8716 6.67088 27.3856 6.08288 26.2516 6.08288C24.9556 6.08288 24.3676 6.82688 24.3676 8.08688V9.43088C24.3676 10.5889 24.9436 11.1589 26.1976 11.1589ZM25.0036 9.58688V9.25688C25.0036 8.60288 25.4956 8.30888 26.2456 8.30888C26.9896 8.30888 27.3976 8.59088 27.3976 9.29888V9.62288C27.3976 10.3009 27.0016 10.6189 26.1976 10.6189C25.4056 10.6189 25.0036 10.3249 25.0036 9.58688Z" fill="black"/>
    <path d="M169.716 114.159C170.934 114.159 171.492 113.709 171.492 112.767C171.492 111.909 170.976 111.615 170.316 111.417L169.374 111.135C168.912 111.009 168.546 110.829 168.546 110.367V110.325C168.546 109.845 168.918 109.623 169.614 109.623C170.394 109.623 170.754 109.893 170.754 110.517V110.691H171.396V110.541C171.396 109.599 170.778 109.083 169.614 109.083C168.51 109.083 167.904 109.545 167.904 110.379C167.904 111.123 168.408 111.441 169.038 111.639L169.962 111.921C170.526 112.071 170.844 112.227 170.844 112.779V112.839C170.844 113.385 170.496 113.613 169.734 113.613C168.822 113.613 168.402 113.307 168.402 112.581V112.347H167.76V112.521C167.76 113.589 168.396 114.159 169.716 114.159ZM175.355 114.159C176.615 114.159 177.305 113.379 177.359 112.359L177.365 112.047H176.711L176.705 112.419C176.669 113.127 176.207 113.607 175.361 113.607C174.395 113.607 173.927 112.989 173.927 112.077V111.159C173.927 110.265 174.395 109.635 175.367 109.635C176.189 109.635 176.669 110.109 176.705 110.811L176.711 111.189H177.365L177.359 110.871C177.305 109.857 176.615 109.083 175.361 109.083C173.981 109.083 173.285 110.007 173.285 111.213V112.017C173.285 113.235 173.981 114.159 175.355 114.159ZM181.231 114.159C182.593 114.159 183.295 113.223 183.295 112.017V111.213C183.295 110.019 182.593 109.083 181.231 109.083C179.863 109.083 179.161 110.019 179.161 111.213V112.017C179.161 113.223 179.863 114.159 181.231 114.159ZM179.803 112.077V111.159C179.803 110.271 180.271 109.641 181.231 109.641C182.185 109.641 182.653 110.271 182.653 111.159V112.077C182.653 112.977 182.185 113.601 181.231 113.601C180.271 113.601 179.803 112.977 179.803 112.077ZM188.419 114.099H189.049C188.983 114.009 188.983 113.817 188.983 113.655V112.869C188.983 112.311 188.719 111.921 188.209 111.789C188.731 111.639 188.989 111.249 188.989 110.571V110.535C188.989 109.557 188.485 109.143 187.417 109.143H185.323V114.099H185.947V112.065H187.405C187.885 112.065 188.347 112.197 188.347 112.863V113.655C188.347 113.823 188.347 114.021 188.419 114.099ZM185.947 111.531V109.677H187.357C188.005 109.677 188.341 109.839 188.341 110.505V110.661C188.341 111.375 187.969 111.531 187.405 111.531H185.947ZM191.111 114.099H194.249V113.553H191.735V111.897H194.117V111.345H191.735V109.689H194.249V109.143H191.111V114.099Z" fill="black"/>
    <path d="M231.143 118.239C233.019 118.239 233.887 117.231 233.887 115.089V114.753C233.887 113.409 233.411 112.653 232.585 112.289C233.383 111.926 233.859 111.268 233.859 109.938V109.56C233.859 109.196 233.831 106.76 231.073 106.76C229.254 106.76 228.26 107.698 228.26 109.7V110.26H230.696V109.294C230.696 108.916 230.766 108.72 231.059 108.72C231.353 108.72 231.423 108.93 231.423 109.308V110.834C231.423 111.212 231.353 111.422 231.059 111.422H230.01V113.451H231.087C231.381 113.451 231.451 113.661 231.451 114.039V115.691C231.451 116.069 231.381 116.279 231.073 116.279C230.766 116.279 230.696 116.083 230.696 115.705V114.599H228.26V115.257C228.26 117.371 229.268 118.239 231.143 118.239ZM234.354 113.185V113.773H240.093V113.185H234.354ZM239.821 108.93H242.789C240.927 112.178 240.689 115.159 240.689 117.455V118.099H243.111V117.455C243.111 115.187 243.083 112.192 244.805 108.93V106.9H239.821V108.93Z" fill="black"/>
    <path d="M220.711 28.954V20.0046L175.739 20.0046V28.954L220.711 28.954Z" stroke="black" stroke-miterlimit="10"/>
    <path d="M241.611 42.0385V33.0891L175.74 33.0891V42.0385H241.611Z" stroke="black" stroke-miterlimit="10"/>
    <path d="M233.176 55.1288V46.1794H175.734V55.1288H233.176Z" stroke="black" stroke-miterlimit="10"/>
    <path d="M217.664 68.2073V59.2579H175.741V68.2073H217.664Z" stroke="black" stroke-miterlimit="10"/>
    <path d="M208.791 81.2918V72.3424H175.734V81.2918H208.791Z" stroke="black" stroke-miterlimit="10"/>
    <path d="M195.783 94.3763V85.4269H175.734V94.3763H195.783Z" stroke="black" stroke-miterlimit="10"/>
    <path d="M61.4242 26.6796C63.3131 26.6796 64.8444 25.1179 64.8444 23.1914C64.8444 21.265 63.3131 19.7032 61.4242 19.7032C59.5352 19.7032 58.0039 21.265 58.0039 23.1914C58.0039 25.1179 59.5352 26.6796 61.4242 26.6796Z" stroke="black" stroke-miterlimit="10"/>
    <path d="M88.6859 54.1934C90.5748 54.1934 92.1061 52.6317 92.1061 50.7052C92.1061 48.7787 90.5748 47.217 88.6859 47.217C86.7969 47.217 85.2656 48.7787 85.2656 50.7052C85.2656 52.6317 86.7969 54.1934 88.6859 54.1934Z" stroke="black" stroke-miterlimit="10"/>
    <path d="M96.5179 73.044C98.4069 73.044 99.9382 71.4823 99.9382 69.5558C99.9382 67.6293 98.4069 66.0676 96.5179 66.0676C94.629 66.0676 93.0977 67.6293 93.0977 69.5558C93.0977 71.4823 94.629 73.044 96.5179 73.044Z" stroke="black" stroke-miterlimit="10"/>
    <path d="M26.1273 73.044C28.0163 73.044 29.5476 71.4823 29.5476 69.5558C29.5476 67.6293 28.0163 66.0676 26.1273 66.0676C24.2383 66.0676 22.707 67.6293 22.707 69.5558C22.707 71.4823 24.2383 73.044 26.1273 73.044Z" stroke="black" stroke-miterlimit="10"/>
    <path d="M124.95 71.2305C126.839 71.2305 128.37 69.6688 128.37 67.7423C128.37 65.8159 126.839 64.2542 124.95 64.2542C123.061 64.2542 121.529 65.8159 121.529 67.7423C121.529 69.6688 123.061 71.2305 124.95 71.2305Z" stroke="black" stroke-miterlimit="10"/>
    <path d="M128.328 67.5255C141.932 70.2907 146.877 85.2315 162.023 86.2376" stroke="black" stroke-miterlimit="10"/>
    <path d="M99.1406 71.7909C99.82 72.0801 100.558 72.315 101.35 72.4958C107.612 73.8935 114.671 68.8088 121.529 67.4473" stroke="black" stroke-miterlimit="10"/>
    <path d="M89.4297 54.109C90.6525 59.2298 91.7512 63.922 9 93.9664 67.3328" stroke="black" stroke-miterlimit="10"/>
    <path d="M64.8379 23.4143C75.2582 24.9987 82.973 34.5415 86.0801 42.524C86.7004 44.1265 87.2321 45.7471 87.6987 47.3616" stroke="black" stroke-miterlimit="10"/>
    <path d="M27.793 66.5075C28.9331 64.3025 30.0377 61.8867 31.1423 59.254C35.2301 49.4762 38.6917 26.1314 58.0142 23.4445" stroke="black" stroke-miterlimit="10"/>
    <path d="M0.177734 86.2436C11.4605 85.0628 18.5314 80.8818 24.2732 72.4777" stroke="black" stroke-miterlimit="10"/>
    <rect x="162.5" y="0.598877" width="91" height="101" stroke="black"/>
    <rect x="0.5" y="0.598877" width="162" height="101" stroke="black"/>
</svg>
