<svg width="107" height="120" viewBox="0 0 107 120" fill="none" xmlns="http://www.w3.org/2000/svg">
    <rect x="0.5" y="0.5" width="106" height="119" fill="#8F6CFF"/>
    <path d="M13.4336 14.2621V13.5022C13.4336 12.2163 14.0733 11.4564 15.2945 11.4564C16.5157 11.4564 17.0972 12.2163 17.0972 13.5022V14.2621C17.0972 15.548 16.4575 16.3663 15.2945 16.3663C14.0733 16.3663 13.4336 15.548 13.4336 14.2621ZM14.1896 15.1973L16.1667 12.3332C15.9923 12.0994 15.7015 11.9825 15.2945 11.9825C14.4803 11.9825 14.0733 12.5085 14.0733 13.5022V14.379C14.0733 14.6712 14.0733 14.9635 14.1896 15.1973ZM15.2945 15.8402C16.1086 15.8402 16.5157 15.3142 16.5157 14.3205V13.4438C16.5157 13.1515 16.4575 12.8592 16.3994 12.6254L14.4803 15.4895C14.5966 15.7233 14.8874 15.8402 15.2945 15.8402Z" fill="black"/>
    <path d="M18.4932 15.9571C18.4932 15.7233 18.6676 15.548 18.9002 15.548C19.1328 15.548 19.3073 15.7233 19.3073 15.9571C19.3073 16.1909 19.1328 16.3663 18.9002 16.3663C18.6676 16.3663 18.4932 16.1909 18.4932 15.9571Z" fill="black"/>
    <path d="M20.4697 11.4564H23.8426V11.9825C22.2724 13.1515 22.0398 14.6712 22.0398 16.2494V16.3079H21.4583V16.2494C21.4583 14.7881 21.6909 13.1515 23.1447 11.9825H20.4697V11.4564Z" fill="black"/>
    <path d="M25.1807 14.6712V13.3853C25.1807 12.1578 25.7622 11.4564 26.9834 11.4564C28.0883 11.4564 28.5535 12.0409 28.5535 12.8008V12.8592H27.972V12.8008C27.972 12.2747 27.6231 12.0409 26.9834 12.0409C26.2274 12.0409 25.7622 12.3916 25.7622 13.21V13.6776C26.0529 13.2684 26.5182 13.093 27.0997 13.093C28.0883 13.093 28.6698 13.6191 28.6698 14.6128V14.8466C28.6698 15.8402 28.0883 16.4248 26.8671 16.4248C25.7622 16.3663 25.1807 15.7818 25.1807 14.6712ZM26.9834 15.8402C27.7394 15.8402 28.1464 15.548 28.1464 14.8466V14.5543C28.1464 13.8529 27.7394 13.6191 27.0415 13.6191C26.3437 13.6191 25.8203 13.9114 25.8203 14.5543V14.8466C25.8203 15.548 26.2274 15.8402 26.9834 15.8402Z" fill="black"/>
    <path d="M30.1816 15.0219V14.905C30.1816 14.2621 30.5306 13.8529 31.0539 13.736C30.5887 13.6191 30.2979 13.2684 30.2979 12.7423V12.6254C30.2979 11.8656 30.8795 11.3979 31.9844 11.3979C33.0892 11.3979 33.6126 11.8656 33.6126 12.6254V12.7423C33.6126 13.3268 33.2637 13.6191 32.8566 13.736C33.38 13.8529 33.7289 14.2621 33.7289 14.905V15.0219C33.7289 15.8987 33.1474 16.3663 31.9844 16.3663C30.7632 16.3663 30.1816 15.8987 30.1816 15.0219ZM31.9844 15.8402C32.7403 15.8402 33.1474 15.6064 33.1474 15.0219V14.7881C33.1474 14.2036 32.6822 13.9698 31.9844 13.9698C31.2865 13.9698 30.8213 14.1451 30.8213 14.7881V15.0219C30.8213 15.6064 31.2284 15.8402 31.9844 15.8402ZM31.9844 13.5022C32.624 13.5022 33.0311 13.3268 33.0311 12.8008V12.6254C33.0311 12.1578 32.6822 11.924 31.9844 11.924C31.2865 11.924 30.9376 12.1578 30.9376 12.6254V12.8008C30.9376 13.3268 31.3447 13.5022 31.9844 13.5022Z" fill="black"/>
    <path d="M35.2402 14.2621V13.5022C35.2402 12.2163 35.8799 11.4564 37.1011 11.4564C38.3223 11.4564 38.9038 12.2163 38.9038 13.5022V14.2621C38.9038 15.548 38.2641 16.3663 37.1011 16.3663C35.8799 16.3663 35.2402 15.548 35.2402 14.2621ZM35.9962 15.1973L37.9734 12.3332C37.7989 12.0994 37.5082 11.9825 37.1011 11.9825C36.287 11.9825 35.8799 12.5085 35.8799 13.5022V14.379C35.8218 14.6712 35.8799 14.9635 35.9962 15.1973ZM37.043 15.8402C37.8571 15.8402 38.2642 15.3142 38.2642 14.3205V13.4438C38.2642 13.1515 38.206 12.8592 38.1478 12.6254L36.2288 15.4895C36.4033 15.7233 36.694 15.8402 37.043 15.8402Z" fill="black"/>
    <path d="M7.79199 56.0546V78.0322" stroke="black" stroke-miterlimit="10"/>
    <path d="M14.8291 54.944V76.9216" stroke="black" stroke-miterlimit="10"/>
    <path d="M21.8652 54.0672V76.0448" stroke="black" stroke-miterlimit="10"/>
    <path d="M28.8438 54.2426V76.2201" stroke="black" stroke-miterlimit="10"/>
    <path d="M49.9531 60.6137V82.5913" stroke="black" stroke-miterlimit="10"/>
    <path d="M56.9307 59.6785V81.6561" stroke="black" stroke-miterlimit="10"/>
    <path d="M63.9678 56.756V78.6751" stroke="black" stroke-miterlimit="10"/>
    <path d="M42.916 59.3863V81.3639" stroke="black" stroke-miterlimit="10"/>
    <path d="M35.8799 55.6454V77.623" stroke="black" stroke-miterlimit="10"/>
    <path d="M71.0039 54.0672V76.0448" stroke="black" stroke-miterlimit="10"/>
    <path d="M77.9824 55.1778V77.1554" stroke="black" stroke-miterlimit="10"/>
    <path d="M92.0547 58.3926V80.3702" stroke="black" stroke-miterlimit="10"/>
    <path d="M85.0186 55.8792V77.8568" stroke="black" stroke-miterlimit="10"/>
    <path d="M99.0908 59.0356V81.0132" stroke="black" stroke-miterlimit="10"/>
    <rect x="0.5" y="0.5" width="106" height="119" stroke="black"/>
</svg>
