<svg preserveAspectRatio="none" viewBox="0 0 106 104" fill="none" xmlns="http://www.w3.org/2000/svg">
    <rect x="1" y="0.598877" width="104.43" height="102.721" stroke="black"/>
    <path d="M16.4973 17.4558C14.8973 17.4558 14.1173 16.4158 14.1173 14.9158V13.3858C14.1173 11.9058 14.8973 10.8558 16.4973 10.8558C18.0873 10.8558 18.8673 11.9058 18.8673 13.3858V14.9158C18.8673 16.4158 18.0873 17.4558 16.4973 17.4558ZM13.0473 14.8158C13.0473 16.5258 13.8973 17.9158 15.5573 18.2858L15.5473 18.9958C16.8773 19.0358 17.7373 19.2258 19.0573 19.8058V18.9358C18.3973 18.6358 17.7173 18.4458 16.9973 18.3558C18.9373 18.1458 19.9373 16.6758 19.9373 14.8158V13.4758C19.9373 11.4858 18.7673 9.92577 16.4973 9.92577C14.2173 9.92577 13.0473 11.4858 13.0473 13.4758V14.8158ZM26.337 18.3858C28.527 18.3858 29.427 17.5058 29.427 15.3658L29.427 10.0258H28.377V15.4458C28.377 17.0758 27.657 17.4758 26.337 17.4758C25.017 17.4758 24.297 17.0758 24.297 15.4458V10.0258H23.247V15.3658C23.247 17.4658 24.117 18.3858 26.337 18.3858ZM36.1907 18.3858C38.4607 18.3858 39.6307 16.8258 39.6307 14.8158V13.4758C39.6307 11.4858 38.4607 9.92577 36.1907 9.92577C33.9107 9.92577 32.7407 11.4858 32.7407 13.4758V14.8158C32.7407 16.8258 33.9107 18.3858 36.1907 18.3858ZM33.8107 14.9158V13.3858C33.8107 11.9058 34.5907 10.8558 36.1907 10.8558C37.7807 10.8558 38.5607 11.9058 38.5607 13.3858V14.9158C38.5607 16.4158 37.7807 17.4558 36.1907 17.4558C34.5907 17.4558 33.8107 16.4158 33.8107 14.9158ZM44.5098 18.2858H45.5498V10.9358H48.1198V10.0258L41.9498 10.0258V10.9358L44.5098 10.9358V18.2858ZM51.1627 18.2858H56.3927V17.3758H52.2027V14.6158H56.1727V13.6958H52.2027V10.9358H56.3927V10.0258H51.1627V18.2858Z" fill="black"/>
    <path d="M63.2123 69.6972L65.9123 47.1972H59.6123L56.0123 69.6972H63.2123ZM46.1123 69.6072H53.3123L56.0123 47.1072H49.7123L46.1123 69.6072Z" fill="black"/>
</svg>
