<svg width="13" height="24" viewBox="0 0 13 24" fill="none" xmlns="http://www.w3.org/2000/svg">
    <path d="M10.859 8.54107H8.08799V6.23507C8.08799 5.04507 8.18799 4.29607 9.88799 4.29607H10.888C11.0397 4.29647 11.1901 4.2669 11.3304 4.20908C11.4707 4.15125 11.5982 4.06629 11.7056 3.95908C11.813 3.85187 11.8982 3.72451 11.9562 3.58431C12.0143 3.44411 12.0441 3.29383 12.044 3.14208V1.69607C12.0457 1.40426 11.9369 1.12261 11.7396 0.90764C11.5422 0.692671 11.2709 0.560294 10.98 0.537075C10.2833 0.489741 9.58566 0.467075 8.88699 0.469075C8.16174 0.413993 7.43315 0.516414 6.75119 0.769314C6.06923 1.02221 5.45003 1.41961 4.93606 1.93425C4.42208 2.44889 4.02549 3.0686 3.77347 3.75089C3.52145 4.43317 3.41997 5.16189 3.47599 5.88707V8.54008H1.16899C0.863197 8.54008 0.569927 8.66155 0.353697 8.87778C0.137468 9.09401 0.0159912 9.38728 0.0159912 9.69308V11.9991C0.0159912 12.3049 0.137468 12.5981 0.353697 12.8144C0.569927 13.0306 0.863197 13.1521 1.16899 13.1521H3.47499V22.3781C3.47499 22.6839 3.59647 22.9771 3.8127 23.1934C4.02893 23.4096 4.3222 23.5311 4.62799 23.5311H6.93399C7.23979 23.5311 7.53306 23.4096 7.74929 23.1934C7.96551 22.9771 8.08699 22.6839 8.08699 22.3781V13.1501H10.594C10.878 13.1511 11.1525 13.0473 11.3647 12.8586C11.5769 12.6698 11.712 12.4093 11.744 12.1271L12.008 9.82708C12.027 9.66518 12.0113 9.50111 11.9622 9.3457C11.913 9.19029 11.8315 9.04707 11.7229 8.92552C11.6143 8.80397 11.4811 8.70685 11.3322 8.64058C11.1833 8.57431 11.022 8.54039 10.859 8.54107Z" fill="#bfbfbf"/>
</svg>
