<svg width="16" height="15" viewBox="0 0 16 15" fill="none" xmlns="http://www.w3.org/2000/svg">
    <path d="M15.5 4.69236C15.5 4.51319 15.5 4.33403 15.4993 4.15486C15.4986 4.00417 15.4965 3.85278 15.4924 3.70208C15.4833 3.37361 15.4639 3.04167 15.4056 2.71667C15.3465 2.38681 15.2493 2.07986 15.0965 1.77986C14.9465 1.48542 14.7507 1.21597 14.5174 0.981944C14.2833 0.748611 14.0146 0.552778 13.7194 0.402778C13.4201 0.25 13.1132 0.153472 12.7833 0.0944444C12.4583 0.0361111 12.1264 0.0166667 11.7979 0.00763889C11.6472 0.00347222 11.4958 0.00208333 11.3451 0.000694444C11.166 0 10.9868 0 10.8076 0H5.19236C5.01319 0 4.83403 0 4.65486 0.000694444C4.50417 0.00138889 4.35278 0.00347222 4.20208 0.00763889C3.87361 0.0166667 3.54167 0.0361111 3.21667 0.0944444C2.88681 0.153472 2.57986 0.250694 2.28056 0.402778C1.98611 0.552778 1.71597 0.748611 1.48264 0.981944C1.24861 1.21597 1.05347 1.48472 0.903472 1.77986C0.750694 2.07986 0.654167 2.38681 0.594444 2.71667C0.536111 3.04167 0.516667 3.37361 0.508333 3.70208C0.504167 3.85278 0.502083 4.00417 0.501389 4.15486C0.5 4.33403 0.5 4.51319 0.5 4.69236V10.3076C0.5 10.4868 0.5 10.666 0.501389 10.8451C0.502083 10.9958 0.504167 11.1472 0.508333 11.2979C0.517361 11.6264 0.536806 11.9583 0.595139 12.2833C0.654167 12.6132 0.751389 12.9208 0.904167 13.2201C1.05417 13.5146 1.25 13.784 1.48333 14.0174C1.71667 14.2514 1.98611 14.4472 2.28125 14.5972C2.58056 14.75 2.8875 14.8465 3.21736 14.9056C3.54236 14.9639 3.87431 14.9833 4.20278 14.9924C4.35347 14.9965 4.50486 14.9979 4.65556 14.9993C4.83472 15 5.01389 15 5.19306 15H10.8083C10.9875 15 11.1667 15 11.3458 14.9993C11.4965 14.9986 11.6479 14.9965 11.7986 14.9924C12.1271 14.9833 12.459 14.9639 12.784 14.9056C13.1139 14.8465 13.4208 14.7493 13.7201 14.5972C14.0146 14.4472 14.284 14.2514 14.5181 14.0174C14.7521 13.784 14.9472 13.5146 15.0972 13.2201C15.25 12.9201 15.3465 12.6132 15.4062 12.2833C15.4646 11.9583 15.484 11.6271 15.4931 11.2979C15.4972 11.1472 15.4986 10.9958 15.5 10.8451C15.5007 10.666 15.5007 10.4868 15.5007 10.3076V4.69236H15.5Z" fill="white"/>
    <path d="M6.09818 12.2716V5.29309H5.80512L4.02734 6.47017V6.76809L5.78498 5.6174H5.80582V12.2723H6.09818V12.2716Z" fill="black"/>
    <path d="M7.83594 5.29309V5.56045H11.6693V5.58129L8.5908 12.2723H8.91997L11.9727 5.57573V5.29309H7.83594Z" fill="black"/>
    <path d="M3.22457 3.92427V2.41524H3.23012L3.82665 3.7701H4.02457L4.61901 2.41524H4.62595V3.92427H4.82387V1.92566H4.61415L3.92943 3.52705H3.92387L3.23707 1.92635H3.02734V3.92427H3.22457Z" fill="black"/>
    <path d="M5.89931 2.36523C5.48194 2.36523 5.25 2.66871 5.25 3.07982V3.23051C5.25 3.64371 5.47986 3.94857 5.89931 3.94857C6.31806 3.94857 6.54653 3.64371 6.54653 3.23051V3.07982C6.54722 2.66871 6.31528 2.36523 5.89931 2.36523ZM5.89931 2.55412C6.17153 2.55412 6.33125 2.7576 6.33125 3.09023V3.2194C6.33125 3.55343 6.17153 3.7569 5.89931 3.7569C5.625 3.7569 5.46597 3.55204 5.46597 3.2194V3.09023C5.46597 2.75829 5.62569 2.55412 5.89931 2.55412Z" fill="black"/>
    <path d="M6.95312 3.92431H7.1684V2.98472C7.1684 2.76528 7.28854 2.5625 7.56979 2.5625C7.81007 2.5625 7.96424 2.70764 7.96424 2.96945V3.92292H8.17951V2.93681C8.17951 2.56459 7.9434 2.36389 7.62743 2.36389C7.37535 2.36389 7.2316 2.49584 7.17465 2.59861H7.1684V2.38889H6.95312V3.92431Z" fill="black"/>
    <path d="M9.16858 2.36386C8.78733 2.36386 8.55469 2.66109 8.55469 3.07706V3.234C8.55469 3.65761 8.76997 3.9472 9.16858 3.9472C9.38872 3.9472 9.54635 3.83609 9.6283 3.6847H9.63385V3.92359H9.83733V1.81873H9.62205V2.6097H9.61649C9.54219 2.47706 9.38385 2.36386 9.16858 2.36386ZM9.18802 2.55623C9.46024 2.55623 9.6276 2.77011 9.6276 3.08678V3.22914C9.6276 3.559 9.4651 3.75623 9.1908 3.75623C8.94774 3.75623 8.77066 3.57914 8.77066 3.22775V3.08886C8.76997 2.73053 8.95052 2.55623 9.18802 2.55623Z" fill="black"/>
    <path d="M11.1708 3.72496H11.1764V3.92426H11.3861V2.8576C11.3861 2.54232 11.1549 2.36523 10.8354 2.36523C10.4799 2.36523 10.2965 2.55135 10.2785 2.81801H10.4819C10.4993 2.65551 10.6153 2.55135 10.8264 2.55135C11.0444 2.55135 11.1708 2.66732 11.1708 2.8826V3.04787H10.7535C10.4035 3.04926 10.2188 3.2194 10.2188 3.48468C10.2188 3.76593 10.4222 3.94926 10.7201 3.94926C10.9542 3.94857 11.0972 3.84787 11.1708 3.72496ZM10.7708 3.76315C10.5979 3.76315 10.441 3.67079 10.441 3.48051C10.441 3.33121 10.5361 3.22426 10.7604 3.22426H11.1708V3.41315C11.1708 3.6194 10.9993 3.76315 10.7708 3.76315Z" fill="black"/>
    <path d="M12.9707 2.39026H12.7408L12.3026 3.67359H12.295L11.8568 2.39026H11.6172L12.1901 3.94859L12.1609 4.04234C12.1158 4.20068 12.038 4.29304 11.8575 4.29304C11.8241 4.29304 11.7693 4.28887 11.745 4.28401V4.46734C11.7832 4.4729 11.8401 4.47915 11.8915 4.47915C12.1901 4.47915 12.2929 4.27429 12.3734 4.05276L12.4172 3.93818L12.9707 2.39026Z" fill="black"/>
</svg>