<svg width="56" height="56" viewBox="0 0 56 56" fill="none" xmlns="http://www.w3.org/2000/svg">
<mask id="mask0_1_311" style="mask-type:luminance" maskUnits="userSpaceOnUse" x="0" y="0" width="56" height="56">
<path d="M55.229 0.604004H0.437988V55.395H55.229V0.604004Z" fill="white"/>
</mask>
<g mask="url(#mask0_1_311)">
<path d="M47.038 55.395H8.62499C7.54952 55.395 6.48459 55.1831 5.49104 54.7714C4.49748 54.3597 3.59478 53.7563 2.83449 52.9957C2.07421 52.235 1.47124 51.332 1.06004 50.3383C0.648839 49.3445 0.437464 48.2795 0.437989 47.204V8.791C0.437989 6.61968 1.30055 4.53728 2.83591 3.00192C4.37127 1.46656 6.45366 0.604004 8.62499 0.604004L47.038 0.604004C49.2093 0.604004 51.2917 1.46656 52.8271 3.00192C54.3624 4.53728 55.225 6.61968 55.225 8.791V47.204C55.2255 48.2795 55.0141 49.3445 54.6029 50.3383C54.1917 51.332 53.5888 52.235 52.8285 52.9957C52.0682 53.7563 51.1655 54.3597 50.1719 54.7714C49.1784 55.1831 48.1135 55.395 47.038 55.395Z" fill="#282828"/>
<path d="M32.956 28.852L44.093 17.716C44.4351 17.3809 44.7074 16.9814 44.8941 16.5405C45.0808 16.0995 45.1783 15.6259 45.1808 15.1471C45.1833 14.6683 45.0908 14.1937 44.9087 13.7508C44.7267 13.3079 44.4586 12.9056 44.12 12.567C43.7814 12.2284 43.379 11.9603 42.9361 11.7782C42.4933 11.5961 42.0187 11.5036 41.5398 11.5062C41.061 11.5087 40.5874 11.6061 40.1465 11.7928C39.7055 11.9795 39.306 12.2518 38.971 12.594L27.834 23.731L16.697 12.594C16.0153 11.9265 15.0979 11.5549 14.1438 11.5599C13.1898 11.5649 12.2763 11.9461 11.6017 12.6207C10.9271 13.2953 10.5459 14.2088 10.5409 15.1628C10.5359 16.1168 10.9075 17.0343 11.575 17.716L22.712 28.852L11.575 39.99C10.9075 40.6716 10.5359 41.5891 10.5409 42.5431C10.5459 43.4971 10.9271 44.4106 11.6017 45.0852C12.2763 45.7599 13.1898 46.1411 14.1438 46.1461C15.0979 46.1511 16.0153 45.7795 16.697 45.112L27.834 33.975L38.971 45.112C39.6526 45.7795 40.5701 46.1511 41.5241 46.1461C42.4781 46.1411 43.3917 45.7599 44.0663 45.0852C44.7409 44.4106 45.1221 43.4971 45.1271 42.5431C45.1321 41.5891 44.7605 40.6716 44.093 39.99L32.956 28.852Z" fill="white"/>
</g>
</svg>
