<svg width="23" height="23" viewBox="0 0 23 23" fill="none" xmlns="http://www.w3.org/2000/svg">
    <mask id="mask0_1_81" style="mask-type:luminance" maskUnits="userSpaceOnUse" x="0" y="0" width="23" height="23">
        <path d="M23 0H0V23H23V0Z" fill="white"/>
    </mask>
    <g mask="url(#mask0_1_81)">
        <path d="M0.116089 23.061H4.89709V7.66501H0.116089V23.061Z" fill="#787474"/>
        <path d="M2.50504 -4.75556e-06C1.95375 -0.00237672 1.41419 0.159094 0.954834 0.463915C0.495481 0.768735 0.137045 1.20316 -0.074974 1.71205C-0.286993 2.22094 -0.343035 2.78135 -0.235992 3.32214C-0.128949 3.86294 0.136354 4.35975 0.526245 4.7495C0.916136 5.13925 1.41304 5.40437 1.95387 5.51122C2.49471 5.61807 3.0551 5.56182 3.56391 5.34962C4.07272 5.13741 4.50701 4.77882 4.81167 4.31936C5.11632 3.8599 5.2776 3.32028 5.27503 2.769C5.2745 2.0346 4.98246 1.33045 4.46307 0.811249C3.94368 0.292046 3.23943 0.000260082 2.50504 -4.75556e-06Z" fill="#787474"/>
        <path d="M2.50509 7.66501H0.116089V23.065H2.50509V7.66501Z" fill="#787474"/>
        <path d="M2.50503 0C1.7672 1.55487e-08 1.05958 0.293102 0.537857 0.814829C0.0161309 1.33655 -0.276978 2.04417 -0.276978 2.782C-0.276978 3.51983 0.0161309 4.22744 0.537857 4.74917C1.05958 5.2709 1.7672 5.564 2.50503 5.564V0Z" fill="#787474"/>
        <path d="M22.7921 23.061H22.7981V14.603C22.7981 10.465 21.9061 7.27799 17.0701 7.27799C16.1618 7.24427 15.2613 7.45769 14.4648 7.8955C13.6682 8.33331 13.0055 8.9791 12.5471 9.76399H12.4801V7.66399H7.89209V23.064H12.6681V15.437C12.6681 13.43 13.0481 11.49 15.5341 11.49C17.9841 11.49 18.0191 13.781 18.0191 15.568V23.062L22.7921 23.061Z" fill="#787474"/>
        <path d="M15.346 7.53299C14.1584 7.88428 13.1541 8.68409 12.546 9.76299H12.479V7.66299H7.89099V23.063H12.667V15.437C12.667 13.483 13.028 11.591 15.343 11.494V7.53299H15.346Z" fill="#787474"/>
    </g>
</svg>
