<svg width="25" height="25" viewBox="0 0 25 25" fill="none" xmlns="http://www.w3.org/2000/svg">
    <path d="M21.9866 6.14408C21.2673 6.46349 20.4947 6.67844 19.6838 6.77539C20.512 6.27936 21.1471 5.49397 21.4462 4.55752C20.6721 5.01672 19.8138 5.35042 18.8999 5.5308C18.1686 4.75142 17.1269 4.2644 15.974 4.2644C13.7599 4.2644 11.9652 6.0599 11.9652 8.27327C11.9652 8.58742 12.0013 8.89406 12.0689 9.18642C8.7372 9.01958 5.78353 7.42324 3.80541 4.99718C3.46119 5.58942 3.26353 6.27786 3.26353 7.01364C3.26353 8.40404 3.97075 9.63135 5.04625 10.3499C4.38937 10.3288 3.77083 10.1484 3.23046 9.84856C3.23046 9.86584 3.23046 9.88162 3.23046 9.89891C3.23046 11.8417 4.61184 13.4621 6.44642 13.8296C6.11047 13.9213 5.75573 13.9702 5.38971 13.9702C5.13192 13.9702 4.88015 13.9446 4.63589 13.8988C5.1462 15.4913 6.62679 16.651 8.38095 16.6833C7.00934 17.7588 5.28073 18.3999 3.40181 18.3999C3.07864 18.3999 2.75922 18.3811 2.44507 18.3435C4.21952 19.4807 6.32617 20.1443 8.59064 20.1443C15.965 20.1443 19.9964 14.0355 19.9964 8.73774C19.9964 8.56413 19.9927 8.39126 19.9852 8.21916C20.769 7.65322 21.4492 6.9475 21.9866 6.14408Z" fill="white"/>
</svg>
