<svg width="24" height="24" viewBox="0 0 24 24" fill="none" xmlns="http://www.w3.org/2000/svg">
    <path fill-rule="evenodd" clip-rule="evenodd" d="M20.2081 3.8204C18.2479 1.86044 15.6422 0.679621 12.8762 0.497779C10.1102 0.315937 7.37234 1.14547 5.1724 2.83193C2.97247 4.51839 1.46036 6.94685 0.917612 9.66517C0.374861 12.3835 0.838452 15.2064 2.22207 17.6084L0.601074 23.5304L6.65907 21.9414C8.3345 22.8543 10.2121 23.3325 12.1201 23.3324C14.3805 23.3323 16.5902 22.6622 18.4699 21.4066C20.3495 20.1509 21.8148 18.3663 22.6804 16.2781C23.546 14.19 23.7731 11.8921 23.3331 9.67489C22.893 7.45768 21.8055 5.4197 20.2081 3.8204ZM12.1251 21.4024C10.4242 21.4024 8.75457 20.9451 7.29107 20.0784L6.93907 19.8694L3.34407 20.8124L4.30107 17.3104L4.07507 16.9514C2.95565 15.1672 2.46089 13.0616 2.66858 10.9656C2.87628 8.86963 3.77464 6.90208 5.22245 5.3723C6.67025 3.84251 8.5854 2.83726 10.6668 2.51456C12.7482 2.19186 14.8778 2.57002 16.7209 3.58959C18.5639 4.60915 20.0159 6.21231 20.8485 8.14703C21.6811 10.0817 21.8472 12.2383 21.3206 14.2777C20.7939 16.317 19.6045 18.1236 17.9392 19.4133C16.274 20.703 14.2273 21.4027 12.1211 21.4024H12.1251ZM17.3351 14.2894C17.0501 14.1464 15.6461 13.4564 15.3841 13.3604C15.1221 13.2644 14.9321 13.2174 14.7421 13.5034C14.5521 13.7894 14.0051 14.4324 13.8421 14.6224C13.6791 14.8124 13.5091 14.8364 13.2231 14.6934C12.3799 14.3583 11.6016 13.8788 10.9231 13.2764C10.2983 12.6996 9.76249 12.0333 9.33307 11.2994C9.16607 11.0134 9.31507 10.8584 9.45807 10.7174C9.60107 10.5764 9.74307 10.3834 9.88607 10.2174C10.0033 10.0732 10.0993 9.91287 10.1711 9.7414C10.2089 9.66262 10.2266 9.57566 10.2224 9.48836C10.2182 9.40106 10.1923 9.31619 10.1471 9.2414C10.0761 9.0984 9.50507 7.6934 9.26607 7.1214C9.02707 6.5494 8.80107 6.6394 8.62607 6.6294C8.45107 6.6194 8.26907 6.6194 8.07907 6.6194C7.93429 6.62302 7.79182 6.65662 7.66067 6.71806C7.52952 6.77951 7.41252 6.86747 7.31707 6.9764C6.99399 7.28213 6.7382 7.65187 6.56602 8.062C6.39384 8.47214 6.30905 8.91366 6.31707 9.3584C6.41005 10.4355 6.81528 11.4622 7.48307 12.3124C8.70799 14.1481 10.3889 15.634 12.3611 16.6244C12.8928 16.853 13.4362 17.0533 13.9891 17.2244C14.5721 17.4017 15.1885 17.4404 15.7891 17.3374C16.1866 17.2562 16.563 17.0936 16.8946 16.8599C17.2262 16.6262 17.5059 16.3264 17.7161 15.9794C17.9029 15.5527 17.9609 15.0807 17.8831 14.6214C17.8121 14.5024 17.6211 14.4304 17.3361 14.2874L17.3351 14.2894Z" fill="#787474"/>
</svg>
