<svg width="25" height="25" viewBox="0 0 25 25" fill="none" xmlns="http://www.w3.org/2000/svg">
    <path d="M17.1188 9.20438H14.7158V7.20438C14.7158 6.17238 14.7998 5.52238 16.2788 5.52238H17.1468C17.6988 5.52238 18.1468 5.07438 18.1468 4.52238V3.26838C18.1468 2.74538 17.7458 2.29838 17.2238 2.26338C16.6198 2.22238 16.0148 2.20338 15.4088 2.20438C12.6958 2.20438 10.7158 3.86138 10.7158 6.90338V9.20438H8.71582C8.16382 9.20438 7.71582 9.65238 7.71582 10.2044V12.2044C7.71582 12.7564 8.16382 13.2044 8.71582 13.2044L10.7158 13.2034V21.2044C10.7158 21.7564 11.1638 22.2044 11.7158 22.2044H13.7158C14.2678 22.2044 14.7158 21.7564 14.7158 21.2044V13.2014L16.8898 13.2004C17.3978 13.2004 17.8248 12.8194 17.8828 12.3144L18.1118 10.3184C18.1808 9.72538 17.7168 9.20438 17.1188 9.20438Z" fill="white"/>
</svg>
