<svg width="13" height="15" viewBox="0 0 13 15" fill="none" xmlns="http://www.w3.org/2000/svg">
    <path fill-rule="evenodd" clip-rule="evenodd" d="M10.7023 7.96927C10.6835 6.07037 12.251 5.15913 12.3211 5.11402C11.44 3.8252 10.0673 3.64805 9.57818 3.62813C8.41006 3.5102 7.29922 4.31626 6.70575 4.31626C6.11392 4.31626 5.19935 3.64582 4.23081 3.66356C2.95777 3.68238 1.78409 4.404 1.12781 5.54419C-0.194799 7.8389 0.789513 11.24 2.07863 13.1007C2.70836 14.012 3.45934 15.0356 4.4456 14.999C5.39504 14.9617 5.75434 14.384 6.90282 14.384C8.05102 14.384 8.3735 14.9991 9.3786 14.9794C10.4006 14.9606 11.048 14.0505 11.6736 13.1362C12.3974 12.0787 12.6942 11.0562 12.7122 11.0036C12.6895 10.9934 10.7194 10.2388 10.6995 7.9701L10.7023 7.96927H10.7023ZM8.81447 2.39521C9.33764 1.76049 9.69112 0.879413 9.59452 0C8.84077 0.0307246 7.92674 0.502398 7.3856 1.13629C6.8998 1.69904 6.47544 2.59589 6.58894 3.4573C7.43072 3.52292 8.29019 3.02964 8.81363 2.39631L8.81447 2.39521Z" fill="black"/>
</svg>