<svg width="19" height="20" viewBox="0 0 19 20" fill="none" xmlns="http://www.w3.org/2000/svg">
<mask id="mask0_2_599" style="mask-type:luminance" maskUnits="userSpaceOnUse" x="0" y="0" width="19" height="20">
<path d="M18.3669 0.963867H0.0148926V19.3159H18.3669V0.963867Z" fill="white"/>
</mask>
<g mask="url(#mask0_2_599)">
<path d="M13.0379 0.963867H5.34289C3.92982 0.963867 2.57462 1.52521 1.57543 2.5244C0.576234 3.5236 0.0148926 4.87879 0.0148926 6.29187L0.0148926 13.9869C0.0148926 15.3999 0.576234 16.7551 1.57543 17.7543C2.57462 18.7535 3.92982 19.3149 5.34289 19.3149H13.0379C14.451 19.3149 15.8062 18.7535 16.8054 17.7543C17.8046 16.7551 18.3659 15.3999 18.3659 13.9869V6.29187C18.3659 4.87879 17.8046 3.5236 16.8054 2.5244C15.8062 1.52521 14.451 0.963867 13.0379 0.963867Z" fill="#242424"/>
<path d="M13.6199 5.47388H4.76191C4.4035 5.47441 4.05992 5.61702 3.80649 5.87045C3.55305 6.12389 3.41044 6.46747 3.40991 6.82588V13.4539C3.41044 13.8123 3.55305 14.1559 3.80649 14.4093C4.05992 14.6627 4.4035 14.8053 4.76191 14.8059H13.6189C13.9773 14.8053 14.3209 14.6627 14.5743 14.4093C14.8278 14.1559 14.9704 13.8123 14.9709 13.4539V6.82588C14.9704 6.46747 14.8278 6.12389 14.5743 5.87045C14.3209 5.61702 13.9773 5.47441 13.6189 5.47388M12.7189 6.79488L9.19591 9.32188L5.77791 6.79488H12.7189ZM13.6189 13.4839H4.76191C4.75784 13.4839 4.75381 13.4831 4.75005 13.4815C4.74629 13.48 4.74287 13.4777 4.73999 13.4748C4.73711 13.4719 4.73483 13.4685 4.73327 13.4647C4.73171 13.461 4.73091 13.4569 4.73091 13.4529V7.66488L9.18491 10.9579L13.6499 7.75788V13.4579C13.6499 13.4661 13.6466 13.474 13.6408 13.4798C13.635 13.4856 13.6271 13.4889 13.6189 13.4889" fill="#E1F32C"/>
</g>
</svg>
