<svg width="13" height="24" viewBox="0 0 13 24" fill="none" xmlns="http://www.w3.org/2000/svg">
    <path d="M10.843 8.08648H8.072V5.78049C8.072 4.59049 8.172 3.84149 9.872 3.84149H10.872C11.0238 3.84188 11.1741 3.81231 11.3144 3.75449C11.4547 3.69666 11.5822 3.6117 11.6896 3.50449C11.797 3.39728 11.8822 3.26992 11.9402 3.12972C11.9983 2.98952 12.0281 2.83924 12.028 2.68749V1.24149C12.0297 0.949672 11.9209 0.668019 11.7236 0.45305C11.5262 0.238081 11.2549 0.105704 10.964 0.082485C10.2673 0.0351516 9.56967 0.0124851 8.871 0.0144851C8.14575 -0.0405966 7.41716 0.0618241 6.7352 0.314724C6.05324 0.567623 5.43404 0.965019 4.92007 1.47966C4.40609 1.9943 4.0095 2.61401 3.75748 3.2963C3.50546 3.97858 3.40398 4.7073 3.46 5.43248V8.08549H1.153C0.847206 8.08549 0.553936 8.20696 0.337706 8.42319C0.121477 8.63942 0 8.93269 0 9.23849V11.5445C0 11.8503 0.121477 12.1435 0.337706 12.3598C0.553936 12.576 0.847206 12.6975 1.153 12.6975H3.459V21.9235C3.459 22.2293 3.58048 22.5226 3.79671 22.7388C4.01294 22.955 4.30621 23.0765 4.612 23.0765H6.918C7.22379 23.0765 7.51706 22.955 7.73329 22.7388C7.94952 22.5226 8.071 22.2293 8.071 21.9235V12.6955H10.578C10.862 12.6966 11.1365 12.5928 11.3487 12.404C11.5609 12.2152 11.696 11.9547 11.728 11.6725L11.992 9.37249C12.011 9.21059 11.9954 9.04652 11.9462 8.89111C11.8971 8.7357 11.8155 8.59248 11.7069 8.47093C11.5983 8.34938 11.4651 8.25226 11.3162 8.18599C11.1673 8.11972 11.006 8.0858 10.843 8.08648Z" fill="#787474"/>
</svg>
