<svg width="19" height="19" viewBox="0 0 19 19" fill="none" xmlns="http://www.w3.org/2000/svg">
    <g clip-path="url(#clip0_1607_49)">
        <path d="M0.869629 18.9108H4.60163V6.89355H0.869629V18.9108Z" fill="black"/>
        <path d="M2.73253 0.910645C1.54003 0.910645 0.571777 1.87889 0.571777 3.07214C0.571777 4.26539 1.54003 5.25389 2.73253 5.25389C3.92578 5.25389 4.89403 4.26539 4.89403 3.07214C4.89403 1.87889 3.92578 0.910645 2.73253 0.910645V0.910645Z" fill="black"/>
        <path d="M2.73488 6.89355H0.869629V18.9108H2.73488V6.89355Z" fill="black"/>
        <path d="M2.73253 0.910645C1.54003 0.910645 0.571777 1.87889 0.571777 3.07214C0.571777 4.26539 1.54003 5.25389 2.73253 5.25389H2.73478V0.910645C2.73403 0.910645 2.73328 0.910645 2.73253 0.910645Z" fill="black"/>
        <path d="M18.5672 18.9108L18.5717 18.9101V12.3086C18.5717 9.07831 17.8765 6.59131 14.101 6.59131C12.286 6.59131 11.0687 7.58731 10.5707 8.53156H10.519V6.89281H6.93848V18.9101H10.666V12.9596C10.666 11.3928 10.963 9.87856 12.9032 9.87856C14.815 9.87856 14.8435 11.6666 14.8435 13.0616V18.9108H18.5672Z" fill="black"/>
        <path d="M12.7555 6.79053C11.677 7.12878 10.933 7.84353 10.5707 8.53128H10.519V6.89253H6.93848V18.9098H10.666V12.9593C10.666 11.4338 10.948 9.95703 12.7547 9.88128V6.79053H12.7555Z" fill="black"/>
    </g>
    <defs>
        <clipPath id="clip0_1607_49">
            <rect width="18" height="18" fill="black" transform="translate(0.571777 0.910645)"/>
        </clipPath>
    </defs>
</svg>
