<svg width="19" height="20" viewBox="0 0 19 20" fill="none" xmlns="http://www.w3.org/2000/svg">
<mask id="mask0_2_590" style="mask-type:luminance" maskUnits="userSpaceOnUse" x="0" y="0" width="19" height="20">
<path d="M18.5439 0.963867H0.191895V19.3159H18.5439V0.963867Z" fill="white"/>
</mask>
<g mask="url(#mask0_2_590)">
<path d="M13.2149 0.963867H5.51989C4.10682 0.963867 2.75162 1.52521 1.75243 2.5244C0.753236 3.5236 0.191895 4.87879 0.191895 6.29187L0.191895 13.9869C0.191895 15.3999 0.753236 16.7551 1.75243 17.7543C2.75162 18.7535 4.10682 19.3149 5.51989 19.3149H13.2149C14.628 19.3149 15.9832 18.7535 16.9824 17.7543C17.9816 16.7551 18.5429 15.3999 18.5429 13.9869V6.29187C18.5429 4.87879 17.9816 3.5236 16.9824 2.5244C15.9832 1.52521 14.628 0.963867 13.2149 0.963867Z" fill="#242424"/>
<path d="M6.42491 8.14893H4.25391V14.9959H6.42491V8.14893Z" fill="#E1F32C"/>
<path d="M7.95593 7.94793H10.2719L10.1269 8.86893H10.1559C10.3655 8.58788 10.6367 8.35869 10.9488 8.19901C11.2609 8.03934 11.6054 7.95344 11.9559 7.94793C12.3071 7.91755 12.6608 7.96058 12.9945 8.07428C13.3282 8.18799 13.6346 8.36988 13.8942 8.6084C14.1537 8.84691 14.3609 9.13683 14.5023 9.45972C14.6438 9.78261 14.7165 10.1314 14.7159 10.4839V14.9949H12.5449V11.1249C12.5596 10.963 12.5419 10.7998 12.493 10.6447C12.4441 10.4897 12.3649 10.3459 12.2599 10.2217C12.155 10.0975 12.0264 9.99539 11.8817 9.92127C11.737 9.84715 11.579 9.80251 11.4169 9.78993C11.0763 9.81695 10.7573 9.96759 10.5201 10.2135C10.2829 10.4594 10.1437 10.7836 10.1289 11.1249V14.9949H7.95593V7.94793Z" fill="#E1F32C"/>
<path d="M6.50485 6.44798C6.50485 6.67859 6.43647 6.90403 6.30835 7.09578C6.18022 7.28752 5.99812 7.43697 5.78506 7.52522C5.572 7.61348 5.33756 7.63657 5.11138 7.59158C4.88519 7.54659 4.67744 7.43554 4.51437 7.27247C4.3513 7.1094 4.24025 6.90164 4.19526 6.67546C4.15027 6.44928 4.17336 6.21483 4.26161 6.00177C4.34986 5.78871 4.49931 5.60661 4.69106 5.47849C4.88281 5.35037 5.10824 5.28198 5.33885 5.28198C5.49197 5.28198 5.6436 5.31214 5.78506 5.37074C5.92653 5.42934 6.05507 5.51522 6.16334 5.6235C6.27161 5.73177 6.3575 5.86031 6.4161 6.00177C6.47469 6.14324 6.50485 6.29486 6.50485 6.44798Z" fill="#E1F32C"/>
</g>
</svg>
