<svg width="17" height="15" viewBox="0 0 17 15" fill="none" xmlns="http://www.w3.org/2000/svg">
    <path d="M11.7474 5.625H15.9125C16.306 5.625 16.625 5.94399 16.625 6.3375V10.1314C16.625 11.5776 15.4526 12.75 14.0064 12.75H13.994C12.5478 12.7502 11.3752 11.578 11.375 10.1317V10.1314V5.99738C11.375 5.79172 11.5417 5.625 11.7474 5.625Z" fill="#5A5A5A"/>
    <path d="M14.5625 4.875C15.4945 4.875 16.25 4.11948 16.25 3.1875C16.25 2.25552 15.4945 1.5 14.5625 1.5C13.6305 1.5 12.875 2.25552 12.875 3.1875C12.875 4.11948 13.6305 4.875 14.5625 4.875Z" fill="#5A5A5A"/>
    <path d="M9.3125 4.875C10.6587 4.875 11.75 3.7837 11.75 2.4375C11.75 1.09131 10.6587 0 9.3125 0C7.96631 0 6.875 1.09131 6.875 2.4375C6.875 3.7837 7.96631 4.875 9.3125 4.875Z" fill="#9D9D9D"/>
    <path d="M12.5599 5.625H5.68463C5.29582 5.63462 4.98824 5.9573 4.99726 6.34613V10.6733C4.94296 13.0066 6.78899 14.9429 9.12226 15C11.4555 14.9429 13.3016 13.0066 13.2473 10.6733V6.34613C13.2563 5.9573 12.9487 5.63462 12.5599 5.625Z" fill="#9D9D9D"/>
    <path opacity="0.1" d="M9.5002 5.625V11.6887C9.49833 11.9668 9.32983 12.2166 9.0727 12.3225C8.99083 12.3571 8.90284 12.375 8.81395 12.375H5.3302C5.28145 12.2512 5.23645 12.1275 5.19895 12C5.06768 11.5697 5.0007 11.1224 5.00019 10.6725V6.345C4.99118 5.95679 5.29825 5.63462 5.68644 5.625H9.5002Z" fill="black"/>
    <path opacity="0.2" d="M9.1252 5.625V12.0637C9.12519 12.1526 9.10733 12.2406 9.0727 12.3225C8.96683 12.5796 8.71702 12.7481 8.43895 12.75H5.50645C5.4427 12.6262 5.3827 12.5025 5.3302 12.375C5.2777 12.2475 5.23645 12.1275 5.19895 12C5.06768 11.5697 5.0007 11.1224 5.00019 10.6725V6.345C4.99118 5.95679 5.29825 5.63462 5.68644 5.625H9.1252Z" fill="black"/>
    <path opacity="0.2" d="M9.12519 5.625V11.3138C9.12234 11.6916 8.81676 11.9971 8.43895 12H5.19895C5.06768 11.5697 5.0007 11.1224 5.00019 10.6725V6.345C4.99118 5.95679 5.29825 5.63462 5.68644 5.625H9.12519Z" fill="black"/>
    <path opacity="0.2" d="M8.75019 5.625V11.3138C8.74733 11.6916 8.44176 11.9971 8.06394 12H5.19895C5.06768 11.5697 5.0007 11.1224 5.00019 10.6725V6.345C4.99118 5.95679 5.29825 5.63462 5.68644 5.625H8.75019Z" fill="black"/>
    <path opacity="0.1" d="M9.50282 3.68624V4.86749C9.43906 4.87124 9.37907 4.87499 9.31531 4.87499C9.25156 4.87499 9.19156 4.87125 9.12781 4.86749C9.00123 4.85909 8.8757 4.83901 8.75281 4.80749C8.37845 4.71884 8.03038 4.54282 7.73708 4.29384C7.44379 4.04487 7.21359 3.73 7.06532 3.375C7.01357 3.25407 6.97339 3.12851 6.94531 3H8.81656C9.19497 3.00143 9.50138 3.30783 9.50282 3.68624Z" fill="black"/>
    <path opacity="0.2" d="M9.125 4.06124V4.86749C8.99842 4.8591 8.87288 4.83901 8.75 4.8075C8.37563 4.71884 8.02756 4.54282 7.73427 4.29385C7.44097 4.04487 7.21077 3.73 7.0625 3.375H8.43875C8.81715 3.37643 9.12356 3.68284 9.125 4.06124Z" fill="black"/>
    <path opacity="0.2" d="M9.125 4.06124V4.86749C8.99842 4.8591 8.87288 4.83901 8.75 4.8075C8.37563 4.71884 8.02756 4.54282 7.73427 4.29385C7.44097 4.04487 7.21077 3.73 7.0625 3.375H8.43875C8.81715 3.37643 9.12356 3.68284 9.125 4.06124Z" fill="black"/>
    <path opacity="0.2" d="M8.75 4.06125V4.8075C8.37563 4.71884 8.02756 4.54282 7.73427 4.29385C7.44097 4.04487 7.21077 3.73 7.0625 3.375H8.06375C8.44216 3.37644 8.74856 3.68284 8.75 4.06125Z" fill="black"/>
    <path d="M1.18737 3.375H8.06262C8.44224 3.375 8.74999 3.68275 8.74999 4.06237V10.9376C8.74999 11.3172 8.44224 11.625 8.06262 11.625H1.18737C0.807743 11.625 0.5 11.3172 0.5 10.9376V4.06237C0.5 3.68275 0.807751 3.375 1.18737 3.375Z" fill="url(#paint0_linear_1247_17016)"/>
    <path d="M6.43441 5.99174H5.06002V9.73425H4.18441V5.99174H2.81641V5.26575H6.43441V5.99174Z" fill="white"/>
    <defs>
        <linearGradient id="paint0_linear_1247_17016" x1="1.93319" y1="2.8379" x2="7.3168" y2="12.1621" gradientUnits="userSpaceOnUse">
            <stop stop-color="#2B2B2B"/>
        </linearGradient>
    </defs>
</svg>