<svg width="25" height="25" viewBox="0 0 25 25" fill="none" xmlns="http://www.w3.org/2000/svg">
    <path d="M3.75952 22.3234H7.60047V9.95532H3.75952V22.3234Z" fill="white"/>
    <path d="M5.67695 3.7981C4.44964 3.7981 3.45312 4.79461 3.45312 6.0227C3.45312 7.25078 4.44964 8.26814 5.67695 8.26814C6.90504 8.26814 7.90155 7.25078 7.90155 6.0227C7.90155 4.79461 6.90504 3.7981 5.67695 3.7981V3.7981Z" fill="white"/>
    <path d="M5.67922 9.95532H3.75952V22.3234H5.67922V9.95532Z" fill="white"/>
    <path d="M5.67695 3.7981C4.44964 3.7981 3.45312 4.79461 3.45312 6.0227C3.45312 7.25078 4.44964 8.26814 5.67695 8.26814H5.67927V3.7981C5.6785 3.7981 5.67773 3.7981 5.67695 3.7981Z" fill="white"/>
    <path d="M21.9738 22.3234L21.9785 22.3227V15.5284C21.9785 12.2039 21.2629 9.64429 17.3772 9.64429C15.5092 9.64429 14.2564 10.6694 13.7439 11.6412H13.6906V9.95459H10.0056V22.3227H13.8419V16.1984C13.8419 14.586 14.1476 13.0275 16.1445 13.0275C18.1121 13.0275 18.1414 14.8677 18.1414 16.3034V22.3234H21.9738Z" fill="white"/>
    <path d="M15.9924 9.84985C14.8824 10.198 14.1167 10.9336 13.7439 11.6414H13.6906V9.95483H10.0056V22.3229H13.8419V16.1987C13.8419 14.6287 14.1322 13.1088 15.9917 13.0308V9.84985H15.9924Z" fill="white"/>
</svg>
