<svg width="21" height="22" viewBox="0 0 21 22" fill="none" xmlns="http://www.w3.org/2000/svg">
    <path d="M10.2103 20.7308C15.5496 20.7308 19.878 16.4024 19.878 11.063C19.878 5.72367 15.5496 1.39526 10.2103 1.39526C4.87089 1.39526 0.54248 5.72367 0.54248 11.063C0.54248 16.4024 4.87089 20.7308 10.2103 20.7308Z" stroke="black" stroke-miterlimit="10"/>
    <path d="M10.2103 20.7308C13.1938 20.7308 15.6123 16.4024 15.6123 11.063C15.6123 5.72367 13.1938 1.39526 10.2103 1.39526C7.2269 1.39526 4.80835 5.72367 4.80835 11.063C4.80835 16.4024 7.2269 20.7308 10.2103 20.7308Z" stroke="black" stroke-miterlimit="10"/>
    <path d="M10.2102 1.39526C10.4428 1.39526 10.6288 5.72085 10.6288 11.063C10.6288 16.4052 10.4428 20.7308 10.2102 20.7308" stroke="black" stroke-miterlimit="10"/>
    <path d="M19.878 11.063C19.878 11.7607 15.5524 12.3321 10.2103 12.3321C4.86806 12.3321 0.54248 11.7607 0.54248 11.063" stroke="black" stroke-miterlimit="10"/>
</svg>
