<svg width="16" height="15" viewBox="0 0 16 15" fill="none" xmlns="http://www.w3.org/2000/svg">
    <path d="M11.9502 3.55225H4.05469V11.4478H11.9502V3.55225Z" fill="white"/>
    <path d="M11.9453 15L15.4976 11.4478H11.9453V15Z" fill="#202020"/>
    <path d="M15.4976 3.55225H11.9453V11.4478H15.4976V3.55225Z" fill="#898989"/>
    <path d="M11.9502 11.4478H4.05469V15H11.9502V11.4478Z" fill="#6C6C6C"/>
    <path d="M0.5 11.4478V13.8159C0.5 14.13 0.624751 14.4311 0.84681 14.6532C1.06887 14.8752 1.37004 15 1.68408 15H4.05225V11.4478H0.5Z" fill="#7C7C7C"/>
    <path d="M15.4976 3.55225V1.18408C15.4976 0.870044 15.3728 0.568868 15.1507 0.34681C14.9287 0.124751 14.6275 0 14.3135 0L11.9453 0V3.55225H15.4976Z" fill="#656565"/>
    <path d="M11.9478 0H1.68408C1.37004 0 1.06887 0.124751 0.84681 0.34681C0.624751 0.568868 0.5 0.870044 0.5 1.18408L0.5 11.4478H4.05225V3.55225H11.9465V0H11.9478Z" fill="#353535"/>
    <path d="M5.67285 9.67651C5.37744 9.47754 5.17358 9.18579 5.0625 8.80127L5.74731 8.51929C5.80957 8.7561 5.91821 8.93921 6.07324 9.06982C6.22705 9.20044 6.41504 9.26392 6.63355 9.26392C6.85815 9.26392 7.0498 9.19556 7.21094 9.06006C7.37207 8.92334 7.45264 8.75 7.45264 8.54004C7.45264 8.3252 7.36719 8.14941 7.19751 8.0127C7.02783 7.87598 6.81421 7.80884 6.5603 7.80884H6.1648V7.13135H6.52002C6.73853 7.13135 6.92407 7.07275 7.07422 6.95312C7.22436 6.83472 7.29883 6.67236 7.29883 6.46606C7.29883 6.28296 7.23169 6.13647 7.09741 6.02661C6.96313 5.91675 6.79346 5.86182 6.58716 5.86182C6.38574 5.86182 6.22583 5.91553 6.10742 6.02295C5.98901 6.13037 5.8999 6.26709 5.84863 6.41846L5.17114 6.13647C5.26147 5.88135 5.42627 5.65674 5.66797 5.46265C5.90967 5.26855 6.21851 5.1709 6.59326 5.1709C6.87036 5.1709 7.12061 5.22461 7.34155 5.33203C7.5625 5.43945 7.73584 5.58838 7.86157 5.77759C7.9873 5.96802 8.04956 6.18164 8.04956 6.41846C8.04956 6.66016 7.99097 6.86401 7.875 7.03247C7.75903 7.19971 7.61499 7.3291 7.44531 7.41821V7.4585C7.66382 7.54883 7.85547 7.69775 7.99585 7.88818C8.13867 8.08105 8.21069 8.31055 8.21069 8.5791C8.21069 8.84766 8.14233 9.08691 8.00684 9.29688C7.87012 9.50684 7.68213 9.67285 7.44287 9.7937C7.20361 9.91455 6.93384 9.97559 6.63477 9.97559C6.28809 9.97559 5.96826 9.87671 5.67285 9.67651ZM9.87939 6.27808L9.12744 6.82129L8.75146 6.25122L10.1003 5.27832H10.6179V9.86816H9.87939V6.27808Z" fill="#2E2E2E"/>
</svg>