<svg width="18" height="15" viewBox="0 0 18 15" fill="none" xmlns="http://www.w3.org/2000/svg">
    <path d="M15.8215 0H6.61152C6.41204 0 6.22073 0.0792433 6.07967 0.220298C5.93862 0.361352 5.85938 0.552662 5.85938 0.752143V1.60714L11.0504 3.21429L16.5737 1.60714V0.752143C16.5737 0.552662 16.4944 0.361352 16.3534 0.220298C16.2123 0.0792433 16.021 0 15.8215 0Z" fill="#ACACAC"/>
    <path d="M17.4548 8.25268C17.5333 8.00603 17.5959 7.75463 17.6423 7.5C17.6422 7.43744 17.6257 7.376 17.5944 7.32184C17.5631 7.26768 17.5181 7.22271 17.4639 7.19143L17.4569 7.18714L17.4548 7.18607L11.6487 3.87857C11.5318 3.80317 11.3973 3.75942 11.2584 3.75163C11.1195 3.74383 10.981 3.77225 10.8564 3.83411C10.8297 3.84729 10.8038 3.86195 10.7787 3.87803L4.97266 7.18661L4.97051 7.18768L4.96408 7.19143C4.90981 7.22264 4.8647 7.26758 4.83329 7.32175C4.80188 7.37591 4.78528 7.43739 4.78516 7.5C4.83156 7.75463 4.89419 8.00603 4.97266 8.25268L11.1291 12.7554L17.4548 8.25268Z" fill="#2E2E2E"/>
    <path d="M13.36 1.60718H9.61002L8.52734 3.21432L9.61002 4.82146L13.36 8.03575H16.5743V4.82146L13.36 1.60718Z" fill="#727272"/>
    <path d="M5.85938 1.60718H9.60938V4.82146H5.85938V1.60718Z" fill="#8B8B8B"/>
    <path d="M13.3594 1.60718H16.5737V4.82146H13.3594V1.60718Z" fill="#CDCDCD"/>
    <path d="M13.3594 8.0357L9.60938 4.82141H5.85938V8.0357L9.60938 11.25L15.4122 12.1971L13.3594 8.0357Z" fill="#ACACAC"/>
    <path d="M9.60938 4.82141H13.3594V8.0357H9.60938V4.82141Z" fill="#8B8B8B"/>
    <path d="M5.85938 8.03577H9.60938V11.2501H5.85938V8.03577Z" fill="#393939"/>
    <path d="M13.3594 8.03577H16.5737V11.2501H13.3594V8.03577Z" fill="#8B8B8B"/>
    <path opacity="0.5" d="M11.3177 12.4383L5 7.83114L5.26518 7.36507L11.1093 10.6929C11.1452 10.7073 11.1837 10.7142 11.2225 10.7131C11.2612 10.712 11.2992 10.7029 11.3343 10.6865L17.1912 7.349L17.457 7.81453L11.3177 12.4383Z" fill="#2E2E2E"/>
    <path d="M17.4645 7.80911L17.457 7.81339L17.4554 7.81446L11.6493 11.122C11.534 11.1963 11.4016 11.2398 11.2646 11.2484C11.1277 11.2569 10.9908 11.2302 10.8672 11.1707L12.889 13.882L17.3108 14.8446V14.8468C17.4136 14.7724 17.4974 14.6746 17.5551 14.5616C17.6128 14.4485 17.6429 14.3234 17.6429 14.1964V7.5C17.6429 7.56265 17.6264 7.6242 17.5951 7.67846C17.5638 7.73272 17.5188 7.77778 17.4645 7.80911Z" fill="#3F3F3F"/>
    <path opacity="0.05" d="M17.6429 14.1964V13.801L12.2949 10.7539L11.6493 11.1219C11.534 11.1963 11.4016 11.2398 11.2646 11.2484C11.1277 11.2569 10.9908 11.2302 10.8672 11.1707L12.889 13.8819L17.3108 14.8446V14.8468C17.4136 14.7724 17.4974 14.6746 17.5551 14.5616C17.6128 14.4485 17.6429 14.3234 17.6429 14.1964Z" fill="black"/>
    <path opacity="0.1" d="M17.6161 14.4016L11.7538 11.0625L11.6493 11.1214C11.5341 11.1959 11.4016 11.2395 11.2647 11.2481C11.1277 11.2567 10.9909 11.2301 10.8672 11.1707L12.889 13.882L17.3108 14.8446V14.8468C17.4607 14.7382 17.5686 14.5811 17.6161 14.4021V14.4016Z" fill="black"/>
    <path d="M4.97267 7.81607V7.81071H4.96731L4.95124 7.8C4.90003 7.76857 4.85782 7.72443 4.82872 7.67186C4.79962 7.61929 4.78462 7.56008 4.78517 7.5V14.1964C4.78503 14.302 4.80572 14.4066 4.84605 14.5041C4.88639 14.6017 4.94557 14.6903 5.02022 14.765C5.09486 14.8396 5.1835 14.8988 5.28106 14.9391C5.37862 14.9795 5.48318 15.0001 5.58874 15H16.8387C16.9057 14.9993 16.9723 14.9903 17.037 14.9732C17.0705 14.9674 17.103 14.9565 17.1334 14.9411C17.1448 14.94 17.1558 14.9363 17.1655 14.9304C17.2094 14.9124 17.2508 14.889 17.2887 14.8607C17.2995 14.8554 17.3048 14.8554 17.3102 14.8446L4.97267 7.81607Z" fill="#727272"/>
    <path opacity="0.1" d="M10.1423 12.1431V3.3927C10.1417 3.20348 10.0663 3.02217 9.93252 2.88837C9.79872 2.75457 9.61741 2.67915 9.42819 2.67859H5.87266V6.67288L4.97266 7.18609L4.96998 7.18716L4.96355 7.19091C4.90929 7.22224 4.86424 7.26729 4.83293 7.32156C4.80161 7.37582 4.78513 7.43737 4.78516 7.50002V7.5027V7.50002V12.8572H9.42819C9.61741 12.8566 9.79872 12.7812 9.93252 12.6474C10.0663 12.5136 10.1417 12.3323 10.1423 12.1431Z" fill="black"/>
    <path opacity="0.2" d="M9.60659 12.6788V3.92846C9.60602 3.73924 9.5306 3.55794 9.3968 3.42414C9.263 3.29034 9.0817 3.21492 8.89248 3.21436H5.87266V6.67293L4.97266 7.18614L4.96998 7.18721L4.96355 7.19096C4.90929 7.22229 4.86424 7.26735 4.83293 7.32161C4.80161 7.37587 4.78513 7.43742 4.78516 7.50007V7.50275V7.50007V13.3929H8.89248C9.0817 13.3924 9.263 13.3169 9.3968 13.1831C9.5306 13.0493 9.60602 12.868 9.60659 12.6788Z" fill="black"/>
    <path opacity="0.2" d="M9.60659 11.6074V3.92846C9.60602 3.73924 9.5306 3.55794 9.3968 3.42414C9.263 3.29034 9.0817 3.21492 8.89248 3.21436H5.87266V6.67293L4.97266 7.18614L4.96998 7.18721L4.96355 7.19096C4.90929 7.22229 4.86424 7.26735 4.83293 7.32161C4.80161 7.37587 4.78513 7.43742 4.78516 7.50007V7.50275V7.50007V12.3215H8.89248C9.0817 12.3209 9.263 12.2455 9.3968 12.1117C9.5306 11.9779 9.60602 11.7966 9.60659 11.6074Z" fill="black"/>
    <path opacity="0.2" d="M9.07087 11.6074V3.92846C9.07031 3.73924 8.99489 3.55794 8.86109 3.42414C8.72729 3.29034 8.54598 3.21492 8.35676 3.21436H5.87266V6.67293L4.97266 7.18614L4.96998 7.18721L4.96355 7.19096C4.90929 7.22229 4.86424 7.26735 4.83293 7.32161C4.80161 7.37587 4.78513 7.43742 4.78516 7.50007V7.50275V7.50007V12.3215H8.35676C8.54598 12.3209 8.72729 12.2455 8.86109 12.1117C8.99489 11.9779 9.07031 11.7966 9.07087 11.6074Z" fill="black"/>
    <path d="M1.21411 3.21436H8.35732C8.54671 3.21436 8.72835 3.28959 8.86227 3.42351C8.99619 3.55743 9.07143 3.73907 9.07143 3.92846V11.0717C9.07143 11.2611 8.99619 11.4427 8.86227 11.5766C8.72835 11.7105 8.54671 11.7858 8.35732 11.7858H1.21411C1.02471 11.7858 0.843078 11.7105 0.709157 11.5766C0.575236 11.4427 0.5 11.2611 0.5 11.0717L0.5 3.92846C0.5 3.73907 0.575236 3.55743 0.709157 3.42351C0.843078 3.28959 1.02471 3.21436 1.21411 3.21436Z" fill="#8B8B8B"/>
    <path d="M2.57238 6.14356C2.76213 5.73917 3.06846 5.40074 3.45202 5.17178C3.87696 4.92852 4.3608 4.80728 4.85023 4.82142C5.30342 4.81159 5.75059 4.92649 6.14291 5.15356C6.51221 5.37353 6.80962 5.69607 6.99898 6.08196C7.20527 6.5073 7.30807 6.97539 7.29898 7.44803C7.3089 7.94171 7.20304 8.43085 6.98988 8.87624C6.79639 9.27586 6.49001 9.60999 6.10863 9.83731C5.70092 10.0716 5.23677 10.1897 4.76666 10.1786C4.30353 10.1896 3.84623 10.0734 3.44452 9.84267C3.07227 9.62234 2.77136 9.29948 2.57773 8.91267C2.37003 8.49361 2.26587 8.03085 2.27398 7.56321C2.265 7.07353 2.36702 6.58818 2.57238 6.14356ZM3.50988 8.42464C3.61096 8.68028 3.7824 8.90206 4.00434 9.06428C4.2305 9.22257 4.50142 9.30424 4.77738 9.29731C5.07135 9.30875 5.36108 9.22433 5.60291 9.05678C5.82238 8.89465 5.98946 8.67169 6.08345 8.41553C6.18884 8.13013 6.24077 7.82777 6.23666 7.52356C6.23993 7.21648 6.19102 6.91106 6.09202 6.62035C6.00466 6.35882 5.84355 6.12813 5.62809 5.95606C5.39264 5.78009 5.10375 5.69061 4.81005 5.70267C4.52809 5.69554 4.2511 5.77787 4.0188 5.93785C3.79251 6.10035 3.61711 6.32387 3.51309 6.58231C3.28298 7.17481 3.28164 7.83174 3.50934 8.42517L3.50988 8.42464Z" fill="white"/>
</svg>