<svg width="19" height="19" viewBox="0 0 19 19" fill="none" xmlns="http://www.w3.org/2000/svg">
    <path d="M9.50349 0.617579C4.47444 0.617579 0.384611 4.70591 0.382822 9.7311C0.380345 11.4471 0.863562 13.1287 1.77661 14.5815L1.99353 14.9264L1.07234 18.2894L4.52304 17.3846L4.85624 17.582C6.25569 18.4126 7.86029 18.8518 9.49664 18.8527H9.50007C14.5252 18.8527 18.6151 14.7639 18.617 9.7384C18.6208 8.5406 18.387 7.35394 17.929 6.24712C17.4711 5.14031 16.7981 4.13533 15.9491 3.29036C15.1049 2.44077 14.1005 1.76708 12.9941 1.3083C11.8877 0.849515 10.7012 0.614744 9.50349 0.617579Z" fill="black"/>
    <path fill-rule="evenodd" clip-rule="evenodd" d="M7.24779 5.96031C7.0788 5.58493 6.90098 5.57732 6.74045 5.57082L6.30828 5.56555C6.15793 5.56555 5.91364 5.62196 5.70713 5.84761C5.50061 6.07326 4.91797 6.61862 4.91797 7.72785C4.91797 8.83709 5.72589 9.90892 5.83847 10.0595C5.95105 10.2101 7.39814 12.5589 9.68982 13.4626C11.5942 14.2137 11.9817 14.0643 12.3953 14.0268C12.8088 13.9892 13.7292 13.4814 13.9169 12.9549C14.1047 12.4285 14.1048 11.9774 14.0485 11.8831C13.9922 11.7888 13.8419 11.7327 13.6162 11.6199C13.3906 11.5071 12.2823 10.9617 12.0757 10.8864C11.869 10.8111 11.7188 10.7737 11.5683 10.9994C11.4179 11.225 10.9863 11.7326 10.8547 11.8831C10.7231 12.0336 10.5918 12.0525 10.3662 11.9398C10.1405 11.8271 9.4145 11.5889 8.55312 10.8208C7.88292 10.2232 7.43052 9.48521 7.29881 9.25969C7.1671 9.03416 7.28483 8.91202 7.39789 8.79968C7.49907 8.69863 7.6233 8.53639 7.73624 8.4048C7.84919 8.27321 7.88635 8.17915 7.9614 8.02892C8.03646 7.87869 7.99905 7.74674 7.94264 7.63404C7.88623 7.52134 7.44817 6.40634 7.24779 5.96044" fill="#E8E8ED"/>
</svg>