<svg width="338" height="471" viewBox="0 0 338 471" fill="none" xmlns="http://www.w3.org/2000/svg">
    <rect x="52.5" y="69.5" width="285" height="326" stroke="black"/>
    <path d="M57.0739 398.954H58.222C58.9628 398.954 59.4442 399.323 59.4442 400.247V400.728C59.4442 401.651 58.9998 402.021 58.222 402.021H57.0739V398.954V398.954ZM58.222 401.688C58.7776 401.688 59.0368 401.393 59.0368 400.765V400.21C59.0368 399.545 58.8146 399.286 58.222 399.286H57.4813V401.688H58.222Z" fill="black"/>
    <path d="M62.333 401.725V401.245C62.333 400.838 62.0367 400.765 61.7404 400.765H60.8516V402.021H60.4812V398.954H61.7775C62.4441 398.954 62.7404 399.213 62.7404 399.804V399.841C62.7404 400.247 62.5923 400.506 62.2589 400.58C62.5923 400.654 62.7404 400.912 62.7404 401.245V401.725C62.7404 401.836 62.7404 401.947 62.7774 401.984H62.4071C62.333 401.947 62.333 401.836 62.333 401.725V401.725ZM61.7404 400.432C62.0738 400.432 62.333 400.321 62.333 399.878V399.767C62.333 399.36 62.1108 399.249 61.7404 399.249H60.8516V400.395L61.7404 400.432V400.432Z" fill="black"/>
    <path d="M63.6663 401.651H64.2959V399.286H63.6663V398.954H65.3329V399.286H64.7033V401.651H65.3329V401.984H63.6663V401.651Z" fill="black"/>
    <path d="M66.3329 398.954H67.7033C68.2588 398.954 68.5551 399.176 68.5551 399.693V399.73C68.5551 400.099 68.407 400.284 68.1847 400.395C68.444 400.469 68.6662 400.728 68.6662 401.134V401.171C68.6662 401.762 68.3699 402.021 67.7774 402.021H66.37V398.954H66.3329ZM67.6292 400.247C67.8885 400.247 68.1477 400.173 68.1477 399.804V399.73C68.1477 399.36 67.9625 399.323 67.6662 399.323H66.7403V400.284H67.6292V400.247V400.247ZM67.7033 401.651C68.0736 401.651 68.2588 401.504 68.2588 401.134V401.06C68.2588 400.691 68.0736 400.58 67.7033 400.58H66.7403V401.651H67.7033Z" fill="black"/>
    <path d="M69.6661 398.954H71.0365C71.592 398.954 71.8883 399.176 71.8883 399.693V399.73C71.8883 400.099 71.7402 400.284 71.5179 400.395C71.7772 400.469 71.9994 400.728 71.9994 401.134V401.171C71.9994 401.762 71.7031 402.021 71.1105 402.021H69.7032V398.954H69.6661ZM70.9624 400.247C71.2217 400.247 71.4809 400.173 71.4809 399.804V399.73C71.4809 399.36 71.2957 399.323 70.9994 399.323H70.0735V400.284H70.9624V400.247V400.247ZM70.9994 401.651C71.3698 401.651 71.555 401.504 71.555 401.134V401.06C71.555 400.691 71.3698 400.58 70.9994 400.58H70.0365V401.651H70.9994Z" fill="black"/>
    <path d="M72.9623 398.954H73.3327V401.688H74.8882V402.021H72.9623V398.954Z" fill="black"/>
    <path d="M75.8141 398.954H77.74V399.286H76.1845V400.321H77.6659V400.654H76.1845V401.688H77.74V402.021H75.8141V398.954Z" fill="black"/>
    <path d="M75.0735 455.343H94.5915L105.184 444.479L116.295 452.313L131.22 440.23L174.737 450.502L198.478 434.243" stroke="black" stroke-miterlimit="10"/>
    <path d="M75.0735 425.301H95.4063L107.924 436.793L143.035 428.479L152.812 457.967L173.33 434.022L189.774 452.239L198.478 451.833" stroke="black" stroke-miterlimit="10"/>
    <path d="M75.0735 441.634L99.1469 412.589L117.665 419.462L154.368 409.411L160.145 420.091L180.552 417.356L185.737 421.901H198.478" stroke="black" stroke-miterlimit="10"/>
    <path d="M71.6291 428.701C73.5109 428.701 75.0364 427.179 75.0364 425.301C75.0364 423.423 73.5109 421.901 71.6291 421.901C69.7473 421.901 68.2218 423.423 68.2218 425.301C68.2218 427.179 69.7473 428.701 71.6291 428.701Z" stroke="black" stroke-miterlimit="10"/>
    <path d="M71.6291 458.743C73.5109 458.743 75.0364 457.221 75.0364 455.343C75.0364 453.465 73.5109 451.943 71.6291 451.943C69.7473 451.943 68.2218 453.465 68.2218 455.343C68.2218 457.221 69.7473 458.743 71.6291 458.743Z" stroke="black" stroke-miterlimit="10"/>
    <path d="M71.6291 445.033C73.5109 445.033 75.0364 443.511 75.0364 441.634C75.0364 439.756 73.5109 438.234 71.6291 438.234C69.7473 438.234 68.2218 439.756 68.2218 441.634C68.2218 443.511 69.7473 445.033 71.6291 445.033Z" stroke="black" stroke-miterlimit="10"/>
    <path d="M201.885 455.306C203.767 455.306 205.292 453.784 205.292 451.906C205.292 450.029 203.767 448.507 201.885 448.507C200.003 448.507 198.478 450.029 198.478 451.906C198.478 453.784 200.003 455.306 201.885 455.306Z" stroke="black" stroke-miterlimit="10"/>
    <path d="M201.885 425.301C203.767 425.301 205.292 423.779 205.292 421.901C205.292 420.024 203.767 418.502 201.885 418.502C200.003 418.502 198.478 420.024 198.478 421.901C198.478 423.779 200.003 425.301 201.885 425.301Z" stroke="black" stroke-miterlimit="10"/>
    <path d="M201.885 437.643C203.767 437.643 205.292 436.121 205.292 434.243C205.292 432.366 203.767 430.844 201.885 430.844C200.003 430.844 198.478 432.366 198.478 434.243C198.478 436.121 200.003 437.643 201.885 437.643Z" stroke="black" stroke-miterlimit="10"/>
    <rect x="52.5" y="395.5" width="168.625" height="74.9" stroke="black"/>
    <rect x="220.5" y="376.5" width="55.35" height="61.675" fill="#8F6CFF"/>
    <path d="M259.783 412.937H253.759H247.093C246.942 412.937 246.793 412.904 246.656 412.841C246.519 412.777 246.398 412.685 246.301 412.57C246.203 412.455 246.133 412.321 246.093 412.176C246.054 412.031 246.047 411.879 246.073 411.732L246.949 406.781C247.151 405.702 247.849 405.076 248.993 405.079L253.816 405.089C254.198 405.09 254.567 404.957 254.86 404.714C255.152 404.471 255.349 404.133 255.414 403.759L256.579 397.182C256.591 397.115 256.769 396.111 256.942 395.138C256.983 394.907 256.973 394.669 256.912 394.442C256.851 394.215 256.741 394.004 256.589 393.824C256.437 393.644 256.247 393.499 256.032 393.4C255.818 393.301 255.584 393.25 255.348 393.25H250.694C250.316 393.25 249.95 393.381 249.659 393.621C249.368 393.861 249.171 394.195 249.102 394.564L248.61 397.182H248.627L247.549 403.351C247.343 404.463 246.646 405.044 245.507 405.058H240.575C240.424 405.057 240.275 405.024 240.138 404.961C240.002 404.898 239.88 404.805 239.783 404.691C239.686 404.576 239.615 404.441 239.576 404.296C239.537 404.152 239.53 404 239.556 403.852L239.931 401.736C239.944 401.662 239.94 401.586 239.921 401.513C239.901 401.441 239.865 401.374 239.817 401.316C239.768 401.259 239.708 401.213 239.639 401.181C239.571 401.149 239.496 401.133 239.421 401.133H236.743C236.552 401.133 236.367 401.2 236.221 401.323C236.075 401.445 235.977 401.615 235.945 401.802L235.537 404.143C235.517 404.258 235.522 404.376 235.553 404.489C235.583 404.602 235.638 404.707 235.714 404.796C235.789 404.886 235.883 404.958 235.99 405.007C236.096 405.057 236.212 405.083 236.33 405.084L238.066 405.088C238.217 405.088 238.366 405.121 238.503 405.184C238.639 405.248 238.76 405.34 238.857 405.455C238.954 405.57 239.025 405.704 239.064 405.849C239.103 405.994 239.11 406.145 239.084 406.293L238.132 411.751C238.106 411.899 238.113 412.05 238.152 412.195C238.192 412.34 238.262 412.474 238.359 412.589C238.456 412.704 238.577 412.796 238.714 412.86C238.85 412.923 238.999 412.956 239.15 412.956L244.596 412.968C244.747 412.968 244.896 413.001 245.032 413.064C245.169 413.128 245.29 413.22 245.387 413.335C245.484 413.45 245.554 413.584 245.594 413.729C245.633 413.874 245.64 414.025 245.614 414.173L244.78 418.954C244.739 419.185 244.75 419.421 244.811 419.648C244.872 419.874 244.982 420.085 245.134 420.264C245.286 420.444 245.475 420.588 245.689 420.687C245.902 420.786 246.135 420.838 246.371 420.838L252.381 420.85L252.384 420.834L258.947 420.847C259.328 420.848 259.697 420.716 259.99 420.472C260.282 420.229 260.478 419.891 260.544 419.517L261.374 414.83C261.416 414.599 261.407 414.361 261.346 414.133C261.286 413.906 261.176 413.694 261.024 413.514C260.872 413.333 260.682 413.188 260.468 413.088C260.253 412.989 260.02 412.937 259.783 412.937V412.937Z" fill="black"/>
    <rect x="220.5" y="376.5" width="55.35" height="61.675" stroke="black"/>
    <g clip-path="url(#clip0_1616_14651)">
        <path d="M62.6576 -0.0634766H0V69.5957H62.6576V-0.0634766Z" fill="#D8EC16"/>
        <path d="M62.6576 -0.0634766H0V69.5957H62.6576V-0.0634766Z" stroke="black" stroke-miterlimit="10"/>
        <path d="M4.89618 5.28246V4.80534C4.89618 4.05559 5.27281 3.61255 5.99183 3.61255C6.71085 3.61255 7.05324 4.05559 7.05324 4.80534V5.24838C7.05324 5.99814 6.67661 6.47526 5.99183 6.47526C5.27281 6.47526 4.89618 6.03222 4.89618 5.28246ZM5.34129 5.79366L6.50542 4.12375C6.4027 3.98743 6.23151 3.91927 5.99183 3.91927C5.51248 3.91927 5.27281 4.22599 5.27281 4.80534V5.31654C5.27281 5.48694 5.27281 5.65734 5.34129 5.79366V5.79366ZM5.99183 6.16854C6.47118 6.16854 6.71085 5.86182 6.71085 5.28246V4.77126C6.71085 4.60086 6.67661 4.43047 6.64237 4.29415L5.51248 5.96406C5.58096 6.13446 5.75216 6.16854 5.99183 6.16854Z" fill="black"/>
        <path d="M7.90924 6.23661C7.90924 6.10029 8.01196 5.99805 8.14891 5.99805C8.28587 5.99805 8.38859 6.10029 8.38859 6.23661C8.38859 6.37292 8.28587 6.47516 8.14891 6.47516C8.01196 6.47516 7.90924 6.407 7.90924 6.23661Z" fill="black"/>
        <path d="M9.21033 5.28246V4.80534C9.21033 4.05559 9.58696 3.61255 10.306 3.61255C11.025 3.61255 11.3674 4.05559 11.3674 4.80534V5.24838C11.3674 5.99814 10.9908 6.47526 10.306 6.47526C9.58696 6.47526 9.21033 6.03222 9.21033 5.28246V5.28246ZM9.65544 5.79366L10.8196 4.12375C10.7168 3.98743 10.5457 3.91927 10.306 3.91927C9.82663 3.91927 9.58696 4.22599 9.58696 4.80534V5.31654C9.58696 5.48694 9.58696 5.65734 9.65544 5.79366V5.79366ZM10.306 6.16854C10.7853 6.16854 11.025 5.86182 11.025 5.28246V4.77126C11.025 4.60086 10.9908 4.43047 10.9565 4.29415L9.82663 5.96406C9.89511 6.13446 10.0663 6.16854 10.306 6.16854V6.16854Z" fill="black"/>
        <path d="M12.2576 5.28246V4.80534C12.2576 4.05559 12.6342 3.61255 13.3532 3.61255C14.0722 3.61255 14.4146 4.05559 14.4146 4.80534V5.24838C14.4146 5.99814 14.038 6.47526 13.3532 6.47526C12.6 6.47526 12.2576 6.03222 12.2576 5.28246ZM12.7027 5.79366L13.8668 4.12375C13.7641 3.98743 13.5929 3.91927 13.3532 3.91927C12.8739 3.91927 12.6342 4.22599 12.6342 4.80534V5.31654C12.6 5.48694 12.6342 5.65734 12.7027 5.79366ZM13.319 6.16854C13.7983 6.16854 14.038 5.86182 14.038 5.28246V4.77126C14.038 4.60086 14.0038 4.43047 13.9695 4.29415L12.8054 5.96406C12.9424 6.13446 13.1135 6.16854 13.319 6.16854Z" fill="black"/>
        <path d="M15.2706 5.28246V4.80534C15.2706 4.05559 15.6473 3.61255 16.3663 3.61255C17.0853 3.61255 17.4277 4.05559 17.4277 4.80534V5.24838C17.4277 5.99814 17.0511 6.47526 16.3663 6.47526C15.6473 6.47526 15.2706 6.03222 15.2706 5.28246ZM15.7157 5.79366L16.8799 4.12375C16.7772 3.98743 16.606 3.91927 16.3663 3.91927C15.8869 3.91927 15.6473 4.22599 15.6473 4.80534V5.31654C15.6473 5.48694 15.6473 5.65734 15.7157 5.79366ZM16.3663 6.16854C16.8456 6.16854 17.0853 5.86182 17.0853 5.28246V4.77126C17.0853 4.60086 17.0511 4.43047 17.0168 4.29415L15.8527 5.96406C15.9554 6.13446 16.1266 6.16854 16.3663 6.16854Z" fill="black"/>
        <path d="M18.3179 5.28246V4.80534C18.3179 4.05559 18.6946 3.61255 19.4136 3.61255C20.1326 3.61255 20.475 4.05559 20.475 4.80534V5.24838C20.475 5.99814 20.0984 6.47526 19.4136 6.47526C18.6603 6.47526 18.3179 6.03222 18.3179 5.28246ZM18.763 5.79366L19.9272 4.12375C19.8245 3.98743 19.6533 3.91927 19.4136 3.91927C18.9342 3.91927 18.6946 4.22599 18.6946 4.80534V5.31654C18.6603 5.48694 18.6946 5.65734 18.763 5.79366ZM19.3793 6.16854C19.8587 6.16854 20.0984 5.86182 20.0984 5.28246V4.77126C20.0984 4.60086 20.0641 4.43047 20.0299 4.29415L18.8658 5.96406C19.0027 6.13446 19.1739 6.16854 19.3793 6.16854Z" fill="black"/>
        <path d="M21.9815 6.13446V4.02151C21.8103 4.19191 21.5707 4.29415 21.2968 4.29415V3.95335C21.5707 3.95335 21.8103 3.88519 22.0158 3.61255H22.3582V6.13446H23.0429V6.44118H21.331V6.13446H21.9815Z" fill="black"/>
        <path d="M24.5495 5.07798L24.9261 4.94166C25.2685 4.83942 25.4739 4.73718 25.4739 4.39639V4.36231C25.4739 4.02151 25.2342 3.88519 24.8234 3.88519C24.344 3.88519 24.1044 4.05559 24.1044 4.49862V4.60086H23.7277V4.5327C23.7277 3.91927 24.0701 3.61255 24.7891 3.61255C25.4397 3.61255 25.7821 3.88519 25.7821 4.39639C25.7821 4.8735 25.4739 5.11206 25.063 5.2143L24.6864 5.35062C24.1386 5.48694 24.0359 5.69142 24.0359 6.13446H25.7821V6.44118H23.6935V6.10038C23.7277 5.62326 23.8647 5.24838 24.5495 5.07798V5.07798Z" fill="black"/>
        <path d="M31.7397 11.9961C28.3158 11.9961 24.9946 12.6777 21.8788 13.9727C18.8658 15.2337 16.1266 17.074 13.7984 19.3914C11.4701 21.7089 9.62119 24.4012 8.35434 27.4343C7.01901 30.5355 6.36847 33.8413 6.36847 37.2493C6.36847 40.6572 7.05325 43.963 8.35434 47.0643C9.62119 50.0633 11.4701 52.7897 13.7984 55.1071C16.1266 57.4245 18.8315 59.2648 21.8788 60.5258C24.9946 61.8549 28.3158 62.5024 31.7397 62.5024C35.1636 62.5024 38.4848 61.8208 41.6005 60.5258C44.6136 59.2648 47.3527 57.4245 49.681 55.1071C52.0092 52.7897 53.8581 50.0974 55.125 47.0643C56.4603 43.963 57.1109 40.6572 57.1109 37.2493C57.1109 33.8413 56.4261 30.5355 55.125 27.4343" stroke="black" stroke-miterlimit="10"/>
        <path d="M31.7397 18.4373C26.7065 18.4373 21.9473 20.3798 18.3864 23.9582C14.8255 27.5025 12.8397 32.2396 12.8397 37.2493C12.8397 42.2591 14.7913 46.9962 18.3864 50.5405C21.9815 54.0848 26.7065 56.0614 31.7397 56.0614C36.7728 56.0614 41.532 54.1189 45.0929 50.5405C48.6538 46.9621 50.6397 42.2591 50.6397 37.2493" stroke="black" stroke-miterlimit="10"/>
        <path d="M31.7397 24.9465C24.9261 24.9465 19.3793 30.4675 19.3793 37.2494C19.3793 44.0312 24.9261 49.5522 31.7397 49.5522" stroke="black" stroke-miterlimit="10"/>
        <path d="M25.1658 37.2493C25.1658 40.8617 28.1103 43.7926 31.7397 43.7926C35.369 43.7926 38.3136 40.8617 38.3136 37.2493" stroke="black" stroke-miterlimit="10"/>
    </g>
    <defs>
        <clipPath id="clip0_1616_14651">
            <rect width="63" height="70" fill="white"/>
        </clipPath>
    </defs>
</svg>
