<svg width="435" height="478" viewBox="0 0 435 478" fill="none" xmlns="http://www.w3.org/2000/svg">
    <path d="M175.66 366H1V476.52H175.66V366Z" stroke="black" stroke-miterlimit="10"/>
    <path d="M67.2681 388.041C69.312 388.041 70.9689 386.301 70.9689 384.154C70.9689 382.007 69.312 380.267 67.2681 380.267C65.2243 380.267 63.5674 382.007 63.5674 384.154C63.5674 386.301 65.2243 388.041 67.2681 388.041Z" stroke="black" stroke-miterlimit="10"/>
    <path d="M96.7652 418.704C98.8091 418.704 100.466 416.963 100.466 414.816C100.466 412.669 98.8091 410.929 96.7652 410.929C94.7213 410.929 93.0645 412.669 93.0645 414.816C93.0645 416.963 94.7213 418.704 96.7652 418.704Z" stroke="black" stroke-miterlimit="10"/>
    <path d="M105.241 439.711C107.285 439.711 108.942 437.971 108.942 435.824C108.942 433.677 107.285 431.937 105.241 431.937C103.197 431.937 101.54 433.677 101.54 435.824C101.54 437.971 103.197 439.711 105.241 439.711Z" stroke="black" stroke-miterlimit="10"/>
    <path d="M29.0787 439.711C31.1225 439.711 32.7794 437.971 32.7794 435.824C32.7794 433.677 31.1225 431.937 29.0787 431.937C27.0348 431.937 25.3779 433.677 25.3779 435.824C25.3779 437.971 27.0348 439.711 29.0787 439.711Z" stroke="black" stroke-miterlimit="10"/>
    <path d="M136.004 437.691C138.048 437.691 139.705 435.95 139.705 433.803C139.705 431.656 138.048 429.916 136.004 429.916C133.961 429.916 132.304 431.656 132.304 433.803C132.304 435.95 133.961 437.691 136.004 437.691Z" stroke="black" stroke-miterlimit="10"/>
    <path d="M139.659 433.562C154.379 436.643 159.729 453.294 176.117 454.415" stroke="black" stroke-miterlimit="10"/>
    <path d="M108.078 438.315C108.813 438.637 109.612 438.899 110.469 439.1C117.244 440.658 124.882 434.992 132.302 433.474" stroke="black" stroke-miterlimit="10"/>
    <path d="M97.5713 418.61C98.8944 424.316 100.083 429.547 102.48 433.347" stroke="black" stroke-miterlimit="10"/>
    <path d="M70.9629 384.402C82.2377 386.168 90.5852 396.803 93.9472 405.699C94.6183 407.485 95.1935 409.291 95.6985 411.09" stroke="black" stroke-miterlimit="10"/>
    <path d="M30.8809 432.427C32.1144 429.97 33.3097 427.277 34.5049 424.343C38.9279 413.447 42.6734 387.43 63.5804 384.436" stroke="black" stroke-miterlimit="10"/>
    <path d="M1 454.422C13.208 453.106 20.8588 448.446 27.0714 439.08" stroke="black" stroke-miterlimit="10"/>
    <path d="M13.25 377.876C14.48 377.876 15.122 377.072 15.122 375.734V374.93C15.122 373.604 14.48 372.8 13.25 372.8C11.996 372.8 11.348 373.604 11.348 374.93V375.734C11.348 377.072 11.99 377.876 13.25 377.876ZM11.984 375.794V374.876C11.984 373.856 12.41 373.34 13.25 373.34C13.64 373.34 13.94 373.46 14.144 373.694L12.128 376.658C12.032 376.424 11.984 376.142 11.984 375.794ZM12.35 377L14.36 374.054C14.444 374.276 14.486 374.546 14.486 374.87V375.788C14.486 376.82 14.066 377.336 13.25 377.336C12.86 377.336 12.56 377.222 12.35 377ZM17.2146 377.876C17.4426 377.876 17.6346 377.714 17.6346 377.462C17.6346 377.204 17.4426 377.042 17.2146 377.042C16.9866 377.042 16.8006 377.204 16.8006 377.462C16.8006 377.714 16.9866 377.876 17.2146 377.876ZM19.4606 377.24V377.816H23.1326V377.276H20.0906C20.0906 376.49 20.2226 376.136 21.2126 375.872L21.8606 375.644C22.5746 375.458 23.1386 375.062 23.1386 374.204C23.1386 373.256 22.4966 372.8 21.3746 372.8C20.1206 372.8 19.5086 373.37 19.5086 374.444V374.576H20.1446V374.414C20.1446 373.64 20.5466 373.34 21.3806 373.34C22.0946 373.34 22.5026 373.556 22.5026 374.15V374.186C22.5026 374.792 22.1126 374.99 21.5246 375.158L20.8946 375.38C19.7066 375.71 19.4606 376.34 19.4606 377.24ZM24.9907 377.24V377.816H28.6627V377.276H25.6207C25.6207 376.49 25.7527 376.136 26.7427 375.872L27.3907 375.644C28.1047 375.458 28.6687 375.062 28.6687 374.204C28.6687 373.256 28.0267 372.8 26.9047 372.8C25.6507 372.8 25.0387 373.37 25.0387 374.444V374.576H25.6747V374.414C25.6747 373.64 26.0767 373.34 26.9107 373.34C27.6247 373.34 28.0327 373.556 28.0327 374.15V374.186C28.0327 374.792 27.6427 374.99 27.0547 375.158L26.4247 375.38C25.2367 375.71 24.9907 376.34 24.9907 377.24ZM30.2568 373.4H33.0288C31.5048 374.576 31.2708 376.238 31.2708 377.756V377.816H31.8888V377.756C31.8888 376.178 32.1348 374.582 33.7368 373.4V372.86H30.2568V373.4ZM35.4059 377.276V377.816H38.4239V377.276H37.2239V372.86H36.6239C36.2879 373.298 35.8799 373.448 35.3879 373.448V374.018C35.8739 374.018 36.3179 373.856 36.6059 373.55V377.276H35.4059Z" fill="black"/>
    <path d="M175.5 476.657V365.863H433.5V476.657H175.5Z" stroke="black" stroke-miterlimit="10"/>
    <path d="M265.11 414.378H251V476.371H265.11V414.378Z" stroke="black" stroke-miterlimit="10"/>
    <path d="M205 425H191V476H205V425Z" stroke="black" stroke-miterlimit="10"/>
    <path d="M326 381H312V476H326V381Z" stroke="black" stroke-miterlimit="10"/>
    <path d="M279.22 437.984H265.11V476.361H279.22V437.984Z" stroke="black" stroke-miterlimit="10"/>
    <path d="M219 392H205V476H219V392Z" stroke="black" stroke-miterlimit="10"/>
    <path d="M340 423H326V476H340V423Z" stroke="black" stroke-miterlimit="10"/>
    <path d="M293.329 405H279.219V476.361H293.329V405Z" stroke="black" stroke-miterlimit="10"/>
    <path d="M233 408H219V476H233V408Z" stroke="black" stroke-miterlimit="10"/>
    <path d="M354 432H340V476H354V432Z" stroke="black" stroke-miterlimit="10"/>
    <path d="M387.568 389.227H373.619V476.819H387.568V389.227Z" stroke="black" stroke-miterlimit="10"/>
    <path d="M401.517 408.165H387.568V476.819H401.517V408.165Z" stroke="black" stroke-miterlimit="10"/>
    <path d="M415.326 424.672H401.378V476.765H415.326V424.672Z" stroke="black" stroke-miterlimit="10"/>
    <path d="M183.418 377.306C184.648 377.306 185.29 376.502 185.29 375.164V374.36C185.29 373.034 184.648 372.23 183.418 372.23C182.164 372.23 181.516 373.034 181.516 374.36V375.164C181.516 376.502 182.158 377.306 183.418 377.306ZM182.152 375.224V374.306C182.152 373.286 182.578 372.77 183.418 372.77C183.808 372.77 184.108 372.89 184.312 373.124L182.296 376.088C182.2 375.854 182.152 375.572 182.152 375.224ZM182.518 376.43L184.528 373.484C184.612 373.706 184.654 373.976 184.654 374.3V375.218C184.654 376.25 184.234 376.766 183.418 376.766C183.028 376.766 182.728 376.652 182.518 376.43ZM187.383 377.306C187.611 377.306 187.803 377.144 187.803 376.892C187.803 376.634 187.611 376.472 187.383 376.472C187.155 376.472 186.969 376.634 186.969 376.892C186.969 377.144 187.155 377.306 187.383 377.306ZM191.634 373.922C190.998 373.922 190.548 374.132 190.248 374.504L190.368 372.83H193.014V372.29H189.804L189.63 375.164H190.248C190.476 374.744 190.848 374.462 191.502 374.462C192.204 374.462 192.6 374.78 192.6 375.446V375.77C192.6 376.496 192.114 376.766 191.418 376.766C190.818 376.766 190.218 376.568 190.218 375.872V375.716H189.582V375.83C189.582 376.814 190.314 377.306 191.43 377.306C192.588 377.306 193.236 376.772 193.236 375.674V375.428C193.236 374.42 192.564 373.922 191.634 373.922ZM195.065 376.67V377.246H198.737V376.706H195.695C195.695 375.92 195.827 375.566 196.817 375.302L197.465 375.074C198.179 374.888 198.743 374.492 198.743 373.634C198.743 372.686 198.101 372.23 196.979 372.23C195.725 372.23 195.113 372.8 195.113 373.874V374.006H195.749V373.844C195.749 373.07 196.151 372.77 196.985 372.77C197.699 372.77 198.107 372.986 198.107 373.58V373.616C198.107 374.222 197.717 374.42 197.129 374.588L196.499 374.81C195.311 375.14 195.065 375.77 195.065 376.67ZM200.331 372.83H203.103C201.579 374.006 201.345 375.668 201.345 377.186V377.246H201.963V377.186C201.963 375.608 202.209 374.012 203.811 372.83V372.29H200.331V372.83ZM205.48 376.706V377.246H208.498V376.706H207.298V372.29H206.698C206.362 372.728 205.954 372.878 205.462 372.878V373.448C205.948 373.448 206.392 373.286 206.68 372.98V376.706H205.48Z" fill="black"/>
    <path d="M172.5 208.5V96.5H433.753V208.5H172.5Z" stroke="black" stroke-miterlimit="10"/>
    <path d="M180.375 108.006C181.611 108.006 182.187 107.514 182.187 106.626V106.548C182.187 105.96 181.923 105.546 181.371 105.402C181.881 105.282 182.145 104.88 182.139 104.346V104.28C182.139 103.506 181.641 102.93 180.381 102.93C179.211 102.93 178.623 103.398 178.611 104.4V104.49H179.241V104.376C179.253 103.644 179.733 103.47 180.381 103.47C181.053 103.47 181.509 103.662 181.509 104.268V104.412C181.509 104.988 181.047 105.144 180.405 105.144H179.733V105.684H180.411C181.077 105.684 181.557 105.828 181.557 106.482V106.644C181.557 107.208 181.197 107.466 180.369 107.466C179.577 107.466 179.175 107.232 179.163 106.518V106.386H178.533V106.494C178.545 107.526 179.127 108.006 180.375 108.006ZM187.196 107.946H187.82V106.278H189.302C190.406 106.278 190.928 105.738 190.928 104.658V104.592C190.928 103.506 190.394 102.99 189.302 102.99H187.196V107.946ZM187.82 105.738V103.524H189.29C189.986 103.524 190.28 103.818 190.28 104.514V104.73C190.28 105.432 189.986 105.738 189.29 105.738H187.82ZM194.715 108.006C196.077 108.006 196.779 107.07 196.779 105.864V105.06C196.779 103.866 196.077 102.93 194.715 102.93C193.347 102.93 192.645 103.866 192.645 105.06V105.864C192.645 107.07 193.347 108.006 194.715 108.006ZM193.287 105.924V105.006C193.287 104.118 193.755 103.488 194.715 103.488C195.669 103.488 196.137 104.118 196.137 105.006V105.924C196.137 106.824 195.669 107.448 194.715 107.448C193.755 107.448 193.287 106.824 193.287 105.924ZM198.579 107.946H201.249V107.382H200.223V103.554H201.249V102.99H198.579V103.554H199.599V107.382H198.579V107.946ZM203.247 107.946H203.847V104.076L206.385 107.946H206.991V102.99H206.391V106.86L203.853 102.99H203.247V107.946ZM210.357 107.946H210.981V103.536H212.523V102.99H208.821V103.536H210.357V107.946ZM214.349 107.946H217.487V107.4H214.973V105.744H217.355V105.192H214.973V103.536H217.487V102.99H214.349V107.946ZM222.623 107.946H223.253C223.187 107.856 223.187 107.664 223.187 107.502V106.716C223.187 106.158 222.923 105.768 222.413 105.636C222.935 105.486 223.193 105.096 223.193 104.418V104.382C223.193 103.404 222.689 102.99 221.621 102.99H219.527V107.946H220.151V105.912H221.609C222.089 105.912 222.551 106.044 222.551 106.71V107.502C222.551 107.67 222.551 107.868 222.623 107.946ZM220.151 105.378V103.524H221.561C222.209 103.524 222.545 103.686 222.545 104.352V104.508C222.545 105.222 222.173 105.378 221.609 105.378H220.151Z" fill="black"/>
    <path d="M198.236 182.285V167.983H363.391V182.285H198.236Z" stroke="black" stroke-miterlimit="10"/>
    <path d="M198.236 182.285V167.983H404.927V182.285H198.236Z" stroke="black" stroke-miterlimit="10"/>
    <path d="M197.736 192.162V187.451" stroke="black" stroke-miterlimit="10"/>
    <path d="M239.273 192.162V187.451" stroke="black" stroke-miterlimit="10"/>
    <path d="M280.812 192.162V187.451" stroke="black" stroke-miterlimit="10"/>
    <path d="M322.35 192.162V187.451" stroke="black" stroke-miterlimit="10"/>
    <path d="M363.887 192.162V187.451" stroke="black" stroke-miterlimit="10"/>
    <path d="M405.427 192.162V187.451" stroke="black" stroke-miterlimit="10"/>
    <path d="M198.236 137.524V123.222H280.314V137.524H198.236Z" stroke="black" stroke-miterlimit="10"/>
    <path d="M198.236 137.524V123.222H404.927V137.524H198.236Z" stroke="black" stroke-miterlimit="10"/>
    <path d="M197.736 147.401V142.69" stroke="black" stroke-miterlimit="10"/>
    <path d="M239.273 147.401V142.69" stroke="black" stroke-miterlimit="10"/>
    <path d="M280.812 147.401V142.69" stroke="black" stroke-miterlimit="10"/>
    <path d="M322.35 147.401V142.69" stroke="black" stroke-miterlimit="10"/>
    <path d="M363.887 147.401V142.69" stroke="black" stroke-miterlimit="10"/>
    <path d="M405.427 147.401V142.69" stroke="black" stroke-miterlimit="10"/>
    <rect x="87.5" y="0.5" width="85" height="96" fill="#00CEF5"/>
    <path d="M142.493 49.2758C141.806 47.6501 140.819 46.1861 139.596 44.9556C138.373 43.7251 136.789 42.6518 135.088 41.9602C133.517 41.318 131.803 40.9588 130.004 40.9588V47.5737C130.932 47.5737 131.812 47.7579 132.624 48.0902C133.499 48.445 134.289 48.9749 134.945 49.635C135.601 50.2952 136.083 51.0227 136.436 51.8625C136.793 52.7067 136.989 53.6318 136.989 54.6063C136.989 55.5809 136.806 56.4251 136.476 57.2424C136.123 58.1226 135.597 58.9175 134.941 59.5777C134.284 60.2378 133.561 60.7228 132.727 61.0776C131.888 61.4369 130.968 61.6345 129.999 61.6345C129.031 61.6345 128.192 61.4503 127.379 61.118C126.504 60.7632 125.714 60.2333 125.058 59.5732C124.402 58.913 123.92 58.1855 123.563 57.3457L117.506 59.928C118.193 61.5536 119.18 63.0176 120.403 64.2481C121.626 65.4786 123.21 66.5519 124.911 67.2435C126.482 67.8812 128.196 68.2449 129.995 68.2449C131.794 68.2449 133.664 67.8587 135.293 67.1627C136.909 66.4711 138.364 65.4786 139.587 64.2481C140.81 63.0176 141.877 61.4234 142.564 59.7124C143.198 58.1316 143.56 56.4072 143.56 54.5974C143.569 52.7112 143.185 50.9104 142.493 49.2758V49.2758Z" stroke="black" stroke-width="0.915493" stroke-miterlimit="10"/>
    <path d="M124.706 42.0366C123.09 42.7282 121.635 43.7207 120.412 44.9512C119.189 46.1816 118.122 47.7759 117.435 49.4869C116.801 51.0676 116.439 52.7921 116.439 54.6019C116.439 56.4117 116.823 58.2934 117.515 59.9325L123.572 57.3503C123.215 56.506 123.019 55.5809 123.019 54.6064C123.019 53.6319 123.202 52.7876 123.532 51.9703C123.885 51.0901 124.411 50.2952 125.068 49.6351C125.724 48.9749 126.447 48.4899 127.281 48.1351C128.121 47.7759 129.04 47.5783 130.009 47.5783V40.9633C128.125 40.9633 126.335 41.3405 124.706 42.0366V42.0366Z" stroke="black" stroke-width="0.915493" stroke-miterlimit="10"/>
    <path d="M121.84 74.9136C119.113 73.7999 116.654 72.1563 114.605 70.095C112.641 68.119 111.052 65.7703 109.949 63.1612C108.838 60.5341 108.226 57.642 108.226 54.6062C108.226 51.5704 108.793 48.9298 109.816 46.3925L100.366 42.5484C98.8664 46.2713 98.0361 50.3399 98.0361 54.6062C98.0361 58.8725 98.9378 63.3094 100.567 67.167C102.183 70.9976 104.517 74.4466 107.401 77.3477C110.409 80.3745 114.016 82.7905 118.02 84.4207C121.72 85.9296 125.764 86.7649 130.004 86.7649V76.5124C127.116 76.5124 124.362 75.942 121.84 74.9136V74.9136Z" stroke="black" stroke-width="0.915493" stroke-miterlimit="10"/>
    <path d="M159.436 42.0455C157.821 38.2148 155.486 34.7614 152.603 31.8648L145.394 39.113C147.358 41.0889 148.947 43.4376 150.049 46.0468C151.161 48.6739 151.772 51.566 151.772 54.6018C151.772 57.6376 151.206 60.2782 150.183 62.8155C149.081 65.5594 147.443 68.0338 145.394 70.0951C143.43 72.071 141.095 73.6698 138.502 74.779C135.891 75.8972 133.016 76.5124 129.999 76.5124V86.765C134.427 86.765 138.649 85.8578 142.484 84.2187C146.291 82.593 149.719 80.2443 152.603 77.3432C155.611 74.3164 158.012 70.6879 159.633 66.6596C161.133 62.9367 161.963 58.8681 161.963 54.6018C161.967 50.1469 161.066 45.9031 159.436 42.0455Z" stroke="black" stroke-width="0.915493" stroke-miterlimit="10"/>
    <path d="M141.99 24.7873C138.289 23.2783 134.245 22.4431 130.005 22.4431C125.764 22.4431 121.354 23.3502 117.52 24.9893C113.713 26.615 110.285 28.9637 107.401 31.8648C104.393 34.8916 101.991 38.5202 100.371 42.5484L109.82 46.3925C110.923 43.6487 112.561 41.1742 114.61 39.1129C116.574 37.137 118.908 35.5383 121.502 34.429C124.113 33.3108 126.987 32.6956 130.005 32.6956C133.022 32.6956 135.647 33.2659 138.169 34.2943C140.896 35.4035 143.355 37.0517 145.404 39.1129L152.613 31.8648C149.6 28.838 145.993 26.4174 141.99 24.7873V24.7873Z" stroke="black" stroke-width="0.915493" stroke-miterlimit="10"/>
    <path d="M96.6299 11.2049C97.8599 11.2049 98.5019 10.4009 98.5019 9.0629V8.2589C98.5019 6.9329 97.8599 6.1289 96.6299 6.1289C95.3759 6.1289 94.7279 6.9329 94.7279 8.2589V9.0629C94.7279 10.4009 95.3699 11.2049 96.6299 11.2049ZM95.3639 9.1229V8.2049C95.3639 7.1849 95.7899 6.6689 96.6299 6.6689C97.0199 6.6689 97.3199 6.7889 97.5239 7.0229L95.5079 9.9869C95.4119 9.7529 95.3639 9.4709 95.3639 9.1229ZM95.7299 10.3289L97.7399 7.3829C97.8239 7.6049 97.8659 7.8749 97.8659 8.1989V9.1169C97.8659 10.1489 97.4459 10.6649 96.6299 10.6649C96.2399 10.6649 95.9399 10.5509 95.7299 10.3289ZM100.595 11.2049C100.823 11.2049 101.015 11.0429 101.015 10.7909C101.015 10.5329 100.823 10.3709 100.595 10.3709C100.367 10.3709 100.181 10.5329 100.181 10.7909C100.181 11.0429 100.367 11.2049 100.595 11.2049ZM104.846 7.8209C104.21 7.8209 103.76 8.0309 103.46 8.4029L103.58 6.7289H106.226V6.1889H103.016L102.842 9.0629H103.46C103.688 8.6429 104.06 8.3609 104.714 8.3609C105.416 8.3609 105.812 8.6789 105.812 9.3449V9.6689C105.812 10.3949 105.326 10.6649 104.63 10.6649C104.03 10.6649 103.43 10.4669 103.43 9.7709V9.6149H102.794V9.7289C102.794 10.7129 103.526 11.2049 104.642 11.2049C105.8 11.2049 106.448 10.6709 106.448 9.5729V9.3269C106.448 8.3189 105.776 7.8209 104.846 7.8209ZM108.277 10.5689V11.1449H111.949V10.6049H108.907C108.907 9.8189 109.039 9.4649 110.029 9.2009L110.677 8.9729C111.391 8.7869 111.955 8.3909 111.955 7.5329C111.955 6.5849 111.313 6.1289 110.191 6.1289C108.937 6.1289 108.325 6.6989 108.325 7.7729V7.9049H108.961V7.7429C108.961 6.9689 109.363 6.6689 110.197 6.6689C110.911 6.6689 111.319 6.8849 111.319 7.4789V7.5149C111.319 8.1209 110.929 8.3189 110.341 8.4869L109.711 8.7089C108.523 9.0389 108.277 9.6689 108.277 10.5689ZM113.543 6.7289H116.315C114.791 7.9049 114.557 9.5669 114.557 11.0849V11.1449H115.175V11.0849C115.175 9.5069 115.421 7.9109 117.023 6.7289V6.1889H113.543V6.7289ZM118.692 10.6049V11.1449H121.71V10.6049H120.51V6.1889H119.91C119.574 6.6269 119.166 6.7769 118.674 6.7769V7.3469C119.16 7.3469 119.604 7.1849 119.892 6.8789V10.6049H118.692Z" fill="black"/>
    <rect x="87.5" y="0.5" width="85" height="96" stroke="black"/>
    <rect x="0.5" y="0.5" width="87" height="96" fill="#E8E8ED"/>
    <path d="M11.0479 11.5285V10.9143C11.0479 9.87481 11.5739 9.26059 12.5783 9.26059C13.5826 9.26059 14.0609 9.87481 14.0609 10.9143V11.5285C14.0609 12.5679 13.5348 13.2294 12.5783 13.2294C11.5739 13.2294 11.0479 12.5679 11.0479 11.5285ZM11.6696 12.2845L13.2957 9.96931C13.1522 9.78032 12.9131 9.68582 12.5783 9.68582C11.9087 9.68582 11.5739 10.1111 11.5739 10.9143V11.623C11.5739 11.8592 11.5739 12.0955 11.6696 12.2845ZM12.5783 12.8042C13.2479 12.8042 13.5826 12.379 13.5826 11.5757V10.867C13.5826 10.6308 13.5348 10.3945 13.487 10.2055L11.9087 12.5207C12.0044 12.7097 12.2435 12.8042 12.5783 12.8042Z" fill="black"/>
    <path d="M15.209 12.8987C15.209 12.7097 15.3525 12.568 15.5438 12.568C15.7351 12.568 15.8786 12.7097 15.8786 12.8987C15.8786 13.0877 15.7351 13.2294 15.5438 13.2294C15.3525 13.2294 15.209 13.0877 15.209 12.8987Z" fill="black"/>
    <path d="M16.835 9.26059H19.6089V9.68582C18.3176 10.6308 18.1263 11.8592 18.1263 13.1349V13.1822H17.648V13.1349C17.648 11.9537 17.8393 10.6308 19.035 9.68582H16.835V9.26059Z" fill="black"/>
    <path d="M20.709 11.8592V10.8198C20.709 9.82756 21.1872 9.26059 22.1916 9.26059C23.1003 9.26059 23.4829 9.73307 23.4829 10.3473V10.3945H23.0046V10.3473C23.0046 9.92206 22.7177 9.73307 22.1916 9.73307C21.5699 9.73307 21.1872 10.0166 21.1872 10.678V11.056C21.4264 10.7253 21.809 10.5835 22.2872 10.5835C23.1003 10.5835 23.5785 11.0088 23.5785 11.812V12.001C23.5785 12.8042 23.1003 13.2767 22.0959 13.2767C21.1872 13.2294 20.709 12.7569 20.709 11.8592ZM22.1916 12.8042C22.8133 12.8042 23.1481 12.5679 23.1481 12.001V11.7647C23.1481 11.1978 22.8133 11.0088 22.2394 11.0088C21.6655 11.0088 21.2351 11.245 21.2351 11.7647V12.001C21.2351 12.5679 21.5699 12.8042 22.1916 12.8042Z" fill="black"/>
    <path d="M24.8213 12.1427V12.0482C24.8213 11.5285 25.1082 11.1978 25.5387 11.1033C25.1561 11.0088 24.9169 10.7253 24.9169 10.3001V10.2056C24.9169 9.59133 25.3952 9.21335 26.3039 9.21335C27.2126 9.21335 27.643 9.59133 27.643 10.2056V10.3001C27.643 10.7725 27.3561 11.0088 27.0213 11.1033C27.4517 11.1978 27.7387 11.5285 27.7387 12.0482V12.1427C27.7387 12.8514 27.2604 13.2294 26.3039 13.2294C25.2995 13.2294 24.8213 12.8514 24.8213 12.1427ZM26.3039 12.8042C26.9256 12.8042 27.2604 12.6152 27.2604 12.1427V11.9537C27.2604 11.4812 26.8778 11.2923 26.3039 11.2923C25.73 11.2923 25.3474 11.434 25.3474 11.9537V12.1427C25.3474 12.6152 25.6822 12.8042 26.3039 12.8042ZM26.3039 10.9143C26.83 10.9143 27.1648 10.7725 27.1648 10.3473V10.2056C27.1648 9.82757 26.8778 9.63858 26.3039 9.63858C25.73 9.63858 25.443 9.82757 25.443 10.2056V10.3473C25.443 10.7725 25.7778 10.9143 26.3039 10.9143Z" fill="black"/>
    <path d="M28.9824 11.5285V10.9143C28.9824 9.87481 29.5085 9.26059 30.5129 9.26059C31.5172 9.26059 31.9955 9.87481 31.9955 10.9143V11.5285C31.9955 12.5679 31.4694 13.2294 30.5129 13.2294C29.5085 13.2294 28.9824 12.5679 28.9824 11.5285ZM29.6042 12.2845L31.2303 9.96931C31.0868 9.78032 30.8476 9.68582 30.5129 9.68582C29.8433 9.68582 29.5085 10.1111 29.5085 10.9143V11.623C29.4607 11.8592 29.5085 12.0955 29.6042 12.2845ZM30.465 12.8042C31.1346 12.8042 31.4694 12.379 31.4694 11.5757V10.867C31.4694 10.6308 31.4216 10.3945 31.3737 10.2055L29.7955 12.5207C29.9389 12.7097 30.1781 12.8042 30.465 12.8042Z" fill="black"/>
    <path d="M6.40918 45.3108V63.076" stroke="black" stroke-miterlimit="10"/>
    <path d="M12.1953 44.4131V62.1783" stroke="black" stroke-miterlimit="10"/>
    <path d="M17.9824 43.7043V61.4696" stroke="black" stroke-miterlimit="10"/>
    <path d="M23.7217 43.8461V61.6113" stroke="black" stroke-miterlimit="10"/>
    <path d="M41.083 48.9961V66.7613" stroke="black" stroke-miterlimit="10"/>
    <path d="M46.8213 48.2401V66.0054" stroke="black" stroke-miterlimit="10"/>
    <path d="M52.6084 45.8777V63.5957" stroke="black" stroke-miterlimit="10"/>
    <path d="M35.2959 48.0039V65.7691" stroke="black" stroke-miterlimit="10"/>
    <path d="M29.5088 44.98V62.7453" stroke="black" stroke-miterlimit="10"/>
    <path d="M58.3955 43.7043V61.4696" stroke="black" stroke-miterlimit="10"/>
    <path d="M64.1348 44.6021V62.3673" stroke="black" stroke-miterlimit="10"/>
    <path d="M75.709 47.2007V64.9659" stroke="black" stroke-miterlimit="10"/>
    <path d="M69.9219 45.169V62.9342" stroke="black" stroke-miterlimit="10"/>
    <path d="M81.4961 47.7204V65.4856" stroke="black" stroke-miterlimit="10"/>
    <rect x="0.5" y="0.5" width="87" height="96" stroke="black"/>
</svg>
