<svg width="519" height="724" viewBox="0 0 519 724" fill="none" xmlns="http://www.w3.org/2000/svg">
    <rect x="0.5" y="88.5" width="518" height="546" stroke="black"/>
    <g clip-path="url(#clip0_680_4217)">
        <path d="M379.783 635.217H300.217V723.783H379.783V635.217Z" fill="#00CEF5" stroke="black" stroke-miterlimit="10"/>
        <path d="M310.044 645.582V645.001C310.044 644.043 310.514 643.462 311.422 643.462C312.331 643.462 312.779 644.043 312.779 645.001V645.582C312.779 646.548 312.314 647.129 311.422 647.129C310.531 647.129 310.044 646.548 310.044 645.582ZM310.609 646.249L312.07 644.108C311.922 643.939 311.705 643.852 311.422 643.852C310.814 643.852 310.505 644.225 310.505 644.962V645.625C310.505 645.876 310.54 646.08 310.609 646.249ZM311.422 646.739C312.014 646.739 312.318 646.366 312.318 645.621V644.957C312.318 644.723 312.288 644.528 312.227 644.368L310.77 646.496C310.922 646.657 311.14 646.739 311.422 646.739Z" fill="black"/>
        <path d="M313.853 646.83C313.853 646.644 313.988 646.527 314.153 646.527C314.318 646.527 314.457 646.644 314.457 646.83C314.457 647.016 314.318 647.129 314.153 647.129C313.988 647.129 313.853 647.012 313.853 646.83Z" fill="black"/>
        <path d="M315.327 643.51H317.849V643.9C316.688 644.754 316.51 645.907 316.51 647.047V647.09H316.062V647.047C316.062 645.95 316.231 644.749 317.336 643.9H315.327V643.51Z" fill="black"/>
        <path d="M318.845 645.881V644.91C318.845 643.999 319.271 643.462 320.21 643.462C321.032 643.462 321.384 643.887 321.401 644.45V644.507H320.945V644.45C320.927 644.064 320.671 643.869 320.21 643.869C319.649 643.869 319.305 644.138 319.305 644.736V645.1C319.518 644.806 319.858 644.671 320.31 644.671C321.053 644.671 321.501 645.061 321.501 645.781V645.972C321.501 646.722 321.066 647.129 320.171 647.129C319.262 647.129 318.845 646.717 318.845 645.881ZM320.171 646.739C320.753 646.739 321.04 646.509 321.04 646.019V645.785C321.04 645.274 320.745 645.07 320.205 645.07C319.666 645.07 319.305 645.282 319.305 645.755V645.993C319.305 646.527 319.597 646.739 320.171 646.739Z" fill="black"/>
        <path d="M322.588 646.145V646.054C322.588 645.564 322.853 645.287 323.245 645.187C322.914 645.1 322.671 644.849 322.671 644.437V644.359C322.671 643.8 323.101 643.462 323.919 643.462C324.736 643.462 325.158 643.8 325.158 644.359V644.437C325.158 644.849 324.91 645.1 324.588 645.187C324.975 645.287 325.241 645.569 325.241 646.058V646.145C325.241 646.778 324.814 647.129 323.914 647.129C323.014 647.129 322.588 646.778 322.588 646.145ZM323.914 646.752C324.493 646.752 324.784 646.579 324.784 646.141V645.989C324.784 645.543 324.458 645.395 323.914 645.395C323.371 645.395 323.045 645.538 323.045 645.989V646.141C323.045 646.579 323.336 646.752 323.914 646.752ZM323.914 645.009C324.38 645.009 324.701 644.866 324.701 644.489V644.368C324.701 644.004 324.432 643.839 323.914 643.839C323.397 643.839 323.127 644.004 323.127 644.368V644.493C323.127 644.866 323.445 645.009 323.914 645.009Z" fill="black"/>
        <path d="M326.345 645.582V645.001C326.345 644.043 326.814 643.462 327.723 643.462C328.632 643.462 329.08 644.043 329.08 645.001V645.582C329.08 646.548 328.615 647.129 327.723 647.129C326.832 647.129 326.345 646.548 326.345 645.582ZM326.91 646.249L328.371 644.108C328.223 643.939 328.006 643.852 327.723 643.852C327.115 643.852 326.806 644.225 326.806 644.962V645.625C326.806 645.876 326.841 646.08 326.91 646.249ZM327.723 646.739C328.315 646.739 328.619 646.366 328.619 645.621V644.957C328.619 644.723 328.589 644.528 328.528 644.368L327.071 646.496C327.223 646.657 327.441 646.739 327.723 646.739Z" fill="black"/>
        <path d="M305.844 676.559V692.854" stroke="black" stroke-miterlimit="10"/>
        <path d="M311.092 675.744V692.039" stroke="black" stroke-miterlimit="10"/>
        <path d="M316.34 675.085V691.38" stroke="black" stroke-miterlimit="10"/>
        <path d="M321.588 675.232V691.527" stroke="black" stroke-miterlimit="10"/>
        <path d="M337.337 679.931V696.226" stroke="black" stroke-miterlimit="10"/>
        <path d="M342.585 679.259V695.554" stroke="black" stroke-miterlimit="10"/>
        <path d="M347.833 677.066V693.357" stroke="black" stroke-miterlimit="10"/>
        <path d="M332.089 679.051V695.342" stroke="black" stroke-miterlimit="10"/>
        <path d="M326.841 676.281V692.576" stroke="black" stroke-miterlimit="10"/>
        <path d="M353.081 675.111V691.406" stroke="black" stroke-miterlimit="10"/>
        <path d="M358.329 675.926V692.216" stroke="black" stroke-miterlimit="10"/>
        <path d="M368.825 678.314V694.609" stroke="black" stroke-miterlimit="10"/>
        <path d="M363.577 676.442V692.737" stroke="black" stroke-miterlimit="10"/>
        <path d="M374.078 678.791V695.086" stroke="black" stroke-miterlimit="10"/>
    </g>
    <g clip-path="url(#clip1_680_4217)">
        <path d="M79.7826 0.216797H0.2174V88.7833H79.7826V0.216797Z" fill="#D8EC16" stroke="black" stroke-miterlimit="10"/>
        <path d="M5.92641 6.7018V6.12092C5.92641 5.16291 6.396 4.58203 7.30474 4.58203C8.21349 4.58203 8.66134 5.16291 8.66134 6.12092V6.7018C8.66134 7.66849 8.19609 8.24936 7.30474 8.24936C6.41339 8.24936 5.92641 7.66849 5.92641 6.7018ZM6.49165 7.36938L7.9526 5.22793C7.80477 5.05887 7.58737 4.97217 7.30474 4.97217C6.69601 4.97217 6.3873 5.34498 6.3873 6.08191V6.74515C6.3873 6.99658 6.42209 7.20032 6.49165 7.36938ZM7.30474 7.85922C7.89608 7.85922 8.20044 7.48642 8.20044 6.74082V6.07757C8.20044 5.84349 8.17001 5.64842 8.10913 5.48803L6.65253 7.61647C6.80472 7.77686 7.02212 7.85922 7.30474 7.85922Z" fill="black"/>
        <path d="M9.73531 7.95029C9.73531 7.76389 9.8701 7.64685 10.0353 7.64685C10.2005 7.64685 10.3397 7.76389 10.3397 7.95029C10.3397 8.1367 10.2005 8.2494 10.0353 8.2494C9.8701 8.2494 9.73531 8.13236 9.73531 7.95029Z" fill="black"/>
        <path d="M11.4093 6.7018V6.12092C11.4093 5.16291 11.8789 4.58203 12.7877 4.58203C13.6964 4.58203 14.1442 5.16291 14.1442 6.12092V6.7018C14.1442 7.66849 13.679 8.24936 12.7877 8.24936C11.8963 8.24936 11.4093 7.66849 11.4093 6.7018ZM11.9746 7.36938L13.4355 5.22793C13.2877 5.05887 13.0703 4.97217 12.7877 4.97217C12.1789 4.97217 11.8702 5.34498 11.8702 6.08191V6.74515C11.8702 6.99658 11.905 7.20032 11.9746 7.36938ZM12.7877 7.85922C13.379 7.85922 13.6834 7.48642 13.6834 6.74082V6.07757C13.6834 5.84349 13.6529 5.64842 13.592 5.48803L12.1354 7.61647C12.2876 7.77686 12.505 7.85922 12.7877 7.85922Z" fill="black"/>
        <path d="M16.2878 6.44604L16.7444 6.28565C17.1705 6.16427 17.4531 6.02122 17.4531 5.5834V5.55739C17.4531 5.12823 17.1574 4.97217 16.64 4.97217C16.0356 4.97217 15.7443 5.18892 15.7443 5.74812V5.86516H15.2834V5.7698C15.2834 4.99385 15.7269 4.58203 16.6357 4.58203C17.4488 4.58203 17.914 4.91148 17.914 5.5964C17.914 6.21629 17.5053 6.5024 16.9879 6.63678L16.5183 6.8015C15.8009 6.99224 15.7052 7.248 15.7052 7.81587H17.9097V8.20601H15.2486V7.78986C15.2486 7.13963 15.4269 6.68446 16.2878 6.44604Z" fill="black"/>
        <path d="M21.1925 7.08759H21.6273V7.47774H21.1925V8.206H20.7403V7.47774H18.8749V7.07025L20.749 4.62537H21.1925V7.08759ZM20.7403 7.08759V5.27127L19.3097 7.08759H20.7403Z" fill="black"/>
        <path d="M22.6664 7.00091V6.02989C22.6664 5.11956 23.0926 4.58203 24.0317 4.58203C24.8535 4.58203 25.2057 5.00685 25.2231 5.57039V5.62674H24.7666V5.57039C24.7492 5.18458 24.4926 4.98951 24.0317 4.98951C23.4708 4.98951 23.1273 5.25828 23.1273 5.85649V6.22063C23.3404 5.92585 23.6795 5.79147 24.1317 5.79147C24.8753 5.79147 25.3231 6.18161 25.3231 6.90121V7.09194C25.3231 7.84188 24.8883 8.24936 23.9926 8.24936C23.0839 8.24936 22.6664 7.83755 22.6664 7.00091ZM23.9926 7.85922C24.5752 7.85922 24.8622 7.62947 24.8622 7.13963V6.90554C24.8622 6.39402 24.5665 6.19028 24.0274 6.19028C23.4882 6.19028 23.1273 6.40269 23.1273 6.8752V7.11362C23.1273 7.64681 23.4187 7.85922 23.9926 7.85922Z" fill="black"/>
        <path d="M79.7565 49.8992C63.5426 48.343 52.3463 42.1397 43.1415 37.0418C36.4933 33.3572 30.7495 30.1753 24.6274 29.4124C15.54 28.281 7.11778 30.9903 0.269581 34.662L0.195663 34.2111C7.08299 30.5395 15.5443 27.8475 24.6796 28.9832C30.8843 29.7549 36.6629 32.954 43.3502 36.6604C52.5159 41.7366 63.6643 47.9181 79.7956 49.4657L79.7522 49.8992H79.7565Z" fill="black"/>
        <path d="M79.8435 37.5794C72.243 31.8183 60.3902 25.2856 47.1286 26.9328C41.0066 27.6958 35.2671 30.8776 28.6146 34.5623C21.0707 38.7368 12.192 43.6569 0.308716 46.1538L0.32176 45.7073C12.0963 43.2147 20.9142 38.3293 28.4015 34.1808C35.0932 30.4744 40.8674 27.2753 47.0721 26.5037C60.3424 24.8564 72.1952 31.2937 79.8696 37.0592L79.8435 37.5837V37.5794Z" fill="black"/>
        <path d="M79.7696 55.8726C75.7041 54.377 72.8909 52.539 70.2473 50.8051C65.5818 47.7533 61.1772 44.8663 51.081 44.5628C45.1764 44.3851 41.537 46.0974 36.9281 48.2648C30.1277 51.464 21.2925 55.6125 0.300013 56.8913L0.269577 56.4621C21.1838 55.192 29.9712 51.0608 36.7411 47.8747C41.4022 45.6812 45.0851 43.9559 51.0897 44.1293C61.3077 44.4371 65.7644 47.3545 70.4777 50.441C73.0909 52.1489 75.865 53.9652 79.8696 55.4434L79.7652 55.8683L79.7696 55.8726Z" fill="black"/>
    </g>
    <g clip-path="url(#clip2_680_4217)">
        <path d="M518.786 547.214H380.214V634.785H518.786V547.214Z" stroke="black" stroke-miterlimit="10"/>
        <path d="M386.519 551.535H388.024C388.804 551.535 389.186 551.904 389.186 552.681V552.728C389.186 553.5 388.813 553.886 388.024 553.886H386.965V555.079H386.519V551.535ZM388.011 553.5C388.508 553.5 388.719 553.281 388.719 552.779V552.625C388.719 552.127 388.508 551.917 388.011 551.917H386.96V553.5H388.011Z" fill="black"/>
        <path d="M391.146 551.535H391.729L392.896 555.079H392.42L392.201 554.384H390.674L390.455 555.079H389.984L391.146 551.535ZM392.077 553.994L391.459 552.024L391.438 551.964L391.416 552.024L390.799 553.994H392.077Z" fill="black"/>
        <path d="M393.736 553.951V553.826H394.195V553.994C394.195 554.513 394.495 554.732 395.147 554.732C395.692 554.732 395.94 554.569 395.94 554.178V554.135C395.94 553.74 395.713 553.629 395.31 553.522L394.65 553.32C394.199 553.178 393.839 552.951 393.839 552.419C393.839 551.823 394.272 551.492 395.061 551.492C395.893 551.492 396.335 551.861 396.335 552.535V552.642H395.876V552.518C395.876 552.071 395.619 551.878 395.061 551.878C394.564 551.878 394.298 552.037 394.298 552.38V552.41C394.298 552.741 394.56 552.869 394.89 552.96L395.563 553.161C396.035 553.303 396.404 553.513 396.404 554.127C396.404 554.8 396.005 555.122 395.134 555.122C394.186 555.122 393.736 554.714 393.736 553.951Z" fill="black"/>
        <path d="M397.386 553.951V553.826H397.845V553.994C397.845 554.513 398.145 554.732 398.797 554.732C399.341 554.732 399.59 554.569 399.59 554.178V554.135C399.59 553.74 399.363 553.629 398.96 553.522L398.299 553.32C397.849 553.178 397.489 552.951 397.489 552.419C397.489 551.823 397.922 551.492 398.711 551.492C399.543 551.492 399.985 551.861 399.985 552.535V552.642H399.526V552.518C399.526 552.071 399.268 551.878 398.711 551.878C398.213 551.878 397.948 552.037 397.948 552.38V552.41C397.948 552.741 398.209 552.869 398.539 552.96L399.213 553.161C399.684 553.303 400.053 553.513 400.053 554.127C400.053 554.8 399.654 555.122 398.784 555.122C397.836 555.122 397.386 554.714 397.386 553.951Z" fill="black"/>
        <path d="M390.34 600.585C391.285 600.585 392.051 599.819 392.051 598.873C392.051 597.928 391.285 597.161 390.34 597.161C389.395 597.161 388.629 597.928 388.629 598.873C388.629 599.819 389.395 600.585 390.34 600.585Z" stroke="black" stroke-miterlimit="10"/>
        <path d="M399.586 600.585C401.184 600.585 402.481 599.288 402.481 597.689C402.481 596.089 401.184 594.793 399.586 594.793C397.987 594.793 396.691 596.089 396.691 597.689C396.691 599.288 397.987 600.585 399.586 600.585Z" stroke="black" stroke-miterlimit="10"/>
        <path d="M410.817 600.589C413.072 600.589 414.9 598.761 414.9 596.505C414.9 594.249 413.072 592.42 410.817 592.42C408.563 592.42 406.735 594.249 406.735 596.505C406.735 598.761 408.563 600.589 410.817 600.589Z" stroke="black" stroke-miterlimit="10"/>
        <path d="M424.648 600.585C427.556 600.585 429.914 598.226 429.914 595.316C429.914 592.406 427.556 590.047 424.648 590.047C421.739 590.047 419.382 592.406 419.382 595.316C419.382 598.226 421.739 600.585 424.648 600.585Z" stroke="black" stroke-miterlimit="10"/>
        <path d="M440.546 600.589C444.11 600.589 447 597.698 447 594.132C447 590.566 444.11 587.675 440.546 587.675C436.981 587.675 434.091 590.566 434.091 594.132C434.091 597.698 436.981 600.589 440.546 600.589Z" stroke="black" stroke-miterlimit="10"/>
        <path d="M457.987 600.585C462.205 600.585 465.625 597.164 465.625 592.944C465.625 588.723 462.205 585.302 457.987 585.302C453.769 585.302 450.349 588.723 450.349 592.944C450.349 597.164 453.769 600.585 457.987 600.585Z" stroke="black" stroke-miterlimit="10"/>
        <path d="M478.19 600.585C483.062 600.585 487.012 596.634 487.012 591.759C487.012 586.885 483.062 582.934 478.19 582.934C473.318 582.934 469.369 586.885 469.369 591.759C469.369 596.634 473.318 600.585 478.19 600.585Z" stroke="black" stroke-miterlimit="10"/>
        <path d="M500.907 600.59C506.435 600.59 510.916 596.106 510.916 590.575C510.916 585.045 506.435 580.561 500.907 580.561C495.379 580.561 490.897 585.045 490.897 590.575C490.897 596.106 495.379 600.59 500.907 600.59Z" stroke="black" stroke-miterlimit="10"/>
    </g>
    <defs>
        <clipPath id="clip0_680_4217">
            <rect width="80" height="89" fill="white" transform="translate(300 635)"/>
        </clipPath>
        <clipPath id="clip1_680_4217">
            <rect width="80" height="89" fill="white"/>
        </clipPath>
        <clipPath id="clip2_680_4217">
            <rect width="139" height="88" fill="white" transform="translate(380 547)"/>
        </clipPath>
    </defs>
</svg>
