<svg width="130" height="31" viewBox="0 0 130 31" fill="none" xmlns="http://www.w3.org/2000/svg">
    <path d="M26.2069 21.4619H19.6991H12.497C12.3339 21.4619 12.1728 21.4262 12.025 21.3574C11.8772 21.2885 11.7462 21.1881 11.6413 21.0633C11.5364 20.9385 11.46 20.7922 11.4176 20.6347C11.3752 20.4773 11.3677 20.3124 11.3958 20.1518L12.342 14.7708C12.5603 13.5982 13.3137 12.9169 14.5503 12.9205L19.761 12.9315C20.173 12.9328 20.5723 12.7885 20.8882 12.524C21.2041 12.2595 21.4164 11.8918 21.4875 11.4859L22.7452 4.33695C22.7583 4.26417 22.9505 3.17239 23.1375 2.11554C23.1822 1.86401 23.1712 1.60574 23.1053 1.35893C23.0393 1.11211 22.9201 0.882769 22.7559 0.687058C22.5917 0.491348 22.3865 0.334035 22.1549 0.226208C21.9233 0.118382 21.6709 0.0626665 21.4154 0.0629897H16.3874C15.9791 0.0625974 15.5836 0.205226 15.2695 0.466102C14.9555 0.726978 14.7427 1.08962 14.6682 1.49104L14.1361 4.33695H14.1543L12.9898 11.042C12.767 12.2509 12.0144 12.8827 10.7844 12.8973H5.45574C5.29271 12.8971 5.13167 12.8613 4.98391 12.7924C4.83616 12.7235 4.70524 12.6232 4.60034 12.4984C4.49544 12.3736 4.41908 12.2273 4.37661 12.0699C4.33415 11.9125 4.3266 11.7477 4.3545 11.5871L4.75991 9.28637C4.7738 9.20603 4.76997 9.12363 4.74869 9.04493C4.72741 8.96623 4.6892 8.89312 4.63672 8.83073C4.58424 8.76834 4.51876 8.71817 4.44487 8.68372C4.37098 8.64927 4.29045 8.63138 4.20893 8.6313H1.3157C1.1092 8.63116 0.90932 8.7042 0.751554 8.83745C0.593789 8.9707 0.488339 9.15554 0.453921 9.35915L0.0128409 11.903C-0.00885657 12.0281 -0.00300344 12.1565 0.0299922 12.2791C0.0629879 12.4018 0.122333 12.5158 0.20389 12.6131C0.285446 12.7105 0.387254 12.7889 0.502215 12.8428C0.617176 12.8968 0.742525 12.9251 0.869526 12.9256L2.74521 12.93C2.90816 12.9302 3.06909 12.9661 3.21673 13.035C3.36438 13.104 3.49516 13.2044 3.59993 13.3292C3.7047 13.454 3.78092 13.6002 3.82325 13.7576C3.86558 13.9149 3.87301 14.0796 3.845 14.2401L2.81654 20.1729C2.78866 20.3334 2.79618 20.4981 2.83856 20.6554C2.88094 20.8127 2.95717 20.9588 3.06191 21.0836C3.16666 21.2084 3.29739 21.3088 3.44497 21.3778C3.59255 21.4468 3.75341 21.4827 3.91633 21.483L9.79958 21.4954C9.96253 21.4956 10.1235 21.5315 10.2711 21.6004C10.4187 21.6694 10.5495 21.7698 10.6543 21.8946C10.7591 22.0194 10.8353 22.1656 10.8776 22.323C10.92 22.4803 10.9274 22.645 10.8994 22.8055L9.99828 28.0017C9.95433 28.2527 9.96581 28.5102 10.0319 28.7563C10.098 29.0023 10.2172 29.231 10.381 29.4261C10.5448 29.6213 10.7493 29.7782 10.9802 29.886C11.211 29.9937 11.4627 30.0497 11.7175 30.0499L18.2099 30.063L18.2136 30.0455L25.3036 30.0601C25.7155 30.0613 26.1146 29.9169 26.4304 29.6524C26.7462 29.3879 26.9583 29.0203 27.0294 28.6146L27.9261 23.5196C27.9716 23.2679 27.9613 23.0093 27.8959 22.7621C27.8305 22.5149 27.7116 22.285 27.5476 22.0887C27.3837 21.8925 27.1786 21.7346 26.9469 21.6263C26.7152 21.518 26.4626 21.4619 26.2069 21.4619Z" fill="black"/>
    <path d="M46.943 21.0462H39.4199V5.38425C39.4199 5.32225 39.4077 5.26086 39.3839 5.20359C39.3602 5.14632 39.3254 5.09429 39.2815 5.05048C39.2376 5.00668 39.1856 4.97195 39.1283 4.94829C39.0709 4.92463 39.0095 4.9125 38.9475 4.9126H36.7385C36.6134 4.9126 36.4934 4.96229 36.405 5.05074C36.3165 5.13919 36.2668 5.25916 36.2668 5.38425V23.3623C36.2668 23.4874 36.3165 23.6075 36.4049 23.696C36.4934 23.7846 36.6133 23.8344 36.7385 23.8346H46.943C47.0682 23.8344 47.1881 23.7846 47.2766 23.696C47.365 23.6075 47.4147 23.4874 47.4147 23.3623V21.5179C47.4147 21.3928 47.365 21.2728 47.2765 21.1844C47.1881 21.0959 47.0681 21.0462 46.943 21.0462Z" fill="black"/>
    <path d="M56.8626 15.4609L56.6442 15.3845C56.0765 15.185 55.3697 14.9368 54.9803 14.8328L54.9483 14.8226C54.2932 14.57 53.8565 14.3778 53.6505 14.249C53.2138 13.9681 52.8106 13.6129 52.8106 12.925C52.8106 11.9228 53.6782 11.251 54.9709 11.251C56.0496 11.251 56.9361 11.5261 57.6188 12.0713C57.711 12.1471 57.8285 12.1853 57.9477 12.1782C58.0669 12.171 58.179 12.1191 58.2615 12.0327L59.2434 10.9919C59.328 10.9012 59.3741 10.7811 59.3718 10.6571C59.3695 10.5331 59.319 10.4148 59.231 10.3273C58.1756 9.27486 56.7949 8.76172 55.0327 8.76172C53.601 8.76172 52.4074 9.14603 51.3855 9.93429C50.4276 10.6949 49.9618 11.703 49.9618 13.016C49.9618 14.9303 51.0215 16.1269 53.5188 17.0192C53.8827 17.1699 54.465 17.354 54.9265 17.5025C55.0975 17.5571 55.2518 17.6066 55.3748 17.6481C55.8494 17.806 56.5001 18.0237 56.8436 18.2435C57.5082 18.5943 57.8888 19.1373 57.8888 19.7312C57.8888 20.1956 57.6705 21.7103 54.8515 21.7103C53.3354 21.7103 51.9525 21.176 51.0601 20.2786C50.9771 20.1932 50.8649 20.1423 50.7459 20.1362C50.627 20.1302 50.5101 20.1693 50.4189 20.2458L49.2157 21.2648C49.1242 21.3418 49.0652 21.4505 49.0505 21.5691C49.0358 21.6878 49.0665 21.8076 49.1364 21.9046C50.2129 23.3916 52.2298 24.2337 54.7904 24.2337C58.5155 24.2337 60.7391 22.5415 60.7391 19.7072C60.7362 17.6932 59.5775 16.4246 56.8626 15.4609Z" fill="black"/>
    <path d="M70.8493 8.88232C69.2822 8.88232 66.6277 9.61527 65.6626 11.2115V9.68296C65.6626 9.55781 65.6129 9.43777 65.5245 9.3492C65.436 9.26063 65.3161 9.21078 65.1909 9.21059H63.1333C63.0081 9.21078 62.8882 9.26063 62.7997 9.3492C62.7113 9.43777 62.6616 9.55781 62.6616 9.68296V27.8793C62.6615 27.9413 62.6737 28.0027 62.6973 28.0601C62.721 28.1174 62.7557 28.1694 62.7995 28.2133C62.8433 28.2572 62.8953 28.292 62.9526 28.3157C63.0099 28.3395 63.0713 28.3517 63.1333 28.3517H65.1909C65.2529 28.3517 65.3143 28.3395 65.3716 28.3157C65.4289 28.292 65.4809 28.2572 65.5247 28.2133C65.5685 28.1694 65.6032 28.1174 65.6269 28.0601C65.6505 28.0027 65.6627 27.9413 65.6626 27.8793V21.8381C66.4537 23.2873 68.9379 24.1673 70.8493 24.1673C72.9084 24.1673 74.6545 23.4394 76.0381 21.9946C77.4655 20.5091 78.1591 18.7193 78.1591 16.5241C78.1591 14.3289 77.4662 12.5413 76.036 11.0819C74.6618 9.62255 72.9171 8.88232 70.8493 8.88232ZM73.8007 20.0724C72.8858 21.0186 71.7307 21.4997 70.3667 21.4997C68.9881 21.4997 67.7945 21.0222 66.8162 20.076C65.87 19.1298 65.3925 17.9368 65.3925 16.5255C65.3925 15.1142 65.8715 13.9191 66.8199 12.9707C67.7945 12.0288 68.9881 11.5514 70.3667 11.5514C71.7307 11.5514 72.8865 12.0318 73.7971 12.9751C74.7214 13.8994 75.1902 15.0938 75.1902 16.5255C75.1902 17.9572 74.7193 19.1524 73.8007 20.0724Z" fill="black"/>
    <path d="M88.0113 8.76172C85.787 8.76172 83.8756 9.51578 82.3297 11.0035C80.7837 12.4912 80.0056 14.3451 80.0056 16.5257C80.0056 18.7064 80.7873 20.5639 82.3297 22.048C83.872 23.5321 85.787 24.2898 88.0113 24.2898C90.2356 24.2898 92.1477 23.5357 93.6937 22.048C95.2396 20.5602 96.0177 18.7057 96.0177 16.5257C96.0177 14.3458 95.236 12.4876 93.6937 11.0035C92.1513 9.51942 90.2356 8.76172 88.0113 8.76172ZM91.5923 20.1672C90.6279 21.1316 89.4226 21.6229 88.0113 21.6229C86.5796 21.6229 85.3648 21.1331 84.3931 20.1614C83.4396 19.1424 82.9767 17.9538 82.9767 16.5272C82.9767 15.1006 83.4542 13.8938 84.3968 12.92C85.3648 11.9184 86.5476 11.4322 88.0113 11.4322C89.435 11.4322 90.641 11.9323 91.5923 12.9163C92.5567 13.8807 93.048 15.0955 93.048 16.5272C93.048 17.9589 92.572 19.1555 91.5923 20.1672Z" fill="black"/>
    <path d="M106.4 8.92232C106.295 8.91795 106.182 8.91577 106.069 8.91577C104.055 8.91577 101.903 9.78556 101.216 11.3024V9.6873C101.216 9.56214 101.166 9.4421 101.078 9.35353C100.989 9.26497 100.869 9.21511 100.744 9.21492H98.7165C98.5914 9.21511 98.4714 9.26497 98.383 9.35353C98.2945 9.4421 98.2449 9.56214 98.2449 9.6873V23.3637C98.2449 23.4888 98.2945 23.6089 98.383 23.6975C98.4714 23.786 98.5914 23.8359 98.7165 23.8361H100.744C100.869 23.8359 100.989 23.786 101.078 23.6975C101.166 23.6089 101.216 23.4888 101.216 23.3637V16.1317C101.216 13.4598 102.955 11.7326 105.646 11.7326C105.875 11.7326 106.106 11.7428 106.336 11.7631C106.401 11.7688 106.467 11.7609 106.528 11.7399C106.59 11.7189 106.647 11.6852 106.695 11.6411C106.743 11.597 106.781 11.5434 106.807 11.4837C106.833 11.424 106.846 11.3595 106.846 11.2944V9.39179C106.846 9.27138 106.8 9.15557 106.717 9.06823C106.634 8.98088 106.521 8.92866 106.4 8.92232Z" fill="black"/>
    <path d="M115.645 9.21349H112.193V5.38425C112.193 5.25909 112.143 5.13913 112.054 5.0507C111.966 4.96227 111.846 4.9126 111.72 4.9126H109.663C109.538 4.9126 109.418 4.96229 109.329 5.05074C109.241 5.13919 109.191 5.25916 109.191 5.38425V19.4035C109.191 22.6737 110.701 24.2633 113.809 24.2633C114.3 24.2633 114.961 24.2328 115.514 24.1782C115.63 24.1663 115.737 24.1116 115.815 24.0248C115.893 23.938 115.936 23.8253 115.935 23.7087V22.0186C115.935 21.9539 115.922 21.8899 115.896 21.8305C115.87 21.7712 115.833 21.7178 115.785 21.6737C115.738 21.6296 115.682 21.5957 115.621 21.5741C115.56 21.5526 115.495 21.5439 115.43 21.5485C115.047 21.5747 114.66 21.5907 114.411 21.5907C112.876 21.5907 112.191 20.7937 112.191 19.0068V11.884H115.643C115.768 11.884 115.888 11.8343 115.976 11.7458C116.065 11.6574 116.115 11.5374 116.115 11.4123V9.68733C116.115 9.56229 116.066 9.44221 115.978 9.35339C115.89 9.26457 115.77 9.21426 115.645 9.21349Z" fill="black"/>
    <path d="M125.697 15.4607L125.478 15.3842C124.911 15.1848 124.204 14.9366 123.815 14.8325L123.782 14.8223C123.127 14.5698 122.691 14.3776 122.485 14.2488C122.048 13.9678 121.644 13.6134 121.644 12.9248C121.644 11.9226 122.512 11.2508 123.804 11.2508C124.883 11.2508 125.77 11.5259 126.453 12.071C126.545 12.1469 126.663 12.1851 126.782 12.1779C126.901 12.1708 127.013 12.1188 127.096 12.0325L128.076 10.9938C128.161 10.9031 128.207 10.783 128.204 10.6589C128.202 10.5348 128.151 10.4166 128.063 10.3293C127.008 9.27681 125.628 8.76367 123.865 8.76367C122.434 8.76367 121.239 9.14798 120.218 9.93625C119.26 10.6969 118.794 11.7049 118.794 13.018C118.794 14.9322 119.854 16.1288 122.351 17.0212C122.715 17.1719 123.297 17.356 123.758 17.5045C123.93 17.5591 124.085 17.6086 124.207 17.6501C124.682 17.808 125.333 18.0256 125.676 18.2454C126.34 18.597 126.722 19.1392 126.722 19.7332C126.722 20.1975 126.503 21.7122 123.684 21.7122C122.168 21.7122 120.784 21.1772 119.893 20.2805C119.81 20.1951 119.698 20.1443 119.579 20.1382C119.46 20.1321 119.343 20.1713 119.252 20.2478L118.048 21.2668C117.957 21.3439 117.898 21.4526 117.883 21.5711C117.868 21.6897 117.899 21.8095 117.968 21.9065C119.046 23.3936 121.062 24.2357 123.623 24.2357C127.348 24.2357 129.572 22.5434 129.572 19.7092C129.57 17.693 128.41 16.4243 125.697 15.4607Z" fill="black"/>
</svg>
