<svg width="126" height="29" viewBox="0 0 126 29" fill="none" xmlns="http://www.w3.org/2000/svg">
    <path d="M26.5042 22.3723L25.6505 27.2302C25.5139 28.0261 24.8173 28.6093 24.0114 28.6093L17.2844 28.5956V28.6093L11.1242 28.5956C10.093 28.5956 9.31441 27.6625 9.49198 26.647L10.3457 21.693C10.4549 21.0412 9.96321 20.4443 9.30075 20.4443L3.72107 20.4305C3.06544 20.4305 2.56689 19.8336 2.67616 19.1818L3.65278 13.528C3.76205 12.8761 3.27033 12.2792 2.60787 12.2792L0.825374 12.2723C0.313163 12.2723 -0.0761168 11.8058 0.0126664 11.298L0.429264 8.87593C0.497559 8.47797 0.845863 8.18293 1.2488 8.18293H3.99425C4.32207 8.18293 4.57476 8.48483 4.52012 8.80732L4.13767 10.9961C4.02157 11.6479 4.52012 12.2449 5.18258 12.2449H10.2364C11.4042 12.2312 12.1145 11.6274 12.3262 10.4746L13.4326 4.08667H13.4121L13.9175 1.36955C14.0609 0.580483 14.7507 0.0109863 15.5497 0.0109863H20.3167C21.3479 0.0109863 22.1333 0.944138 21.9489 1.96649C21.7714 2.97512 21.587 4.01119 21.5733 4.08667L20.3782 10.9C20.2416 11.696 19.545 12.2792 18.7391 12.2792L13.7946 12.2655C12.6199 12.2586 11.9096 12.9104 11.6979 14.0289L10.7964 19.1543C10.6803 19.8062 11.1789 20.4031 11.8413 20.4031H24.8446C25.9032 20.4168 26.6886 21.35 26.5042 22.3723V22.3723Z" fill="black"/>
    <path d="M44.548 20.0189H37.4044V5.09531C37.4044 4.8483 37.2063 4.64246 36.9536 4.64246H34.857C34.6111 4.64246 34.4062 4.84144 34.4062 5.09531V22.2283C34.4062 22.4753 34.6043 22.6811 34.857 22.6811H44.5412C44.7871 22.6811 44.9919 22.4821 44.9919 22.2283V20.4717C44.9919 20.2179 44.7939 20.0189 44.548 20.0189V20.0189Z" fill="black"/>
    <path d="M74.2565 10.5226C72.9521 9.1297 71.2994 8.42297 69.3325 8.42297C67.8437 8.42297 65.3236 9.12284 64.4153 10.6461V9.19145C64.4153 8.94444 64.2172 8.7386 63.9645 8.7386H62.0113C61.7654 8.7386 61.5605 8.93758 61.5605 9.19145V26.5302C61.5605 26.7772 61.7586 26.9831 62.0113 26.9831H63.9645C64.2104 26.9831 64.4153 26.7841 64.4153 26.5302V20.7735C65.1665 22.1527 67.5227 22.9966 69.3325 22.9966C71.2857 22.9966 72.9453 22.2967 74.2565 20.9245C75.6088 19.511 76.2712 17.8025 76.2712 15.7098C76.2712 13.6171 75.6156 11.9154 74.2565 10.5226V10.5226ZM72.1326 19.0925C71.2652 19.9982 70.1657 20.451 68.8749 20.451C67.5841 20.451 66.4368 19.9982 65.508 19.0925C64.6133 18.1936 64.1557 17.0546 64.1557 15.7098C64.1557 14.365 64.6133 13.226 65.508 12.3203C66.43 11.4214 67.5637 10.9686 68.8749 10.9686C70.1862 10.9686 71.2652 11.4283 72.1257 12.3271C72.9999 13.2054 73.4507 14.3444 73.4507 15.7098C73.4507 17.0752 73.0067 18.2142 72.1326 19.0925Z" fill="black"/>
    <path d="M91.0082 10.4473C89.5399 9.02694 87.7301 8.31335 85.6198 8.31335C83.5095 8.31335 81.6928 9.0338 80.2313 10.4473C78.7698 11.8607 78.0254 13.6309 78.0254 15.71C78.0254 17.789 78.7698 19.5592 80.2313 20.9727C81.6997 22.393 83.5095 23.1066 85.6198 23.1066C87.7301 23.1066 89.5467 22.3861 91.0082 20.9727C92.4697 19.5592 93.2141 17.789 93.2141 15.71C93.2141 13.6309 92.4697 11.8607 91.0082 10.4473V10.4473ZM89.014 19.1818C88.0989 20.1013 86.9583 20.5678 85.6198 20.5678C84.2812 20.5678 83.1065 20.1013 82.1845 19.175C81.2831 18.2075 80.8391 17.0685 80.8391 15.71C80.8391 14.3514 81.2899 13.1987 82.1845 12.2724C83.1065 11.3187 84.2266 10.8521 85.6129 10.8521C86.9993 10.8521 88.1057 11.3324 89.0072 12.2655C89.9223 13.185 90.3867 14.3445 90.3867 15.71C90.3936 17.0822 89.9428 18.2144 89.014 19.1818V19.1818Z" fill="black"/>
    <path d="M103.063 8.46426C102.961 8.4574 102.858 8.4574 102.749 8.4574C100.837 8.4574 98.7946 9.28763 98.1458 10.7354V9.19157C98.1458 8.94456 97.9477 8.73872 97.695 8.73872H95.7691C95.5233 8.73872 95.3184 8.9377 95.3184 9.19157V22.2282C95.3184 22.4753 95.5164 22.6811 95.7691 22.6811H97.695C97.9409 22.6811 98.1458 22.4821 98.1458 22.2282V15.3394C98.1458 12.7938 99.7985 11.1471 102.346 11.1471C102.564 11.1471 102.783 11.1539 103.002 11.1745C103.261 11.1951 103.486 10.9893 103.486 10.7285V8.91711C103.486 8.6701 103.302 8.47112 103.063 8.46426V8.46426Z" fill="black"/>
    <path d="M111.832 8.74558H108.554V5.09531C108.554 4.8483 108.356 4.64246 108.103 4.64246H106.15C105.904 4.64246 105.699 4.84144 105.699 5.09531V18.4545C105.699 21.5696 107.133 23.0859 110.077 23.0859C110.541 23.0859 111.17 23.0585 111.696 23.0036C111.921 22.983 112.098 22.784 112.098 22.5576V20.952C112.098 20.6913 111.88 20.4855 111.62 20.506C111.258 20.5335 110.89 20.5472 110.657 20.5472C109.203 20.5472 108.547 19.7856 108.547 18.084V11.298H111.825C112.071 11.298 112.276 11.099 112.276 10.8452V9.19843C112.283 8.94456 112.078 8.74558 111.832 8.74558V8.74558Z" fill="black"/>
    <path d="M125.196 18.7426C125.196 20.012 124.711 21.0824 123.803 21.8371C122.826 22.6399 121.371 23.0653 119.596 23.0653C117.103 23.0653 115.116 22.1802 114.146 20.6433C114.057 20.506 114.084 20.3208 114.207 20.2178L115.689 18.9622C115.744 18.9142 115.812 18.8867 115.887 18.8867C115.983 18.8867 116.072 18.9279 116.14 19.0034C116.925 19.9022 118.237 20.4374 119.65 20.4374C122.02 20.4374 122.273 19.2778 122.273 18.7769C122.273 18.2761 121.959 17.8438 121.406 17.5488C121.085 17.3429 120.504 17.1508 120.081 17.0067C119.971 16.9724 119.828 16.9244 119.671 16.8763C119.241 16.7391 118.715 16.5676 118.366 16.4235C116.024 15.5795 115.02 14.4337 115.02 12.5948C115.02 11.3392 115.464 10.3717 116.379 9.63755C117.349 8.88966 118.469 8.526 119.814 8.526C121.563 8.526 122.956 9.0955 123.967 10.2276C124.076 10.3511 124.069 10.5364 123.953 10.6599L122.703 11.991C122.642 12.0528 122.56 12.0939 122.471 12.0939C122.389 12.0939 122.307 12.0596 122.246 12.0047C121.631 11.4284 120.791 11.1402 119.753 11.1402C118.715 11.1402 117.929 11.696 117.929 12.5262C117.929 13.0545 118.209 13.3427 118.626 13.6103C119.254 14.0151 119.965 14.2278 120.648 14.4268C120.941 14.516 121.242 14.6052 121.535 14.7081C124.103 15.607 125.196 16.8146 125.196 18.7426V18.7426Z" fill="black"/>
    <path d="M59.259 17.7065C59.259 21.0137 56.9438 22.9829 53.0647 22.9829C49.9983 22.9829 47.6353 21.6586 46.4128 19.2571C46.3377 19.1131 46.3923 18.9278 46.5289 18.8386L48.2226 17.7614C48.2704 17.727 48.3319 17.7133 48.3933 17.7133C48.5026 17.7133 48.605 17.7682 48.6597 17.8643C49.6158 19.4904 51.1115 20.3069 53.092 20.3069C54.6355 20.3069 56.2814 19.6414 56.2814 17.7819C56.2814 16.9105 55.9536 16.3136 55.1887 15.8059C54.4374 15.2844 53.8911 15.0374 52.5183 14.5296C50.9612 13.9395 49.9778 13.4798 48.8987 12.6084C47.9016 11.7782 47.4167 10.6323 47.4167 9.11598C47.4167 7.6888 47.9289 6.55667 48.9807 5.6441C50.0461 4.74526 51.3232 4.31299 52.8871 4.31299C55.134 4.31299 56.8824 5.1638 58.098 6.84485C58.1458 6.91346 58.1663 6.9958 58.1527 7.085C58.139 7.1742 58.0912 7.24967 58.0161 7.2977L56.4385 8.39553C56.3838 8.42984 56.3224 8.45042 56.2541 8.45042C56.1585 8.45042 56.0765 8.40925 56.015 8.34064C55.2911 7.44865 54.253 6.9958 52.9349 6.9958C51.4325 6.9958 50.3397 7.8672 50.3397 9.06795C50.3397 9.54138 50.449 9.90504 50.7017 10.255C51.1115 10.8313 51.7398 11.1058 52.3408 11.3734C52.3954 11.4008 52.4569 11.4214 52.5115 11.4489C52.9691 11.6547 53.4335 11.84 53.8842 12.0252C54.8472 12.4163 55.8443 12.8211 56.7458 13.3838C57.3536 13.768 57.7975 14.1248 58.1527 14.5159C58.8902 15.3118 59.259 16.3822 59.259 17.7065V17.7065Z" fill="black"/>
</svg>
