<svg xmlns="http://www.w3.org/2000/svg" xmlns:xlink="http://www.w3.org/1999/xlink" width="235.151" height="53.465" viewBox="0 0 235.151 53.465">
  <defs>
    <clipPath id="clip-path">
      <rect id="Rectangle_293" data-name="Rectangle 293" width="235.151" height="53.465" fill="none"/>
    </clipPath>
  </defs>
  <g id="Group_832" data-name="Group 832" clip-path="url(#clip-path)">
    <path id="Path_1021" data-name="Path 1021" d="M49.781,41.8l-1.6,9.082A3.124,3.124,0,0,1,45.1,53.465l-12.635-.027v.027l-11.571-.027A3.107,3.107,0,0,1,17.828,49.8l1.6-9.261A1.992,1.992,0,0,0,17.469,38.2l-10.48-.025A2,2,0,0,1,5.026,35.84L6.861,25.27A1.992,1.992,0,0,0,4.9,22.935H1.55A1.57,1.57,0,0,1,.023,21.1l.782-4.528a1.568,1.568,0,0,1,1.539-1.3H7.5a1.007,1.007,0,0,1,.988,1.168l-.718,4.092a1.986,1.986,0,0,0,1.962,2.335h9.493a3.676,3.676,0,0,0,3.925-3.309L25.229,7.62h-.039l.949-5.081A3.11,3.11,0,0,1,29.206,0h8.953a3.107,3.107,0,0,1,3.066,3.655c-.334,1.886-.681,3.823-.706,3.965L38.275,20.357A3.126,3.126,0,0,1,35.2,22.935l-9.287-.025a3.689,3.689,0,0,0-3.938,3.3l-1.693,9.582a1.986,1.986,0,0,0,1.962,2.335H46.664A3.148,3.148,0,0,1,49.781,41.8Z" transform="translate(0 0)" fill="#fff"/>
    <path id="Path_1022" data-name="Path 1022" d="M77.534,36.582H64.117V8.682a.846.846,0,0,0-.846-.846H59.332a.847.847,0,0,0-.847.846v32.03a.846.846,0,0,0,.847.846H77.521a.846.846,0,0,0,.847-.846V37.429a.835.835,0,0,0-.834-.846" transform="translate(6.138 0.822)" fill="#fff"/>
    <path id="Path_1023" data-name="Path 1023" d="M128.489,18.158a12.21,12.21,0,0,0-9.248-3.925c-3.694,0-7.529,1.308-9.235,4.156V15.669a.846.846,0,0,0-.848-.846h-3.668a.845.845,0,0,0-.846.846V48.084a.847.847,0,0,0,.846.847h3.668a.847.847,0,0,0,.848-.847V37.322c1.411,2.579,5.836,4.157,9.235,4.157a12.8,12.8,0,0,0,9.248-3.874,13.42,13.42,0,0,0,3.784-9.749A13.186,13.186,0,0,0,128.489,18.158ZM124.5,34.179a8.179,8.179,0,0,1-6.119,2.54,8.829,8.829,0,0,1-6.324-2.54,8.626,8.626,0,0,1-2.539-6.324,8.674,8.674,0,0,1,2.539-6.337,8.781,8.781,0,0,1,6.324-2.527,8.119,8.119,0,0,1,6.106,2.539,8.615,8.615,0,0,1,2.489,6.325,8.6,8.6,0,0,1-2.476,6.324" transform="translate(10.982 1.494)" fill="#fff"/>
    <path id="Path_1024" data-name="Path 1024" d="M157.018,18.037a14.831,14.831,0,0,0-20.241,0,13.169,13.169,0,0,0-4.144,9.838,13.171,13.171,0,0,0,4.144,9.838,14.834,14.834,0,0,0,20.241,0,13.175,13.175,0,0,0,4.144-9.838,13.173,13.173,0,0,0-4.144-9.838m-3.746,16.329a8.7,8.7,0,0,1-6.376,2.591,8.851,8.851,0,0,1-6.452-2.6,9.084,9.084,0,0,1-2.527-6.477,8.892,8.892,0,0,1,2.527-6.426,9.071,9.071,0,0,1,12.814-.013,8.782,8.782,0,0,1,2.591,6.44A8.856,8.856,0,0,1,153.272,34.366Z" transform="translate(13.919 1.474)" fill="#fff"/>
    <path id="Path_1025" data-name="Path 1025" d="M176.574,14.3c-.192-.013-.385-.013-.59-.013-3.592,0-7.427,1.552-8.646,4.26V15.664a.846.846,0,0,0-.846-.847h-3.618a.847.847,0,0,0-.846.847V40.036a.846.846,0,0,0,.846.846h3.618a.846.846,0,0,0,.846-.846V27.157c0-4.759,3.1-7.837,7.889-7.837s.821.013,1.232.052a.844.844,0,0,0,.91-.834V15.151a.828.828,0,0,0-.8-.846" transform="translate(17.004 1.5)" fill="#fff"/>
    <path id="Path_1026" data-name="Path 1026" d="M191.192,15.507h-6.157V8.682a.846.846,0,0,0-.847-.846h-3.668a.845.845,0,0,0-.846.846V33.657c0,5.823,2.694,8.658,8.222,8.658s2.053-.051,3.041-.154a.847.847,0,0,0,.757-.834v-3a.833.833,0,0,0-.9-.834c-.68.052-1.372.077-1.809.077-2.733,0-3.963-1.424-3.963-4.605V20.279h6.157a.847.847,0,0,0,.847-.847V16.353a.836.836,0,0,0-.834-.846" transform="translate(18.855 0.822)" fill="#fff"/>
    <path id="Path_1027" data-name="Path 1027" d="M214.8,33.507a7.252,7.252,0,0,1-2.617,5.785c-1.834,1.5-4.567,2.3-7.9,2.3s-8.414-1.655-10.236-4.528a.61.61,0,0,1,.116-.8l2.783-2.347a.556.556,0,0,1,.372-.141.7.7,0,0,1,.474.218,8.794,8.794,0,0,0,6.593,2.681c4.452,0,4.926-2.167,4.926-3.1a2.658,2.658,0,0,0-1.629-2.3,13.461,13.461,0,0,0-2.488-1.013c-.206-.064-.475-.154-.77-.244-.808-.256-1.8-.577-2.45-.846-4.4-1.578-6.286-3.72-6.286-7.158s.834-4.156,2.554-5.528a10.177,10.177,0,0,1,6.452-2.078,11.173,11.173,0,0,1,7.8,3.181.593.593,0,0,1-.025.808l-2.347,2.489a.605.605,0,0,1-.86.025,6.618,6.618,0,0,0-4.682-1.617c-1.95,0-3.425,1.039-3.425,2.591s.526,1.527,1.308,2.026a14.2,14.2,0,0,0,3.8,1.527c.552.167,1.116.334,1.667.526C212.746,27.645,214.8,29.9,214.8,33.507Z" transform="translate(20.353 1.512)" fill="#fff"/>
    <path id="Path_1028" data-name="Path 1028" d="M103.029,32.318c0,6.183-4.349,9.864-11.634,9.864S81.2,39.707,78.9,35.217a.611.611,0,0,1,.219-.782L82.3,32.421a.549.549,0,0,1,.32-.09.569.569,0,0,1,.5.282,9.04,9.04,0,0,0,8.325,4.567c3.72,0,5.99-1.244,5.99-4.72s-.615-2.746-2.052-3.695a19.328,19.328,0,0,0-5.015-2.386,22.356,22.356,0,0,1-6.8-3.592,7.945,7.945,0,0,1-2.783-6.529,7.89,7.89,0,0,1,2.937-6.49,10.918,10.918,0,0,1,7.338-2.488,11.407,11.407,0,0,1,9.786,4.734.6.6,0,0,1,.1.449.562.562,0,0,1-.256.4L97.73,14.911a.642.642,0,0,1-.346.1.684.684,0,0,1-.449-.2,7.077,7.077,0,0,0-5.785-2.515c-2.476,0-4.875,1.629-4.875,3.874s.206,1.565.681,2.219a6.913,6.913,0,0,0,3.078,2.092c.1.051.218.09.32.14.86.386,1.731.731,2.579,1.078a34.77,34.77,0,0,1,5.374,2.539,12.4,12.4,0,0,1,2.642,2.117,8.421,8.421,0,0,1,2.078,5.964" transform="translate(8.273 0.764)" fill="#fff"/>
  </g>
</svg>
