<?xml version="1.0" encoding="UTF-8"?>
<svg xmlns="http://www.w3.org/2000/svg" version="1.1" viewBox="0 0 19.2 19">
  <defs>
    <style>
      .cls-1 {
        fill: #231f20;
      }
    </style>
  </defs>
  <!-- Generator: Adobe Illustrator 28.6.0, SVG Export Plug-In . SVG Version: 1.2.0 Build 709)  -->
  <g>
    <g id="Layer_1">
      <g>
        <path class="cls-1" d="M17.4,16.6l-5.9-8.5-.7-1L6.7,1l-.3-.5H1.2l1.3,1.8,5.6,8.1.7,1,4.5,6.5.3.5h5.2l-1.3-1.8ZM14.1,17.3l-4.7-6.8-.7-1L3.4,1.7h2.3l4.4,6.4.7,1,5.7,8.3h-2.3Z"/>
        <polygon class="cls-1" points="8.8 9.6 9.5 10.5 8.7 11.4 2.6 18.5 1.1 18.5 8 10.5 8.8 9.6"/>
        <polygon class="cls-1" points="18 .5 11.5 8.1 10.7 9 10.1 8.1 10.9 7.1 15.3 2 16.6 .5 18 .5"/>
      </g>
    </g>
  </g>
</svg>